<svg width="19" height="21" viewBox="0 0 19 21" fill="none" xmlns="http://www.w3.org/2000/svg">
<path fill-rule="evenodd" clip-rule="evenodd" d="M7.10258 2.5C3.46008 2.5 0.5 5.44146 0.5 9.07886C0.5 12.7163 3.46008 15.6577 7.10258 15.6577C8.34059 15.6577 9.49977 15.3179 10.4907 14.7265L14.3993 18.6185C14.9863 19.2031 15.936 19.2011 16.5206 18.614C17.1051 18.027 17.1031 17.0773 16.5161 16.4927L12.652 12.645C13.3182 11.618 13.7052 10.3939 13.7052 9.07886C13.7052 5.44146 10.7451 2.5 7.10258 2.5ZM2.5 9.07886C2.5 6.55402 4.55664 4.5 7.10258 4.5C9.64852 4.5 11.7052 6.55402 11.7052 9.07886C11.7052 11.6037 9.64852 13.6577 7.10258 13.6577C4.55664 13.6577 2.5 11.6037 2.5 9.07886Z" fill="#222834"/>
</svg>
