<svg width="48" height="48" viewBox="0 0 48 48" fill="none" xmlns="http://www.w3.org/2000/svg">
<path d="M24.0002 32.0001C21.3492 32.0001 19.2002 34.1491 19.2002 36.8001C19.2002 39.4511 21.3492 41.6001 24.0002 41.6001C26.6501 41.5975 28.7976 39.45 28.8002 36.8001C28.8002 34.1491 26.6512 32.0001 24.0002 32.0001ZM24.0002 40.0001C22.2329 40.0001 20.8002 38.5674 20.8002 36.8001C20.8002 35.0328 22.2329 33.6001 24.0002 33.6001C25.7675 33.6001 27.2002 35.0328 27.2002 36.8001C27.2002 38.5674 25.7675 40.0001 24.0002 40.0001Z" fill="#FFD362"/>
<path d="M27.2 6.40009H20.8C20.3582 6.40009 20 6.75829 20 7.20009V29.6001C20 30.0419 20.3582 30.4001 20.8 30.4001H27.2C27.6418 30.4001 28 30.0419 28 29.6001V7.20009C28 6.75829 27.6418 6.40009 27.2 6.40009ZM26.4 28.8001H21.6V8.00009H26.4V28.8001Z" fill="#FFD362"/>
<path d="M24.8002 0H23.2002V4.8H24.8002V0Z" fill="#FFD362"/>
<path d="M18.5613 0.606483L17.0156 1.02094L18.259 5.65783L19.8046 5.24338L18.5613 0.606483Z" fill="#FFD362"/>
<path d="M12.6934 2.81552L11.3076 3.61536L13.7071 7.77264L15.0929 6.9728L12.6934 2.81552Z" fill="#FFD362"/>
<path d="M7.59425 6.46306L6.46289 7.59442L9.85697 10.9885L10.9883 9.85714L7.59425 6.46306Z" fill="#FFD362"/>
<path d="M3.61543 11.307L2.81543 12.6926L6.97223 15.0926L7.77223 13.707L3.61543 11.307Z" fill="#FFD362"/>
<path d="M1.02361 17.0114L0.609375 18.5569L5.24492 19.7994L5.65916 18.254L1.02361 17.0114Z" fill="#FFD362"/>
<path d="M4.8 23.2H0V24.8H4.8V23.2Z" fill="#FFD362"/>
<path d="M5.2459 28.1964L0.610352 29.4384L1.02443 30.9838L5.65998 29.7418L5.2459 28.1964Z" fill="#FFD362"/>
<path d="M6.97271 32.9089L2.81543 35.3084L3.61527 36.6942L7.77255 34.2947L6.97271 32.9089Z" fill="#FFD362"/>
<path d="M9.85404 37.0081L6.45996 40.4022L7.59132 41.5335L10.9854 38.1394L9.85404 37.0081Z" fill="#FFD362"/>
<path d="M13.7052 40.2248L11.3057 44.3821L12.6914 45.1819L15.0909 41.0246L13.7052 40.2248Z" fill="#FFD362"/>
<path d="M18.2668 42.3496L17.0234 46.9865L18.5691 47.4009L19.8124 42.764L18.2668 42.3496Z" fill="#FFD362"/>
<path d="M24.8002 43.1998H23.2002V47.9998H24.8002V43.1998Z" fill="#FFD362"/>
<path d="M29.7546 42.336L28.209 42.7505L29.4523 47.3874L30.998 46.9729L29.7546 42.336Z" fill="#FFD362"/>
<path d="M34.2909 40.2245L32.9053 41.0245L35.3053 45.1813L36.6909 44.3813L34.2909 40.2245Z" fill="#FFD362"/>
<path d="M38.1421 37.0099L37.0107 38.1413L40.4048 41.5354L41.5362 40.404L38.1421 37.0099Z" fill="#FFD362"/>
<path d="M41.0246 32.9082L40.2246 34.2938L44.3814 36.6938L45.1814 35.3082L41.0246 32.9082Z" fill="#FFD362"/>
<path d="M42.7541 28.1967L42.3398 29.7422L46.9754 30.9847L47.3896 29.4393L42.7541 28.1967Z" fill="#FFD362"/>
<path d="M48.0002 23.2H43.2002V24.8H48.0002V23.2Z" fill="#FFD362"/>
<path d="M46.9744 17.0133L42.3389 18.2559L42.7531 19.8013L47.3887 18.5588L46.9744 17.0133Z" fill="#FFD362"/>
<path d="M44.3848 11.3064L40.2275 13.7059L41.0274 15.0916L45.1847 12.6921L44.3848 11.3064Z" fill="#FFD362"/>
<path d="M40.4048 6.46719L37.0107 9.86127L38.1421 10.9926L41.5362 7.59855L40.4048 6.46719Z" fill="#FFD362"/>
<path d="M35.3072 2.81665L32.9072 6.97345L34.2928 7.77345L36.6928 3.61665L35.3072 2.81665Z" fill="#FFD362"/>
<path d="M29.4475 0.610351L28.2041 5.24725L29.7497 5.66171L30.9931 1.0248L29.4475 0.610351Z" fill="#FFD362"/>
</svg>
