<svg width="33" height="33" viewBox="0 0 33 33" fill="none" xmlns="http://www.w3.org/2000/svg">
<path fill-rule="evenodd" clip-rule="evenodd" d="M15.6135 21.6722L8.30884 14.3676C7.80396 13.8627 7.80396 13.0463 8.30884 12.5468L9.52271 11.3329C10.0276 10.828 10.844 10.828 11.3435 11.3329L16.5212 16.5106L21.699 11.3329C22.2039 10.828 23.0203 10.828 23.5198 11.3329L24.7336 12.5468C25.2385 13.0516 25.2385 13.868 24.7336 14.3676L17.429 21.6722C16.9348 22.1771 16.1184 22.1771 15.6135 21.6722Z" fill="white"/>
<mask id="mask0" mask-type="alpha" maskUnits="userSpaceOnUse" x="7" y="10" width="19" height="13">
<path fill-rule="evenodd" clip-rule="evenodd" d="M15.6135 21.6722L8.30884 14.3676C7.80396 13.8627 7.80396 13.0463 8.30884 12.5468L9.52271 11.3329C10.0276 10.828 10.844 10.828 11.3435 11.3329L16.5212 16.5106L21.699 11.3329C22.2039 10.828 23.0203 10.828 23.5198 11.3329L24.7336 12.5468C25.2385 13.0516 25.2385 13.868 24.7336 14.3676L17.429 21.6722C16.9348 22.1771 16.1184 22.1771 15.6135 21.6722Z" fill="white"/>
</mask>
<g mask="url(#mask0)">
<rect width="33" height="33" fill="#AAAAAA"/>
</g>
</svg>
