<svg width="34" height="34" viewBox="0 0 34 34" fill="none" xmlns="http://www.w3.org/2000/svg">
<path fill-rule="evenodd" clip-rule="evenodd" d="M16.0871 22.3289L8.56104 14.8029C8.04085 14.2827 8.04085 13.4416 8.56104 12.9269L9.81169 11.6763C10.3319 11.1561 11.173 11.1561 11.6877 11.6763L17.0223 17.0109L22.3569 11.6763C22.8771 11.1561 23.7183 11.1561 24.2329 11.6763L25.4836 12.9269C26.0037 13.4471 26.0037 14.2882 25.4836 14.8029L17.9575 22.3289C17.4484 22.8491 16.6073 22.8491 16.0871 22.3289Z" fill="#303030"/>
<mask id="mask0" mask-type="alpha" maskUnits="userSpaceOnUse" x="8" y="11" width="18" height="12">
<path fill-rule="evenodd" clip-rule="evenodd" d="M16.0871 22.3289L8.56104 14.8029C8.04085 14.2827 8.04085 13.4416 8.56104 12.9269L9.81169 11.6763C10.3319 11.1561 11.173 11.1561 11.6877 11.6763L17.0223 17.0109L22.3569 11.6763C22.8771 11.1561 23.7183 11.1561 24.2329 11.6763L25.4836 12.9269C26.0037 13.4471 26.0037 14.2882 25.4836 14.8029L17.9575 22.3289C17.4484 22.8491 16.6073 22.8491 16.0871 22.3289Z" fill="white"/>
</mask>
<g mask="url(#mask0)">
<rect width="34" height="34" fill="#303030"/>
</g>
</svg>
