<svg width="22" height="19" viewBox="0 0 22 19" fill="none" xmlns="http://www.w3.org/2000/svg">
<path fill-rule="evenodd" clip-rule="evenodd" d="M0.84375 2.52H21.1562C21.5877 2.52 21.9375 2.26929 21.9375 1.96V0.56C21.9375 0.250705 21.5877 0 21.1562 0H0.84375C0.412256 0 0.0625 0.250705 0.0625 0.56V1.96C0.0625 2.26929 0.412256 2.52 0.84375 2.52ZM0.84375 10.3325H21.1562C21.5877 10.3325 21.9375 10.0818 21.9375 9.7725V8.3725C21.9375 8.0632 21.5877 7.8125 21.1562 7.8125H0.84375C0.412256 7.8125 0.0625 8.0632 0.0625 8.3725V9.7725C0.0625 10.0818 0.412256 10.3325 0.84375 10.3325ZM21.1562 18.145H0.84375C0.412256 18.145 0.0625 17.8943 0.0625 17.585V16.185C0.0625 15.8757 0.412256 15.625 0.84375 15.625H21.1562C21.5877 15.625 21.9375 15.8757 21.9375 16.185V17.585C21.9375 17.8943 21.5877 18.145 21.1562 18.145Z" fill="#303030"/>
</svg>
