<svg width="16" height="16" viewBox="0 0 16 16" fill="none" xmlns="http://www.w3.org/2000/svg">
<mask id="mask0" mask-type="alpha" maskUnits="userSpaceOnUse" x="2" y="1" width="12" height="14">
<path fill-rule="evenodd" clip-rule="evenodd" d="M2.47852 5.49967H13.5202C13.6921 5.49967 13.8327 5.35905 13.8327 5.18717V4.24967C13.8327 3.55957 13.2728 2.99967 12.5827 2.99967H11.3327V1.64551C11.3327 1.47363 11.1921 1.33301 11.0202 1.33301H9.97852C9.80664 1.33301 9.66602 1.47363 9.66602 1.64551V2.99967H6.33268V1.64551C6.33268 1.47363 6.19206 1.33301 6.02018 1.33301H4.97852C4.80664 1.33301 4.66602 1.47363 4.66602 1.64551V2.99967H3.41602C2.72591 2.99967 2.16602 3.55957 2.16602 4.24967V5.18717C2.16602 5.35905 2.30664 5.49967 2.47852 5.49967ZM13.5202 6.33301H2.47852C2.30664 6.33301 2.16602 6.47363 2.16602 6.64551V13.4163C2.16602 14.1064 2.72591 14.6663 3.41602 14.6663H12.5827C13.2728 14.6663 13.8327 14.1064 13.8327 13.4163V6.64551C13.8327 6.47363 13.6921 6.33301 13.5202 6.33301ZM5.49935 11.6455C5.49935 11.4736 5.35872 11.333 5.18685 11.333H4.14518C3.97331 11.333 3.83268 11.4736 3.83268 11.6455V12.6872C3.83268 12.859 3.97331 12.9997 4.14518 12.9997H5.18685C5.35872 12.9997 5.49935 12.859 5.49935 12.6872V11.6455ZM5.18685 7.99967C5.35872 7.99967 5.49935 8.1403 5.49935 8.31217V9.35384C5.49935 9.52572 5.35872 9.66634 5.18685 9.66634H4.14518C3.97331 9.66634 3.83268 9.52572 3.83268 9.35384V8.31217C3.83268 8.1403 3.97331 7.99967 4.14518 7.99967H5.18685ZM8.83268 11.6455C8.83268 11.4736 8.69206 11.333 8.52018 11.333H7.47852C7.30664 11.333 7.16602 11.4736 7.16602 11.6455V12.6872C7.16602 12.859 7.30664 12.9997 7.47852 12.9997H8.52018C8.69206 12.9997 8.83268 12.859 8.83268 12.6872V11.6455ZM8.52018 7.99967C8.69206 7.99967 8.83268 8.1403 8.83268 8.31217V9.35384C8.83268 9.52572 8.69206 9.66634 8.52018 9.66634H7.47852C7.30664 9.66634 7.16602 9.52572 7.16602 9.35384V8.31217C7.16602 8.1403 7.30664 7.99967 7.47852 7.99967H8.52018ZM12.166 11.6455C12.166 11.4736 12.0254 11.333 11.8535 11.333H10.8118C10.64 11.333 10.4993 11.4736 10.4993 11.6455V12.6872C10.4993 12.859 10.64 12.9997 10.8118 12.9997H11.8535C12.0254 12.9997 12.166 12.859 12.166 12.6872V11.6455ZM11.8535 7.99967C12.0254 7.99967 12.166 8.1403 12.166 8.31217V9.35384C12.166 9.52572 12.0254 9.66634 11.8535 9.66634H10.8118C10.64 9.66634 10.4993 9.52572 10.4993 9.35384V8.31217C10.4993 8.1403 10.64 7.99967 10.8118 7.99967H11.8535Z" fill="white"/>
</mask>
<g mask="url(#mask0)">
<rect width="16" height="16" fill="#FFD362"/>
</g>
</svg>
