<svg width="38" height="38" viewBox="0 0 38 38" fill="none" xmlns="http://www.w3.org/2000/svg">
<path d="M32.8542 25.3942V26.3077C32.8542 26.5599 31.968 26.7644 30.875 26.7644H7.12499C6.03194 26.7644 5.14583 26.5599 5.14583 26.3077V25.3942C5.14583 25.142 6.03194 24.9375 7.12499 24.9375L19 24.9375L30.875 24.9375C31.968 24.9375 32.8542 25.142 32.8542 25.3942Z" fill="#FFD362"/>
<path d="M32.8551 28.6833V29.5968C32.8551 29.849 31.969 30.0535 30.876 30.0535H7.12596C6.0329 30.0535 5.14679 29.849 5.14679 29.5968V28.6833C5.14679 28.431 6.0329 28.2266 7.12596 28.2266L19.001 28.2266L30.876 28.2266C31.969 28.2266 32.8551 28.431 32.8551 28.6833Z" fill="#FFD362"/>
<path d="M32.8551 31.9704V32.8839C32.8551 33.1361 31.969 33.3406 30.876 33.3406H7.12596C6.0329 33.3406 5.14679 33.1361 5.14679 32.8839V31.9704C5.14679 31.7182 6.0329 31.5137 7.12596 31.5137L19.001 31.5137L30.876 31.5137C31.969 31.5137 32.8551 31.7182 32.8551 31.9704Z" fill="#FFD362"/>
<path d="M32.1042 9.50065V18.209C32.1042 19.3295 31.8962 20.3076 31.5917 20.9775C31.2704 21.6844 30.9724 21.8039 30.8851 21.8126L30.8327 21.8098L30.5941 21.7972C30.3865 21.7863 30.085 21.7708 29.7087 21.7522C28.9562 21.715 27.9045 21.6655 26.7076 21.6159C24.3166 21.5168 21.335 21.4173 19 21.4173C16.665 21.4173 13.6834 21.5168 11.2924 21.6159C10.0954 21.6655 9.04379 21.715 8.2913 21.7522C7.91503 21.7708 7.61347 21.7863 7.40587 21.7972L7.1673 21.8098L7.11484 21.8126C7.0276 21.8039 6.72961 21.6844 6.40829 20.9775C6.1038 20.3076 5.89583 19.3295 5.89583 18.209V9.50065C5.89583 8.38015 6.1038 7.40204 6.40829 6.73215C6.72956 6.02535 7.02751 5.90579 7.1148 5.89704L7.16693 5.89985L7.40481 5.91246C7.61183 5.92332 7.91258 5.93882 8.28796 5.95741C9.03866 5.9946 10.0882 6.04418 11.2837 6.09376C13.6719 6.1928 16.6534 6.29232 19 6.29232C21.3466 6.29232 24.3281 6.1928 26.7163 6.09376C27.9118 6.04418 28.9613 5.9946 29.712 5.95741C30.0874 5.93882 30.3882 5.92332 30.5952 5.91246L30.8331 5.89985L30.8852 5.89704C30.9725 5.90579 31.2704 6.02535 31.5917 6.73215C31.8962 7.40204 32.1042 8.38015 32.1042 9.50065Z" stroke="#FFD362" stroke-width="1.5"/>
</svg>
