<svg width="26" height="26" viewBox="0 0 26 26" fill="none" xmlns="http://www.w3.org/2000/svg">
<mask id="mask0" mask-type="alpha" maskUnits="userSpaceOnUse" x="2" y="2" width="22" height="22">
<path fill-rule="evenodd" clip-rule="evenodd" d="M12.9997 2.50488C7.20215 2.50488 2.50488 7.20215 2.50488 12.9997C2.50488 18.7972 7.20215 23.4945 12.9997 23.4945C18.7972 23.4945 23.4945 18.7972 23.4945 12.9997C23.4945 7.20215 18.7972 2.50488 12.9997 2.50488ZM12.9997 21.4632C8.32357 21.4632 4.53613 17.6758 4.53613 12.9997C4.53613 8.32357 8.32357 4.53613 12.9997 4.53613C17.6758 4.53613 21.4632 8.32357 21.4632 12.9997C21.4632 17.6758 17.6758 21.4632 12.9997 21.4632ZM12.0221 14.4342L15.6149 17.0452C15.8434 17.2103 16.1608 17.1595 16.3258 16.9352L17.1214 15.8392C17.2865 15.6107 17.2399 15.2933 17.0114 15.1283L14.1846 13.0716V7.0752C14.1846 6.7959 13.9561 6.56738 13.6768 6.56738H12.3226C12.0433 6.56738 11.8148 6.7959 11.8148 7.0752V14.0238C11.8148 14.1846 11.891 14.3369 12.0221 14.4342Z" fill="white"/>
</mask>
<g mask="url(#mask0)">
<rect width="26" height="26" fill="#FFD362"/>
</g>
</svg>
