<svg width="40" height="40" viewBox="0 0 40 40" fill="none" xmlns="http://www.w3.org/2000/svg">
<path d="M27.2741 25.085C27.1493 24.7388 26.7675 24.5592 26.4213 24.684C26.075 24.8088 25.8955 25.1907 26.0203 25.5369C26.0234 25.5454 26.0266 25.5538 26.03 25.5622C26.6378 27.1482 26.6818 28.3611 26.15 28.8942C25.5049 29.538 23.8982 29.3367 21.851 28.3571C19.1102 26.934 16.6189 25.0749 14.4745 22.8526C9.25456 17.6319 7.10073 12.5093 8.43288 11.1771C8.85797 10.8414 9.4105 10.7125 9.94029 10.8253C10.3073 10.8523 10.6268 10.5765 10.6538 10.2095C10.6798 9.85473 10.4227 9.54202 10.0696 9.49912C9.14302 9.33518 8.19239 9.60533 7.49058 10.2322C5.04887 12.6732 8.78141 19.0407 13.5322 23.7922C15.7831 26.1215 18.3986 28.0683 21.2759 29.556C21.7969 29.8055 22.3339 30.0203 22.8833 30.1991L18.1484 31.9944C11.8259 29.5906 7.27442 23.9855 6.21974 17.3041C6.16268 16.9405 5.82165 16.6919 5.45804 16.749C5.09443 16.806 4.84586 17.1471 4.90292 17.5107C5.00755 18.1771 5.14749 18.8435 5.31876 19.4952C6.85333 25.3095 10.8952 30.1397 16.3478 32.6754L8.55483 35.6243C8.5191 35.5646 8.47412 35.5112 8.42155 35.4657C6.44099 33.8755 5.19831 31.5435 4.98289 29.0128L4.67368 25.2683C4.64936 24.9055 4.33548 24.6311 3.97262 24.6555C3.96571 24.656 3.95879 24.6565 3.95196 24.6572C3.5851 24.6864 3.31129 25.0075 3.34045 25.3743C3.34053 25.3758 3.3407 25.3774 3.34087 25.3789L3.65541 29.1221C3.88965 31.8272 5.15149 34.3395 7.18137 36.1427L1.6222 38.2473L2.62181 34.1448C2.70903 33.7871 2.48978 33.4264 2.132 33.3392C1.77423 33.2519 1.41353 33.4712 1.32632 33.829L0.0261562 39.1602C-0.0614763 39.5177 0.157272 39.8785 0.514799 39.9661C0.645915 39.9982 0.783611 39.9897 0.909812 39.9419L25.5669 30.6122C25.6061 30.5931 25.6432 30.5698 25.6775 30.5429C26.2111 30.461 26.7058 30.2142 27.0923 29.8372C27.7526 29.1768 28.3211 27.8153 27.2741 25.085Z" fill="#FFD362"/>
<path d="M33.5628 23.3662C29.9603 22.0175 26.0666 21.6394 22.2719 22.2699L19.8908 22.6698C19.5294 22.7392 19.2927 23.0885 19.3622 23.45C19.4293 23.7992 19.7588 24.0342 20.1107 23.9839L22.4912 23.5874C26.0549 22.9949 29.7119 23.3503 33.095 24.6177C33.1701 24.6443 33.2493 24.6576 33.3289 24.657C33.697 24.6576 33.9958 24.3598 33.9964 23.9917C33.9969 23.713 33.824 23.4635 33.5628 23.3662Z" fill="#FFD362"/>
<path d="M35.932 13.0417C35.7737 12.7094 35.376 12.5683 35.0436 12.7265L21.0491 19.3906C20.7168 19.5488 20.5756 19.9464 20.7338 20.2788C20.7338 20.2788 20.7339 20.2789 20.7339 20.2789C20.8921 20.6112 21.2897 20.7524 21.622 20.5942C21.6221 20.5942 21.6221 20.5941 21.6222 20.5941L35.6167 13.9301C35.9491 13.7718 36.0902 13.3741 35.932 13.0417Z" fill="#FFD362"/>
<path d="M16.1919 4.52263C16.1186 4.16194 15.7668 3.92895 15.4061 4.00225C15.0454 4.07556 14.8124 4.42733 14.8857 4.78803C14.8873 4.79602 14.8892 4.80394 14.8911 4.81185C15.7346 8.5803 15.387 12.5178 13.8961 16.0801L12.9272 18.4052C12.7871 18.744 12.947 19.1323 13.285 19.2742C13.366 19.3083 13.4531 19.3257 13.5409 19.3255C13.8099 19.3255 14.0525 19.1639 14.156 18.9157L15.1256 16.5933C16.7229 12.7773 17.0955 8.55947 16.1919 4.52263Z" fill="#FFD362"/>
<path d="M36.6613 23.9907C35.5572 23.9907 34.6621 24.8858 34.6621 25.9899C34.6621 27.0941 35.5572 27.9892 36.6613 27.9892C37.7655 27.9892 38.6605 27.0941 38.6605 25.9899C38.6605 24.8858 37.7655 23.9907 36.6613 23.9907ZM36.6613 26.6563C36.2933 26.6563 35.9949 26.358 35.9949 25.9899C35.9949 25.6219 36.2933 25.3235 36.6613 25.3235C37.0294 25.3235 37.3277 25.6219 37.3277 25.9899C37.3277 26.358 37.0294 26.6563 36.6613 26.6563Z" fill="#FFD362"/>
<path d="M20.6672 5.33105C19.563 5.33105 18.668 6.22612 18.668 7.33028C18.668 8.43443 19.563 9.3295 20.6672 9.3295C21.7713 9.3295 22.6664 8.43443 22.6664 7.33028C22.6664 6.22612 21.7713 5.33105 20.6672 5.33105ZM20.6672 7.99668C20.2992 7.99668 20.0008 7.6983 20.0008 7.33028C20.0008 6.96225 20.2992 6.66387 20.6672 6.66387C21.0352 6.66387 21.3336 6.96225 21.3336 7.33028C21.3336 7.6983 21.0352 7.99668 20.6672 7.99668Z" fill="#FFD362"/>
<path d="M14.6697 2.66563C15.4058 2.66563 16.0025 2.06891 16.0025 1.33281C16.0025 0.596721 15.4058 0 14.6697 0C13.9336 0 13.3369 0.596721 13.3369 1.33281C13.3369 2.06891 13.9336 2.66563 14.6697 2.66563Z" fill="#FFD362"/>
<path d="M33.329 3.33203C32.961 3.33203 32.6626 3.63042 32.6626 3.99844V4.66485C32.6626 5.03287 32.961 5.33125 33.329 5.33125C33.697 5.33125 33.9954 5.03287 33.9954 4.66485V3.99844C33.9954 3.63042 33.697 3.33203 33.329 3.33203Z" fill="#FFD362"/>
<path d="M33.329 0C32.961 0 32.6626 0.298384 32.6626 0.666407V1.33281C32.6626 1.70084 32.961 1.99922 33.329 1.99922C33.697 1.99922 33.9954 1.70084 33.9954 1.33281V0.666407C33.9954 0.298384 33.697 0 33.329 0Z" fill="#FFD362"/>
<path d="M35.3284 1.99902H34.662C34.294 1.99902 33.9956 2.29741 33.9956 2.66543C33.9956 3.03345 34.294 3.33184 34.662 3.33184H35.3284C35.6964 3.33184 35.9948 3.03345 35.9948 2.66543C35.9948 2.29741 35.6964 1.99902 35.3284 1.99902Z" fill="#FFD362"/>
<path d="M31.9964 1.99902H31.33C30.962 1.99902 30.6636 2.29741 30.6636 2.66543C30.6636 3.03345 30.962 3.33184 31.33 3.33184H31.9964C32.3644 3.33184 32.6628 3.03345 32.6628 2.66543C32.6628 2.29741 32.3644 1.99902 31.9964 1.99902Z" fill="#FFD362"/>
<path d="M28.6643 7.31641H25.3183C24.9502 7.31641 24.6519 7.61479 24.6519 7.98281V11.3288C24.6519 11.6969 24.9502 11.9952 25.3183 11.9952H28.6643C29.0323 11.9952 29.3307 11.6969 29.3307 11.3288V7.98281C29.3307 7.61479 29.0323 7.31641 28.6643 7.31641ZM27.9979 10.6624H25.9847V8.64922H27.9979V10.6624Z" fill="#FFD362"/>
<path d="M23.8093 12.8812C23.5646 12.6201 23.1575 12.5988 22.8869 12.8329L16.2228 18.8306C15.9495 19.0768 15.9274 19.4981 16.1735 19.7715C16.4198 20.0449 16.841 20.067 17.1145 19.8209L23.7786 13.8232C24.0472 13.5715 24.0609 13.1499 23.8093 12.8812Z" fill="#FFD362"/>
<path d="M35.9945 15.3271C35.6265 15.3271 35.3281 15.6255 35.3281 15.9936V16.66C35.3281 17.028 35.6265 17.3264 35.9945 17.3264C36.3626 17.3264 36.6609 17.028 36.6609 16.66V15.9936C36.6609 15.6255 36.3626 15.3271 35.9945 15.3271Z" fill="#FFD362"/>
<path d="M38.8222 15.2129L38.351 14.7418C38.0863 14.4861 37.6645 14.4934 37.4087 14.7581C37.1593 15.0164 37.1593 15.4258 37.4087 15.6841L37.8799 16.1553C38.1446 16.411 38.5664 16.4037 38.8222 16.1389C39.0717 15.8806 39.0717 15.4712 38.8222 15.2129Z" fill="#FFD362"/>
<path d="M39.327 12.6616H38.6605C38.2925 12.6616 37.9941 12.96 37.9941 13.328C37.9941 13.6961 38.2925 13.9944 38.6605 13.9944H39.327C39.695 13.9944 39.9934 13.6961 39.9934 13.328C39.9934 12.96 39.695 12.6616 39.327 12.6616Z" fill="#FFD362"/>
<path d="M38.8056 10.501C38.5474 10.2516 38.138 10.2516 37.8797 10.501L37.4085 10.9722C37.1483 11.2325 37.1484 11.6544 37.4087 11.9146C37.5336 12.0395 37.7031 12.1097 37.8797 12.1097C38.0564 12.1097 38.2259 12.0394 38.3508 11.9145L38.822 11.4433C39.0777 11.1786 39.0704 10.7567 38.8056 10.501Z" fill="#FFD362"/>
<path d="M35.9945 9.32959C35.6265 9.32959 35.3281 9.62797 35.3281 9.996V10.6624C35.3281 11.0304 35.6265 11.3288 35.9945 11.3288C36.3626 11.3288 36.6609 11.0304 36.6609 10.6624V9.996C36.6609 9.62797 36.3626 9.32959 35.9945 9.32959Z" fill="#FFD362"/>
<path d="M34.5805 10.9727L34.1093 10.5015C33.8446 10.2459 33.4228 10.2531 33.167 10.5179C32.9176 10.7761 32.9176 11.1855 33.167 11.4438L33.6382 11.915C33.9029 12.1707 34.3248 12.1634 34.5805 11.8987C34.83 11.6403 34.83 11.2309 34.5805 10.9727Z" fill="#FFD362"/>
<path d="M7.97288 2.88127C7.89441 2.6402 7.68591 2.4646 7.43509 2.42812L5.47919 2.14356L4.60686 0.371586C4.41243 0.0414646 3.98718 -0.0685759 3.65706 0.125848C3.5556 0.185575 3.47105 0.270125 3.41132 0.371586L2.535 2.14356L0.579094 2.42812C0.214819 2.48068 -0.0378323 2.81863 0.0147306 3.18291C0.0356391 3.32793 0.103779 3.46196 0.208572 3.56434L1.62335 4.9438L1.29015 6.89171C1.22618 7.25415 1.46808 7.59985 1.83052 7.66383C1.97647 7.68957 2.12674 7.66599 2.25777 7.59677L4.00709 6.67446L5.75641 7.5941C6.0822 7.76537 6.48513 7.64017 6.65639 7.31438C6.72462 7.18468 6.74811 7.03616 6.72337 6.89171L6.39016 4.9438L7.80561 3.56434C7.98679 3.38699 8.0516 3.12226 7.97288 2.88127ZM5.20662 4.23408C5.04969 4.38694 4.97796 4.60719 5.0147 4.82318L5.17997 5.78614L4.31697 5.33099C4.12296 5.22911 3.89122 5.22911 3.69721 5.33099L2.83088 5.78548L2.99615 4.82252C3.03355 4.60735 2.96308 4.38744 2.80756 4.23408L2.10717 3.55235L3.07412 3.41173C3.2912 3.38025 3.47888 3.24388 3.57593 3.04721L4.00709 2.17222L4.43892 3.04721C4.53589 3.24372 4.72323 3.38 4.94006 3.41173L5.90635 3.55235L5.20662 4.23408Z" fill="#FFD362"/>
<path d="M37.7419 33.4038H37.7393L37.4647 32.9919C35.9252 30.6898 33.5044 29.1244 30.7733 28.665C30.409 28.613 30.0714 28.8662 30.0195 29.2306C29.9692 29.5826 30.2042 29.9121 30.5534 29.9791C32.5233 30.3135 34.3185 31.3143 35.6388 32.814C34.5288 33.0137 33.558 33.6803 32.9731 34.6446C32.2554 35.9301 32.7157 37.5538 34.0011 38.2716C35.2865 38.9893 36.9103 38.529 37.628 37.2436C37.9021 36.7144 38.0502 36.1289 38.0605 35.533C38.7695 36.5628 38.8263 37.9077 38.2064 38.9936C38.0187 39.3102 38.123 39.719 38.4396 39.9068C38.7561 40.0945 39.165 39.9901 39.3527 39.6736C39.3587 39.6634 39.3645 39.6532 39.37 39.6427C40.5902 37.4632 39.8715 34.7092 37.7419 33.4038ZM36.4658 36.5932C36.1101 37.2377 35.2993 37.4718 34.6549 37.1161C34.0105 36.7604 33.7763 35.9496 34.132 35.3052C34.134 35.3016 34.136 35.298 34.138 35.2944C34.5313 34.6505 35.1946 34.2188 35.9426 34.1202C36.0585 34.117 36.1732 34.1437 36.2759 34.1975C36.8383 34.5114 36.8683 35.8722 36.4658 36.5932Z" fill="#FFD362"/>
</svg>
