<svg width="24" height="24" viewBox="0 0 24 24" fill="none" xmlns="http://www.w3.org/2000/svg">
<path d="M12 1.28564C14.0369 1.28564 15.3644 2.343 15.7901 4.28524L21 4.28564C21.4734 4.28564 21.8571 4.6694 21.8571 5.14279C21.8571 5.61617 21.4734 5.99993 21 5.99993H20.0529L18.6709 19.1263C18.5331 20.435 17.4296 21.4285 16.1136 21.4285H7.88638C6.57043 21.4285 5.46684 20.435 5.32908 19.1263L3.94714 5.99993H3C2.52661 5.99993 2.14285 5.61617 2.14285 5.14279C2.14285 4.6694 2.52661 4.28564 3 4.28564L8.20993 4.28524C8.63555 2.343 9.96312 1.28564 12 1.28564ZM18.3283 5.99993H5.67085L7.03395 18.9468C7.07987 19.383 7.44773 19.7142 7.88638 19.7142H16.1136C16.5523 19.7142 16.9201 19.383 16.966 18.9468L18.3283 5.99993ZM12 7.71422C12.4734 7.71422 12.8571 8.09797 12.8571 8.57136V17.1428C12.8571 17.6162 12.4734 17.9999 12 17.9999C11.5266 17.9999 11.1429 17.6162 11.1429 17.1428V8.57136C11.1429 8.09797 11.5266 7.71422 12 7.71422ZM15.4714 7.71528C15.9442 7.73892 16.3083 8.14137 16.2846 8.61416L15.8561 17.1856C15.8324 17.6584 15.43 18.0225 14.9572 17.9989C14.4844 17.9752 14.1203 17.5728 14.1439 17.1L14.5725 8.52855C14.5961 8.05576 14.9986 7.69165 15.4714 7.71528ZM8.52862 7.71528C9.00142 7.69165 9.40386 8.05576 9.4275 8.52855L9.85607 17.1C9.87971 17.5728 9.5156 17.9752 9.0428 17.9989C8.57 18.0225 8.16756 17.6584 8.14392 17.1856L7.71535 8.61416C7.69171 8.14137 8.05583 7.73892 8.52862 7.71528ZM12 2.99993C10.9142 2.99993 10.286 3.38917 9.98385 4.28527H14.0161C13.714 3.38917 13.0857 2.99993 12 2.99993Z" fill="#303030"/>
</svg>
