<svg width="16" height="16" viewBox="0 0 16 16" fill="none" xmlns="http://www.w3.org/2000/svg">
<mask id="mask0" mask-type="alpha" maskUnits="userSpaceOnUse" x="6" y="1" width="4" height="14">
<path fill-rule="evenodd" clip-rule="evenodd" d="M8 1.54199C9.03646 1.54199 9.875 2.38053 9.875 3.41699C9.875 4.45345 9.03646 5.29199 8 5.29199C6.96354 5.29199 6.125 4.45345 6.125 3.41699C6.125 2.38053 6.96354 1.54199 8 1.54199ZM8 9.87533C6.96354 9.87533 6.125 9.03678 6.125 8.00033C6.125 6.96387 6.96354 6.12533 8 6.12533C9.03646 6.12533 9.875 6.96387 9.875 8.00033C9.875 9.03678 9.03646 9.87533 8 9.87533ZM9.875 12.5837C9.875 11.5472 9.03646 10.7087 8 10.7087C6.96354 10.7087 6.125 11.5472 6.125 12.5837C6.125 13.6201 6.96354 14.4587 8 14.4587C9.03646 14.4587 9.875 13.6201 9.875 12.5837Z" fill="white"/>
</mask>
<g mask="url(#mask0)">
<rect x="16" width="16" height="16" transform="rotate(90 16 0)" fill="black"/>
</g>
</svg>
