<svg width="304" height="304" viewBox="0 0 304 304" fill="none" xmlns="http://www.w3.org/2000/svg">
<g clip-path="url(#clip0)">
<path d="M5.06666 0.00195312C2.2686 0.00195312 0 2.27055 0 5.06861V152.002C0 154.8 2.2686 157.068 5.06666 157.068H55.7332C58.5313 157.069 60.7999 154.8 60.8005 152.002C60.8005 151.762 60.7834 151.521 60.7492 151.282C60.5364 149.803 60.1665 148.379 59.8473 146.935H244.152C243.833 148.379 243.463 149.803 243.25 151.282C242.853 154.052 244.776 156.619 247.546 157.017C247.785 157.051 248.025 157.068 248.266 157.068H298.933C301.731 157.068 303.999 154.8 303.999 152.002V0.00195312H5.06666ZM248.935 10.1353L251.843 30.4728C255.375 55.0626 265.93 78.1102 282.243 96.846C256.714 80.7588 239.651 54.162 235.67 24.251L233.786 10.1353H248.935ZM55.0644 10.1353H70.2137L68.3289 24.251C64.3522 54.1531 47.3017 80.7448 21.7866 96.8359C38.0854 78.1007 48.631 55.0594 52.1562 30.4779L55.0644 10.1353ZM10.1333 10.1353H44.8247L42.1191 29.044C38.5984 53.7256 27.4093 76.6763 10.1333 94.6522V10.1353ZM10.1333 146.935V117.108C18.5674 124.907 23.8747 135.509 25.0647 146.935H10.1333ZM35.1829 146.935C34.1233 134.612 29.1016 122.964 20.8696 113.733C35.0055 119.826 45.5695 132.062 49.5367 146.935H35.1829ZM247.212 136.802H56.782C51.1029 123.07 40.5636 111.912 27.1775 105.459C55.25 87.752 74.0074 58.4908 78.3761 25.5886L80.4332 10.1353H223.566L225.623 25.5886C229.992 58.4902 248.749 87.752 276.822 105.459C263.434 111.912 252.893 123.069 247.212 136.802ZM254.463 146.935C258.429 132.061 268.993 119.825 283.13 113.733C274.898 122.964 269.876 134.612 268.816 146.935H254.463ZM293.866 146.935H278.935C280.125 135.509 285.432 124.907 293.866 117.108V146.935ZM293.866 94.6522C276.589 76.675 265.4 53.7224 261.88 29.039L259.175 10.1353H293.866V94.6522Z" fill="#AAAAAA"/>
<path d="M300.782 252.66C298.616 249.923 295.331 248.309 291.84 248.268H278.666V221.45C278.696 218.065 277.56 214.773 275.449 212.127C273.283 209.389 269.997 207.776 266.506 207.734H253.333V180.917C253.363 177.532 252.227 174.24 250.116 171.594C247.95 168.856 244.664 167.242 241.173 167.201H209.76C207.096 167.23 204.528 168.199 202.51 169.937C200.321 168.185 197.606 167.221 194.803 167.201H159.843C156.974 167.235 154.204 168.257 152 170.094C149.79 168.252 147.013 167.231 144.137 167.201H109.177C106.381 167.226 103.674 168.189 101.491 169.937C99.4721 168.199 96.904 167.23 94.2402 167.201H62.8269C59.3436 167.249 56.0661 168.862 53.9045 171.594C51.786 174.237 50.6429 177.53 50.6669 180.917V207.734H37.4936C34.0103 207.782 30.7328 209.395 28.5712 212.127C26.4527 214.77 25.3096 218.063 25.3337 221.45V248.268H12.1603C8.67702 248.315 5.39953 249.928 3.23797 252.66C1.11947 255.303 -0.0236942 258.596 0.000372375 261.983V304.001H304V298.934V261.983C304.03 258.598 302.893 255.307 300.782 252.66ZM207.733 180.917C207.71 179.87 208.038 178.846 208.666 178.008C208.917 177.637 209.315 177.392 209.76 177.334H241.173C241.61 177.398 242 177.642 242.247 178.008C242.875 178.846 243.203 179.87 243.18 180.917V207.734H235.093C232.429 207.763 229.861 208.732 227.843 210.47C225.655 208.719 222.94 207.755 220.136 207.734H207.733V180.917ZM157.067 180.917C157.051 179.923 157.401 178.958 158.05 178.206C158.503 177.671 159.162 177.354 159.864 177.334H194.823C195.525 177.354 196.184 177.671 196.637 178.206C197.286 178.958 197.636 179.923 197.62 180.917V207.734H185.197C182.321 207.764 179.543 208.786 177.333 210.627C175.124 208.786 172.346 207.764 169.47 207.734H157.067V180.917ZM106.4 180.917C106.384 179.923 106.735 178.958 107.383 178.206C107.837 177.671 108.496 177.354 109.197 177.334H144.157C144.858 177.354 145.517 177.671 145.971 178.206C146.619 178.958 146.969 179.923 146.954 180.917V207.734H134.53C131.654 207.764 128.876 208.786 126.667 210.627C124.457 208.786 121.679 207.764 118.803 207.734H106.4V180.917ZM60.8002 180.917C60.7768 179.87 61.1049 178.846 61.7325 178.008C61.9839 177.637 62.3823 177.392 62.8269 177.334H94.2402C94.6772 177.398 95.0673 177.642 95.3143 178.008C95.9419 178.846 96.27 179.87 96.2466 180.917V207.734H83.8637C81.0675 207.759 78.3606 208.722 76.1775 210.47C74.1541 208.727 71.5777 207.758 68.9069 207.734H60.8002V180.917ZM10.1337 293.868V261.983C10.1103 260.937 10.4383 259.913 11.0659 259.075C11.3174 258.704 11.7157 258.459 12.1603 258.401H43.5736C44.0106 258.464 44.4007 258.709 44.6477 259.075C45.2754 259.913 45.6034 260.937 45.58 261.983L45.6003 293.868H10.1337ZM43.5736 248.268H35.467V221.45C35.4435 220.404 35.7716 219.379 36.3992 218.542C36.6507 218.17 37.049 217.925 37.4936 217.868H68.9069C69.3439 217.931 69.734 218.176 69.981 218.542C70.6087 219.379 70.9367 220.404 70.9133 221.45V248.268H58.5304C55.7342 248.292 53.0274 249.256 50.8443 251.004C48.8201 249.261 46.2444 248.291 43.5736 248.268ZM96.2668 293.868H55.7336V261.983C55.7178 260.989 56.068 260.025 56.7165 259.272C57.17 258.737 57.8293 258.421 58.5304 258.401H93.4903C94.1914 258.421 94.8507 258.737 95.3042 259.272C95.9527 260.025 96.3029 260.989 96.2871 261.983L96.2668 293.868ZM93.47 248.268H81.0669V221.45C81.051 220.456 81.4013 219.492 82.0498 218.739C82.5033 218.204 83.1626 217.887 83.8637 217.868H118.824C119.525 217.887 120.184 218.204 120.637 218.739C121.286 219.492 121.636 220.456 121.62 221.45V248.268H109.197C106.321 248.297 103.543 249.319 101.333 251.161C99.1238 249.319 96.346 248.297 93.47 248.268ZM146.933 293.868H106.4V261.983C106.384 260.989 106.735 260.025 107.383 259.272C107.837 258.737 108.496 258.421 109.197 258.401H144.157C144.858 258.421 145.517 258.737 145.971 259.272C146.619 260.025 146.969 260.989 146.954 261.983L146.933 293.868ZM144.137 248.268H131.733V221.45C131.718 220.456 132.068 219.492 132.716 218.739C133.17 218.204 133.829 217.887 134.53 217.868H169.49C170.191 217.887 170.851 218.204 171.304 218.739C171.953 219.492 172.303 220.456 172.287 221.45V248.268H159.864C156.988 248.297 154.21 249.319 152 251.161C149.79 249.319 147.013 248.297 144.137 248.268ZM197.6 293.868H157.067V261.983C157.051 260.989 157.401 260.025 158.05 259.272C158.503 258.737 159.162 258.421 159.864 258.401H194.823C195.525 258.421 196.184 258.737 196.637 259.272C197.286 260.025 197.636 260.989 197.62 261.983L197.6 293.868ZM194.803 248.268H182.4V221.45C182.384 220.456 182.734 219.492 183.383 218.739C183.836 218.204 184.496 217.887 185.197 217.868H220.157C220.858 217.887 221.517 218.204 221.971 218.739C222.619 219.492 222.969 220.456 222.953 221.45V248.268H210.53C207.654 248.297 204.876 249.319 202.667 251.161C200.457 249.319 197.679 248.297 194.803 248.268ZM248.267 293.868H207.733V261.983C207.717 260.989 208.068 260.025 208.716 259.272C209.17 258.737 209.829 258.421 210.53 258.401H245.49C246.191 258.421 246.85 258.737 247.304 259.272C247.952 260.025 248.303 260.989 248.287 261.983L248.267 293.868ZM245.47 248.268H233.067V221.45C233.043 220.404 233.371 219.379 233.999 218.542C234.25 218.17 234.649 217.925 235.093 217.868H266.506C266.943 217.931 267.334 218.176 267.581 218.542C268.208 219.379 268.536 220.404 268.513 221.45V248.268H260.426C257.763 248.296 255.195 249.265 253.176 251.004C250.987 249.251 248.273 248.288 245.47 248.268ZM258.4 293.868V261.983C258.376 260.937 258.704 259.913 259.332 259.075C259.584 258.704 259.982 258.459 260.426 258.401H291.84C292.277 258.464 292.667 258.709 292.914 259.075C293.542 259.913 293.87 260.937 293.846 261.983L293.866 293.868H258.4Z" fill="#AAAAAA"/>
<path d="M127.859 99.1641H120.984V111H109.188V99.1641H84.8125V90.7656L109.852 53.8906H120.984V89.7891H127.859V99.1641ZM109.188 89.7891V80.1016C109.188 78.487 109.253 76.1432 109.383 73.0703C109.513 69.9974 109.617 68.2135 109.695 67.7188H109.383C108.419 69.8542 107.26 71.9375 105.906 73.9688L95.4375 89.7891H109.188ZM171.961 82.4453C171.961 92.4193 170.32 99.8021 167.039 104.594C163.784 109.385 158.758 111.781 151.961 111.781C145.372 111.781 140.398 109.307 137.039 104.359C133.706 99.4115 132.039 92.1068 132.039 82.4453C132.039 72.3672 133.667 64.9453 136.922 60.1797C140.177 55.388 145.19 52.9922 151.961 52.9922C158.549 52.9922 163.523 55.4922 166.883 60.4922C170.268 65.4922 171.961 72.8099 171.961 82.4453ZM144.031 82.4453C144.031 89.4505 144.63 94.4766 145.828 97.5234C147.052 100.544 149.096 102.055 151.961 102.055C154.773 102.055 156.805 100.518 158.055 97.4453C159.305 94.3724 159.93 89.3724 159.93 82.4453C159.93 75.4401 159.292 70.4141 158.016 67.3672C156.766 64.2943 154.747 62.7578 151.961 62.7578C149.122 62.7578 147.091 64.2943 145.867 67.3672C144.643 70.4141 144.031 75.4401 144.031 82.4453ZM219.266 99.1641H212.391V111H200.594V99.1641H176.219V90.7656L201.258 53.8906H212.391V89.7891H219.266V99.1641ZM200.594 89.7891V80.1016C200.594 78.487 200.659 76.1432 200.789 73.0703C200.919 69.9974 201.023 68.2135 201.102 67.7188H200.789C199.826 69.8542 198.667 71.9375 197.312 73.9688L186.844 89.7891H200.594Z" fill="white"/>
</g>
<defs>
<clipPath id="clip0">
<rect width="304" height="304" fill="white"/>
</clipPath>
</defs>
</svg>
