<svg width="28" height="24" viewBox="0 0 28 24" fill="none" xmlns="http://www.w3.org/2000/svg">
<mask id="mask0" mask-type="alpha" maskUnits="userSpaceOnUse" x="5" y="2" width="18" height="20">
<path fill-rule="evenodd" clip-rule="evenodd" d="M18.0849 2.5848L21.8613 5.85576C22.2664 6.20663 22.4959 6.68617 22.4959 7.18129V20.1287C22.4959 21.1618 21.5282 22 20.3354 22H7.37242C6.17964 22 5.21191 21.1618 5.21191 20.1287V3.91034C5.21191 2.8772 6.17964 2.03899 7.37242 2.0351H16.5591C17.1307 2.0351 17.6798 2.23393 18.0849 2.5848ZM16.7346 7.02925H20.1599L16.7346 4.06239V7.02925ZM7.37238 20.1287V3.91034H14.5741V7.96492C14.5741 8.48344 15.0557 8.90059 15.6543 8.90059H20.3354V20.1287H7.37238ZM16.7527 12.3899C16.8022 12.1754 17.0227 12.0195 17.2793 12.0195V12.0117H17.9904C18.3415 12.0117 18.5981 12.2963 18.5126 12.5926C18.319 13.2554 17.8959 14.7018 16.9597 17.8947C16.9012 18.1053 16.6851 18.2495 16.4376 18.2495H15.3258C15.0783 18.2495 14.8622 18.1014 14.8037 17.8947C14.5756 17.1156 14.0512 15.2956 14.0017 15.1241L13.998 15.1111L13.8675 14.4367C13.845 14.6433 13.8 14.8694 13.7324 15.1111L12.9268 17.8947C12.8682 18.1053 12.6522 18.2495 12.4046 18.2495H11.2704C11.0183 18.2495 10.8023 18.1053 10.7438 17.8947C10.6077 17.4144 10.353 16.5093 10.0832 15.5506C9.77263 14.4472 9.44207 13.2726 9.2494 12.5926C9.16838 12.3002 9.42494 12.0156 9.77603 12.0156H10.5322C10.7933 12.0156 11.0138 12.1754 11.0633 12.3938C11.112 12.6103 11.1782 12.904 11.2526 13.2334C11.5223 14.4286 11.8983 16.0945 11.923 16.2534C11.9348 16.311 11.9397 16.3597 11.9437 16.3996C11.9443 16.4057 11.9449 16.4115 11.9455 16.4172C11.9488 16.3908 11.9516 16.3677 11.9548 16.3446C11.9874 16.1122 12.0626 15.8857 13.0618 12.3743C13.1248 12.1676 13.3409 12.0195 13.5884 12.0195H14.1871C14.4391 12.0195 14.6552 12.1676 14.7137 12.3782C15.6935 15.9185 15.7398 16.0628 15.7675 16.2106C15.7702 16.2251 15.7727 16.2396 15.7759 16.2573C15.7844 16.2989 15.7911 16.3359 15.7971 16.3692C15.8007 16.389 15.8041 16.4075 15.8074 16.425C15.8099 16.3956 15.8121 16.3698 15.8148 16.344C15.8408 16.0922 15.9116 15.845 16.7527 12.3899Z" fill="white"/>
</mask>
<g mask="url(#mask0)">
<rect width="27.7085" height="24" fill="#DDDDDD"/>
</g>
</svg>
