<svg width="48" height="48" viewBox="0 0 48 48" fill="none" xmlns="http://www.w3.org/2000/svg">
<path d="M40.0002 0H8.0002C7.5584 0 7.2002 0.3582 7.2002 0.8V47.2C7.2002 47.6418 7.5584 48 8.0002 48H40.0002C40.442 48 40.8002 47.6418 40.8002 47.2V0.8C40.8002 0.3582 40.442 0 40.0002 0ZM14.4002 46.4H8.8002V39.8072C8.8002 39.4719 9.0721 39.2 9.4074 39.2H13.793C14.1284 39.2 14.4002 39.4719 14.4002 39.8072V46.4ZM14.4002 36.9928C14.4002 37.3281 14.1283 37.6 13.793 37.6H9.4074C9.0721 37.6 8.8002 37.3281 8.8002 36.9928V30.2072C8.8002 29.8719 9.0721 29.6 9.4074 29.6H13.793C14.1284 29.6 14.4002 29.8719 14.4002 30.2072V36.9928ZM14.4002 20.6072V27.3928C14.4002 27.7282 14.1283 28 13.793 28H9.4074C9.072 28 8.8002 27.7281 8.8002 27.3928V20.6072C8.8002 20.2719 9.0721 20 9.4074 20H13.793C14.1283 20 14.4002 20.2719 14.4002 20.6072ZM14.4002 11.0072V17.7928C14.4002 18.1282 14.1283 18.4 13.793 18.4H9.4074C9.072 18.4 8.8002 18.1281 8.8002 17.7928V11.0072C8.8002 10.6718 9.0721 10.4 9.4074 10.4H13.793C14.1283 10.4 14.4002 10.6719 14.4002 11.0072ZM14.4002 8.1928C14.4002 8.5282 14.1283 8.8 13.793 8.8H9.4074C9.0721 8.8 8.8002 8.5281 8.8002 8.1928V1.6H14.4002V8.1928ZM32.0002 46.4H16.0002V44.8H32.0002V46.4ZM32.0002 43.2H16.0002V39.8072V24.8H32.0002V43.2ZM32.0002 23.2H16.0002V20.6072V4.8H32.0002V23.2ZM32.0002 3.2H16.0002V1.6H32.0002V3.2ZM39.2002 46.4H33.6002V39.8072C33.6006 39.472 33.8722 39.2004 34.2074 39.2H38.593C38.9283 39.2 39.2002 39.4719 39.2002 39.8072V46.4ZM39.2002 36.9928C39.2002 37.3281 38.9283 37.6 38.593 37.6H34.2074C33.8722 37.5996 33.6006 37.328 33.6002 36.9928V30.2072C33.6006 29.872 33.8722 29.6004 34.2074 29.6H38.593C38.9283 29.6 39.2002 29.8719 39.2002 30.2072V36.9928ZM39.2002 27.3928C39.2002 27.7281 38.9283 28 38.593 28H34.2074C33.8722 27.9996 33.6006 27.728 33.6002 27.3928V20.6072C33.6006 20.272 33.8722 20.0004 34.2074 20H38.593C38.9284 20 39.2002 20.2719 39.2002 20.6072V27.3928ZM39.2002 17.7928C39.2002 18.1282 38.9283 18.4 38.593 18.4H34.2074C33.8722 18.3996 33.6006 18.128 33.6002 17.7928V11.0072C33.6006 10.672 33.8722 10.4004 34.2074 10.4H38.593C38.9283 10.4 39.2002 10.6719 39.2002 11.0072V17.7928ZM39.2002 8.1928C39.2002 8.5282 38.9283 8.8 38.593 8.8H34.2074C33.8721 8.8 33.6002 8.5281 33.6002 8.1928V1.6H39.2002V8.1928Z" fill="#FFD362"/>
</svg>
