<svg width="50" height="50" viewBox="0 0 50 50" fill="none" xmlns="http://www.w3.org/2000/svg">
<path d="M49.2624 16.677C49.2299 16.6732 49.1971 16.6714 49.1644 16.6715H49.1361C49.1161 16.3515 49.0861 16.019 49.0419 15.6648C50.329 14.3591 50.3139 12.2571 49.0082 10.97C48.6552 10.6221 48.2288 10.3575 47.7603 10.1959C48.1337 9.64866 48.3327 9.00108 48.3311 8.33851C48.3311 6.49766 46.8388 5.00533 44.9979 5.00533C44.7167 5.00491 44.4366 5.04106 44.1646 5.11282C44.1646 5.07699 44.1646 5.04116 44.1646 5.00533C44.1688 3.1677 42.6825 1.67465 40.8448 1.67048C39.9972 1.66861 39.1809 1.99015 38.5624 2.56961C38.4416 2.52711 38.3199 2.48628 38.1991 2.44711C37.7168 0.680526 35.8937 -0.360468 34.1272 0.121801C33.2559 0.359707 32.5192 0.942806 32.0877 1.73631H32.0777C31.5003 0.666464 30.381 0.00128599 29.1653 0.00555663C27.5977 0.00743155 26.2425 1.09978 25.908 2.63127C24.1369 2.129 22.2941 3.1576 21.7919 4.92867C21.7845 4.95471 21.7774 4.98085 21.7707 5.0071C19.9436 4.93658 18.4053 6.36068 18.3349 8.18768C18.3329 8.23851 18.3322 8.28935 18.3325 8.34028C18.3325 8.48746 18.3425 8.63443 18.3625 8.78026C16.767 9.67147 16.1961 11.6874 17.0874 13.2829C17.2862 13.6387 17.549 13.9547 17.8625 14.215C17.694 15.025 17.5887 15.8469 17.5475 16.6732H17.4992C17.039 16.6734 16.666 17.0467 16.6662 17.5068C16.6662 17.5387 16.6681 17.5707 16.6717 17.6024L16.9492 20.0064H12.4836C12.4888 19.9388 12.4858 19.8708 12.4744 19.8039L9.97454 9.80438C9.88163 9.43367 9.54842 9.17358 9.16625 9.17358H0.833295C0.373108 9.17358 0 9.54669 0 10.0069V13.3401C0 13.8002 0.373108 14.1733 0.833295 14.1733H6.01556L7.47466 20.0064H0.833295C0.373108 20.0064 0 20.3795 0 20.8397V24.1729C0 24.6331 0.373108 25.0062 0.833295 25.0062H0.894959L2.75904 49.2343C2.79268 49.6692 3.15611 50.0046 3.59234 50.0034H16.4092C16.8455 50.0046 17.2089 49.6692 17.2425 49.2343L18.475 33.2117L20.3282 49.2659C20.3769 49.6861 20.7327 50.0032 21.1557 50.0034H45.5129C45.9359 50.0033 46.2917 49.6861 46.3404 49.2659L49.9944 17.6007C50.0473 17.1434 49.7196 16.7299 49.2624 16.677ZM6.66886 12.505H1.66659V10.8384H8.51544L10.8078 20.0046H9.15041C9.15562 19.937 9.1526 19.869 9.14125 19.8022H9.14375L7.47716 13.1358C7.38424 12.765 7.05103 12.505 6.66886 12.505ZM15.641 48.3367H4.36063L3.78983 40.9104L7.00551 41.3703C7.22113 41.4011 7.43851 41.4167 7.65632 41.417C8.99907 41.418 10.2721 40.8194 11.1278 39.7846C11.8959 38.865 13.1542 38.5192 14.2843 38.9171L16.3076 39.6329L15.641 48.3367ZM16.4401 37.9113L14.841 37.3455C13.0526 36.7194 11.0635 37.2659 9.84622 38.718C9.21124 39.4826 8.224 39.8615 7.2405 39.7179L3.65733 39.2063L3.42984 36.2264C5.05258 37.5421 7.36956 37.5604 9.01292 36.2706L11.447 34.3773C12.2031 33.7878 13.2043 33.6163 14.1135 33.9207L16.6809 34.7765L16.4401 37.9113ZM18.3325 23.3378H16.6659V25.0044H17.4325L16.8126 33.0632L14.6402 32.3391C13.2029 31.8587 11.6205 32.1298 10.4254 33.0616L7.9913 34.9548C6.84437 35.8494 5.20893 35.7418 4.18897 34.7048L3.23735 33.7349L2.57072 25.0069H4.99977V23.3403L1.66659 23.3378V21.6712H18.3325V23.3378ZM21.8957 48.3367L19.2025 24.9969C19.6465 24.9799 19.998 24.6155 19.9991 24.1711V20.8379C19.9991 20.3778 19.626 20.0046 19.1658 20.0046H18.6266L18.4342 18.3381H22.5623L24.9305 48.3367H21.8957ZM26.6021 48.3367L24.2339 18.3381H29.187L29.9761 48.3367H26.6021ZM35.0192 48.3367H31.6435L30.8536 18.3381H35.8084L35.0192 48.3367ZM36.6875 48.3367L37.4758 18.3381H42.4289L40.0607 48.3367H36.6875ZM44.7679 48.3367H41.7331L44.1013 18.3381H48.2295L44.7679 48.3367ZM47.6562 14.6666C47.412 14.8499 47.2876 15.1519 47.332 15.454C47.3953 15.8948 47.4412 16.2948 47.467 16.6715H19.1925C19.2523 15.7885 19.3918 14.9128 19.6091 14.0549C19.701 13.6878 19.534 13.3048 19.2025 13.1225C18.3984 12.6936 18.0943 11.6942 18.523 10.8902C18.7404 10.4827 19.1186 10.1849 19.5658 10.0693C20.01 9.94896 20.2726 9.49137 20.1523 9.04712C20.1439 9.01587 20.1336 8.98515 20.1216 8.95515C19.7778 8.10477 20.1884 7.13679 21.0388 6.79296C21.238 6.71244 21.4509 6.67129 21.6657 6.67192C21.8594 6.67473 22.0512 6.7114 22.2323 6.78025C22.6651 6.9367 23.1428 6.71265 23.2992 6.27985C23.3393 6.16882 23.3555 6.05049 23.3464 5.93279C23.3464 5.91529 23.3348 5.85612 23.3323 5.83862C23.3346 4.91825 24.0826 4.17391 25.003 4.1762C25.4341 4.17724 25.8481 4.34546 26.158 4.64535C26.4233 4.88315 26.8053 4.93835 27.1271 4.78534C27.4984 4.61191 27.6885 4.19432 27.5754 3.80038C27.2836 2.93376 27.7497 1.99463 28.6163 1.70288C29.4829 1.41112 30.422 1.87714 30.7138 2.74377C30.7268 2.78251 30.7385 2.82168 30.7486 2.86126C30.8652 3.24885 31.2434 3.49665 31.6452 3.44873C31.9844 3.40874 32.3302 3.38874 32.6777 3.3729C33.0201 3.35676 33.3176 3.1326 33.4276 2.80793C33.7116 1.94109 34.6446 1.46862 35.5114 1.75266C36.14 1.95859 36.5851 2.51982 36.6425 3.17875C36.6755 3.51863 36.9127 3.80403 37.2408 3.89871C37.6574 4.01871 38.0808 4.16203 38.4974 4.32619C38.8521 4.46587 39.2562 4.34713 39.479 4.03787C39.7889 3.59831 40.2937 3.33738 40.8315 3.33874C41.7519 3.33874 42.4981 4.08485 42.4981 5.00533C42.4958 5.2598 42.4344 5.5102 42.3189 5.73696C42.1514 6.07768 42.2354 6.48839 42.5231 6.73608C42.5947 6.79691 42.6639 6.86108 42.733 6.92607L42.8505 7.0344C43.1574 7.31387 43.6232 7.32491 43.943 7.06024C44.2384 6.81129 44.6117 6.6739 44.9979 6.67192C45.9142 6.66807 46.6602 7.40772 46.664 8.32403C46.6662 8.84974 46.4191 9.34544 45.9979 9.66012C45.6694 9.90938 45.5727 10.3615 45.7704 10.7234C45.8212 10.8167 45.8662 10.9134 45.9121 11.0109L46.0112 11.2175C46.1466 11.4914 46.421 11.6691 46.7262 11.6809C47.6389 11.7072 48.3574 12.4685 48.3309 13.3812C48.3162 13.8908 48.0672 14.365 47.6562 14.6666Z" fill="#FFD362"/>
</svg>
