<svg width="32" height="32" viewBox="0 0 32 32" fill="none" xmlns="http://www.w3.org/2000/svg">
<mask id="mask0" mask-type="alpha" maskUnits="userSpaceOnUse" x="4" y="7" width="24" height="18">
<path fill-rule="evenodd" clip-rule="evenodd" d="M5.99967 7.66699H9.33301C10.2533 7.66699 10.9997 8.41335 10.9997 9.33366V12.667C10.9997 13.5873 10.2533 14.3337 9.33301 14.3337H5.99967C5.07936 14.3337 4.33301 13.5873 4.33301 12.667V9.33366C4.33301 8.41335 5.07936 7.66699 5.99967 7.66699ZM5.99967 17.667H9.33301C10.2533 17.667 10.9997 18.4133 10.9997 19.3337V22.667C10.9997 23.5873 10.2533 24.3337 9.33301 24.3337H5.99967C5.07936 24.3337 4.33301 23.5873 4.33301 22.667V19.3337C4.33301 18.4133 5.07936 17.667 5.99967 17.667ZM14.333 17.667H17.6663C18.5867 17.667 19.333 18.4133 19.333 19.3337V22.667C19.333 23.5873 18.5867 24.3337 17.6663 24.3337H14.333C13.4127 24.3337 12.6663 23.5873 12.6663 22.667V19.3337C12.6663 18.4133 13.4127 17.667 14.333 17.667ZM25.9997 17.667H22.6663C21.746 17.667 20.9997 18.4133 20.9997 19.3337V22.667C20.9997 23.5873 21.746 24.3337 22.6663 24.3337H25.9997C26.92 24.3337 27.6663 23.5873 27.6663 22.667V19.3337C27.6663 18.4133 26.92 17.667 25.9997 17.667ZM17.6663 7.66699H14.333C13.4127 7.66699 12.6663 8.41335 12.6663 9.33366V12.667C12.6663 13.5873 13.4127 14.3337 14.333 14.3337H17.6663C18.5867 14.3337 19.333 13.5873 19.333 12.667V9.33366C19.333 8.41335 18.5867 7.66699 17.6663 7.66699ZM22.6663 7.66699H25.9997C26.92 7.66699 27.6663 8.41335 27.6663 9.33366V12.667C27.6663 13.5873 26.92 14.3337 25.9997 14.3337H22.6663C21.746 14.3337 20.9997 13.5873 20.9997 12.667V9.33366C20.9997 8.41335 21.746 7.66699 22.6663 7.66699Z" fill="white"/>
</mask>
<g mask="url(#mask0)">
<rect width="32" height="32" fill="white"/>
</g>
</svg>
