<svg width="58" height="18" viewBox="0 0 58 18" fill="none" xmlns="http://www.w3.org/2000/svg">
<path d="M0 0H55C56.6569 0 58 1.34315 58 3V15C58 16.6569 56.6569 18 55 18H0V0Z" fill="white"/>
<g clip-path="url(#clip0)">
<path d="M11.8727 13.9694L11.8764 7.35161H12.3763L15.731 13.9622H17.9008L21.2554 7.35517L21.7849 7.34447L21.7664 13.9694L24.4509 13.9694L24.4435 4.92212L19.7558 4.93639L16.8159 10.2591L14.0314 4.92926L9.19564 4.94353L9.18823 13.9694H11.8727Z" fill="#0094D3"/>
<path d="M7.18235 4.76929H4V13.9722H7.18235V4.76929Z" fill="#0094D3"/>
<path d="M29.8474 4.89331L25.0508 13.9697L28.0722 14L29.02 12.3704L34.9739 12.3401L35.8012 13.9394L38.9431 13.9697L34.1465 4.89331H29.8474ZM31.9839 6.83573L33.9946 10.3775L30.1144 10.4027L31.9839 6.83573Z" fill="#0094D3"/>
<path d="M43.5353 4.92155L39.9955 4.94173L43.64 9.07883L39.2205 13.9626L43.0117 13.9828L46.1116 10.6529L49.065 13.9828L52.9819 13.9626L48.5623 9.09901L52.1859 4.96191L48.5413 4.90137L46.1116 7.82761L43.5353 4.92155Z" fill="#0094D3"/>
<path d="M53.534 6.08106H53.8831C54.0081 6.08106 54.0969 6.06142 54.1495 6.02214C54.2022 5.98286 54.2286 5.91833 54.2286 5.82855C54.2286 5.78774 54.2202 5.75097 54.2035 5.71825C54.1869 5.68552 54.1635 5.65962 54.1335 5.64053C54.1095 5.62471 54.0806 5.61333 54.0466 5.60642C54.0126 5.59951 53.9556 5.59606 53.8756 5.59606H53.8216H53.534V6.08106ZM53.3635 6.83038V5.44836H53.85C53.9583 5.44837 54.0378 5.45285 54.0887 5.46184C54.1395 5.47082 54.1837 5.48549 54.2213 5.50581C54.2803 5.53778 54.3254 5.58154 54.3568 5.63707C54.3881 5.69261 54.4038 5.75522 54.4038 5.8249C54.4038 5.9111 54.3834 5.98417 54.3426 6.04409C54.3018 6.10401 54.247 6.14105 54.1783 6.15521C54.2307 6.16362 54.2703 6.18823 54.2969 6.229C54.3235 6.26978 54.342 6.34883 54.3523 6.46615L54.3703 6.66808C54.3727 6.69803 54.3773 6.72231 54.3841 6.74091C54.391 6.75952 54.4013 6.77445 54.4152 6.7857V6.83039H54.2382C54.226 6.80785 54.2173 6.78486 54.212 6.76143C54.2067 6.738 54.2028 6.7094 54.2002 6.67565L54.1841 6.49734C54.1749 6.3787 54.1543 6.30428 54.1221 6.27408C54.0899 6.24387 54.0226 6.22877 53.9201 6.22877H53.534V6.83039L53.3635 6.83038Z" fill="#0094D3"/>
<path d="M55.1161 6.1597C55.1161 6.8289 54.553 7.3714 53.8585 7.3714C53.1639 7.3714 52.6008 6.8289 52.6008 6.1597C52.6008 5.49049 53.1639 4.948 53.8585 4.948C54.553 4.948 55.1161 5.49049 55.1161 6.1597Z" stroke="#0094D3" stroke-width="0.2"/>
</g>
<defs>
<clipPath id="clip0">
<rect width="52" height="10" fill="white" transform="translate(4 4)"/>
</clipPath>
</defs>
</svg>
