<svg width="212" height="61" viewBox="0 0 212 61" fill="none" xmlns="http://www.w3.org/2000/svg">
<path d="M0.0378017 6.552C1.85217 6.552 3.70434 6.552 5.59431 6.552C5.59431 8.47244 5.59431 10.3176 5.59431 12.1627C5.59431 14.0078 5.59431 15.8529 5.59431 17.6981C5.63211 17.6981 5.66991 17.7357 5.70771 17.7357C9.07186 14.0078 12.3982 10.2799 15.7624 6.552C18.1059 6.552 20.4495 6.552 22.9064 6.552C19.3911 10.2799 15.9136 13.9702 12.3982 17.6604C16.1026 22.5933 19.8069 27.5262 23.549 32.4967C21.1299 32.4967 18.7863 32.4967 16.4049 32.4967C13.7968 28.8818 11.1508 25.2292 8.50487 21.5766C7.55988 22.5556 6.6149 23.5347 5.55652 24.6267C5.55652 27.0743 5.55652 29.7479 5.55652 32.5344C3.70435 32.5344 1.85217 32.5344 0 32.5344C0.0377994 23.9112 0.0378017 15.2505 0.0378017 6.552Z" fill="#C31D28"/>
<path d="M86.9381 0.0376579C87.9209 0.18828 88.9037 0.225929 89.8865 0.489519C94.9894 1.92043 98.5803 4.97054 99.9789 10.167C101.34 15.2505 99.1851 20.56 94.687 23.6477C91.8898 25.5682 88.7903 26.3589 85.4261 26.2083C85.3127 26.2083 85.2371 26.1707 85.0859 26.1707C85.0859 24.0996 85.0859 22.0285 85.0859 19.9575C85.2749 19.8445 85.5017 19.9198 85.7285 19.9198C87.7697 19.9951 89.6219 19.468 91.2472 18.2253C94.7626 15.4765 94.687 10.6189 91.1338 7.98299C89.4707 6.74035 87.5429 6.25083 85.4639 6.3638C85.3505 6.3638 85.2371 6.3638 85.1615 6.3638C85.1615 6.3638 85.1237 6.3638 85.0859 6.32614C85.0859 4.29274 85.0859 2.22168 85.0859 0.15062C85.2749 0.112965 85.4639 0.0753113 85.6907 0C86.1065 0.0376556 86.5223 0.0376579 86.9381 0.0376579Z" fill="#C31D28"/>
<path d="M60.1005 6.70276C61.9905 6.70276 63.767 6.70276 65.5814 6.70276C65.5814 15.3636 65.5814 23.9867 65.5814 32.6475C63.956 32.6475 62.3307 32.6475 60.6675 32.6475C56.5474 27.1874 52.4272 21.652 48.3071 16.1543C48.2693 16.1543 48.2315 16.1543 48.1937 16.192C48.1937 21.652 48.1937 27.1498 48.1937 32.6475C46.3415 32.6475 44.6027 32.6475 42.8262 32.6475C42.8262 23.9867 42.8262 15.3636 42.8262 6.70276C44.5271 6.70276 46.2281 6.70276 48.0047 6.70276C51.9736 12.0122 55.9804 17.3593 59.9871 22.7064C60.0249 22.7064 60.1005 22.6687 60.1383 22.6687C60.1005 17.3593 60.1005 12.0122 60.1005 6.70276Z" fill="#C31D28"/>
<path d="M160.193 6.66492C160.382 6.66492 160.534 6.66492 160.685 6.66492C164.729 6.66492 168.774 6.66492 172.781 6.66492C174.557 6.66492 176.258 7.00383 177.808 7.94522C180.114 9.41379 181.285 11.5978 181.663 14.2337C182.306 18.6771 179.736 21.8778 176.674 23.3087C176.598 23.3464 176.485 23.384 176.409 23.497C177.43 25.0032 178.413 26.5094 179.433 28.0157C180.416 29.5219 181.437 30.9905 182.495 32.572C180.227 32.572 178.072 32.572 175.842 32.572C173.99 29.8231 172.138 27.0366 170.248 24.2501C168.849 24.2501 167.451 24.2501 166.014 24.2501C166.014 27.0366 166.014 29.8231 166.014 32.6473C164.049 32.6473 162.159 32.6473 160.193 32.6473C160.193 24.0242 160.193 15.401 160.193 6.66492ZM165.977 19.3925C167.715 19.3925 169.416 19.3925 171.117 19.3925C171.458 19.3925 171.798 19.3925 172.1 19.3549C175.464 19.016 176.145 16.6437 175.729 14.4596C175.464 12.9534 174.293 12.2756 172.932 12.012C170.626 11.5602 168.32 11.7861 166.014 11.7861C166.014 11.7861 165.977 11.7861 165.939 11.8237C165.977 14.309 165.977 16.8319 165.977 19.3925Z" fill="#303030"/>
<path d="M193.91 24.7021C193.91 27.1497 193.91 29.8609 193.91 32.5721C192.058 32.5721 190.244 32.5721 188.392 32.5721C188.392 23.9113 188.392 15.2505 188.392 6.58972C190.244 6.58972 192.02 6.58972 193.873 6.58972C193.873 10.3176 193.873 14.0079 193.873 17.7358C193.91 17.7358 193.948 17.7734 193.986 17.7734C197.35 14.0455 200.714 10.28 204.078 6.58972C206.46 6.58972 208.803 6.58972 211.26 6.58972C207.707 10.3553 204.23 14.0455 200.752 17.7358C204.456 22.6687 208.161 27.6016 211.865 32.5721C209.446 32.5721 207.102 32.5721 204.721 32.5721C202.113 28.9572 199.467 25.3422 196.821 21.6896C195.876 22.6687 194.969 23.6101 193.91 24.7021Z" fill="#303030"/>
<path d="M111.319 24.8903C111.319 27.5262 111.319 30.0868 111.319 32.685C109.354 32.685 107.464 32.685 105.536 32.685C105.536 24.0242 105.536 15.4011 105.536 6.77798C105.687 6.62736 105.876 6.70266 106.028 6.70266C109.656 6.70266 113.323 6.70266 116.952 6.70266C121.941 6.70266 125.419 10.0164 125.91 14.9116C126.477 20.1834 122.13 24.815 116.763 24.8903C115.137 24.928 113.512 24.8903 111.849 24.8903C111.697 24.8903 111.546 24.8903 111.319 24.8903ZM111.357 19.6938C111.433 19.7315 111.471 19.7315 111.508 19.7315C113.134 19.7315 114.759 19.7692 116.385 19.6938C118.653 19.5809 119.749 18.4889 120.013 16.2672C120.278 14.1208 119.333 12.7276 117.33 12.2757C117.065 12.2004 116.763 12.1627 116.498 12.1251C114.986 11.9744 113.436 12.0874 111.924 12.0498C111.735 12.0498 111.546 12.0121 111.319 12.1251C111.357 14.648 111.357 17.1709 111.357 19.6938Z" fill="#303030"/>
<path d="M154.373 32.6851C152.369 32.6851 150.404 32.6851 148.438 32.6851C147.682 30.7647 146.926 28.8819 146.17 26.9615C142.541 26.9615 138.913 26.9615 135.208 26.9615C134.49 28.8443 133.772 30.7647 133.016 32.6851C131.126 32.6851 129.236 32.6851 127.271 32.6851C130.861 23.9867 134.452 15.3259 138.043 6.70276C139.858 6.70276 141.634 6.70276 143.524 6.70276C147.153 15.3259 150.744 23.9867 154.373 32.6851ZM144.053 21.8403C142.957 19.0538 141.899 16.3803 140.803 13.5937C139.669 16.3803 138.535 19.0915 137.439 21.8403C139.669 21.8403 141.823 21.8403 144.053 21.8403Z" fill="#303030"/>
<path d="M85.1992 33.3251C85.1992 35.3962 85.1992 37.4672 85.1992 39.5383C85.1614 39.6136 85.048 39.6512 84.9724 39.6512C78.5844 40.0655 72.6876 36.4129 70.6465 30.7269C68.6809 25.3045 70.7221 19.3549 75.6738 15.9659C78.3954 14.1207 81.4193 13.33 84.67 13.4429C84.7834 13.4429 84.8968 13.4429 85.048 13.4806C85.1236 13.4806 85.1614 13.5182 85.237 13.5182C85.237 15.5893 85.237 17.6604 85.237 19.7691C84.1409 19.6561 83.0447 19.6938 81.9863 19.995C80.1341 20.4845 78.6222 21.4636 77.5638 23.0828C75.636 25.9446 76.3542 29.5972 79.2269 31.7059C80.5877 32.7226 82.1753 33.2498 83.8763 33.2874C84.2543 33.3251 84.7078 33.3251 85.1992 33.3251Z" fill="#303030"/>
<path d="M28.916 32.6475C28.916 23.9867 28.916 15.3636 28.916 6.70276C30.806 6.70276 32.6582 6.70276 34.5481 6.70276C34.5481 15.3259 34.5481 23.9867 34.5481 32.6475C32.696 32.6475 30.806 32.6475 28.916 32.6475Z" fill="#C31D28"/>
<path d="M0.0380859 47.4838C2.38165 47.4838 4.72521 47.4838 7.06878 47.4838C7.06878 48.1992 7.06878 48.877 7.06878 49.6301C6.31279 49.6301 5.5568 49.6301 4.76301 49.6301C4.76301 53.0191 4.76301 56.3705 4.76301 59.7218C3.96922 59.7218 3.21323 59.7218 2.38165 59.7218C2.38165 56.3705 2.38165 53.0568 2.38165 49.6301C1.55006 49.6301 0.794074 49.6301 0.0380859 49.6301C0.0380859 48.9523 0.0380859 48.2369 0.0380859 47.4838Z" fill="#303030"/>
<path d="M149.61 55.0526C149.61 56.6341 149.61 58.178 149.61 59.7219C148.816 59.7219 148.022 59.7219 147.229 59.7219C147.229 55.6551 147.229 51.5883 147.229 47.5215C147.229 47.5215 147.266 47.4838 147.304 47.4838C148.816 47.4838 150.328 47.3708 151.84 47.5591C153.503 47.7474 154.713 49.0653 154.826 50.7222C154.977 52.379 154.373 53.697 152.861 54.5631C153.503 56.2952 154.184 57.9897 154.826 59.7596C153.957 59.7596 153.125 59.7596 152.256 59.7596C151.727 58.2157 151.197 56.6718 150.668 55.0903C150.328 55.0149 149.988 55.0526 149.61 55.0526ZM149.648 49.6678C149.648 50.7975 149.648 51.8895 149.648 52.9815C150.555 52.9815 151.5 53.0568 152.067 52.1908C152.445 51.6259 152.445 50.9481 152.067 50.3833C151.5 49.5172 150.555 49.6678 149.648 49.6678Z" fill="#303030"/>
<path d="M31.7893 47.5215C31.7893 49.1783 31.7893 50.7599 31.7893 52.4167C32.7343 52.4167 33.6414 52.4167 34.5864 52.4167C34.5864 50.7975 34.5864 49.1783 34.5864 47.5215C35.418 47.5215 36.174 47.5215 36.9678 47.5215C36.9678 51.5883 36.9678 55.6551 36.9678 59.7596C36.174 59.7596 35.418 59.7596 34.5864 59.7596C34.5864 58.0651 34.5864 56.3329 34.5864 54.6007C33.6414 54.6007 32.7343 54.6007 31.7893 54.6007C31.7893 56.2952 31.7893 58.0274 31.7893 59.7596C30.9577 59.7596 30.1639 59.7596 29.3701 59.7596C29.3701 55.6927 29.3701 51.6259 29.3701 47.5591C30.1639 47.5215 30.9577 47.5215 31.7893 47.5215Z" fill="#303030"/>
<path d="M91.626 47.4838C92.3442 47.4838 92.9868 47.4838 93.705 47.4838C95.2547 51.5506 96.8423 55.6174 98.4299 59.7595C97.5227 59.7595 96.6911 59.7595 95.8595 59.7595C95.5571 58.9311 95.2169 58.065 94.8767 57.1989C93.3648 57.1989 91.8528 57.1989 90.303 57.1989C90.0006 58.0273 89.6604 58.8934 89.358 59.7595C88.5264 59.7595 87.7327 59.7595 86.8633 59.7595C88.4509 55.655 90.0384 51.5882 91.626 47.4838ZM91.1724 54.9019C92.1552 54.9019 93.1002 54.9019 94.083 54.9019C93.5916 53.584 93.138 52.3413 92.6466 50.9857C92.1174 52.3413 91.6638 53.584 91.1724 54.9019Z" fill="#303030"/>
<path d="M59.9492 59.7219C59.9492 55.6551 59.9492 51.5883 59.9492 47.5215C62.1416 47.5215 64.3718 47.5215 66.5641 47.5215C66.5641 48.1993 66.5641 48.8771 66.5641 49.6302C65.1655 49.6302 63.767 49.6302 62.3684 49.6302C62.3684 50.5716 62.3684 51.4753 62.3684 52.4544C63.767 52.4544 65.1277 52.4544 66.5641 52.4544C66.5641 53.1698 66.5641 53.8476 66.5641 54.5631C65.1655 54.5631 63.767 54.5631 62.3684 54.5631C62.3684 55.6174 62.3684 56.5965 62.3684 57.6132C63.767 57.6132 65.1655 57.6132 66.5641 57.6132C66.5641 58.3286 66.5641 59.0064 66.5641 59.7596C64.3718 59.7219 62.1794 59.7219 59.9492 59.7219Z" fill="#303030"/>
<path d="M183.101 47.5214C183.101 48.2369 183.101 48.9147 183.101 49.6301C181.702 49.6301 180.303 49.6301 178.905 49.6301C178.905 50.5715 178.905 51.4753 178.905 52.4167C180.303 52.4167 181.702 52.4167 183.101 52.4167C183.101 53.1321 183.101 53.8099 183.101 54.5254C181.702 54.5254 180.303 54.5254 178.905 54.5254C178.905 55.5797 178.905 56.5588 178.905 57.5755C180.303 57.5755 181.702 57.5755 183.101 57.5755C183.101 58.2909 183.101 59.0064 183.101 59.7218C180.908 59.7218 178.716 59.7218 176.523 59.7218C176.523 55.655 176.523 51.5882 176.523 47.4838C178.716 47.5214 180.87 47.5214 183.101 47.5214Z" fill="#303030"/>
<path d="M211.601 50.7598C210.883 50.7598 210.202 50.7598 209.522 50.7598C209.408 50.6468 209.446 50.5339 209.446 50.4209C209.333 49.8184 208.879 49.4042 208.237 49.4042C207.556 49.3665 207.103 49.7054 206.951 50.3456C206.762 51.0611 207.027 51.6259 207.707 51.9648C208.123 52.1531 208.539 52.3037 208.993 52.4167C209.522 52.5673 210.013 52.7556 210.505 53.0191C211.261 53.471 211.752 54.1112 211.903 54.9772C212.092 55.9939 212.017 57.0106 211.563 57.9897C210.845 59.4959 209.333 60.249 207.481 59.9854C206.006 59.7972 204.797 58.5545 204.532 56.973C204.494 56.6717 204.419 56.3705 204.457 55.9939C205.175 55.9939 205.893 55.9939 206.611 55.9939C206.649 56.1822 206.649 56.3705 206.687 56.5211C206.838 57.3119 207.292 57.7638 207.972 57.8014C208.766 57.8767 209.333 57.5378 209.597 56.8977C209.9 56.1446 209.673 55.4291 209.03 54.9772C208.652 54.7137 208.237 54.6007 207.821 54.4501C207.481 54.3371 207.103 54.2241 206.762 54.0735C204.91 53.2074 204.268 51.2117 205.175 49.2159C205.931 47.5214 207.972 46.7683 209.749 47.5214C210.807 47.9733 211.601 49.2536 211.601 50.7598Z" fill="#303030"/>
<path d="M120.202 59.7596C120.202 56.4082 120.202 53.0569 120.202 49.6679C119.408 49.6679 118.652 49.6679 117.896 49.6679C117.896 48.9147 117.896 48.2369 117.896 47.5215C120.24 47.5215 122.546 47.5215 124.889 47.5215C124.889 48.2369 124.889 48.9147 124.889 49.6302C124.133 49.6302 123.377 49.6302 122.621 49.6302C122.621 53.0192 122.621 56.3705 122.621 59.7219C121.79 59.7595 121.034 59.7596 120.202 59.7596Z" fill="#303030"/>
</svg>
