<svg width="212" height="44" viewBox="0 0 212 44" fill="none" xmlns="http://www.w3.org/2000/svg">
<g clip-path="url(#clip0)">
<path d="M212 0.478984C211.364 0.520153 210.861 0.79657 210.452 1.31608C208.657 3.59211 206.838 5.84854 205.04 8.12261C202.508 11.3268 199.982 14.536 197.463 17.7502C197.364 17.8763 197.272 18.0076 197.167 18.1501C197.215 18.2379 197.267 18.3232 197.323 18.4056C199.597 21.4033 201.872 24.3999 204.149 27.3954C204.673 28.0828 205.247 28.7062 206.171 28.8023V29.1859H198.048L198.023 28.8421C198.183 28.7768 198.322 28.7226 198.453 28.6566C198.889 28.4357 199.057 28.0273 198.809 27.6019C198.497 27.0846 198.157 26.5859 197.79 26.108C196.772 24.7403 195.746 23.3824 194.721 22.0212C194.638 21.9108 194.548 21.8062 194.433 21.6644C194.321 21.7853 194.223 21.8775 194.141 21.982C193.106 23.2933 192.072 24.6057 191.04 25.9192C187.127 30.8746 183.214 35.8308 179.302 40.7875C179.089 41.0583 178.902 41.3498 178.745 41.658C178.465 42.2049 178.681 42.6983 179.254 42.8917C179.373 42.9316 179.492 42.9662 179.615 43.0041V43.3609H171.743L171.714 43.0734C171.752 43.0296 171.764 43.0022 171.778 42.9995C172.762 42.827 173.283 42.0429 173.847 41.328C178.363 35.6119 182.876 29.8931 187.386 24.1718C188.84 22.3268 190.289 20.4767 191.73 18.6212C191.794 18.5376 191.854 18.4487 191.933 18.3376C191.65 17.9567 191.376 17.5848 191.099 17.2169C189.137 14.6183 187.176 12.0195 185.214 9.4204C184.738 8.78784 184.206 8.26702 183.34 8.28336L183.322 7.85861H191.579L191.606 8.235C191.439 8.32453 191.288 8.3951 191.142 8.48594C190.734 8.74732 190.589 9.176 190.805 9.61252C190.974 9.95138 191.173 10.2736 191.399 10.5751C192.405 11.9232 193.424 13.2608 194.44 14.6011C194.498 14.6769 194.568 14.7455 194.656 14.8507C194.737 14.7618 194.81 14.6913 194.872 14.6122C197.605 11.1405 200.337 7.66779 203.068 4.19395C203.613 3.49932 204.135 2.78638 204.659 2.07606C204.746 1.95232 204.816 1.81659 204.866 1.67287C205.009 1.28732 204.89 0.925303 204.537 0.722728C204.346 0.612945 204.13 0.546291 203.9 0.450231V0.0797148C204.035 0.0705662 204.166 0.0529225 204.299 0.0529225C206.728 0.0529225 209.158 0.0529225 211.587 0.0529225C211.724 0.0529225 211.86 0.033972 211.997 0.0241699L212 0.478984Z" fill="#DEB246"/>
<path d="M161.961 44.0001C161.873 43.9678 161.783 43.9403 161.693 43.9177C160.376 43.6616 159.333 42.2142 159.492 40.8595C159.492 40.8399 159.511 40.8223 159.536 40.7798H161.085C161.117 40.9693 161.138 41.1621 161.183 41.3483C161.311 41.8711 161.677 42.2135 162.144 42.2573C162.754 42.3141 163.205 42.0887 163.425 41.6175C163.66 41.1111 163.616 40.5066 163.234 40.1668C162.97 39.9309 162.635 39.7676 162.312 39.6153C161.93 39.4343 161.507 39.333 161.132 39.1383C160.109 38.6063 159.625 37.6353 159.766 36.4669C159.791 36.24 159.829 36.015 159.882 35.7932C160.197 34.53 161.268 33.7138 162.514 33.7792C163.911 33.8524 164.78 34.6287 165.006 36.0068C165.032 36.1656 165.051 36.3257 165.078 36.5296H163.472C163.447 36.4368 163.42 36.3447 163.397 36.2525C163.27 35.7376 162.92 35.4449 162.423 35.4344C161.962 35.4246 161.584 35.6958 161.45 36.1251C161.277 36.6832 161.409 37.1942 161.85 37.4412C162.172 37.6216 162.53 37.7346 162.877 37.8653C163.105 37.9509 163.346 38.0032 163.574 38.0908C164.572 38.473 165.206 39.1631 165.297 40.2923C165.368 41.1719 165.233 42.0103 164.736 42.7507C164.53 43.0692 164.26 43.3389 163.944 43.5418C163.628 43.7446 163.274 43.8759 162.905 43.9269C162.822 43.9449 162.74 43.9694 162.661 44.0001H161.961Z" fill="#767676"/>
<path d="M35.4756 8.31082V7.81091H42.5645V8.27292C42.5582 8.2801 42.5473 8.30363 42.5308 8.30951C41.7586 8.56436 41.7815 9.24136 42.2959 9.79288C43.2054 10.7687 44.1169 11.7424 45.0302 12.7139C47.8832 15.7595 50.736 18.8053 53.5885 21.8513C53.6605 21.9285 53.721 22.016 53.7872 22.099L53.8814 22.0644V21.6965C53.8814 17.7436 53.8712 13.7895 53.8903 9.83797C53.8941 9.07211 53.7795 8.45654 52.915 8.32846V7.81614H59.0439V8.27357C59.027 8.29265 59.0072 8.30876 58.9853 8.32127C58.1723 8.67284 58.0781 8.8166 58.0781 9.71055C58.0781 15.5482 58.0753 21.3859 58.0698 27.2235C58.0698 27.9861 58.1857 28.6017 59.0458 28.7566V29.2715H52.4884V28.784C52.5635 28.7513 52.652 28.7186 52.7367 28.6742C53.0945 28.4919 53.2078 28.1514 52.9945 27.8071C52.8455 27.5677 52.6734 27.3444 52.4808 27.1405C48.61 23.0302 44.7365 18.9223 40.8603 14.8168C40.8049 14.7579 40.7406 14.7076 40.6311 14.6076C40.6311 14.7841 40.6311 14.8991 40.6311 15.0134C40.6311 19.0754 40.6406 23.1374 40.6228 27.1987C40.6196 27.9724 40.7323 28.6017 41.6077 28.7566V29.2597H35.4839V28.7762C35.5437 28.7513 35.6112 28.7219 35.6799 28.6945C36.2587 28.4644 36.4299 28.2253 36.4305 27.5934C36.4305 21.5497 36.4329 15.5059 36.4375 9.46223C36.4382 8.77282 36.0581 8.47288 35.4756 8.31082Z" fill="#303030"/>
<path d="M74.2223 29.6891C72.2487 29.6616 70.3185 29.4114 68.513 28.5658C64.7956 26.8243 62.7049 23.8242 62.265 19.6721C61.9129 16.3472 62.8596 13.4046 65.0758 10.9345C66.633 9.19892 68.6148 8.23178 70.8418 7.77828C73.6901 7.198 76.5365 7.1993 79.2759 8.25858C83.3873 9.84847 85.7868 12.9126 86.2013 17.4372C86.6005 21.7939 84.9955 25.2703 81.4762 27.7561C79.8973 28.8709 78.0784 29.3558 76.1921 29.5577C75.5363 29.6237 74.8781 29.644 74.2223 29.6891ZM74.3076 26.0048C74.5215 25.9937 74.8087 25.9891 75.0932 25.9623C77.2865 25.7539 79.0684 24.7861 80.3245 22.9041C81.4501 21.2201 81.7856 19.3394 81.5182 17.332C81.3348 15.9532 80.8472 14.7122 79.9616 13.6425C77.7009 10.911 73.7716 10.5059 71.0958 11.6984C66.2675 13.8516 66.102 19.5303 67.8547 22.4774C69.3043 24.9096 71.5039 25.9774 74.3076 26.0016V26.0048Z" fill="#303030"/>
<path d="M141.358 11.3416V16.4276H141.716C144.294 16.4276 146.873 16.4112 149.449 16.438C150.189 16.4459 150.766 16.3139 150.913 15.4493H151.418V20.8555H150.917C150.769 19.9158 150.112 19.8452 149.346 19.8524C146.832 19.8759 144.316 19.8616 141.804 19.8616H141.367V25.7291H141.802C145.992 25.7291 150.182 25.7199 154.373 25.7375C155.121 25.7375 155.75 25.6539 155.88 24.7384H156.381V30.27H155.926C155.911 30.2571 155.899 30.2419 155.889 30.2249C155.542 29.3643 155.433 29.2905 154.513 29.2905H135.813V28.7566C136.677 28.6069 136.768 27.9724 136.768 27.2013C136.75 21.3976 136.75 15.594 136.768 9.79029C136.768 9.0375 136.63 8.46244 135.803 8.33306V7.79787H136.202C142.132 7.79787 148.062 7.8007 153.992 7.80636C154.741 7.80636 155.369 7.7201 155.512 6.80786H156.011V12.3369H155.565C155.558 12.3303 155.534 12.3186 155.53 12.3009C155.326 11.5168 154.8 11.3286 154.06 11.3331C149.965 11.3573 145.871 11.3449 141.773 11.3449L141.358 11.3416Z" fill="#303030"/>
<path d="M13.8876 8.28272V7.81614H22.4052V8.32062C21.7431 8.38597 21.2872 8.84339 20.8027 9.24266C17.9536 11.6004 15.1059 13.9603 12.2597 16.3223C12.196 16.3759 12.1356 16.436 12.0534 16.5125C12.5755 17.1575 13.088 17.7913 13.6017 18.4252L20.4774 26.9144C20.5659 27.0236 20.6569 27.1294 20.7486 27.2353C21.3573 27.9404 21.9538 28.6631 22.9597 28.7552V29.2689H14.7993V28.7938C14.9571 28.7284 15.129 28.6762 15.2869 28.5938C15.611 28.4246 15.6746 28.2201 15.4817 27.907C15.3006 27.6121 15.1027 27.3285 14.889 27.0575C12.8815 24.5225 10.8712 21.9901 8.85816 19.4603C8.81233 19.4028 8.76012 19.3499 8.69264 19.2747L5.55147 21.8762C5.55147 22.295 5.55147 22.7178 5.55147 23.1413C5.55147 24.5136 5.55147 25.8859 5.55147 27.2581C5.55147 28.2723 5.61514 28.3769 6.52234 28.7951V29.2721H0.0254655V28.7912C0.0361844 28.7782 0.0491312 28.7673 0.0636637 28.7592C0.884925 28.4141 0.970871 28.2834 0.970871 27.3758C0.970871 21.4945 0.970871 15.6133 0.970871 9.73211C0.970871 8.78001 0.895748 8.6663 0.0159159 8.29448C0.0108228 8.21868 0.00127327 8.13438 0 8.04943C0 7.97559 0.007003 7.90175 0.0120961 7.81091H6.52425V8.26834C6.50897 8.28468 6.49688 8.30624 6.47969 8.31343C5.65906 8.64539 5.55211 8.80615 5.55211 9.71904C5.55211 11.9844 5.55211 14.2498 5.55211 16.5151C5.55211 16.6314 5.55211 16.7478 5.55211 16.9373C5.70108 16.817 5.79785 16.7412 5.89207 16.6615C8.62749 14.3683 11.3633 12.0739 14.0996 9.77851C14.2906 9.6237 14.4649 9.44845 14.6197 9.25573C14.8559 8.94926 14.7948 8.68918 14.4561 8.50882C14.2709 8.42253 14.0811 8.34705 13.8876 8.28272Z" fill="#303030"/>
<path d="M89.5781 29.2663C89.565 29.2097 89.5552 29.1523 89.5489 29.0945C89.5444 28.9977 89.5489 28.8984 89.5489 28.8331C89.5883 28.7893 89.6004 28.7677 89.6176 28.7599C90.3319 28.5638 90.542 28.0718 90.5395 27.3405C90.5212 21.4829 90.5212 15.6252 90.5395 9.76746C90.5395 9.0212 90.3688 8.4749 89.5692 8.32525V7.81097C89.6756 7.80509 89.7691 7.79529 89.8627 7.79529C94.3073 7.79529 98.7519 7.79703 103.196 7.80052C104.354 7.80052 105.509 7.88155 106.63 8.21089C109.311 8.99963 110.895 11.2456 110.859 14.2346C110.834 16.4479 110.023 18.2567 108.161 19.4741C107.275 20.0531 106.27 20.3027 105.24 20.4027C104.291 20.4942 103.336 20.5438 102.383 20.5523C100.103 20.5732 97.8219 20.5588 95.5415 20.5588H95.1131V20.9601C95.1131 23.0512 95.1315 25.1423 95.1035 27.2334C95.0933 28.0012 95.2168 28.6109 96.0706 28.7586V29.2676L89.5781 29.2663ZM95.1245 16.9981C95.2181 17.004 95.2799 17.0118 95.3422 17.0118C97.7615 17.0118 100.181 17.0255 102.6 16.9968C103.22 16.9896 103.843 16.8739 104.456 16.7576C105.141 16.6269 105.598 16.1734 105.897 15.5395C106.13 15.0353 106.23 14.4772 106.187 13.9209C106.11 12.6323 105.379 11.7377 104.15 11.5279C103.47 11.4139 102.783 11.354 102.094 11.3489C99.8878 11.3273 97.6812 11.341 95.4734 11.341H95.1226L95.1245 16.9981Z" fill="#303030"/>
<path d="M180.845 7.86327L180.825 8.27953C180.066 8.28476 179.616 8.76572 179.191 9.30025C177.445 11.5055 175.697 13.709 173.947 15.9107C173.445 16.5442 172.945 17.1791 172.447 17.8156C172.362 17.9241 172.284 18.0391 172.186 18.1757C172.592 18.7109 172.984 19.2336 173.38 19.7564C175.29 22.2736 177.2 24.7899 179.11 27.3053C179.657 28.0241 180.235 28.7122 181.206 28.8017V29.1892H173.086L173.053 28.852C173.193 28.79 173.318 28.7377 173.441 28.6795C173.926 28.4502 174.092 28.0326 173.828 27.5614C173.582 27.1424 173.31 26.7403 173.013 26.3577C171.91 24.8796 170.802 23.4056 169.689 21.9357C169.626 21.8521 169.552 21.7769 169.456 21.6671C169.353 21.7795 169.265 21.8632 169.185 21.9632C167.952 23.5315 166.721 25.0998 165.493 26.6681C165.32 26.8892 165.164 27.1229 165.025 27.3674C164.652 28.0208 164.875 28.5717 165.581 28.771C165.662 28.7939 165.745 28.8109 165.852 28.8364V29.1925H157.945L157.918 28.8187C158.988 28.7396 159.49 27.9039 160.058 27.185C162.322 24.3185 164.577 21.4432 166.821 18.5593C166.867 18.5004 166.904 18.4351 166.966 18.3403C166.825 18.1443 166.683 17.9483 166.536 17.7522C164.519 15.0734 162.501 12.3942 160.483 9.71455C160.356 9.54269 160.21 9.38128 160.081 9.20811C159.662 8.64221 159.122 8.29848 158.392 8.273V7.85413H166.63L166.65 8.23575C166.511 8.30567 166.378 8.36645 166.251 8.43898C165.781 8.70952 165.624 9.1578 165.857 9.65705C165.988 9.93038 166.146 10.1892 166.329 10.4294C167.382 11.8366 168.441 13.2391 169.505 14.6371C169.556 14.7025 169.617 14.7613 169.702 14.8534C169.798 14.7423 169.884 14.6522 169.961 14.5541C171.012 13.2145 172.065 11.8749 173.109 10.5301C173.321 10.2584 173.511 9.96896 173.677 9.66489C173.999 9.06696 173.824 8.61934 173.2 8.37363C173.083 8.32789 172.962 8.29195 172.825 8.24294V7.86327H180.845Z" fill="#DEB246"/>
<path d="M113.584 29.2905V28.7854C113.658 28.7547 113.726 28.7253 113.795 28.6978C114.371 28.4684 114.542 28.226 114.542 27.5948C114.542 21.5628 114.545 15.5311 114.55 9.49955C114.55 8.79838 114.192 8.47295 113.589 8.31285V7.8136H120.097V8.27103C120.077 8.28932 120.064 8.30958 120.046 8.31677C119.244 8.63109 119.128 8.80295 119.128 9.69363C119.128 14.8778 119.128 20.0603 119.128 25.241V25.6984C119.29 25.7088 119.432 25.7258 119.574 25.7258C123.585 25.7258 127.596 25.718 131.603 25.735C132.343 25.735 132.954 25.6343 133.081 24.7378H133.581V30.2661H133.136C133.124 30.2563 133.1 30.2465 133.093 30.2289C132.739 29.3624 132.637 29.2905 131.721 29.2905H113.584Z" fill="#303030"/>
<path d="M31.7 28.7624V29.2676H25.1802L25.1611 28.8265C25.1874 28.7991 25.2167 28.775 25.2484 28.7546C26.0677 28.3965 26.1562 28.2586 26.1562 27.332C26.1562 21.4945 26.1492 15.6571 26.1645 9.81902C26.1645 9.05904 26.0219 8.47026 25.1815 8.32323V7.82202H31.6975V8.29448C31.6529 8.31278 31.6071 8.33434 31.5593 8.35198C30.889 8.60226 30.7387 8.81921 30.7387 9.56286C30.7387 13.4837 30.7387 17.4045 30.7387 21.3253C30.7387 23.2857 30.7584 25.2461 30.7292 27.2065C30.7164 27.9815 30.8253 28.6108 31.7 28.7624Z" fill="#303030"/>
<path d="M120.874 43.7766H118.92L117.66 40.0139H116.829V43.7589H115.021V34.0203C115.052 34.0053 115.081 33.9785 115.109 33.9791C116.294 34.0059 117.487 33.9667 118.664 34.0843C119.803 34.1987 120.615 35.0868 120.817 36.2539C121.068 37.6974 120.641 38.8501 119.337 39.6329L120.874 43.7766ZM116.835 38.3646C117.415 38.4195 117.949 38.4123 118.433 38.1149C119.149 37.6738 119.204 36.444 118.525 35.9644C118.016 35.6043 117.432 35.6442 116.836 35.6808L116.835 38.3646Z" fill="#767676"/>
<path d="M71.7395 33.9824H73.3311L76.9759 43.7583H75.0195L74.2638 41.7273H70.677L69.9283 43.7616H68.04L71.7395 33.9824ZM73.6533 39.9179L72.5366 36.791H72.4532L71.3143 39.9185L73.6533 39.9179Z" fill="#767676"/>
<path d="M23.3242 33.9915H25.0966V37.9279H27.356V33.9928H29.1386V43.766H27.3751V39.6309H25.1068V43.7615H23.3242V33.9915Z" fill="#767676"/>
<path d="M48.9045 39.6068V42.0985H52.1742V43.759H47.0996V33.9955H52.1723V35.6488H48.9026V37.9359H52.1723V39.6042L48.9045 39.6068Z" fill="#767676"/>
<path d="M142.897 33.9948V35.6428H139.614V37.9397H142.89V39.5911H139.629V42.101H142.886V43.7589H137.812V33.9948H142.897Z" fill="#767676"/>
<path d="M0.482422 35.6513V34.002H5.88301V35.6448H4.09279V43.7609H2.26755V35.6513H0.482422Z" fill="#767676"/>
<path d="M97.5802 33.9915V35.6323H95.7976V43.7615H93.9921V35.6585H92.2031V33.9921L97.5802 33.9915Z" fill="#767676"/>
</g>
<defs>
<clipPath id="clip0">
<rect width="212" height="43.9784" fill="white" transform="translate(0 0.0216064)"/>
</clipPath>
</defs>
</svg>
