<svg width="572" height="61" viewBox="0 0 572 61" fill="none" xmlns="http://www.w3.org/2000/svg">
<path d="M0.0378017 6.57904C1.85217 6.57904 3.70434 6.57904 5.59431 6.57904C5.59431 8.50738 5.59431 10.3601 5.59431 12.2128C5.59431 14.0655 5.59431 15.9183 5.59431 17.771C5.63211 17.771 5.66991 17.8088 5.70771 17.8088C9.07186 14.0655 12.3982 10.3223 15.7624 6.57904C18.1059 6.57904 20.4495 6.57904 22.9064 6.57904C19.3911 10.3223 15.9136 14.0277 12.3982 17.7332C16.1025 22.6864 19.8069 27.6396 23.549 32.6306C21.1299 32.6306 18.7863 32.6306 16.4049 32.6306C13.7968 29.0007 11.1508 25.3331 8.50487 21.6655C7.55988 22.6486 6.6149 23.6316 5.55652 24.7281C5.55652 27.1858 5.55652 29.8704 5.55652 32.6684C3.70435 32.6684 1.85217 32.6684 0 32.6684C0.0377994 24.0097 0.0378017 15.3133 0.0378017 6.57904Z" fill="#E2010F"/>
<path d="M86.9386 0.0378129C87.9214 0.189055 88.9042 0.226859 89.887 0.491533C94.9899 1.92834 98.5808 4.991 99.9794 10.2089C101.34 15.3133 99.1856 20.6446 94.6875 23.7451C91.8903 25.6734 88.7908 26.4674 85.4266 26.3162C85.3132 26.3162 85.2376 26.2784 85.0864 26.2784C85.0864 24.1988 85.0864 22.1192 85.0864 20.0396C85.2754 19.9262 85.5022 20.0018 85.729 20.0018C87.7702 20.0774 89.6224 19.5481 91.2477 18.3003C94.7631 15.5402 94.6875 10.6626 91.1343 8.01584C89.4712 6.76809 87.5434 6.27656 85.4644 6.38999C85.351 6.38999 85.2376 6.38999 85.162 6.38999C85.162 6.38999 85.1242 6.38999 85.0864 6.35218C85.0864 4.31041 85.0864 2.23082 85.0864 0.15124C85.2754 0.11343 85.4644 0.0756212 85.6912 0C86.107 0.0378106 86.5228 0.0378129 86.9386 0.0378129Z" fill="#E2010F"/>
<path d="M0.0378418 47.6792C2.3814 47.6792 4.72497 47.6792 7.06853 47.6792C7.06853 48.3976 7.06853 49.0782 7.06853 49.8344C6.31255 49.8344 5.55656 49.8344 4.76277 49.8344C4.76277 53.2374 4.76277 56.6025 4.76277 59.9677C3.96898 59.9677 3.21299 59.9677 2.3814 59.9677C2.3814 56.6025 2.3814 53.2752 2.3814 49.8344C1.54982 49.8344 0.79383 49.8344 0.0378418 49.8344C0.0378418 49.1538 0.0378418 48.4354 0.0378418 47.6792Z" fill="#303030"/>
<path d="M60.101 6.73029C61.991 6.73029 63.7675 6.73029 65.5819 6.73029C65.5819 15.4267 65.5819 24.0854 65.5819 32.7818C63.9565 32.7818 62.3312 32.7818 60.668 32.7818C56.5478 27.2993 52.4277 21.7411 48.3076 16.2208C48.2698 16.2208 48.232 16.2208 48.1942 16.2586C48.1942 21.7411 48.1942 27.2615 48.1942 32.7818C46.342 32.7818 44.6032 32.7818 42.8267 32.7818C42.8267 24.0854 42.8267 15.4267 42.8267 6.73029C44.5276 6.73029 46.2286 6.73029 48.0052 6.73029C51.9741 12.0616 55.9809 17.4307 59.9876 22.7998C60.0254 22.7998 60.101 22.762 60.1388 22.762C60.101 17.4307 60.101 12.0616 60.101 6.73029Z" fill="#E2010F"/>
<path d="M160.194 6.69244C160.383 6.69244 160.534 6.69244 160.685 6.69244C164.73 6.69244 168.774 6.69244 172.781 6.69244C174.558 6.69244 176.259 7.03275 177.808 7.97801C180.114 9.45263 181.286 11.6456 181.664 14.2924C182.306 18.754 179.736 21.9679 176.674 23.4047C176.599 23.4426 176.485 23.4804 176.41 23.5938C177.43 25.1062 178.413 26.6186 179.434 28.1311C180.417 29.6435 181.437 31.1181 182.495 32.7062C180.228 32.7062 178.073 32.7062 175.843 32.7062C173.991 29.946 172.138 27.148 170.248 24.35C168.85 24.35 167.451 24.35 166.015 24.35C166.015 27.148 166.015 29.946 166.015 32.7818C164.049 32.7818 162.159 32.7818 160.194 32.7818C160.194 24.1231 160.194 15.4645 160.194 6.69244ZM165.977 19.4724C167.716 19.4724 169.417 19.4724 171.118 19.4724C171.458 19.4724 171.798 19.4724 172.101 19.4346C175.465 19.0943 176.145 16.7123 175.729 14.5192C175.465 13.0068 174.293 12.3262 172.932 12.0616C170.626 11.6078 168.321 11.8347 166.015 11.8347C166.015 11.8347 165.977 11.8347 165.939 11.8725C165.977 14.368 165.977 16.9013 165.977 19.4724Z" fill="#303030"/>
<path d="M193.911 24.8038C193.911 27.2615 193.911 29.9838 193.911 32.7062C192.059 32.7062 190.244 32.7062 188.392 32.7062C188.392 24.0098 188.392 15.3133 188.392 6.61688C190.244 6.61688 192.021 6.61688 193.873 6.61688C193.873 10.3601 193.873 14.0656 193.873 17.8088C193.911 17.8088 193.949 17.8466 193.986 17.8466C197.351 14.1034 200.715 10.3223 204.079 6.61688C206.46 6.61688 208.804 6.61688 211.261 6.61688C207.708 10.3979 204.23 14.1034 200.753 17.8088C204.457 22.762 208.161 27.7152 211.866 32.7062C209.446 32.7062 207.103 32.7062 204.721 32.7062C202.113 29.0764 199.467 25.4466 196.821 21.7789C195.876 22.762 194.969 23.7073 193.911 24.8038Z" fill="#303030"/>
<path d="M111.319 24.9928C111.319 27.6395 111.319 30.2107 111.319 32.8196C109.354 32.8196 107.464 32.8196 105.536 32.8196C105.536 24.1231 105.536 15.4645 105.536 6.80589C105.687 6.65465 105.876 6.73027 106.027 6.73027C109.656 6.73027 113.323 6.73027 116.951 6.73027C121.941 6.73027 125.418 10.0576 125.91 14.973C126.477 20.2665 122.13 24.9172 116.762 24.9928C115.137 25.0306 113.512 24.9928 111.848 24.9928C111.697 24.9928 111.546 24.9928 111.319 24.9928ZM111.357 19.7749C111.433 19.8127 111.47 19.8127 111.508 19.8127C113.134 19.8127 114.759 19.8506 116.384 19.7749C118.652 19.6615 119.748 18.565 120.013 16.3342C120.278 14.179 119.333 12.78 117.329 12.3262C117.065 12.2506 116.762 12.2128 116.498 12.175C114.986 12.0238 113.436 12.1372 111.924 12.0994C111.735 12.0994 111.546 12.0616 111.319 12.175C111.357 14.7083 111.357 17.2416 111.357 19.7749Z" fill="#303030"/>
<path d="M154.373 32.8196C152.369 32.8196 150.404 32.8196 148.438 32.8196C147.682 30.8913 146.926 29.0007 146.17 27.0724C142.541 27.0724 138.913 27.0724 135.208 27.0724C134.49 28.9629 133.772 30.8913 133.016 32.8196C131.126 32.8196 129.236 32.8196 127.271 32.8196C130.861 24.0854 134.452 15.3889 138.043 6.73029C139.858 6.73029 141.634 6.73029 143.524 6.73029C147.153 15.3889 150.744 24.0854 154.373 32.8196ZM144.053 21.9302C142.957 19.1322 141.899 16.4476 140.803 13.6496C139.669 16.4476 138.535 19.17 137.439 21.9302C139.669 21.9302 141.823 21.9302 144.053 21.9302Z" fill="#303030"/>
<path d="M85.1997 33.4624C85.1997 35.542 85.1997 37.6216 85.1997 39.7012C85.1619 39.7768 85.0486 39.8146 84.973 39.8146C78.5849 40.2305 72.6881 36.5629 70.647 30.8535C68.6814 25.4087 70.7226 19.4347 75.6743 16.0317C78.3959 14.179 81.4198 13.385 84.6705 13.4984C84.7839 13.4984 84.8973 13.4984 85.0485 13.5362C85.1241 13.5362 85.1619 13.574 85.2375 13.574C85.2375 15.6536 85.2375 17.7332 85.2375 19.8506C84.1414 19.7372 83.0452 19.775 81.9868 20.0774C80.1346 20.569 78.6226 21.5521 77.5643 23.1779C75.6365 26.0515 76.3547 29.7191 79.2274 31.8365C80.5882 32.8574 82.1758 33.3868 83.8768 33.4246C84.2548 33.4624 84.7083 33.4624 85.1997 33.4624Z" fill="#303030"/>
<path d="M28.9165 32.7818C28.9165 24.0854 28.9165 15.4267 28.9165 6.73029C30.8065 6.73029 32.6586 6.73029 34.5486 6.73029C34.5486 15.3889 34.5486 24.0854 34.5486 32.7818C32.6964 32.7818 30.8065 32.7818 28.9165 32.7818Z" fill="#E2010F"/>
<path d="M149.61 55.2791C149.61 56.8672 149.61 58.4174 149.61 59.9676C148.816 59.9676 148.023 59.9676 147.229 59.9676C147.229 55.8841 147.229 51.8006 147.229 47.717C147.229 47.717 147.267 47.6792 147.304 47.6792C148.816 47.6792 150.328 47.5658 151.84 47.7548C153.503 47.9439 154.713 49.2672 154.826 50.9309C154.978 52.5946 154.373 53.9179 152.861 54.7876C153.503 56.5269 154.184 58.2284 154.826 60.0055C153.957 60.0055 153.125 60.0055 152.256 60.0055C151.727 58.4552 151.198 56.905 150.668 55.3169C150.328 55.2413 149.988 55.2791 149.61 55.2791ZM149.648 49.8722C149.648 51.0065 149.648 52.103 149.648 53.1995C150.555 53.1995 151.5 53.2752 152.067 52.4055C152.445 51.8384 152.445 51.1578 152.067 50.5906C151.5 49.721 150.555 49.8722 149.648 49.8722Z" fill="#303030"/>
<path d="M31.7893 47.717C31.7893 49.3806 31.7893 50.9687 31.7893 52.6324C32.7343 52.6324 33.6414 52.6324 34.5864 52.6324C34.5864 51.0065 34.5864 49.3806 34.5864 47.717C35.418 47.717 36.174 47.717 36.9678 47.717C36.9678 51.8005 36.9678 55.8841 36.9678 60.0054C36.174 60.0054 35.418 60.0054 34.5864 60.0054C34.5864 58.304 34.5864 56.5647 34.5864 54.8254C33.6414 54.8254 32.7343 54.8254 31.7893 54.8254C31.7893 56.5269 31.7893 58.2661 31.7893 60.0054C30.9577 60.0054 30.1639 60.0054 29.3701 60.0054C29.3701 55.9219 29.3701 51.8383 29.3701 47.7548C30.1639 47.717 30.9577 47.717 31.7893 47.717Z" fill="#303030"/>
<path d="M91.6258 47.6792C92.3439 47.6792 92.9865 47.6792 93.7047 47.6792C95.2545 51.7627 96.8421 55.8463 98.4296 60.0055C97.5225 60.0055 96.6909 60.0055 95.8593 60.0055C95.5569 59.1736 95.2167 58.304 94.8765 57.4343C93.3645 57.4343 91.8526 57.4343 90.3028 57.4343C90.0004 58.2662 89.6602 59.1358 89.3578 60.0055C88.5262 60.0055 87.7324 60.0055 86.863 60.0055C88.4506 55.8841 90.0382 51.8006 91.6258 47.6792ZM91.1722 55.1279C92.155 55.1279 93.0999 55.1279 94.0827 55.1279C93.5913 53.8045 93.1377 52.5568 92.6463 51.1956C92.1172 52.5568 91.6636 53.8045 91.1722 55.1279Z" fill="#303030"/>
<path d="M59.95 59.9676C59.95 55.8841 59.95 51.8005 59.95 47.717C62.1423 47.717 64.3725 47.717 66.5648 47.717C66.5648 48.3976 66.5648 49.0782 66.5648 49.8344C65.1663 49.8344 63.7677 49.8344 62.3691 49.8344C62.3691 50.7796 62.3691 51.6871 62.3691 52.6702C63.7677 52.6702 65.1285 52.6702 66.5648 52.6702C66.5648 53.3886 66.5648 54.0692 66.5648 54.7876C65.1663 54.7876 63.7677 54.7876 62.3691 54.7876C62.3691 55.8463 62.3691 56.8293 62.3691 57.8502C63.7677 57.8502 65.1663 57.8502 66.5648 57.8502C66.5648 58.5686 66.5648 59.2492 66.5648 60.0054C64.3725 59.9676 62.1801 59.9676 59.95 59.9676Z" fill="#303030"/>
<path d="M183.1 47.717C183.1 48.4354 183.1 49.116 183.1 49.8344C181.702 49.8344 180.303 49.8344 178.905 49.8344C178.905 50.7797 178.905 51.6871 178.905 52.6324C180.303 52.6324 181.702 52.6324 183.1 52.6324C183.1 53.3508 183.1 54.0314 183.1 54.7498C181.702 54.7498 180.303 54.7498 178.905 54.7498C178.905 55.8085 178.905 56.7916 178.905 57.8124C180.303 57.8124 181.702 57.8124 183.1 57.8124C183.1 58.5309 183.1 59.2493 183.1 59.9677C180.908 59.9677 178.716 59.9677 176.523 59.9677C176.523 55.8841 176.523 51.8006 176.523 47.6792C178.716 47.717 180.87 47.717 183.1 47.717Z" fill="#303030"/>
<path d="M211.601 50.9687C210.883 50.9687 210.202 50.9687 209.522 50.9687C209.409 50.8553 209.446 50.7419 209.446 50.6284C209.333 50.0235 208.879 49.6075 208.237 49.6075C207.556 49.5697 207.103 49.91 206.952 50.5528C206.763 51.2712 207.027 51.8384 207.708 52.1787C208.123 52.3677 208.539 52.519 208.993 52.6324C209.522 52.7836 210.013 52.9727 210.505 53.2374C211.261 53.6911 211.752 54.3339 211.903 55.2035C212.092 56.2244 212.017 57.2453 211.563 58.2284C210.845 59.7408 209.333 60.497 207.481 60.2323C206.007 60.0433 204.797 58.7955 204.532 57.2075C204.495 56.905 204.419 56.6025 204.457 56.2244C205.175 56.2244 205.893 56.2244 206.611 56.2244C206.649 56.4135 206.649 56.6025 206.687 56.7538C206.838 57.5478 207.292 58.0015 207.972 58.0393C208.766 58.1149 209.333 57.7746 209.598 57.1319C209.9 56.3756 209.673 55.6572 209.031 55.2035C208.653 54.9388 208.237 54.8254 207.821 54.6742C207.481 54.5607 207.103 54.4473 206.763 54.2961C204.91 53.4264 204.268 51.4225 205.175 49.4185C205.931 47.717 207.972 46.9608 209.749 47.717C210.807 48.1707 211.601 49.4563 211.601 50.9687Z" fill="#303030"/>
<path d="M120.202 60.0054C120.202 56.6403 120.202 53.2751 120.202 49.8722C119.408 49.8722 118.652 49.8722 117.896 49.8722C117.896 49.116 117.896 48.4354 117.896 47.717C120.24 47.717 122.546 47.717 124.889 47.717C124.889 48.4354 124.889 49.116 124.889 49.8344C124.133 49.8344 123.377 49.8344 122.621 49.8344C122.621 53.2373 122.621 56.6025 122.621 59.9676C121.79 60.0054 121.034 60.0054 120.202 60.0054Z" fill="#303030"/>
<g clip-path="url(#clip0)">
<path d="M572 0.624045C571.111 0.680212 570.41 1.05733 569.838 1.7661C567.332 4.8713 564.793 7.94975 562.283 11.0523C558.746 15.4237 555.22 19.802 551.703 24.1872C551.564 24.3593 551.436 24.5385 551.29 24.7328C551.356 24.8527 551.428 24.969 551.507 25.0814C554.682 29.1711 557.859 33.2594 561.038 37.3462C561.769 38.2841 562.572 39.1346 563.861 39.2656V39.789H552.519L552.484 39.32C552.708 39.2309 552.902 39.1569 553.085 39.0668C553.694 38.7655 553.928 38.2083 553.582 37.6279C553.147 36.9222 552.672 36.2418 552.16 35.5899C550.738 33.7239 549.305 31.8713 547.875 30.0142C547.758 29.8636 547.633 29.7209 547.472 29.5275C547.316 29.6924 547.179 29.8181 547.064 29.9607C545.619 31.7497 544.176 33.5402 542.735 35.3322C537.271 42.093 531.808 48.8547 526.346 55.6172C526.048 55.9866 525.788 56.3843 525.568 56.8047C525.178 57.5509 525.479 58.224 526.279 58.4879C526.444 58.5423 526.612 58.5896 526.782 58.6413V59.1281H515.791L515.751 58.7358C515.804 58.676 515.821 58.6386 515.84 58.635C517.215 58.3997 517.941 57.3298 518.73 56.3545C525.035 48.556 531.336 40.7539 537.633 32.9483C539.664 30.4312 541.686 27.907 543.699 25.3756C543.788 25.2615 543.871 25.1402 543.982 24.9887C543.587 24.4689 543.204 23.9616 542.817 23.4597C540.078 19.9144 537.339 16.3688 534.601 12.8229C533.936 11.9599 533.193 11.2493 531.984 11.2716L531.958 10.6921H543.487L543.525 11.2056C543.292 11.3278 543.081 11.424 542.877 11.548C542.308 11.9046 542.106 12.4894 542.407 13.085C542.642 13.5473 542.92 13.9869 543.236 14.3982C544.641 16.2374 546.064 18.0624 547.483 19.8909C547.563 19.9943 547.66 20.0879 547.784 20.2315C547.897 20.1102 547.998 20.0139 548.085 19.9061C551.901 15.1697 555.715 10.4318 559.528 5.6924C560.289 4.7447 561.019 3.77204 561.75 2.80295C561.872 2.63412 561.969 2.44894 562.039 2.25287C562.239 1.72687 562.072 1.23296 561.58 0.956586C561.313 0.806809 561.012 0.715873 560.691 0.584818V0.0793201C560.878 0.0668387 561.062 0.0427674 561.247 0.0427674C564.639 0.0427674 568.031 0.0427674 571.423 0.0427674C571.614 0.0427674 571.804 0.016913 571.996 0.00354004L572 0.624045Z" fill="#DEB246"/>
<path d="M502.134 60C502.011 59.9559 501.886 59.9184 501.759 59.8877C499.921 59.5382 498.464 57.5635 498.687 55.7153C498.687 55.6886 498.714 55.6645 498.749 55.6066H500.911C500.956 55.8651 500.985 56.1281 501.048 56.3822C501.226 57.0954 501.737 57.5626 502.39 57.6223C503.241 57.6999 503.871 57.3923 504.178 56.7495C504.507 56.0586 504.445 55.2339 503.911 54.7703C503.543 54.4485 503.075 54.2256 502.624 54.0179C502.091 53.7709 501.501 53.6327 500.977 53.367C499.548 52.6413 498.873 51.3165 499.07 49.7224C499.104 49.4129 499.158 49.1059 499.231 48.8033C499.671 47.08 501.167 45.9664 502.907 46.0556C504.857 46.1554 506.07 47.2146 506.386 49.0948C506.422 49.3115 506.448 49.5299 506.486 49.808H504.244C504.209 49.6814 504.172 49.5557 504.14 49.43C503.962 48.7275 503.473 48.3281 502.779 48.3138C502.136 48.3005 501.607 48.6704 501.421 49.2562C501.179 50.0175 501.364 50.7147 501.979 51.0517C502.429 51.2978 502.929 51.452 503.414 51.6303C503.732 51.7471 504.068 51.8184 504.386 51.9379C505.78 52.4595 506.665 53.4009 506.792 54.9415C506.891 56.1415 506.703 57.2853 506.009 58.2954C505.721 58.73 505.344 59.098 504.903 59.3747C504.462 59.6515 503.967 59.8306 503.452 59.9002C503.336 59.9248 503.222 59.9582 503.111 60H502.134Z" fill="#767676"/>
<path d="M325.531 11.309V10.627H335.429V11.2573C335.42 11.2671 335.405 11.2992 335.382 11.3073C334.304 11.6549 334.336 12.5786 335.054 13.331C336.324 14.6624 337.597 15.9908 338.872 17.3162C342.855 21.4713 346.838 25.6267 350.821 29.7824C350.922 29.8876 351.006 30.0071 351.099 30.1203L351.23 30.0731V29.5711C351.23 24.1783 351.216 18.7836 351.243 13.3925C351.248 12.3477 351.088 11.5078 349.881 11.3331V10.6341H358.438V11.2582C358.415 11.2842 358.387 11.3062 358.356 11.3233C357.221 11.8029 357.09 11.9991 357.09 13.2187C357.09 21.183 357.086 29.1474 357.078 37.1117C357.078 38.1521 357.24 38.9919 358.441 39.2032V39.9058H349.285V39.2407C349.39 39.1961 349.514 39.1515 349.632 39.0909C350.131 38.8422 350.29 38.3777 349.992 37.9078C349.784 37.5813 349.544 37.2767 349.275 36.9985C343.87 31.3908 338.462 25.7863 333.05 20.1851C332.972 20.1049 332.883 20.0362 332.73 19.8998C332.73 20.1405 332.73 20.2974 332.73 20.4535C332.73 25.9952 332.743 31.537 332.718 37.0778C332.714 38.1334 332.871 38.9919 334.093 39.2032V39.8897H325.543V39.23C325.627 39.1961 325.721 39.156 325.817 39.1185C326.625 38.8047 326.864 38.4784 326.865 37.6163C326.865 29.3708 326.868 21.1254 326.875 12.8799C326.875 11.9393 326.345 11.5301 325.531 11.309Z" fill="#303030"/>
<path d="M379.631 40.4755C376.876 40.438 374.18 40.0966 371.66 38.9429C366.469 36.567 363.55 32.474 362.936 26.8092C362.444 22.2731 363.766 18.2585 366.86 14.8886C369.035 12.5206 371.802 11.2012 374.911 10.5825C378.888 9.79078 382.862 9.79256 386.687 11.2377C392.428 13.4068 395.778 17.5872 396.356 23.7602C396.914 29.704 394.673 34.4469 389.759 37.8383C387.555 39.3593 385.015 40.0208 382.381 40.2963C381.466 40.3863 380.547 40.414 379.631 40.4755ZM379.75 35.449C380.049 35.4339 380.45 35.4276 380.847 35.3911C383.909 35.1067 386.397 33.7863 388.151 31.2187C389.723 28.9212 390.191 26.3554 389.818 23.6166C389.562 21.7355 388.881 20.0425 387.644 18.5831C384.488 14.8565 379.002 14.3037 375.266 15.9307C368.524 18.8683 368.293 26.6157 370.74 30.6365C372.764 33.9548 375.836 35.4116 379.75 35.4446V35.449Z" fill="#303030"/>
<path d="M473.367 15.444V22.3828H473.867C477.466 22.3828 481.067 22.3605 484.664 22.397C485.697 22.4077 486.502 22.2276 486.709 21.0481H487.413V28.4238H486.714C486.508 27.1418 485.59 27.0455 484.52 27.0553C481.01 27.0874 477.498 27.0678 473.99 27.0678H473.38V35.0728H473.987C479.838 35.0728 485.688 35.0603 491.539 35.0844C492.583 35.0844 493.462 34.9703 493.644 33.7213H494.343V41.2681H493.707C493.687 41.2504 493.67 41.2297 493.656 41.2065C493.171 40.0324 493.02 39.9317 491.734 39.9317H465.625V39.2033C466.831 38.9991 466.958 38.1334 466.958 37.0814C466.934 29.1635 466.934 21.2455 466.958 13.3275C466.958 12.3004 466.766 11.5159 465.611 11.3394V10.6092H466.168C474.448 10.6092 482.728 10.6131 491.007 10.6208C492.053 10.6208 492.929 10.5031 493.129 9.25854H493.826V16.8018H493.204C493.194 16.7929 493.16 16.7768 493.154 16.7528C492.87 15.6829 492.135 15.4262 491.102 15.4324C485.385 15.4654 479.668 15.4484 473.947 15.4484L473.367 15.444Z" fill="#303030"/>
<path d="M295.39 11.2707V10.6341H307.283V11.3224C306.358 11.4116 305.722 12.0356 305.045 12.5804C301.067 15.797 297.091 19.0166 293.117 22.2392C293.028 22.3123 292.944 22.3943 292.829 22.4986C293.558 23.3786 294.274 24.2434 294.991 25.1081L304.591 36.69C304.715 36.8389 304.842 36.9833 304.97 37.1278C305.82 38.0897 306.652 39.0758 308.057 39.2015V39.9022H296.663V39.2541C296.884 39.1649 297.124 39.0936 297.344 38.9812C297.796 38.7503 297.885 38.4713 297.616 38.0443C297.363 37.6419 297.087 37.2549 296.788 36.8853C293.985 33.4267 291.179 29.9717 288.368 26.5203C288.304 26.4419 288.231 26.3697 288.137 26.2671L283.751 29.8163C283.751 30.3878 283.751 30.9646 283.751 31.5423C283.751 33.4145 283.751 35.2867 283.751 37.159C283.751 38.5426 283.84 38.6853 285.107 39.2558V39.9067H276.036V39.2505C276.051 39.2328 276.069 39.218 276.089 39.2068C277.236 38.7361 277.356 38.5578 277.356 37.3194C277.356 29.2957 277.356 21.2719 277.356 13.2481C277.356 11.9492 277.251 11.794 276.022 11.2867C276.015 11.1833 276.002 11.0683 276 10.9524C276 10.8517 276.01 10.7509 276.017 10.627H285.109V11.2511C285.088 11.2734 285.071 11.3028 285.047 11.3126C283.901 11.7655 283.752 11.9848 283.752 13.2303C283.752 16.3209 283.752 19.4116 283.752 22.5022C283.752 22.6609 283.752 22.8196 283.752 23.0781C283.96 22.9141 284.095 22.8107 284.227 22.7019C288.046 19.5732 291.866 16.4431 295.686 13.3114C295.953 13.1002 296.196 12.8611 296.412 12.5982C296.742 12.1801 296.657 11.8252 296.184 11.5792C295.925 11.4615 295.66 11.3585 295.39 11.2707Z" fill="#303030"/>
<path d="M401.072 39.8987C401.053 39.8214 401.04 39.7431 401.031 39.6642C401.025 39.5323 401.031 39.3968 401.031 39.3076C401.086 39.2479 401.103 39.2184 401.127 39.2077C402.124 38.9403 402.418 38.269 402.414 37.2713C402.388 29.2797 402.388 21.288 402.414 13.2963C402.414 12.2782 402.176 11.5328 401.059 11.3287V10.627C401.208 10.619 401.338 10.6057 401.469 10.6057C407.675 10.6057 413.88 10.608 420.086 10.6128C421.702 10.6128 423.315 10.7233 424.88 11.1727C428.624 12.2487 430.835 15.3129 430.785 19.3908C430.749 22.4104 429.617 24.8782 427.017 26.5391C425.781 27.329 424.377 27.6696 422.939 27.806C421.615 27.9308 420.281 27.9985 418.951 28.0101C415.767 28.0386 412.582 28.019 409.398 28.019H408.8V28.5664C408.8 31.4193 408.826 34.2722 408.786 37.1251C408.772 38.1727 408.945 39.0045 410.137 39.206V39.9005L401.072 39.8987ZM408.816 23.1611C408.946 23.1691 409.033 23.1798 409.12 23.1798C412.497 23.1798 415.875 23.1985 419.253 23.1593C420.119 23.1495 420.989 22.9917 421.844 22.833C422.801 22.6547 423.439 22.036 423.857 21.1712C424.182 20.4833 424.322 19.7218 424.262 18.9629C424.154 17.2048 423.133 15.9843 421.417 15.6981C420.468 15.5425 419.509 15.4608 418.547 15.4538C415.466 15.4244 412.386 15.4431 409.303 15.4431H408.813L408.816 23.1611Z" fill="#303030"/>
<path d="M528.499 10.6984L528.473 11.2663C527.412 11.2734 526.784 11.9296 526.19 12.6589C523.753 15.6675 521.312 18.6737 518.869 21.6776C518.168 22.5418 517.47 23.4081 516.775 24.2764C516.656 24.4244 516.547 24.5813 516.41 24.7676C516.978 25.4978 517.524 26.211 518.077 26.9243C520.744 30.3584 523.41 33.7914 526.077 37.2232C526.842 38.2039 527.649 39.1427 529.003 39.2648V39.7935H517.667L517.621 39.3335C517.816 39.2488 517.991 39.1774 518.162 39.0981C518.84 38.7852 519.072 38.2155 518.703 37.5727C518.36 37.001 517.98 36.4525 517.565 35.9305C516.024 33.9138 514.477 31.9029 512.924 29.8975C512.835 29.7834 512.732 29.6809 512.598 29.5311C512.454 29.6844 512.331 29.7985 512.22 29.9349C510.498 32.0746 508.78 34.2143 507.065 36.354C506.824 36.6555 506.606 36.9743 506.412 37.3079C505.891 38.1994 506.202 38.951 507.188 39.2229C507.301 39.2541 507.417 39.2773 507.567 39.3121V39.798H496.527L496.489 39.288C497.983 39.1801 498.683 38.0399 499.476 37.0592C502.638 33.1483 505.786 29.2256 508.92 25.291C508.984 25.2107 509.035 25.1216 509.122 24.9923C508.924 24.7248 508.727 24.4574 508.522 24.1899C505.705 20.5352 502.888 16.88 500.07 13.2241C499.892 12.9896 499.689 12.7694 499.509 12.5332C498.923 11.7611 498.17 11.2922 497.151 11.2574V10.6859H508.652L508.681 11.2066C508.487 11.302 508.3 11.3849 508.123 11.4838C507.467 11.8529 507.248 12.4645 507.573 13.1456C507.756 13.5186 507.977 13.8717 508.232 14.1994C509.703 16.1192 511.181 18.0327 512.667 19.94C512.738 20.0292 512.824 20.1094 512.942 20.2351C513.076 20.0835 513.195 19.9605 513.303 19.8268C514.77 17.9991 516.241 16.1715 517.698 14.3367C517.995 13.966 518.261 13.5712 518.492 13.1563C518.942 12.3406 518.698 11.7299 517.826 11.3947C517.662 11.3323 517.493 11.2832 517.303 11.2164V10.6984H528.499Z" fill="#DEB246"/>
<path d="M434.589 39.9317V39.2426C434.693 39.2007 434.787 39.1605 434.883 39.1231C435.688 38.8102 435.927 38.4794 435.927 37.6182C435.927 29.3888 435.93 21.1597 435.937 12.9308C435.937 11.9742 435.438 11.5302 434.596 11.3118V10.6307H443.683V11.2547C443.655 11.2797 443.636 11.3073 443.611 11.3172C442.491 11.746 442.33 11.9805 442.33 13.1956C442.33 20.2684 442.33 27.3389 442.33 34.4069V35.031C442.556 35.0452 442.754 35.0684 442.952 35.0684C448.552 35.0684 454.152 35.0577 459.747 35.0809C460.781 35.0809 461.633 34.9436 461.811 33.7204H462.51V41.2628H461.888C461.872 41.2494 461.838 41.236 461.828 41.212C461.334 40.0298 461.191 39.9317 459.912 39.9317H434.589Z" fill="#303030"/>
<path d="M320.261 39.2113V39.9005H311.158L311.131 39.2987C311.168 39.2614 311.208 39.2285 311.253 39.2006C312.397 38.7121 312.52 38.5239 312.52 37.2597C312.52 29.2957 312.51 21.3317 312.532 13.3667C312.532 12.3299 312.333 11.5266 311.159 11.326V10.6422H320.257V11.2868C320.195 11.3118 320.131 11.3412 320.064 11.3652C319.128 11.7067 318.918 12.0027 318.918 13.0172C318.918 18.3664 318.918 23.7156 318.918 29.0648C318.918 31.7394 318.946 34.414 318.905 37.0886C318.887 38.1459 319.039 39.0045 320.261 39.2113Z" fill="#303030"/>
<path d="M444.767 59.6951H442.039L440.28 54.5617H439.119V59.671H436.595V46.3846C436.638 46.364 436.678 46.3275 436.717 46.3284C438.372 46.3649 440.037 46.3114 441.681 46.4719C443.271 46.6279 444.405 47.8395 444.688 49.4318C445.037 51.4012 444.442 52.9738 442.621 54.0419L444.767 59.6951ZM439.128 52.3114C439.937 52.3863 440.683 52.3765 441.359 51.9709C442.358 51.3691 442.434 49.6912 441.487 49.0369C440.776 48.5456 439.962 48.6 439.129 48.6499L439.128 52.3114Z" fill="#767676"/>
<path d="M376.165 46.3329H378.387L383.476 59.6702H380.744L379.689 56.8993H374.681L373.636 59.6746H370.999L376.165 46.3329ZM378.837 54.4307L377.277 50.1647H377.161L375.571 54.4315L378.837 54.4307Z" fill="#767676"/>
<path d="M308.566 46.3453H311.041V51.7159H314.196V46.3471H316.684V59.6808H314.222V54.0392H311.055V59.6746H308.566V46.3453Z" fill="#767676"/>
<path d="M344.282 54.0062V57.4056H348.848V59.671H341.762V46.3506H348.845V48.6062H344.28V51.7266H348.845V54.0026L344.282 54.0062Z" fill="#767676"/>
<path d="M475.516 46.3498V48.5982H470.933V51.732H475.507V53.9849H470.955V57.4092H475.502V59.671H468.418V46.3498H475.516Z" fill="#767676"/>
<path d="M276.673 48.6098V46.3596H284.214V48.6009H281.714V59.6737H279.166V48.6098H276.673Z" fill="#767676"/>
<path d="M412.245 46.3453V48.5839H409.756V59.6746H407.235V48.6196H404.737V46.3462L412.245 46.3453Z" fill="#767676"/>
</g>
<defs>
<clipPath id="clip0">
<rect width="296" height="60" fill="white" transform="translate(276)"/>
</clipPath>
</defs>
</svg>
