<svg width="14" height="14" viewBox="0 0 14 14" fill="none" xmlns="http://www.w3.org/2000/svg">
<mask id="mask0" mask-type="alpha" maskUnits="userSpaceOnUse" x="2" y="1" width="10" height="12">
<path fill-rule="evenodd" clip-rule="evenodd" d="M5.02441 10.4092C5.45517 11.0229 5.95989 11.7419 6.55038 12.598C6.76762 12.9118 7.23235 12.9118 7.44962 12.598C8.04011 11.7419 8.54483 11.0229 8.97559 10.4092C10.9601 7.58209 11.375 6.99104 11.375 5.54167C11.375 3.12542 9.41625 1.16667 7 1.16667C4.58375 1.16667 2.625 3.12542 2.625 5.54167C2.625 6.99104 3.03989 7.58209 5.02441 10.4092ZM8.823 5.54167C8.823 6.54844 8.00685 7.36458 7.00008 7.36458C5.99331 7.36458 5.17716 6.54844 5.17716 5.54167C5.17716 4.53489 5.99331 3.71875 7.00008 3.71875C8.00685 3.71875 8.823 4.53489 8.823 5.54167Z" fill="white"/>
</mask>
<g mask="url(#mask0)">
<rect width="14" height="14" fill="#303030"/>
</g>
</svg>
