<svg width="16" height="16" viewBox="0 0 16 16" fill="none" xmlns="http://www.w3.org/2000/svg">
<mask id="mask0" mask-type="alpha" maskUnits="userSpaceOnUse" x="1" y="1" width="14" height="14">
<path fill-rule="evenodd" clip-rule="evenodd" d="M12.7693 1.50228L1.95712 7.7375C1.06304 8.25472 1.14881 9.57766 2.10527 9.97012L5.07603 11.1995V13.3931C5.07603 14.5991 6.61469 15.0955 7.32684 14.1365L8.46525 12.6004L11.3736 13.8012C11.527 13.8636 11.6881 13.8947 11.8493 13.8947C12.0624 13.8947 12.2729 13.8402 12.4626 13.7336C12.7953 13.5465 13.0241 13.2138 13.0838 12.8369L14.6277 2.77324C14.7862 1.731 13.6686 0.985063 12.7693 1.50228ZM6.32353 13.3931V11.7141L7.2748 12.1065L6.32353 13.3931ZM7.85187 10.9967L11.8493 12.6471L13.3931 2.58083L2.58091 8.81865L5.38273 9.97784L10.8798 5.18772C11.2489 4.86803 11.7739 5.33587 11.4958 5.73872L7.85187 10.9967Z" fill="white"/>
</mask>
<g mask="url(#mask0)">
<rect width="16" height="16" fill="#FFD362"/>
</g>
</svg>
