<svg width="14" height="14" viewBox="0 0 14 14" fill="none" xmlns="http://www.w3.org/2000/svg">
<mask id="mask0" mask-type="alpha" maskUnits="userSpaceOnUse" x="1" y="1" width="12" height="12">
<path fill-rule="evenodd" clip-rule="evenodd" d="M12.4103 1.74886L10.0451 1.20305C9.78815 1.14392 9.52434 1.2781 9.41973 1.51916L8.32811 4.06627C8.2326 4.28914 8.29627 4.55068 8.48503 4.70305L9.8632 5.83105C9.04449 7.57537 7.61401 9.02631 5.83331 9.86094L4.7053 8.48277C4.55066 8.29402 4.2914 8.23034 4.06853 8.32585L1.52142 9.41747C1.27808 9.52436 1.1439 9.78817 1.20303 10.0452L1.74884 12.4103C1.80569 12.6559 2.02402 12.8333 2.281 12.8333C8.10524 12.8333 12.8333 8.11435 12.8333 2.28102C12.8333 2.02631 12.6582 1.80571 12.4103 1.74886Z" fill="white"/>
</mask>
<g mask="url(#mask0)">
<rect width="14" height="14" fill="#303030"/>
</g>
</svg>
