<svg width="20" height="20" viewBox="0 0 20 20" fill="none" xmlns="http://www.w3.org/2000/svg">
<mask id="mask0" mask-type="alpha" maskUnits="userSpaceOnUse" x="1" y="1" width="18" height="18">
<path fill-rule="evenodd" clip-rule="evenodd" d="M17.729 2.49879L14.3501 1.71906C13.983 1.63459 13.6062 1.82628 13.4567 2.17066L11.8973 5.80938C11.7608 6.12777 11.8518 6.50139 12.1214 6.71906L14.0902 8.3305C12.9206 10.8224 10.8771 12.8952 8.33325 14.0875L6.72181 12.1187C6.50089 11.849 6.13052 11.758 5.81213 11.8945L2.1734 13.454C1.82577 13.6067 1.63409 13.9835 1.71856 14.3506L2.49829 17.7295C2.57951 18.0803 2.8914 18.3337 3.25852 18.3337C11.5789 18.3337 18.3333 11.5924 18.3333 3.25902C18.3333 2.89515 18.0831 2.58001 17.729 2.49879Z" fill="white"/>
</mask>
<g mask="url(#mask0)">
<rect width="20" height="20" fill="#FFD362"/>
</g>
</svg>
