<svg width="16" height="16" viewBox="0 0 16 16" fill="none" xmlns="http://www.w3.org/2000/svg">
<mask id="mask0" mask-type="alpha" maskUnits="userSpaceOnUse" x="2" y="2" width="12" height="12">
<path fill-rule="evenodd" clip-rule="evenodd" d="M12.9998 6.75033H9.24984V3.00033C9.24984 2.54017 8.87666 2.16699 8.4165 2.16699H7.58317C7.12301 2.16699 6.74984 2.54017 6.74984 3.00033V6.75033H2.99984C2.53968 6.75033 2.1665 7.1235 2.1665 7.58366V8.41699C2.1665 8.87715 2.53968 9.25033 2.99984 9.25033H6.74984V13.0003C6.74984 13.4605 7.12301 13.8337 7.58317 13.8337H8.4165C8.87666 13.8337 9.24984 13.4605 9.24984 13.0003V9.25033H12.9998C13.46 9.25033 13.8332 8.87715 13.8332 8.41699V7.58366C13.8332 7.1235 13.46 6.75033 12.9998 6.75033Z" fill="white"/>
</mask>
<g mask="url(#mask0)">
<rect width="16" height="16" fill="white"/>
</g>
</svg>
