<svg width="16" height="16" viewBox="0 0 16 16" fill="none" xmlns="http://www.w3.org/2000/svg">
<path d="M13.2391 3.27959H12.8279V2.36435C12.8279 1.06114 11.7668 0 10.4636 0H5.49942C4.1962 0 3.13506 1.06114 3.13506 2.36435V3.27959H2.76035C1.45714 3.27959 0.395996 4.34073 0.395996 5.64394V9.45741C0.395996 10.7606 1.45714 11.8218 2.76035 11.8218H3.13175V14.8195C3.13175 15.4694 3.66232 16 4.31227 16H11.6441C12.294 16 12.8246 15.4694 12.8246 14.8195V11.8218H13.2391C14.5423 11.8218 15.6035 10.7606 15.6035 9.45741V5.64394C15.6035 4.34073 14.5423 3.27959 13.2391 3.27959ZM4.02708 2.36435C4.02708 1.55523 4.68698 0.895337 5.4961 0.895337H10.4569C11.266 0.895337 11.9259 1.55523 11.9259 2.36435V3.27959H4.02708V2.36435ZM11.9293 14.8261C11.9293 14.982 11.7999 15.1113 11.6441 15.1113H4.31227C4.15641 15.1113 4.02708 14.982 4.02708 14.8261V9.88187H11.9293V14.8261ZM14.7081 9.46073C14.7081 10.2698 14.0482 10.9297 13.2391 10.9297H12.8279V9.88187H13.4182C13.6669 9.88187 13.8658 9.6829 13.8658 9.4342C13.8658 9.18549 13.6669 8.98653 13.4182 8.98653H2.47517C2.22646 8.98653 2.0275 9.18549 2.0275 9.4342C2.0275 9.6829 2.22646 9.88187 2.47517 9.88187H3.13506V10.9297H2.76035C1.95123 10.9297 1.29133 10.2698 1.29133 9.46073V5.64725C1.29133 4.83814 1.95123 4.17824 2.76035 4.17824H13.2391C14.0482 4.17824 14.7081 4.83814 14.7081 5.64725V9.46073Z" fill="#FFD362"/>
<path d="M5.11124 12.0838H10.8116C11.0603 12.0838 11.2592 11.8848 11.2592 11.6361C11.2592 11.3874 11.0603 11.1885 10.8116 11.1885H5.11124C4.86254 11.1885 4.66357 11.3874 4.66357 11.6361C4.66357 11.8848 4.86585 12.0838 5.11124 12.0838Z" fill="#FFD362"/>
<path d="M10.8481 13.0186H5.14445C4.89574 13.0186 4.69678 13.2175 4.69678 13.4662C4.69678 13.7149 4.89574 13.9139 5.14445 13.9139H10.8448C11.0935 13.9139 11.2924 13.7149 11.2924 13.4662C11.2924 13.2175 11.0935 13.0186 10.8481 13.0186Z" fill="#FFD362"/>
<path d="M13.2293 5.03711H12.3207C12.072 5.03711 11.873 5.23607 11.873 5.48478C11.873 5.73348 12.072 5.93245 12.3207 5.93245H13.2293C13.478 5.93245 13.677 5.73348 13.677 5.48478C13.677 5.23607 13.478 5.03711 13.2293 5.03711Z" fill="#FFD362"/>
</svg>
