<svg width="40" height="40" viewBox="0 0 40 40" fill="none" xmlns="http://www.w3.org/2000/svg">
<g clip-path="url(#clip0)">
<path d="M22.6675 14.665C21.1948 14.665 20.001 15.8589 20.001 17.3315C20.001 18.8042 21.1948 19.9981 22.6675 19.9981C24.1402 19.9981 25.334 18.8042 25.334 17.3315C25.334 15.8589 24.1402 14.665 22.6675 14.665ZM22.6675 18.6648C21.9311 18.6648 21.3342 18.0679 21.3342 17.3315C21.3342 16.5952 21.9311 15.9983 22.6675 15.9983C23.4039 15.9983 24.0007 16.5952 24.0007 17.3315C24.0007 18.0679 23.4039 18.6648 22.6675 18.6648Z" fill="#FFD362"/>
<path d="M22.6677 13.3315C23.4041 13.3315 24.001 12.7346 24.001 11.9983C24.001 11.262 23.4041 10.665 22.6677 10.665C21.9314 10.665 21.3345 11.262 21.3345 11.9983C21.3345 12.7346 21.9314 13.3315 22.6677 13.3315Z" fill="#FFD362"/>
<path d="M28.0005 9.33203C26.5278 9.33203 25.334 10.5259 25.334 11.9985C25.334 13.4712 26.5278 14.665 28.0005 14.665C29.4732 14.665 30.667 13.4712 30.667 11.9985C30.667 10.5259 29.4732 9.33203 28.0005 9.33203ZM28.0005 13.3318C27.2641 13.3318 26.6672 12.7349 26.6672 11.9985C26.6672 11.2622 27.2641 10.6653 28.0005 10.6653C28.7369 10.6653 29.3338 11.2622 29.3338 11.9985C29.3338 12.7349 28.7369 13.3318 28.0005 13.3318Z" fill="#FFD362"/>
<path d="M17.3345 8.66504C15.8618 8.66504 14.668 9.85889 14.668 11.3316C14.668 12.8042 15.8618 13.9981 17.3345 13.9981C18.8071 13.9981 20.001 12.8042 20.001 11.3316C20.001 9.85889 18.8071 8.66504 17.3345 8.66504ZM17.3345 12.6648C16.5981 12.6648 16.0012 12.0679 16.0012 11.3316C16.0012 10.5952 16.5981 9.9983 17.3345 9.9983C18.0708 9.9983 18.6677 10.5952 18.6677 11.3316C18.6677 12.0679 18.0708 12.6648 17.3345 12.6648Z" fill="#FFD362"/>
<path d="M22.6675 3.99902C21.1948 3.99902 20.001 5.19287 20.001 6.66554C20.001 8.1382 21.1948 9.33205 22.6675 9.33205C24.1402 9.33205 25.334 8.1382 25.334 6.66554C25.334 5.19287 24.1402 3.99902 22.6675 3.99902ZM22.6675 7.99879C21.9311 7.99879 21.3342 7.40191 21.3342 6.66554C21.3342 5.92916 21.9311 5.33228 22.6675 5.33228C23.4039 5.33228 24.0007 5.92916 24.0007 6.66554C24.0007 7.40191 23.4039 7.99879 22.6675 7.99879Z" fill="#FFD362"/>
<path d="M39.6667 20.3507C39.4604 20.2316 39.2063 20.2316 39 20.3507L29.3339 25.909V25.1384C29.3315 23.7327 28.4989 22.4613 27.2114 21.8972C32.5338 19.3832 34.8105 13.0306 32.2965 7.70814C29.7825 2.38571 23.4298 0.109088 18.1075 2.62311C12.7851 5.13713 10.5084 11.4898 13.0224 16.8122C13.9798 18.8392 15.552 20.5127 17.5154 21.5947H8.8492C11.0581 19.6502 11.2724 16.2833 9.32792 14.0744C7.38345 11.8656 4.01656 11.6512 1.80769 13.5957C-0.401178 15.5402 -0.615498 18.9071 1.32897 21.1159C1.84919 21.7069 2.49399 22.1753 3.21686 22.4873C2.44807 23.1541 2.00527 24.1208 2.00227 25.1385V34.0499C2.00443 36.0062 3.58976 37.5916 5.54606 37.5937H25.7901C27.7464 37.5916 29.3318 36.0062 29.3339 34.0499V33.4006L39.0067 38.8417C39.3277 39.0221 39.7341 38.9082 39.9145 38.5872C39.9706 38.4873 40 38.3749 40 38.2604V20.928C40 20.6898 39.8729 20.4697 39.6667 20.3507ZM13.3349 12.2618C13.3349 7.10743 17.5133 2.92901 22.6676 2.92901C27.822 2.92901 32.0004 7.10743 32.0004 12.2618C32.0004 17.4162 27.822 21.5946 22.6676 21.5946C17.5156 21.5891 13.3404 17.4139 13.3349 12.2618ZM1.33555 17.5948C1.33555 15.3858 3.12628 13.5951 5.33532 13.5951C7.54436 13.5951 9.33509 15.3858 9.33509 17.5948C9.33509 19.8039 7.54436 21.5946 5.33532 21.5946C3.1272 21.5924 1.3378 19.8029 1.33555 17.5948ZM28.0007 34.0499C27.9992 35.2701 27.0104 36.2589 25.7901 36.2604H5.54598C4.32571 36.2589 3.33694 35.2701 3.33544 34.0499V25.1384C3.33694 23.9181 4.32571 22.9293 5.54598 22.9278H25.7901C27.0104 22.9293 27.9992 23.9181 28.0007 25.1384V34.0499ZM32.6671 33.7459L29.3339 31.8706V27.4502L32.6671 25.5277V33.7459ZM35.3336 35.2458L34.0003 34.4958V32.9273H35.3336V35.2458ZM35.3336 31.594H34.0003V30.2607H35.3336V31.594ZM35.3336 28.9275H34.0003V27.5942H35.3336V28.9275ZM35.3336 26.261H34.0003V24.7637L35.3336 23.9971V26.261ZM38.6667 37.1203L36.6668 35.9937V23.2305L38.6667 22.0806V37.1203Z" fill="#FFD362"/>
<path d="M16.6681 28.6641H6.00208C5.63393 28.6641 5.33545 28.9625 5.33545 29.3307C5.33545 29.6988 5.63393 29.9973 6.00208 29.9973H16.6681C17.0363 29.9973 17.3348 29.6988 17.3348 29.3307C17.3348 28.9625 17.0363 28.6641 16.6681 28.6641Z" fill="#FFD362"/>
<path d="M16.6681 31.3311H6.00208C5.63393 31.3311 5.33545 31.6295 5.33545 31.9977C5.33545 32.3658 5.63393 32.6643 6.00208 32.6643H16.6681C17.0363 32.6643 17.3348 32.3658 17.3348 31.9977C17.3348 31.6295 17.0363 31.3311 16.6681 31.3311Z" fill="#FFD362"/>
<path d="M16.6681 25.9971H6.00208C5.63393 25.9971 5.33545 26.2956 5.33545 26.6637C5.33545 27.0318 5.63393 27.3303 6.00208 27.3303H16.6681C17.0363 27.3303 17.3348 27.0318 17.3348 26.6637C17.3348 26.2956 17.0363 25.9971 16.6681 25.9971Z" fill="#FFD362"/>
<path d="M20.6678 28.6641H19.3346C18.9665 28.6641 18.668 28.9625 18.668 29.3307C18.668 29.6988 18.9665 29.9973 19.3346 29.9973H20.6678C21.036 29.9973 21.3345 29.6988 21.3345 29.3307C21.3345 28.9625 21.036 28.6641 20.6678 28.6641Z" fill="#FFD362"/>
<path d="M20.6678 31.3311H19.3346C18.9665 31.3311 18.668 31.6295 18.668 31.9977C18.668 32.3658 18.9665 32.6643 19.3346 32.6643H20.6678C21.036 32.6643 21.3345 32.3658 21.3345 31.9977C21.3345 31.6295 21.036 31.3311 20.6678 31.3311Z" fill="#FFD362"/>
<path d="M20.6678 25.9971H19.3346C18.9665 25.9971 18.668 26.2956 18.668 26.6637C18.668 27.0318 18.9665 27.3303 19.3346 27.3303H20.6678C21.036 27.3303 21.3345 27.0318 21.3345 26.6637C21.3345 26.2956 21.036 25.9971 20.6678 25.9971Z" fill="#FFD362"/>
<path d="M5.33533 15.3311C4.23081 15.3311 3.33545 16.2264 3.33545 17.3309C3.33545 18.4355 4.23081 19.3308 5.33533 19.3308C6.43985 19.3308 7.33522 18.4355 7.33522 17.3309C7.33522 16.2264 6.43985 15.3311 5.33533 15.3311ZM5.33533 17.9976C4.96719 17.9976 4.6687 17.6991 4.6687 17.3309C4.6687 16.9628 4.96719 16.6643 5.33533 16.6643C5.70348 16.6643 6.00196 16.9628 6.00196 17.3309C6.00196 17.6991 5.70348 17.9976 5.33533 17.9976Z" fill="#FFD362"/>
</g>
<defs>
<clipPath id="clip0">
<rect width="40" height="40" fill="white"/>
</clipPath>
</defs>
</svg>
