<svg width="19" height="18" viewBox="0 0 19 18" fill="none" xmlns="http://www.w3.org/2000/svg">
<path fill-rule="evenodd" clip-rule="evenodd" d="M7.41016 0C3.34176 0 0 3.22181 0 7.24928C0 11.2768 3.34176 14.4986 7.41016 14.4986C8.80587 14.4986 10.1161 14.1194 11.2351 13.4586L15.4573 17.5748C16.0505 18.1531 17.0001 18.141 17.5784 17.5478C18.1567 16.9546 18.1447 16.005 17.5515 15.4267L13.4599 11.4377C14.3157 10.2578 14.8203 8.81436 14.8203 7.24928C14.8203 3.22181 11.4786 0 7.41016 0ZM11.4879 10.6987C12.3194 9.77282 12.8203 8.56341 12.8203 7.24928C12.8203 4.37399 10.4222 2 7.41016 2C4.3981 2 2 4.37399 2 7.24928C2 10.1246 4.3981 12.4986 7.41016 12.4986C8.63024 12.4986 9.74958 12.109 10.6496 11.4545C10.7181 11.3133 10.8101 11.1805 10.9256 11.062C11.0889 10.8945 11.2818 10.7734 11.4879 10.6987Z" fill="#AAAAAA"/>
</svg>
