<svg width="24" height="24" viewBox="0 0 24 24" fill="none" xmlns="http://www.w3.org/2000/svg">
<mask id="mask0" mask-type="alpha" maskUnits="userSpaceOnUse" x="2" y="2" width="20" height="20">
<path fill-rule="evenodd" clip-rule="evenodd" d="M21.7076 20.5848L20.6043 21.6881C20.2379 22.0546 19.6453 22.0546 19.2827 21.6881L15.3918 17.8012C15.2164 17.6257 15.1189 17.3879 15.1189 17.1384V16.5029C13.7427 17.5789 12.0117 18.2183 10.1287 18.2183C5.64916 18.2183 2.01953 14.5887 2.01953 10.1092C2.01953 5.62963 5.64916 2 10.1287 2C14.6082 2 18.2379 5.62963 18.2379 10.1092C18.2379 11.9922 17.5985 13.7232 16.5225 15.0994H17.1579C17.4074 15.0994 17.6453 15.1969 17.8207 15.3723L21.7076 19.2593C22.0702 19.6257 22.0702 20.2183 21.7076 20.5848ZM13.8714 9.48538V10.7329C13.8714 10.9903 13.6608 11.2008 13.4035 11.2008H11.2203V13.384C11.2203 13.6413 11.0098 13.8519 10.7525 13.8519H9.5049C9.24759 13.8519 9.03706 13.6413 9.03706 13.384V11.2008H6.85382C6.59651 11.2008 6.38599 10.9903 6.38599 10.7329V9.48538C6.38599 9.22808 6.59651 9.01755 6.85382 9.01755H9.03706V6.83431C9.03706 6.577 9.24759 6.36648 9.5049 6.36648H10.7525C11.0098 6.36648 11.2203 6.577 11.2203 6.83431V9.01755H13.4035C13.6608 9.01755 13.8714 9.22808 13.8714 9.48538ZM10.1287 4.80702C13.0605 4.80702 15.4308 7.17739 15.4308 10.1092C15.4308 13.0409 13.0605 15.4113 10.1287 15.4113C7.19692 15.4113 4.82655 13.0409 4.82655 10.1092C4.82655 7.17739 7.19692 4.80702 10.1287 4.80702Z" fill="white"/>
</mask>
<g mask="url(#mask0)">
<rect width="24" height="24" fill="white"/>
</g>
</svg>
