<svg width="35" height="27" viewBox="0 0 35 27" fill="none" xmlns="http://www.w3.org/2000/svg">
<mask id="mask0" mask-type="alpha" maskUnits="userSpaceOnUse" x="0" y="0" width="35" height="27">
<rect width="35" height="27" fill="#C4C4C4"/>
</mask>
<g mask="url(#mask0)">
<path d="M30.8984 10.6789H29.5312V5.5117C29.5312 2.47246 27.0781 0 24.0625 0H10.9375C7.92194 0 5.46875 2.47246 5.46875 5.5117V10.6789H4.10156C1.83983 10.6789 0 12.5332 0 14.8127V22.8736C0 25.1531 1.83983 27.0073 4.10156 27.0073H16.1328V32.5191H9.29688V35.2749H25.7031V32.5191H18.8672V27.0073H30.8984C33.1602 27.0073 35 25.1531 35 22.8736V14.8127C35 12.5332 33.1602 10.6789 30.8984 10.6789ZM26.7969 24.2515H8.20312V22.7358C8.20312 21.976 8.81649 21.3579 9.57031 21.3579H25.4297C26.1835 21.3579 26.7969 21.976 26.7969 22.7358V24.2515ZM10.9375 2.75585H24.0625C25.5701 2.75585 26.7969 3.99222 26.7969 5.5117V18.8391C26.3688 18.686 25.909 18.602 25.4297 18.602H9.57031C9.091 18.602 8.63117 18.686 8.20312 18.8391V5.5117C8.20312 3.99222 9.42986 2.75585 10.9375 2.75585ZM2.73438 22.8736V14.8127C2.73438 14.053 3.34774 13.4348 4.10156 13.4348H5.46875V24.2515H4.10156C3.34774 24.2515 2.73438 23.6333 2.73438 22.8736ZM32.2656 22.8736C32.2656 23.6333 31.6523 24.2515 30.8984 24.2515H29.5312V13.4348H30.8984C31.6523 13.4348 32.2656 14.053 32.2656 14.8127V22.8736Z" fill="#4E4E4E"/>
</g>
</svg>
