<svg width="52" height="36" viewBox="0 0 52 36" fill="none" xmlns="http://www.w3.org/2000/svg">
    <path d="M51.714 29.9218L43.6059 22.701V3.16368C43.605 2.50152 43.3388 1.86675 42.8656 1.39853C42.3924 0.930322 41.7509 0.666894 41.0818 0.666016H10.9099C10.2407 0.666894 9.59919 0.930322 9.12602 1.39853C8.65285 1.86675 8.38663 2.50152 8.38575 3.16368V22.701L0.277569 29.9202C0.190022 29.9981 0.120058 30.0935 0.072233 30.2C0.0244084 30.3065 -0.000203243 30.4218 1.2641e-06 30.5384V33.1107C1.2641e-06 33.7489 0.256215 34.361 0.712278 34.8123C1.16834 35.2636 1.7869 35.5171 2.43187 35.5171H49.5681C50.2131 35.5171 50.8317 35.2636 51.2877 34.8123C51.7438 34.361 52 33.7489 52 33.1107V30.5384C51.9989 30.4215 51.9729 30.3061 51.9236 30.1999C51.8743 30.0936 51.8029 29.9989 51.714 29.9218ZM10.0629 3.16368C10.0631 2.94147 10.1524 2.72843 10.3112 2.5713C10.47 2.41418 10.6853 2.32581 10.9099 2.32559H41.0818C41.3063 2.32581 41.5216 2.41418 41.6804 2.5713C41.8392 2.72843 41.9285 2.94147 41.9287 3.16368V22.2405H10.0629V3.16368ZM50.3145 33.119C50.3145 33.3171 50.235 33.507 50.0934 33.6471C49.9519 33.7871 49.7599 33.8658 49.5597 33.8658H2.43187C2.23243 33.8647 2.04154 33.7855 1.90091 33.6456C1.76028 33.5057 1.68134 33.3163 1.68134 33.119V30.9118L9.54633 23.9001H42.4453L50.3145 30.9076V33.119Z" fill="#FFD362"/>
    <path d="M30.8606 27.5507C30.7825 27.4476 30.6812 27.364 30.5648 27.3064C30.4483 27.2487 30.3199 27.2188 30.1898 27.2188H21.804C21.6738 27.2188 21.5454 27.2487 21.429 27.3064C21.3125 27.364 21.2113 27.4476 21.1332 27.5507L18.869 30.5379H5.87109V32.1975H46.1227V30.5379H33.1248L30.8606 27.5507ZM22.2233 28.8783H29.7705L31.0283 30.5379H20.9654L22.2233 28.8783Z" fill="#FFD362"/>
    <path d="M28.8153 11.2663L26.9202 10.4365L26.4849 9.6897L26.7105 7.64676C26.728 7.48672 26.6981 7.3251 26.6244 7.1816C26.5507 7.0381 26.4364 6.9189 26.2954 6.83855L24.3935 5.75152C24.2525 5.67193 24.0911 5.63458 23.929 5.64401C23.7669 5.65343 23.611 5.70923 23.4803 5.80463L21.8032 7.01944H20.9327L19.2556 5.80546C19.1243 5.71037 18.9679 5.65511 18.8055 5.64641C18.6431 5.63772 18.4816 5.67597 18.3407 5.7565L16.4363 6.84269C16.2946 6.92248 16.1794 7.04143 16.1049 7.18498C16.0305 7.32852 15.9999 7.49044 16.017 7.65091L16.2417 9.69384L15.8065 10.4407L13.9113 11.2704C13.762 11.3349 13.6349 11.4411 13.5455 11.5759C13.4562 11.7108 13.4085 11.8685 13.4082 12.0297V14.2037C13.4085 14.365 13.4562 14.5227 13.5455 14.6575C13.6349 14.7923 13.762 14.8985 13.9113 14.963L15.8065 15.7928L16.2417 16.5396L16.017 18.5825C15.9999 18.743 16.0305 18.9049 16.1049 19.0485C16.1794 19.192 16.2946 19.311 16.4363 19.3907L18.3373 20.4778C18.4782 20.5583 18.6397 20.5965 18.8021 20.5879C18.9646 20.5792 19.121 20.5239 19.2522 20.4288L20.9294 19.214H21.8032L23.4803 20.428C23.6115 20.5229 23.7677 20.5781 23.93 20.5868C24.0923 20.5954 24.2536 20.5573 24.3944 20.4769L26.2954 19.3899C26.4364 19.3096 26.5507 19.1904 26.6244 19.0469C26.6981 18.9034 26.728 18.7417 26.7105 18.5817L26.4858 16.5388L26.921 15.792L28.8162 14.9622C28.9655 14.8977 29.0926 14.7915 29.182 14.6567C29.2714 14.5218 29.3191 14.3642 29.3193 14.2029V12.0255C29.319 11.8642 29.2712 11.7065 29.1816 11.5716C29.0921 11.4368 28.9648 11.3307 28.8153 11.2663ZM27.6413 13.6586L25.996 14.3763C25.8332 14.4475 25.6976 14.5681 25.6086 14.7207L24.895 15.9338C24.8063 16.0866 24.769 16.2633 24.7885 16.4384L24.983 18.2133L24.0279 18.7593L22.5696 17.7046C22.4263 17.6008 22.2533 17.5447 22.0757 17.5445H20.6585C20.4804 17.5447 20.3069 17.6008 20.1629 17.7046L18.7055 18.7601L17.7503 18.2141L17.9449 16.4392C17.9645 16.264 17.9269 16.0872 17.8376 15.9347L17.129 14.719C17.0398 14.5663 16.9038 14.4457 16.7407 14.3747L15.0946 13.6586V12.5666L16.7415 11.8488C16.9045 11.7771 17.0403 11.6563 17.1298 11.5036L17.8376 10.2888C17.9269 10.1363 17.9645 9.95949 17.9449 9.78429L17.7503 8.00938L18.7063 7.46338L20.1629 8.51804C20.3065 8.622 20.4798 8.67809 20.6577 8.67818H22.0757C22.2539 8.67792 22.4273 8.62186 22.5713 8.51804L24.0279 7.46255L24.9839 8.00855L24.7885 9.78346C24.7686 9.95857 24.8059 10.1354 24.895 10.288L25.6044 11.5036C25.6936 11.6563 25.8296 11.7769 25.9927 11.848L27.6388 12.5657L27.6413 13.6586Z" fill="#FFD362"/>
    <path d="M21.3667 10.1914C20.7827 10.1914 20.2119 10.3628 19.7263 10.6838C19.2407 11.0048 18.8623 11.4611 18.6388 11.995C18.4153 12.5289 18.3569 13.1163 18.4708 13.6831C18.5847 14.2498 18.8659 14.7704 19.2789 15.179C19.6918 15.5876 20.2179 15.8659 20.7907 15.9786C21.3634 16.0914 21.9571 16.0335 22.4966 15.8124C23.0361 15.5912 23.4973 15.2168 23.8217 14.7363C24.1461 14.2558 24.3193 13.6909 24.3193 13.1131C24.3184 12.3385 24.0071 11.5958 23.4535 11.0481C22.9 10.5004 22.1495 10.1923 21.3667 10.1914ZM21.3667 14.3752C21.1144 14.3752 20.8678 14.3012 20.6581 14.1625C20.4483 14.0238 20.2848 13.8267 20.1883 13.5961C20.0918 13.3655 20.0665 13.1117 20.1157 12.8669C20.1649 12.622 20.2864 12.3972 20.4648 12.2206C20.6432 12.0441 20.8704 11.9239 21.1179 11.8752C21.3653 11.8265 21.6217 11.8515 21.8548 11.9471C22.0879 12.0426 22.2871 12.2043 22.4272 12.4119C22.5674 12.6195 22.6422 12.8635 22.6422 13.1131C22.6417 13.4477 22.5072 13.7685 22.2681 14.005C22.029 14.2416 21.7048 14.3748 21.3667 14.3752Z" fill="#FFD362"/>
    <path d="M37.8761 7.50848L39.269 6.13021L38.0832 4.95689L36.6903 6.33516C36.2445 6.04059 35.7454 5.83406 35.2203 5.72693V3.98438H33.5432V5.72693C33.0182 5.8338 32.519 6.04005 32.0731 6.33433L30.7817 5.05646L29.596 6.22978L30.8874 7.50765C30.5896 7.94906 30.3809 8.44328 30.2727 8.9631H28.5117V10.6227H30.2727C30.3776 11.1168 30.5735 11.5877 30.8505 12.0117L29.4937 13.3552L30.6794 14.5285L32.0111 13.21C32.4723 13.5262 32.9935 13.747 33.5432 13.8588V15.6014H35.2203V13.8588C35.7197 13.755 36.1955 13.5612 36.6241 13.2871L37.9817 14.6297L39.1675 13.4564L37.835 12.1387C38.1546 11.6823 38.3777 11.1666 38.4908 10.6227H40.2518V8.9631H38.4908C38.3825 8.44357 38.1738 7.94964 37.8761 7.50848ZM34.3817 12.2822C33.8842 12.2822 33.3978 12.1363 32.9841 11.8627C32.5704 11.5892 32.2479 11.2004 32.0575 10.7455C31.8671 10.2907 31.8173 9.79013 31.9144 9.30724C32.0114 8.82435 32.251 8.38078 32.6029 8.03264C32.9547 7.6845 33.4029 7.44741 33.8909 7.35136C34.379 7.2553 34.8848 7.3046 35.3445 7.49302C35.8042 7.68143 36.1971 8.0005 36.4735 8.40987C36.7499 8.81924 36.8975 9.30054 36.8975 9.79289C36.8975 10.4531 36.6324 11.0863 36.1606 11.5531C35.6888 12.02 35.049 12.2822 34.3817 12.2822Z" fill="#FFD362"/>
    <path d="M35.2204 8.96289H33.543V10.6225H35.2204V8.96289Z" fill="#FFD362"/>
</svg>
