<svg width="26" height="26" viewBox="0 0 26 26" fill="none" xmlns="http://www.w3.org/2000/svg">
<mask id="mask0" mask-type="alpha" maskUnits="userSpaceOnUse" x="4" y="5" width="18" height="15">
<path fill-rule="evenodd" clip-rule="evenodd" d="M5.29695 8.48568H20.7044C21.2362 8.48568 21.6673 8.18256 21.6673 7.80859V6.45443C21.6673 6.08047 21.2362 5.77734 20.7044 5.77734H5.29695C4.76509 5.77734 4.33398 6.08047 4.33398 6.45443V7.80859C4.33398 8.18256 4.76509 8.48568 5.29695 8.48568ZM4.33398 13.2253V11.8711C4.33398 11.4971 4.76509 11.194 5.29695 11.194H16.8525C17.3844 11.194 17.8155 11.4971 17.8155 11.8711V13.2253C17.8155 13.5992 17.3844 13.9023 16.8525 13.9023H5.29695C4.76509 13.9023 4.33398 13.5992 4.33398 13.2253ZM4.33398 17.2878V18.6419C4.33398 19.0159 4.76509 19.319 5.29695 19.319H13.0007C13.5325 19.319 13.9636 19.0159 13.9636 18.6419V17.2878C13.9636 16.9138 13.5325 16.6107 13.0007 16.6107H5.29695C4.76509 16.6107 4.33398 16.9138 4.33398 17.2878Z" fill="white"/>
</mask>
<g mask="url(#mask0)">
<rect width="26" height="26" fill="#AAAAAA"/>
</g>
</svg>
