<svg width="40" height="40" viewBox="0 0 40 40" fill="none" xmlns="http://www.w3.org/2000/svg">
<path d="M39.3333 25.6667C39.7015 25.6667 40 25.3682 40 25V19.6667C40 19.2985 39.7015 19 39.3333 19H30.9427L35.138 14.8047C35.3983 14.5444 35.3983 14.1224 35.138 13.862L31.4953 10.2194C31.235 9.9591 30.813 9.9591 30.5527 10.2194C29.5111 11.2609 27.8223 11.2609 26.7807 10.2194C25.7391 9.17777 25.7391 7.48893 26.7807 6.44735C27.0409 6.18702 27.0409 5.76502 26.7807 5.50468L23.8047 2.52868C23.5443 2.26843 23.1223 2.26843 22.862 2.52868L6.39067 19H0.666667C0.2985 19 0 19.2985 0 19.6667V25C0 25.3682 0.2985 25.6667 0.666667 25.6667C2.13942 25.6667 3.33333 26.8606 3.33333 28.3333C3.33333 29.8061 2.13942 31 0.666667 31C0.2985 31 0 31.2985 0 31.6667V37C0 37.3682 0.2985 37.6667 0.666667 37.6667H39.3333C39.7015 37.6667 40 37.3682 40 37V31.6667C40 31.2985 39.7015 31 39.3333 31C37.8606 31 36.6667 29.8061 36.6667 28.3333C36.6667 26.8606 37.8606 25.6667 39.3333 25.6667ZM23.3333 3.94268L25.4053 6.01468C24.1211 7.81218 24.5372 10.3104 26.3347 11.5947C27.7256 12.5885 29.5944 12.5885 30.9853 11.5947L33.724 14.3334L29.0573 19H26.9427L28.4713 17.4714C28.7316 17.211 28.7316 16.789 28.4713 16.5287L21.138 9.19535C20.8777 8.9351 20.4557 8.9351 20.1953 9.19535L10.3907 19H8.276L23.3333 3.94268ZM25.0573 19H12.276L20.6667 10.6094L27.0573 17L25.0573 19ZM35.385 28.9963C35.6677 30.6778 36.9852 31.9953 38.6667 32.278V36.3334H33.3333V33.6667H32V36.3334H8V35.6667H6.66667V36.3334H1.33333V32.278C3.51192 31.9118 4.98117 29.8489 4.615 27.6703C4.33233 25.9888 3.01492 24.6713 1.33333 24.3887V20.3334H6.66667V22.3334H8V20.3334H38.6667V24.3887C36.4881 24.7548 35.0188 26.8178 35.385 28.9963Z" fill="#FFD362"/>
<path d="M33.3333 21.6665H32V24.3332H33.3333V21.6665Z" fill="#FFD362"/>
<path d="M33.3333 25.6665H32V28.3332H33.3333V25.6665Z" fill="#FFD362"/>
<path d="M33.3333 29.6665H32V32.3332H33.3333V29.6665Z" fill="#FFD362"/>
<path d="M7.99984 23.6665H6.6665V26.3332H7.99984V23.6665Z" fill="#FFD362"/>
<path d="M7.99984 27.6665H6.6665V30.3332H7.99984V27.6665Z" fill="#FFD362"/>
<path d="M7.99984 31.6665H6.6665V34.3332H7.99984V31.6665Z" fill="#FFD362"/>
<path d="M29.3333 23.6665C28.5969 23.6665 28 23.0696 28 22.3332C28 21.965 27.7015 21.6665 27.3333 21.6665H12.6667C12.2985 21.6665 12 21.965 12 22.3332C12 23.0696 11.4031 23.6665 10.6667 23.6665C10.2985 23.6665 10 23.965 10 24.3332V32.3332C10 32.7013 10.2985 32.9998 10.6667 32.9998C11.4031 32.9998 12 33.5968 12 34.3332C12 34.7013 12.2985 34.9998 12.6667 34.9998H27.3333C27.7015 34.9998 28 34.7013 28 34.3332C28 33.5968 28.5969 32.9998 29.3333 32.9998C29.7015 32.9998 30 32.7013 30 32.3332V24.3332C30 23.965 29.7015 23.6665 29.3333 23.6665ZM28.6667 31.7505C27.7281 31.995 26.9952 32.7279 26.7507 33.6665H13.2493C13.0048 32.7279 12.2719 31.995 11.3333 31.7505V24.9158C12.2719 24.6713 13.0048 23.9384 13.2493 22.9998H26.7507C26.9952 23.9384 27.7281 24.6713 28.6667 24.9158V31.7505Z" fill="#FFD362"/>
</svg>
