<svg width="229" height="113" viewBox="0 0 229 113" fill="none" xmlns="http://www.w3.org/2000/svg">
<g opacity="0.25" clip-path="url(#clip0)">
<path fill-rule="evenodd" clip-rule="evenodd" d="M0.0292969 127.331L9.95123 95.8649L35.7107 53.3679L25.268 15.6604L35.3346 7.41649L54.6144 7.25684L69.4973 16.0959L78.0018 11.4078L154.036 12.5399L159.532 16.241L174.271 7.25684H193.276L204.051 15.9507L193.449 53.3679L215.607 86.5033L227.829 126.315L221.566 172.586L193.449 194.444L114.363 191.585L38.4153 199.393L7.86849 173.312L0.0292969 127.331Z" fill="white"/>
<path fill-rule="evenodd" clip-rule="evenodd" d="M114.491 0C122.056 2.20613 132.036 1.59654 139.152 3.77364C146.268 5.95075 156.667 14.6882 156.783 14.6446C155.134 15.2978 151.605 14.456 149.406 14.7898C149.16 14.7898 142.464 14.7898 139.441 14.6446C139.296 14.6446 136.838 14.6446 135.825 14.4995C132.209 11.6112 124.384 8.70841 119.64 12.4675C117.659 11.3645 116.314 9.56473 114.506 8.30202C112.568 9.44862 111.411 11.2048 109.516 12.4675C104.7 8.83903 96.9039 11.6112 93.2012 14.514C93.0277 14.514 83.2214 14.514 80.4878 14.8043C80.242 14.8043 74.1673 15.3703 72.2437 14.8043C72.2437 14.8043 82.4549 6.0088 89.5998 3.78816C97.1353 1.4514 106.811 2.35127 114.491 0Z" fill="#5D5E5E"/>
<path fill-rule="evenodd" clip-rule="evenodd" d="M188.589 6.67674C190.111 6.50985 191.652 6.68361 193.1 7.18552C194.548 7.68743 195.867 8.50503 196.963 9.57954C197.962 10.7041 199.024 11.7702 200.145 12.7726C201.299 13.7132 202.506 14.5855 203.761 15.3851C202.314 15.2255 196.442 11.1325 195.806 10.7407C193.551 9.60042 191.173 8.72383 188.719 8.12814C188.618 8.12814 187.041 8.12814 186.405 7.983C186.303 7.983 184.958 7.983 184.524 7.83786L179.751 7.54758L174.255 7.2573C175.224 7.2573 177.047 6.96702 178.016 6.96702C179.318 6.86542 183.628 6.96702 184.235 6.82188" fill="#5D5E5E"/>
<path fill-rule="evenodd" clip-rule="evenodd" d="M54.7565 7.25684C59.6596 10.1596 64.6784 13.0624 69.4947 16.1104C69.1042 17.0248 65.1557 25.2687 64.8664 26.546C61.0109 20.3602 57.5845 13.9152 54.6118 7.25684H54.7565Z" fill="#5D5E5E"/>
<path fill-rule="evenodd" clip-rule="evenodd" d="M159.533 16.2409C164.175 12.9607 169.397 10.2901 174.271 7.24219L173.837 8.25817C170.424 14.0638 168.052 21.3208 164.147 26.6765C163.649 25.2412 163.069 23.8359 162.411 22.4674C162.252 21.9013 161.456 20.5661 161.398 20.2903C160.877 18.896 160.254 17.5424 159.533 16.2409Z" fill="#5D5E5E"/>
<path fill-rule="evenodd" clip-rule="evenodd" d="M135.826 14.5139C121.362 14.4268 107.622 14.4268 93.1875 14.5139C96.8757 11.6111 104.758 8.83891 109.517 12.4819C111.397 11.2773 112.569 9.47753 114.507 8.31641C116.315 9.59364 117.66 11.3643 119.641 12.4819C124.385 8.70829 132.21 11.6111 135.826 14.5139Z" fill="#212221"/>
<path fill-rule="evenodd" clip-rule="evenodd" d="M203.617 15.3701H203.762C198.729 22.3659 193.811 29.5068 188.59 36.2848C188.59 31.5532 188.59 25.8057 188.59 20.6242C193.45 18.7083 198.931 17.4166 203.617 15.3701Z" fill="#212221"/>
<path fill-rule="evenodd" clip-rule="evenodd" d="M25.2686 15.6608C25.2686 15.5447 25.2686 15.5301 25.4132 15.5156C30.3742 17.3299 35.5376 18.8684 40.4986 20.5955C40.4986 25.777 40.4986 31.5246 40.4986 36.2562C35.1326 29.6523 30.5477 22.3082 25.2686 15.6608Z" fill="#212221"/>
<path fill-rule="evenodd" clip-rule="evenodd" d="M24.9775 15.9658C28.2685 23.8593 31.0701 31.9494 33.3663 40.1897C30.8931 39.9575 28.1595 39.2318 25.99 39.1737C25.8164 39.1737 25.3102 17.2721 24.9775 16.4012V15.9658Z" fill="#5D5E5E"/>
<path fill-rule="evenodd" clip-rule="evenodd" d="M204.05 15.9658C204.05 16.111 204.05 18.767 203.905 19.8846C203.905 20.32 203.254 39.1447 203.037 39.1737C200.868 39.1737 198.134 39.9575 195.661 40.1897C197.956 31.9489 200.758 23.8588 204.05 15.9658Z" fill="#5D5E5E"/>
<path fill-rule="evenodd" clip-rule="evenodd" d="M114.465 17.968C114.465 17.968 122.261 17.6196 126.441 16.9665C128.47 16.8214 130.51 16.9188 132.516 17.2568H132.661C135.854 18.0781 138.993 19.096 142.062 20.3047C142.062 20.3047 144.535 21.3497 145.822 21.7561C145.822 21.7561 149.192 23.0624 151.029 23.4978C151.029 23.4978 152.186 23.8316 152.765 23.9332C150.364 24.0203 147.514 23.2946 144.81 23.2075C144.709 23.2075 139.777 22.5544 137.289 22.3367C137.289 22.3367 132.95 21.7416 130.78 21.611H130.636C125.472 21.0014 125.472 21.0014 122.825 20.7401C119.788 23.6429 117.329 27.2424 114.465 30.3049C111.399 27.4021 109.302 23.6139 106.207 20.7401C104.037 20.9724 101.709 21.0594 99.6983 21.4658L91.7434 22.3367C89.2557 22.5544 77.0485 24.0784 77.0051 24.0784C75.3852 24.0784 77.9742 23.4978 78.0175 23.4978C81.0302 22.7104 83.9641 21.6463 86.7824 20.3192C86.7824 20.3192 94.3179 17.0245 96.3138 16.9084C98.2747 16.7389 100.249 16.8317 102.186 17.1842C106.26 17.6884 110.36 17.9501 114.465 17.968Z" fill="#212221"/>
<path fill-rule="evenodd" clip-rule="evenodd" d="M94.936 25.2401H95.0806C96.9898 25.1676 103.629 27.2431 106.203 27.127C96.0786 33.1067 85.1008 38.1431 74.9909 44.0938C85.3178 43.0924 95.6013 42.0619 106.058 41.191C102.37 43.8761 98.2336 46.1113 94.4876 48.7383C93.4462 48.4335 91.0742 48.0126 91.0164 48.0126C86.6773 46.9096 82.1213 45.9081 77.5798 44.9647C77.5798 44.9647 75.4826 44.5147 74.5425 44.239C73.2682 46.4278 72.1563 48.7078 71.2159 51.0606C71.2159 51.0606 70.8109 52.004 70.3481 52.9474C70.3481 52.9474 68.6703 56.6194 67.8893 58.4627C67.8893 58.4627 66.443 61.6123 65.8644 63.1072C65.8644 63.1072 65.0255 64.8779 64.5627 65.7197C63.1164 65.3859 61.8147 64.6602 60.3683 64.2683C60.3683 64.2683 58.922 63.6732 58.2422 63.3975L56.2173 62.5266C56.2173 62.5266 53.5415 61.4381 52.37 60.785C49.7743 59.7135 47.2606 58.4522 44.849 57.0113C44.7333 57.1419 44.4585 57.0984 44.4151 57.3016C32.8443 64.1812 21.5773 72.1349 10.021 79.0726C10.021 78.9855 11.3227 77.7663 11.3227 77.7663C16.9635 71.3947 32.772 54.065 32.4249 53.3973C34.739 51.3073 36.7639 48.9705 38.9335 46.7209C37.3089 44.5497 35.5709 42.4664 33.7266 40.4799C31.8174 42.0909 30.3711 44.3841 28.5921 46.1113C27.7098 43.8036 26.7697 41.5684 25.9887 39.1446C28.1582 39.1446 30.8918 39.9283 33.365 40.1605C35.7218 39.2447 37.9961 38.1279 40.1628 36.8223C43.8944 38.6366 47.9008 40.1751 51.5745 42.0474C47.9297 44.0938 43.5618 45.4146 39.5843 47.1273C41.1608 50.2333 42.8241 53.2522 44.3573 56.4162C49.3327 52.512 54.1345 48.448 58.9509 44.3841L76.307 34.0937C73.4214 33.8449 70.5247 33.748 67.629 33.8034C68.9058 32.1914 70.3616 30.7305 71.968 29.4492C73.53 30.9732 74.9909 32.5987 76.5963 34.0937C76.3215 35.0226 74.7594 42.8021 74.5714 43.3827C77.9072 40.8124 81.0495 37.9988 83.9727 34.9645C85.5058 33.5131 87.1546 32.0617 88.7456 30.6103C90.6548 28.767 92.564 26.3432 94.936 25.2401ZM58.7773 44.8195C56.8826 50.0156 54.8722 55.11 52.9919 60.335C60.0887 55.1196 67.0119 49.7543 73.7615 44.239L58.7773 44.8195Z" fill="#212221"/>
<path fill-rule="evenodd" clip-rule="evenodd" d="M62.845 28.7084C63.4231 27.8977 64.1038 27.1659 64.8699 26.5312C63.1198 31.7853 61.2974 36.9668 59.663 42.337C59.663 42.337 59.258 43.382 59.0845 43.9336C59.0068 44.0671 58.9575 44.2154 58.9398 44.369C54.1235 48.4329 49.3216 52.5113 44.3462 56.4011C42.8131 53.2516 41.1498 50.2326 39.5732 47.1121C43.5507 45.3995 47.9187 44.0787 51.5635 42.0322C51.954 42.0322 52.4168 42.1048 52.4313 41.7419C55.4541 38.215 62.1941 29.3615 62.845 28.7084Z" fill="#5D5E5E"/>
<path fill-rule="evenodd" clip-rule="evenodd" d="M164.159 26.6768C164.896 26.6768 177.075 42.0471 177.451 42.0471C181.095 44.0936 185.478 45.3998 189.441 47.127C187.864 50.233 186.201 53.2664 184.668 56.416C179.692 52.5117 174.891 48.4333 170.074 44.3839C170.074 44.2097 169.93 43.992 169.93 43.9484C169.756 43.3969 165.981 31.8147 164.159 26.6768Z" fill="#5D5E5E"/>
<path fill-rule="evenodd" clip-rule="evenodd" d="M121.955 41.1908C119.352 42.2939 117.139 43.8034 114.579 44.9645C111.874 43.905 109.748 42.2649 107.058 41.1908C109.228 37.8526 112.164 35.2836 114.434 32.0615C116.922 35.124 119.714 37.8816 121.955 41.1908Z" fill="#212221"/>
<path fill-rule="evenodd" clip-rule="evenodd" d="M32.3513 53.3678C30.905 51.0891 29.8202 48.5492 28.5908 46.1108C30.3698 44.3836 31.8162 42.0904 33.653 40.4648C35.4973 42.4514 37.2354 44.5347 38.8599 46.7059C36.7048 48.941 34.7089 51.2778 32.3513 53.3678Z" fill="#5D5E5E"/>
<path fill-rule="evenodd" clip-rule="evenodd" d="M200.435 46.1107C199.205 48.549 198.048 51.0744 196.674 53.3677C194.374 51.2776 192.335 48.9264 190.166 46.6912C191.973 44.6447 193.362 42.1628 195.517 40.4502C197.209 42.2935 198.656 44.369 200.435 46.1107Z" fill="#5D5E5E"/>
<path fill-rule="evenodd" clip-rule="evenodd" d="M73.764 44.2383C67.0144 49.7729 60.1009 55.1383 53.0234 60.3343C54.9037 55.1093 56.9141 50.0148 58.8088 44.8188L73.764 44.2383Z" fill="#5D5E5E"/>
<path fill-rule="evenodd" clip-rule="evenodd" d="M155.191 44.2383L170.219 44.8188C172.128 50.0148 174.124 55.1238 176.004 60.3343C168.917 55.1189 161.98 49.7536 155.191 44.2383Z" fill="#5D5E5E"/>
<path fill-rule="evenodd" clip-rule="evenodd" d="M83.8886 59.7542C86.5354 58.6947 89.2401 57.6787 91.6989 56.416C90.0975 58.5153 88.2524 60.4155 86.2028 62.0765C84.1924 63.9343 82.1241 65.8356 80.2728 67.7369C80.2728 69.1013 81.1406 75.4294 81.1406 76.7356C81.0249 76.7356 78.9711 73.0055 78.9711 72.962C77.2607 69.9527 75.7156 66.8517 74.3428 63.673C74.8343 63.504 75.317 63.3103 75.7891 63.0925C77.2355 62.5409 83.8886 59.7542 83.8886 59.7542Z" fill="#212221"/>
<path fill-rule="evenodd" clip-rule="evenodd" d="M148.7 67.8676C148.7 67.8676 139.327 59.2462 137.129 56.416C138.344 56.9821 139.573 57.5481 140.889 58.0126C140.889 58.0126 143.695 59.2172 145.084 59.7542C145.556 59.9723 146.039 60.166 146.53 60.3348C146.53 60.3348 148.193 61.0315 148.989 61.3508C148.989 61.3508 150.16 61.8733 150.725 62.0765C150.725 62.0765 153.328 63.1941 154.63 63.673C153.678 66.0207 152.566 68.2999 151.303 70.4946C151.231 70.6107 150.421 72.3089 150.001 72.962C149.703 73.6112 149.365 74.2413 148.989 74.8488C148.656 75.3713 147.948 76.8518 147.948 76.8518C147.933 75.56 148.7 67.8676 148.7 67.8676Z" fill="#212221"/>
<path fill-rule="evenodd" clip-rule="evenodd" d="M184.394 56.9968C190.006 62.4831 195.849 68.3322 201.013 74.2539C197.556 71.9752 194.215 68.7966 190.888 66.8518C193.593 77.1567 197.397 87.1714 200.709 97.3312C201.304 98.7426 201.787 100.198 202.156 101.685C202.459 103.848 201.996 106.649 202.3 108.942C202.058 110.481 202.058 112.048 202.3 113.587C202.184 115.735 202.474 117.477 202.445 119.538C202.204 121.465 202.204 123.416 202.445 125.343C202.835 128.87 200.868 130.597 199.263 132.6C195.56 137.216 191.366 141.105 187.692 145.068C187.952 142.034 189.138 139.886 189.283 136.795C189.529 136.548 189.992 117.767 189.717 113.572C190.223 106.49 190.643 99.3196 190.585 91.6707C189.052 84.7911 184.799 72.6719 184.799 72.6719C184.698 68.4048 184.351 56.8371 184.394 56.9968Z" fill="#5D5E5E"/>
<path fill-rule="evenodd" clip-rule="evenodd" d="M89.8756 63.0928C89.6152 66.46 87.9953 73.9202 87.9953 73.9638C87.3589 76.2715 86.4188 82.1061 86.4043 82.527C84.7266 80.8724 82.5137 75.6038 82.21 75.5603C82.586 74.8781 89.8032 63.2089 89.8756 63.0928Z" fill="#212221"/>
<path fill-rule="evenodd" clip-rule="evenodd" d="M139.01 63.0928C139.213 63.0928 143.783 70.4369 143.783 70.4949C144.709 71.9463 145.504 73.4993 146.531 74.8491V74.9943C145.755 77.7505 144.426 80.3187 142.626 82.5415C142.612 82.1061 139.647 66.7648 139.01 63.0928Z" fill="#212221"/>
<path fill-rule="evenodd" clip-rule="evenodd" d="M67.3286 72.57C68.0807 70.9445 69.3101 69.8269 70.0767 68.2158C73.2499 71.6319 76.2431 75.2121 79.044 78.9417C75.1967 77.229 71.8123 75.0374 68.2109 73.1361C68.153 73.0925 67.4443 72.8313 67.3286 72.57Z" fill="#212221"/>
<path fill-rule="evenodd" clip-rule="evenodd" d="M158.663 68.2158C159.898 69.5511 160.923 71.0685 161.7 72.7152C157.621 74.6601 154.136 77.2 149.854 78.9562C152.848 75.3712 155.712 71.7282 158.663 68.2158Z" fill="#212221"/>
<path fill-rule="evenodd" clip-rule="evenodd" d="M61.1092 70.4805C61.3571 71.3803 61.5026 72.3054 61.5431 73.2381C61.6298 74.8927 62.1216 77.9697 62.1216 78.0278C62.6134 82.9045 63.1485 87.7376 63.8572 92.3821V93.3981C60.5451 89.7986 57.1462 86.3153 54.1812 82.382C56.4085 78.3761 58.8673 74.617 60.9645 70.4805H61.1092Z" fill="#212221"/>
<path fill-rule="evenodd" clip-rule="evenodd" d="M167.906 70.4805C170.235 74.4283 172.477 78.4632 174.849 82.3674C171.869 86.2862 168.47 89.7841 165.158 93.3836V92.3676C166.055 86.1121 166.778 79.6823 167.472 73.2236C167.5 72.2944 167.646 71.3726 167.906 70.4805Z" fill="#212221"/>
<path fill-rule="evenodd" clip-rule="evenodd" d="M114.449 71.4961C116.604 74.5005 118.297 77.8532 120.394 80.9157C118.354 85.8214 116.489 90.9159 114.464 95.8506C112.164 91.1916 110.602 85.8069 108.389 81.0608C110.298 77.8097 112.54 74.7617 114.449 71.4961Z" fill="#5D5E5E"/>
<path fill-rule="evenodd" clip-rule="evenodd" d="M43.3902 100.364C41.8571 97.3453 40.107 94.5586 38.4727 91.6558C40.0058 84.7907 42.0885 78.4626 43.8241 71.7861C44.5851 73.7245 45.2133 75.7127 45.7044 77.7369C46.2685 79.5947 47.5702 81.7428 47.5846 83.6876C47.3764 85.0714 47.0374 86.4322 46.5722 87.7516C45.6031 91.83 44.3593 96.6632 43.5349 100.364H43.3902Z" fill="#212221"/>
<path fill-rule="evenodd" clip-rule="evenodd" d="M190.598 91.6562C188.963 94.559 187.213 97.3457 185.68 100.365C184.234 94.7042 182.585 89.2614 181.63 83.1075C181.761 82.7591 183.858 75.8504 184.812 72.817V72.6719C184.812 72.6719 189.065 84.7766 190.598 91.6562Z" fill="#212221"/>
<path fill-rule="evenodd" clip-rule="evenodd" d="M104.903 107.752C104.771 107.87 104.671 108.02 104.614 108.188C104.382 108.188 104.368 108.057 104.18 108.043C100.983 100.22 96.9479 93.2964 94.0552 85.125C99.8406 88.6519 105.25 92.5562 110.818 96.2863C108.938 100.147 106.797 103.848 104.903 107.752Z" fill="#212221"/>
<path fill-rule="evenodd" clip-rule="evenodd" d="M124.125 107.753C122.216 103.921 120.191 100.147 118.195 96.4461C123.59 92.4837 129.216 88.7391 134.958 85.1396C132.066 93.311 128.03 100.234 124.834 108.057C124.71 108.155 124.557 108.206 124.4 108.202C124.284 108.072 124.386 107.796 124.125 107.753Z" fill="#212221"/>
<path fill-rule="evenodd" clip-rule="evenodd" d="M80.6195 91.6562V92.3819C80.1133 92.7883 79.9831 93.3979 78.7393 93.2527C78.3614 92.9092 78.1072 92.45 78.0161 91.9465C78.3343 90.916 78.4211 89.6388 79.4624 89.334C80.2868 89.6823 80.1278 90.9886 80.6195 91.6562Z" fill="#212221"/>
<path fill-rule="evenodd" clip-rule="evenodd" d="M151.014 91.9465C151.014 92.5416 150.536 92.9189 150.146 93.2527C149.075 93.3979 148.887 92.7738 148.41 92.3819V91.6562C148.902 90.9886 148.757 89.6823 149.567 89.334C150.609 89.6388 150.681 90.916 151.014 91.9465Z" fill="#212221"/>
<path fill-rule="evenodd" clip-rule="evenodd" d="M22.6635 90.2051C21.4196 110.307 20.9134 130.438 20.2481 150.946C20.0052 150.653 19.7111 150.407 19.3803 150.221C18.5559 149.596 12.0473 144.763 12.0039 144.27C12.3409 143.765 12.6314 143.231 12.8717 142.673C12.8717 142.485 14.0143 140.54 14.4627 139.625C14.9111 138.711 16.126 136.113 16.4876 135.561C16.6033 135.199 17.6157 133.399 17.9339 132.804C18.8017 131.164 19.8865 128.987 20.6386 127.23C20.6386 127.23 12.5246 126.2 12.4378 125.997C13.7974 121.134 15.2582 116.345 16.4876 111.352C16.7457 110.91 16.8944 110.412 16.9215 109.901C17.3593 108.672 17.6978 107.41 17.9339 106.127C18.192 105.685 18.3408 105.187 18.3678 104.676C18.8565 103.254 19.2432 101.799 19.5249 100.321C19.7825 99.879 19.9312 99.3815 19.9588 98.8699C20.6965 96.4751 21.4052 93.9787 21.9837 91.4678C22.2874 91.1775 22.1573 90.3647 22.6635 90.2051Z" fill="#5D5E5E"/>
<path fill-rule="evenodd" clip-rule="evenodd" d="M206.366 90.2051C206.887 90.3647 215.044 120.293 216.621 126.026C216.534 126.229 209.534 127.042 208.478 127.332L208.68 127.767C209.432 129.524 216.679 143.863 217.055 144.299C217.055 144.792 209.447 150.453 208.811 150.975C208.116 130.438 207.61 110.307 206.366 90.2051Z" fill="#5D5E5E"/>
<path fill-rule="evenodd" clip-rule="evenodd" d="M53.8891 90.9307C57.7364 91.3806 60.3688 93.0352 63.8545 93.8335C62.6685 98.3038 61.2366 102.542 59.9493 106.896C62.8005 108.731 65.7945 110.333 68.9022 111.686C67.1174 114.121 65.1339 116.402 62.9722 118.507C60.875 114.153 58.3873 109.959 56.0297 105.445C55.152 104.076 54.4246 102.616 53.8602 101.09C53.166 97.9119 54.0771 94.6172 53.8891 90.9307Z" fill="#212221"/>
<path fill-rule="evenodd" clip-rule="evenodd" d="M174.847 90.9307C175.449 94.2299 175.547 97.6021 175.136 100.931C174.589 102.51 173.861 104.02 172.967 105.43C170.739 109.697 168.078 114.226 166.024 118.493C163.867 116.384 161.884 114.102 160.094 111.671C163.233 110.22 166.169 108.667 169.062 107.027C167.847 102.542 166.328 98.3183 165.156 93.8335C168.584 93.0497 171.202 91.4387 174.847 90.9307Z" fill="#212221"/>
<path fill-rule="evenodd" clip-rule="evenodd" d="M38.4279 91.6562C40.0622 94.559 41.8123 97.3457 43.3454 100.365C43.6636 100.669 43.2731 100.771 43.3454 101.235C42.0437 105.386 39.8019 108.594 39.2957 113.558C38.775 106.475 38.37 99.3051 38.4279 91.6562Z" fill="#C9C9C9"/>
<path fill-rule="evenodd" clip-rule="evenodd" d="M190.599 91.6562C190.599 99.3051 190.238 106.475 189.732 113.558C189.24 108.58 186.984 105.386 185.682 101.235C185.754 100.786 185.364 100.669 185.682 100.365C187.215 97.3457 188.965 94.559 190.599 91.6562Z" fill="#C9C9C9"/>
<path fill-rule="evenodd" clip-rule="evenodd" d="M104.901 107.752C106.651 109.45 109.876 111.801 112.133 113.558C112.682 113.993 114.114 115.575 114.447 115.59C115.331 115.051 116.156 114.418 116.906 113.703C119.509 111.671 121.896 109.668 124.137 107.752C124.34 107.752 124.297 108.071 124.427 108.187C124.584 108.191 124.737 108.139 124.861 108.042C127.03 115.212 130.096 122.411 132.237 130.67C133.683 136.475 135.014 142.847 136.431 149.088C136.923 151.279 138.051 154.4 137.588 155.764C134.696 157.216 132.107 158.87 129.344 160.409C125.005 159.843 120.666 159.335 116.631 158.522C116.574 158.354 116.474 158.204 116.342 158.087C116.051 156.83 115.614 155.612 115.04 154.458L114.476 153.37L114.027 154.458C113.453 155.612 113.016 156.83 112.726 158.087C112.523 158.087 112.567 158.406 112.436 158.522C108.401 159.364 104.019 159.843 99.7231 160.409H99.5784C98.9125 159.884 98.1837 159.445 97.4089 159.103C95.4274 157.999 93.605 156.737 91.4789 155.764C91.1028 154.589 91.9996 151.41 92.4913 149.233C93.9377 142.89 95.2828 136.678 96.6857 130.815C98.6962 122.455 102.341 114.545 104.207 108.042C104.395 108.042 104.409 108.231 104.641 108.187C104.69 108.023 104.779 107.873 104.901 107.752Z" fill="#5D5E5E"/>
<path fill-rule="evenodd" clip-rule="evenodd" d="M26.7139 108.855C26.9539 110.443 26.9539 112.058 26.7139 113.645V108.855Z" fill="#C9C9C9"/>
<path fill-rule="evenodd" clip-rule="evenodd" d="M202.314 108.855V113.5C202.072 111.961 202.072 110.394 202.314 108.855Z" fill="#5D5E5E"/>
<path fill-rule="evenodd" clip-rule="evenodd" d="M132.5 17.2568C130.493 16.9189 128.454 16.8214 126.425 16.9665L132.5 17.2568Z" fill="#212221"/>
<path fill-rule="evenodd" clip-rule="evenodd" d="M96.3846 17.2568C93.1914 18.0779 90.0517 19.0958 86.9834 20.3048L96.3846 17.2568Z" fill="#212221"/>
<path fill-rule="evenodd" clip-rule="evenodd" d="M54.1793 15.965C53.4995 23.643 52.3713 33.9914 52.1544 40.7695C52.1544 41.1178 51.894 41.9887 52.4437 41.7855C52.4437 42.1628 51.9664 42.0758 51.5759 42.0758C47.9021 40.2034 43.8958 38.665 40.1642 36.8507C37.9974 38.1562 35.7231 39.2731 33.3663 40.1889C31.0701 31.9486 28.2685 23.8585 24.9775 15.965C24.9775 15.7183 25.0932 15.6893 25.2668 15.6748C30.546 22.3077 35.1309 29.6518 40.4968 36.2847C40.4968 31.5531 40.4968 25.8055 40.4968 20.624C35.5937 18.8243 30.3724 17.3584 25.4693 15.5441C37.0401 14.7894 45.7181 11.0593 54.5119 7.56142L54.6855 7.44531C54.6855 7.44531 54.6855 7.61948 54.6855 7.44531C54.9603 7.90976 54.3818 13.6863 54.1793 15.965Z" fill="#C9C9C9"/>
<path fill-rule="evenodd" clip-rule="evenodd" d="M32.0679 9.56435C33.1668 8.49036 34.4886 7.67325 35.9388 7.17144C37.389 6.66964 38.9317 6.49552 40.4567 6.66155L46.8207 6.80669L51.7382 6.95183C52.2155 6.95183 54.3851 7.24211 54.6309 7.24211H53.1846L49.1348 7.53239C48.5563 7.61947 46.8641 7.67753 46.676 7.67753C46.1843 7.76461 44.6945 7.82267 44.5065 7.82267C44.0148 7.90975 42.7275 7.96781 42.6263 7.96781C40.6782 8.01137 38.7397 8.25453 36.8409 8.69351C33.63 10.4062 28.5533 13.7299 25.4292 15.5151C25.4292 15.399 27.5987 13.7734 27.5987 13.7734L32.0679 9.56435Z" fill="#5D5E5E"/>
<path fill-rule="evenodd" clip-rule="evenodd" d="M176.582 37.7364C175.787 28.2878 175.396 19.0423 174.268 9.88401C174.268 9.37602 174.268 7.27148 174.268 7.27148C182.773 11.1612 191.812 14.7897 203.6 15.3993C198.928 17.4748 193.476 18.7376 188.572 20.6244C188.572 25.8059 188.572 31.5534 188.572 36.285C193.837 29.536 198.697 22.3951 203.745 15.3993C203.86 15.3993 203.889 15.5445 204.034 15.5445V15.9654C200.742 23.8583 197.94 31.9485 195.645 40.1893C193.293 39.2618 191.02 38.1454 188.847 36.851C185.101 38.6653 181.109 40.2038 177.436 42.0761C177.074 42.0906 176.698 39.1007 176.582 37.7364Z" fill="#C9C9C9"/>
<path fill-rule="evenodd" clip-rule="evenodd" d="M106.205 20.8854V20.7402C109.3 23.643 111.397 27.3876 114.464 30.305C117.356 27.228 119.801 23.6285 122.823 20.7402V20.8854C122.823 22.003 122.823 26.1975 122.823 27.1264C132.948 33.0191 143.752 38.2296 154.036 43.9481C144.085 43.295 133.526 42.0033 123.257 41.1905C126.266 43.8756 130.981 46.1107 134.524 48.7378C134.524 49.0135 133.526 50.7842 133.367 51.3503C133.047 51.9642 132.757 52.5939 132.5 53.2371C131.053 56.1399 128.16 62.2793 128.16 62.0906C125.904 55.3126 124.4 47.7798 121.941 41.205C119.699 37.8958 116.908 35.1381 114.42 32.0757C112.149 35.3123 109.213 37.8813 107.044 41.205C104.585 47.7363 103.153 55.2836 100.825 61.9455C100.723 62.3374 100.825 62.8018 100.535 62.2358C99.3348 59.0862 97.9029 56.1834 96.4855 53.2516C96.3264 52.6856 95.6321 51.5535 95.6177 51.3648C95.4586 50.7987 94.5185 49.028 94.4606 48.7523C98.2066 46.1252 102.343 43.8901 106.031 41.205C95.5743 42.0758 85.2908 43.1063 74.9639 44.1078C85.0883 38.157 96.095 33.1062 106.176 27.1409C106.308 25.0581 106.317 22.9693 106.205 20.8854Z" fill="#5D5E5E"/>
<path fill-rule="evenodd" clip-rule="evenodd" d="M122.824 27.1266C127.38 27.3443 129.52 25.1381 133.946 25.2397H134.091C136.564 26.2847 138.43 28.665 140.455 30.6099C144.967 34.8335 149.682 39.6667 154.47 43.5129C154.007 41.6986 152.72 35.0222 152.445 34.0933C154.036 32.6419 155.482 30.9437 157.073 29.4488C158.52 30.7841 160.544 32.25 161.268 33.803C158.259 33.6869 155.67 33.9917 152.749 33.9481C158.353 37.7219 164.146 41.205 170.105 44.3837C174.921 48.4331 179.723 52.5261 184.698 56.4158C186.232 53.2663 187.895 50.2474 189.471 47.1269C185.508 45.3997 181.111 44.108 177.481 42.047C181.155 40.1747 185.161 38.6362 188.893 36.8219C191.066 38.1163 193.339 39.2327 195.691 40.1601C198.164 39.9279 200.897 39.2022 203.067 39.1442C202.286 41.5535 201.346 43.8032 200.464 46.1109C198.685 44.3692 197.253 42.2792 195.546 40.4504C193.405 42.1631 192.002 44.6305 190.195 46.6915C192.35 48.9266 194.389 51.2779 196.703 53.3679C196.341 54.021 218.76 78.811 219.107 79.0432C207.724 72.5699 196.284 64.0502 184.713 57.2722C184.713 57.1125 184.424 57.1706 184.424 56.9819C184.178 56.9819 175.312 61.4232 170.842 63.3681C170.842 63.3681 170.842 63.3681 168.673 64.2389C167.302 64.7997 165.902 65.2843 164.478 65.6903C163.582 63.8906 158.693 52.976 158.693 52.9325C158.436 52.2892 158.146 51.6595 157.825 51.0457C156.842 48.6944 155.757 46.4447 154.643 44.2241C153.602 44.4418 151.519 44.9498 151.461 44.9498C146.891 45.8787 137.924 47.9977 137.88 47.9977C136.754 48.1486 135.641 48.3913 134.554 48.7234C131.01 46.0964 126.295 43.8612 123.287 41.1761C133.57 41.9889 144.114 43.2807 154.065 43.9338C143.752 38.2153 132.948 33.0047 122.824 27.1266ZM176.006 60.3346C174.126 55.1096 172.13 50.0152 170.22 44.8191L155.193 44.2386C161.962 49.7636 168.899 55.1289 176.006 60.3346Z" fill="#212221"/>
<path fill-rule="evenodd" clip-rule="evenodd" d="M127.453 63.6727C127.453 63.6727 123.519 73.9486 121.378 78.8979C120.93 74.5437 120.742 70.0589 120.655 65.4144C122.941 64.3258 125.833 63.1067 128.176 62.0762L127.453 63.6727Z" fill="#212221"/>
<path fill-rule="evenodd" clip-rule="evenodd" d="M100.709 62.5117C103.371 63.5422 106.104 64.3115 108.375 65.4145C108.375 70.1026 107.927 74.3406 107.797 78.898C105.396 74.152 104.051 68.3464 101.577 63.6728L100.709 62.5117Z" fill="#212221"/>
<path fill-rule="evenodd" clip-rule="evenodd" d="M92.1893 99.6392C89.2966 93.7465 85.565 88.6085 79.042 86.3008L92.1893 99.6392Z" fill="#C9C9C9"/>
<path fill-rule="evenodd" clip-rule="evenodd" d="M43.1875 182.601C43.1875 182.601 47.6133 190.105 49.8407 193.632C55.1199 190.947 68.2382 183.907 68.4841 183.907C68.4841 182.717 66.0253 157.782 65.5914 144.894C62.6987 145.852 61.0644 148.188 58.5043 149.538C58.7213 150.467 58.6779 150.438 58.3597 149.538C60.8329 148 62.771 145.939 65.4468 144.603C66.3725 145.039 67.3994 145.344 68.3395 145.765C74.284 144.574 80.3586 143.515 86.4044 142.426C84.4084 134.807 80.2429 126.461 82.7885 117.477C83.2412 116.438 83.6276 115.372 83.9456 114.284C83.9456 112.992 79.9392 109.93 79.1726 108.914L75.0361 104.821C76.0611 104.559 77.1351 104.559 78.1602 104.821C82.6438 105.909 84.0902 110.133 87.2722 113.094C88.0387 111.497 88.4726 110.496 89.6008 108.202L90.5987 109.755C91.2785 106.751 93.4914 102.861 92.1897 99.7552C92.5658 99.9584 92.5947 100.51 92.7683 100.916C94.2869 100.278 95.9358 99.7407 97.5412 99.1746C96.5577 95.5026 95.8634 91.5693 94.9378 88.1585C94.6341 87.0699 93.8675 86.141 93.9254 84.9654C94.3488 83.0342 94.9293 81.141 95.661 79.3049C97.3243 73.7316 99.219 68.2307 100.723 62.4832L101.591 63.6443C104.064 68.3178 105.409 74.1234 107.81 78.8695C107.94 74.3121 108.389 70.074 108.389 65.386C106.118 64.2829 103.153 63.4411 100.723 62.4832C100.723 62.1929 100.723 62.2945 100.868 61.9026C103.196 55.2407 104.628 47.6934 107.087 41.1621C109.777 42.2361 111.903 43.8762 114.608 44.9358C117.154 43.7746 119.367 42.2652 121.984 41.1621C124.443 47.737 125.933 55.2697 128.204 62.0478C128.204 62.0478 122.968 64.2829 120.683 65.386C120.77 70.0305 120.958 74.5879 121.406 78.8695C123.547 73.9057 125.08 68.3469 127.481 63.6443L128.204 62.0478C129.65 67.505 131.675 73.659 133.411 79.5952C133.931 81.3514 135.161 83.7172 135.146 85.2557C135.146 86.3007 134.38 87.2296 134.134 88.1585C133.194 91.6128 132.557 95.4155 131.53 99.1746C133.121 99.7552 134.799 100.249 136.303 100.916C136.477 100.51 136.506 99.9584 136.882 99.7552C135.522 102.919 137.938 106.519 138.328 109.755C138.66 109.231 139.048 108.744 139.485 108.304C140.483 109.755 140.758 111.86 142.089 112.948C145.227 109.48 147.527 104.24 154.108 104.719L145.126 114.11C149.465 122.934 145.256 134.429 142.667 142.252C148.453 143.631 154.831 144.458 160.732 145.736C161.73 145.344 162.714 144.923 163.769 144.574C163.769 144.705 160.399 183.878 160.587 183.878C165.91 187.768 173.084 190.395 179.086 193.603C181.559 190.323 185.855 182.354 185.884 182.572C189.254 179.524 193.608 175.402 197.585 172.282C199.726 176.636 201.678 181.222 203.804 185.62C205.569 174.923 208.057 152.528 208.866 150.961C208.866 150.961 214.84 163.617 218.268 169.379C217.906 164.807 217.95 158.435 217.689 152.557C217.573 150.09 217.067 144.778 217.111 144.284C216.72 143.849 216.59 126.214 216.677 126.011C220.264 126.142 223.33 125.721 226.801 125.721C223.663 120.031 220.481 114.298 217.27 108.609C214.059 102.919 206.827 90.3791 206.35 90.2195C201.191 82.4787 196.037 74.6943 190.888 66.8664C194.215 68.8113 197.542 71.9754 201.013 74.2686C195.849 68.3323 190.281 62.788 184.684 57.3017C196.254 64.0652 218.615 78.6518 219.078 79.0727C220.408 86.9393 222.144 94.5592 223.851 102.295C226.078 112.455 229.636 120.452 228.913 132.891C228.609 137.767 227.365 142.775 226.743 147.826C226.121 152.876 225.297 158.261 225.008 163.196C224.747 167.245 224.921 172.267 223.417 174.647C221.913 177.028 217.964 179.8 215.606 181.904C210.307 186.758 204.548 191.08 198.409 194.807C194.837 196.985 191.51 200.729 186.419 200.758C182.21 200.758 177.842 199.597 173.402 199.162C171.218 198.944 168.918 198.784 166.604 198.581C164.29 198.378 158.996 198.001 158.996 198.001C158.996 198.001 160.226 188.654 160.53 183.936C157.782 186.114 155.207 189.336 152.575 191.629C146.428 191.774 140.729 194.532 135.088 194.096C127.741 193.487 123.069 188.218 115.881 187.376C115.693 185.925 115.317 184.648 115.158 183.167C115.865 183.875 116.674 184.472 117.559 184.938C118.319 185.443 119.168 185.798 120.061 185.983C125.021 187.665 129.855 189.702 134.524 192.079C135.947 190.824 137.167 189.355 138.14 187.725C144.464 188.528 150.859 186.923 156.06 183.225C152.155 183.936 149.103 185.518 145.227 186.273C144.749 186.355 144.266 186.404 143.781 186.418C137.996 186.259 131.371 186.97 127.018 185.402C128.276 185.489 130.098 186.128 132.08 186.273C134.528 186.593 137.008 186.593 139.456 186.273C141.004 185.823 141.423 183.835 141.337 182.209C137.591 182.05 132.311 182.209 128.189 181.919C142.797 182.746 155.67 181.919 160.269 172.645C153.761 175.678 148.077 179.553 138.878 179.902C139.326 179.582 140.208 179.684 140.758 179.466C137.996 171.904 143.116 166.026 145.386 160.758C144.244 159.695 142.982 158.77 141.626 158C140.454 157.231 138.733 155.779 137.576 155.823C138.039 154.473 136.911 151.338 136.419 149.146C134.973 142.905 133.714 136.476 132.225 130.728C130.098 122.47 127.018 115.271 124.863 108.101C128.045 100.278 132.094 93.3545 134.987 85.1831C129.202 88.7971 123.619 92.5417 118.224 96.4895C120.22 100.249 122.245 103.964 124.154 107.796C121.912 109.697 119.526 111.715 116.922 113.747C116.172 114.462 115.348 115.095 114.463 115.634C114.145 115.634 112.699 114.037 112.149 113.602C109.893 111.845 106.682 109.494 104.918 107.796C106.812 103.892 108.953 100.234 110.848 96.3444C105.25 92.5707 99.7975 88.681 94.0121 85.1396C96.9048 93.311 100.94 100.234 104.137 108.057C102.285 114.559 98.6115 122.571 96.6156 130.83C95.1692 136.635 91.1918 154.589 91.4087 155.779C90.0491 155.866 88.6751 157.1 87.3589 157.956C86.0428 158.813 84.7555 159.669 83.5984 160.569C85.7535 165.997 91.0182 171.774 88.2267 179.437C92.1897 180.25 96.4998 180.714 100.506 181.469C94.3014 180.308 88.3714 180.25 82.7306 178.857C77.4659 177.565 73.0835 174.343 68.5709 172.616C71.6516 177.666 77.0899 181.048 84.3216 181.759C89.1379 182.238 94.6919 181.759 100.795 181.904C96.7168 182.166 91.481 182.035 87.7784 182.195C87.5889 182.954 87.6404 183.754 87.9256 184.482C88.2108 185.211 88.7156 185.832 89.3694 186.259C95.661 186.767 100.94 185.46 105.554 184.807C104.528 185.401 103.399 185.794 102.227 185.968C103.023 185.504 104.223 185.446 104.975 184.952C99.3781 186.404 92.4501 186.593 85.1749 186.404L43.1875 182.601ZM83.7286 186.259C79.8958 185.62 76.4969 183.675 72.8955 183.356C77.437 186.085 83.772 188.9 90.8157 187.71C91.8102 189.285 92.9743 190.745 94.2869 192.064C99.219 190.134 104.137 187.812 108.953 185.78C110.494 185.35 111.931 184.609 113.176 183.603C113.581 183.269 113.567 183.211 113.567 183.211C113.428 184.615 113.187 186.008 112.844 187.376C105.091 188.392 99.9711 194.749 90.8736 194.053C85.8403 193.661 81.8484 191.658 76.2944 191.527C73.6765 189.234 71.2177 186.085 68.4841 183.893C68.7878 188.61 69.3519 193.414 69.5544 198.247C69.5544 198.247 64.7381 198.334 62.4095 198.552L55.7563 199.133C50.2746 199.641 45.6318 201.077 40.4395 200.584L39.7163 200.439C36.3897 199.568 33.28 196.433 30.315 194.633C24.1231 190.875 18.3611 186.446 13.1324 181.426C10.6592 179.161 6.6962 176.941 5.32217 174.169C3.94814 171.396 4.23741 166.912 4.02046 163.443C3.70226 158.247 2.90677 153.094 2.28484 147.927C1.44596 140.569 -0.506604 134.008 0.115325 125.314C0.6794 117.564 3.49978 109.915 5.17754 102.252C6.91315 94.3414 8.6777 86.7216 9.95048 79.0582C10.4133 78.6518 32.7449 64.1813 44.3446 57.2872C38.5592 62.846 33.0631 68.6952 27.5814 74.5443C31.2407 72.2221 34.6541 68.8839 38.1253 66.8519C33.0052 74.675 27.8129 82.4109 22.6639 90.205C22.1432 90.3646 22.2733 91.1774 21.9407 91.5112C14.9693 102.455 8.92357 114.269 2.28484 125.59C5.64876 125.927 9.02898 126.072 12.4093 126.026C12.4093 126.026 12.4093 143.863 11.9754 144.299C11.9754 144.792 11.5559 151.556 11.3968 155.17C11.1943 159.814 11.1799 164.865 10.6737 169.379C14.3184 163.806 17.052 157.303 20.2051 151.251V150.946C21.0006 152.514 21.5502 152.833 20.7547 151.991C21.9985 162.63 23.6474 174.677 25.0937 185.606C27.4513 181.396 29.2303 176.607 31.4576 172.267C33.7718 173.82 37.243 177.304 40.1357 179.814C40.6564 180.279 43.0284 182.108 43.1731 182.572L83.7286 186.259ZM206.35 90.2195C208.447 89.5228 209.98 86.7216 211.701 85.1396C208.809 81.6997 205.54 78.5502 202.459 75.2846C203.399 80.5096 205.28 85.0235 206.35 90.2195ZM157.174 154.618C157.218 156.662 157.412 158.699 157.753 160.714C158.129 159.103 158.591 157.579 158.91 155.924C158.505 155.402 157.782 154.517 157.217 154.604L157.174 154.618ZM140.411 172.035C143.44 171.741 146.369 170.784 148.99 169.232C151.611 167.68 153.862 165.57 155.583 163.051C150.119 165.26 145.019 168.283 140.454 172.02L140.411 172.035ZM146.919 175.954C149.364 175.46 151.259 174.502 153.717 173.922C154.657 171.527 156.364 169.132 157.189 167.1C154.267 170.511 151.331 173.936 146.948 175.925L146.919 175.954ZM17.3558 85.2847C19.1926 86.7361 20.5667 89.3051 22.7073 89.9292C23.5172 84.6896 25.9037 80.2774 26.4678 75.2846C23.5461 78.7824 20.046 81.6417 17.3558 85.2847ZM71.4057 160.758C71.4925 158.668 71.8107 156.81 71.8396 154.662C69.135 154.821 70.6102 158.769 71.3768 160.7L71.4057 160.758ZM88.6028 171.919C83.8588 168.798 79.2449 164.778 73.286 163.37C77.1622 167.274 81.6459 171.425 88.5739 171.875L88.6028 171.919ZM75.2096 173.907C77.5961 174.314 79.7801 175.693 82.0075 175.794C77.3791 174.198 74.66 169.988 71.6082 167.231C72.9797 169.359 74.1838 171.591 75.2096 173.907ZM108.476 81.0176C110.688 85.7637 112.12 91.1774 114.42 95.8074C116.43 90.8726 118.296 85.7782 120.35 80.8725C118.253 77.7955 116.995 75.5893 114.406 71.4529C112.525 74.7766 110.414 77.8245 108.476 81.0756V81.0176Z" fill="#C9C9C9"/>
<path fill-rule="evenodd" clip-rule="evenodd" d="M26.7144 108.855C26.6346 106.483 26.6829 104.109 26.859 101.743C27.2061 99.0579 28.855 95.7632 29.7517 93.0346C31.7477 86.9677 33.599 81.7136 35.5371 75.6178C36.6112 72.7316 37.4811 69.7731 38.1405 66.7642C34.6693 68.7962 31.2414 72.1199 27.5966 74.4566C33.0928 68.651 38.5744 62.7438 44.3598 57.1995C44.3598 56.9963 44.678 57.0398 44.7937 56.9092C47.2053 58.3501 49.719 59.6114 52.3147 60.6828C52.3147 60.8715 52.1267 60.886 52.1701 61.1182C50.825 68.1285 49.3931 75.0662 48.2649 82.2942V82.7006C50.1596 80.8863 50.1596 80.8863 51.1576 79.7978C51.5626 79.4204 51.8229 78.9124 52.3147 78.6367L56.7984 74.1373C58.1025 73.0312 59.312 71.8175 60.4142 70.5088C60.7614 70.5088 60.689 70.0008 61.1374 70.0734V70.3637H60.9928C58.8666 74.6163 56.4079 78.3754 54.1805 82.3668C57.1455 86.3001 60.5589 89.7979 63.8565 93.3829C63.9289 93.6006 64.0735 93.7458 64.1458 93.9635C69.208 98.9273 73.981 103.746 79.1733 108.898C80.0845 109.798 84.2645 112.875 83.9463 114.269C83.7872 114.98 83.0351 116.562 82.7892 117.462C80.2436 126.504 84.3947 134.777 86.4051 142.411C80.3449 143.485 74.2847 144.559 68.3402 145.749C72.2164 138.812 77.2352 132.237 80.909 125.59C76.7869 128.028 69.8299 132.498 69.8299 132.498C62.8007 128.87 54.6289 126.083 47.5273 122.542C46.0809 115.415 44.9673 108.028 43.3329 101.22C43.2606 100.771 43.6511 100.654 43.3329 100.35H43.4775C44.2875 96.6341 45.5458 91.8154 46.5148 87.737C46.98 86.4176 47.319 85.0568 47.5273 83.673C47.5273 81.7282 46.2111 79.5801 45.647 77.7223C45.156 75.6981 44.5278 73.7099 43.7668 71.7715C42.0456 78.448 39.9484 84.8342 38.4153 91.6412C38.4153 99.2901 38.7769 106.46 39.2831 113.543C39.0228 117.81 39.2831 121.917 39.4278 126.301C39.1838 126.956 39.1838 127.677 39.4278 128.333C39.3564 129.592 39.4048 130.856 39.5724 132.106C39.3312 133.206 39.3312 134.345 39.5724 135.445C39.5724 135.894 39.4711 136.504 39.717 136.751C39.934 139.813 41.0332 142.005 41.308 145.024C37.7211 141.047 33.4399 137.244 29.7372 132.701C28.1173 130.713 26.2949 128.855 26.5553 125.444C26.7971 123.468 26.7971 121.47 26.5553 119.494C26.5553 117.476 26.8156 115.793 26.6999 113.688L26.7144 108.855ZM53.8768 101.075C54.4412 102.601 55.1686 104.061 56.0463 105.43C58.4038 109.943 60.8915 114.138 62.9887 118.492C65.1504 116.387 67.134 114.105 68.9188 111.671C65.8111 110.318 62.8171 108.716 59.9659 106.881C61.2387 102.527 62.685 98.3032 63.871 93.8183C60.3708 93.0201 57.7385 91.3655 53.9057 90.9155C54.0792 94.6166 53.168 97.9113 53.8912 101.09L53.8768 101.075Z" fill="#5D5E5E"/>
<path fill-rule="evenodd" clip-rule="evenodd" d="M149.854 78.8986C154.194 77.1569 157.621 74.5444 161.7 72.6576C160.923 71.0109 159.898 69.4935 158.663 68.1582C155.712 71.7287 152.848 75.3717 149.854 78.8986Z" fill="#212221"/>
<path fill-rule="evenodd" clip-rule="evenodd" d="M71.6646 93.8335H73.1109C74.239 92.3821 74.9622 90.5678 76.7267 89.7695C76.7267 90.4662 75.9746 91.2209 76.2928 91.8015C75.6854 93.398 76.8569 95.5316 77.016 97.3168C75.2515 96.7073 74.7308 94.8785 73.4002 93.8335C73.1254 94.0947 72.4456 93.9351 71.9538 93.9786C72.1708 94.8204 72.0985 95.0381 71.6646 93.8335Z" fill="#C9C9C9"/>
<path fill-rule="evenodd" clip-rule="evenodd" d="M84.3797 97.6066C84.5099 97.3454 84.7268 97.1857 84.8136 96.8809C84.9004 96.5761 85.1029 96.3004 85.2475 96.0101C84.2206 94.0507 83.0635 92.2074 80.6192 91.6559C80.1274 90.9882 80.2721 89.682 79.4621 89.3336C78.4208 89.6384 78.334 90.9157 78.0158 91.9462C77.6831 91.9462 77.929 91.3075 78.0158 91.2205C77.7844 91.2205 77.4662 91.2205 77.4372 91.3656C76.8732 91.3656 76.6851 91.6704 76.2802 91.801C75.962 91.235 76.6851 90.4657 76.7141 89.7691C74.9495 90.5528 74.2264 92.3961 73.0982 93.833H71.6519C71.782 89.9723 73.5321 86.7356 76.5694 86.4308C80.7204 86.0244 82.4561 90.9882 85.6814 91.801C85.3343 93.862 85.9128 96.7648 84.3797 97.6066Z" fill="#5D5E5E"/>
<path fill-rule="evenodd" clip-rule="evenodd" d="M157.361 93.8336H155.77C154.993 92.1537 153.798 90.7038 152.298 89.6245C152.298 90.4373 153.065 91.163 152.732 91.8016C152.327 91.671 152.139 91.3372 151.575 91.3662C150.881 90.8147 151.257 91.6565 150.997 91.9467C150.678 90.9163 150.592 89.639 149.55 89.3342C148.74 89.6826 148.885 90.9888 148.393 91.6565C145.963 92.1645 144.908 94.0513 143.765 95.8655C143.765 96.3155 144.083 96.5187 144.199 96.8815C144.365 97.1097 144.51 97.3526 144.633 97.6072C143.186 96.7654 143.62 93.8771 143.331 91.8016C146.542 91.0033 148.147 86.1411 152.298 86.4314C155.394 86.6491 157.245 89.8858 157.361 93.8336Z" fill="#5D5E5E"/>
<path fill-rule="evenodd" clip-rule="evenodd" d="M145.226 88.7529C148.972 85.8501 155.611 84.7035 161.989 85.7049C163.436 84.6744 164.231 82.3522 165.605 81.7861C165.263 83.1151 165.069 84.4781 165.026 85.8501C163.002 87.0112 160.687 87.9401 159.675 90.0591C159.82 93.1651 159.921 95.4003 158.648 97.0694C158.648 97.0694 158.229 97.5629 158.229 97.6064C156.576 99.5018 154.333 100.781 151.865 101.235H151.72C149.067 101.491 146.392 101.394 143.765 100.945C141.654 103.615 140.41 107.157 138.269 109.784C137.879 106.547 135.463 102.933 136.823 99.7835V99.6384C138.739 95.4494 141.554 91.7372 145.067 88.7674L145.226 88.7529ZM154.179 97.171C154.699 96.8844 155.184 96.5386 155.625 96.1405C156.396 95.5279 157.007 94.7358 157.404 93.8328C157.289 89.885 155.423 86.6483 152.342 86.4306C148.191 86.1403 146.557 91.0025 143.375 91.8008C143.664 93.8763 143.158 96.7501 144.676 97.6064C146.228 98.5773 148.082 98.9391 149.883 98.6224H150.028C151.516 98.5224 152.951 98.0209 154.179 97.171Z" fill="#212221"/>
<path fill-rule="evenodd" clip-rule="evenodd" d="M157.218 93.9782C153.949 93.5573 154.325 96.7794 152.011 97.3165C152.17 95.5312 153.342 93.3977 152.734 91.8011C153.067 91.1625 152.257 90.4368 152.301 89.624C153.8 90.7033 154.996 92.1533 155.772 93.8331H157.363C156.813 95.0668 156.524 94.9652 157.218 93.9782Z" fill="#C9C9C9"/>
<path fill-rule="evenodd" clip-rule="evenodd" d="M77.1627 101.236C71.9992 100.089 68.7449 97.0121 69.3524 90.0744C68.3255 87.8683 65.8378 87.1716 64.0009 85.7202C63.9209 84.3518 63.7274 82.9924 63.4224 81.6562C65.1001 82.2804 65.4906 85.3138 67.1829 85.7202C67.9153 85.7146 68.6441 85.6171 69.3524 85.4299C72.5603 85.2008 75.7841 85.4949 78.8983 86.3007H79.0429C85.5659 88.6085 89.2541 93.7464 92.1902 99.6391V99.7843C93.4775 102.905 91.279 106.795 90.5992 109.784C89.3328 107.887 88.1739 105.92 87.128 103.892C87.128 103.892 86.4048 102.731 86.4048 102.687C85.9854 102.092 85.754 101.236 85.1031 100.945C82.5255 101.404 79.8971 101.501 77.2928 101.236H77.1627ZM80.7062 98.8263L80.9955 98.6957C82.2047 98.7332 83.3848 98.3195 84.3076 97.5346C85.8407 96.6928 85.2911 93.79 85.6093 91.729C82.3984 90.9162 80.6628 85.9234 76.4973 86.3588C73.4745 86.6636 71.7099 89.9002 71.5798 93.7609C72.581 95.277 73.9323 96.5279 75.5187 97.4073C77.1052 98.2867 78.8799 98.7685 80.6918 98.8118L80.7062 98.8263Z" fill="#212221"/>
<path fill-rule="evenodd" clip-rule="evenodd" d="M38.139 66.8516C37.4796 69.8605 36.6096 72.819 35.5356 75.7051C33.5975 81.7865 31.7606 87.0406 29.7502 93.1219C28.8534 95.8506 27.2046 99.1308 26.8575 101.83C26.6814 104.197 26.6331 106.571 26.7128 108.942V113.732C26.8286 115.822 26.5248 117.506 26.5682 119.537V125.488C26.3079 128.899 28.1303 130.742 29.7502 132.745C33.4384 137.303 37.734 141.091 41.3209 145.068C41.3209 145.489 41.6536 145.518 41.6102 145.938H41.4656C37.951 154.342 35.1595 163.486 31.211 171.469C31.211 171.469 30.4878 170.351 30.4878 170.308C29.62 168.479 28.6076 166.781 27.7398 164.937C27.4071 164.241 24.1528 158.043 22.6775 155.793C22.6775 155.793 21.0142 152.571 20.2188 151.004C20.913 130.481 21.4192 110.365 22.6775 90.2336C27.8265 82.4251 33.0189 74.6746 38.139 66.8516Z" fill="#212221"/>
<path fill-rule="evenodd" clip-rule="evenodd" d="M202.314 108.855C202.01 106.577 202.473 103.775 202.169 101.598C201.801 100.111 201.317 98.6555 200.723 97.2441C197.411 87.0843 193.607 77.0986 190.902 66.7646C196.042 74.5635 201.195 82.3479 206.364 90.1177C207.622 110.205 208.128 130.351 208.822 150.888C208.027 152.455 207.145 153.936 206.364 155.532C206.364 155.532 197.946 171.295 197.845 171.338C193.809 163.384 187.72 145.373 187.72 144.937C191.394 140.975 195.588 137.085 199.291 132.47C200.896 130.467 202.863 128.754 202.473 125.213V119.407C202.473 117.346 202.213 115.604 202.328 113.456L202.314 108.855Z" fill="#212221"/>
<path fill-rule="evenodd" clip-rule="evenodd" d="M189.731 113.558C190.006 117.723 189.543 136.519 189.297 136.78C184.452 138.391 179.52 140.699 174.992 142.15C175.253 141.105 176.8 138.173 177.017 137.506C177.017 137.506 177.827 135.764 178.174 134.893C178.174 134.893 179.086 132.658 179.476 131.555C177.09 131.555 170.567 131.99 170.379 131.99C166.56 131.99 163.046 132.426 159.401 132.571C166.43 128.943 174.399 126.112 181.515 122.571C182.962 115.444 184.076 107.244 185.71 100.379C186.997 104.501 189.253 108.579 189.731 113.558Z" fill="#212221"/>
<path fill-rule="evenodd" clip-rule="evenodd" d="M39.4411 126.272C39.282 121.917 39.0361 117.781 39.2965 113.514C39.7882 108.55 42.0301 105.342 43.3463 101.191C44.9806 108.071 46.1522 115.386 47.5407 122.513C54.6567 126.054 62.8141 128.841 69.8433 132.469C69.1346 132.469 67.6304 132.237 67.6304 132.237C64.5497 132.237 51.9231 131.569 49.5655 131.511C50.8673 134.704 52.8921 139.291 52.8921 139.349C54.2083 142.643 54.2083 142.643 53.9046 142.252C49.3052 140.307 44.5467 138.492 39.7449 136.736C39.499 136.49 39.6291 135.88 39.6002 135.43V132.077C39.4326 130.827 39.3842 129.563 39.4556 128.304L39.4411 126.272Z" fill="#212221"/>
<path fill-rule="evenodd" clip-rule="evenodd" d="M167.905 70.4805C167.905 70.4805 171.073 73.2091 172.244 74.2541C173.681 75.8119 175.175 77.3117 176.728 78.7535C178.435 80.2049 179.418 82.2368 181.645 83.1077C182.6 89.2616 184.249 94.7189 185.695 100.365C185.695 100.365 182.889 115.43 181.501 122.557C174.124 126.229 166.415 128.928 159.386 132.557C155.423 130.394 151.995 127.695 147.975 125.59C152.126 132.412 156.653 138.783 160.688 145.75C154.758 144.473 148.437 143.689 142.623 142.238C145.226 134.4 149.421 122.92 145.082 114.11C151.33 106.853 158.518 100.626 165.027 93.6594C165.027 93.5142 165.143 93.4852 165.172 93.3691C168.469 89.7696 171.883 86.2717 174.862 82.3529C172.49 78.4632 170.248 74.4283 167.905 70.4805ZM165.157 93.8335C166.329 98.3619 167.847 102.542 169.062 107.027C166.17 108.667 163.277 110.278 160.095 111.671C161.884 114.102 163.868 116.384 166.025 118.493C168.064 114.226 170.726 109.784 172.967 105.43C173.862 104.02 174.59 102.51 175.137 100.931C175.548 97.6021 175.45 94.23 174.848 90.9307C171.203 91.4387 168.585 93.0498 165.172 93.8335H165.157Z" fill="#5D5E5E"/>
</g>
<defs>
<clipPath id="clip0">
<rect width="229" height="277" fill="white"/>
</clipPath>
</defs>
</svg>
