<svg width="16" height="16" viewBox="0 0 16 16" fill="none" xmlns="http://www.w3.org/2000/svg">
<mask id="mask0" mask-type="alpha" maskUnits="userSpaceOnUse" x="1" y="1" width="14" height="14">
<path fill-rule="evenodd" clip-rule="evenodd" d="M14.623 12.1234L14.2526 11.377C14.1502 11.1708 13.9002 11.0867 13.6941 11.189L12.7519 11.6668L11.2541 8.47915C11.1168 8.18683 10.8229 8.00019 10.4999 8.00019H7.05602L6.93695 7.16685H10.0833C10.3134 7.16685 10.4999 6.98032 10.4999 6.75019V5.91685C10.4999 5.68672 10.3134 5.50019 10.0833 5.50019H6.69886L6.57724 4.64889C7.39641 4.52868 8.02193 3.81279 7.99932 2.95516C7.97649 2.08808 7.27917 1.37558 6.41274 1.33534C5.45612 1.29092 4.66659 2.05334 4.66659 3.00016C4.66734 3.01214 4.66775 3.02098 4.66823 3.02981C4.67417 3.13714 4.69292 3.24376 5.50828 8.95133C5.56696 9.36188 5.91854 9.66683 6.33326 9.66683H9.97073L11.6055 13.1462C11.8043 13.5694 12.3123 13.7457 12.7303 13.5383L14.4351 12.6819C14.6412 12.5795 14.7254 12.3295 14.623 12.1234ZM8.80336 10.5002H9.44153L10.1122 11.9275C9.40112 13.539 7.7882 14.6668 5.91659 14.6668C3.38932 14.6668 1.33325 12.6108 1.33325 10.0835C1.33325 8.15545 2.53002 6.50183 4.21961 5.82597L4.46669 7.55339C3.59091 8.05722 2.99992 9.00264 2.99992 10.0835C2.99992 11.6918 4.30833 13.0002 5.91659 13.0002C7.38336 13.0002 8.60054 11.9117 8.80336 10.5002Z" fill="white"/>
</mask>
<g mask="url(#mask0)">
<rect width="16" height="16" fill="white"/>
</g>
</svg>
