<svg width="120" height="26" xmlns="http://www.w3.org/2000/svg">

 <g>
  <title>Layer 1</title>
  <path id="svg_1" fill="#C31D28" d="m0.0214,3.71057c1.027,0 2.0754,0 3.14519,0c0,1.08757 0,2.13249 0,3.17742c0,1.04492 0,2.08984 0,3.13481c0.0214,0 0.0428,0.0213 0.06419,0.0213c1.90424,-2.11119 3.78708,-4.22236 5.69131,-6.33353c1.32651,0 2.65311,0 4.04381,0c-1.9898,2.11117 -3.95823,4.20102 -5.94805,6.29083c2.0968,2.7936 4.19355,5.5872 6.31175,8.4021c-1.3693,0 -2.6958,0 -4.04378,0c-1.47632,-2.0472 -2.97403,-4.1158 -4.47174,-6.1843c-0.5349,0.5545 -1.0698,1.1089 -1.66888,1.7273c0,1.3862 0,2.9002 0,4.4783c-1.0484,0 -2.0968,0 -3.1452,0c0.0214,-4.8834 0.0214,-9.78817 0.0214,-14.71423z"/>
  <path id="svg_2" fill="#C31D28" d="m49.2105,0.02133c0.5563,0.0853 1.1126,0.10662 1.6689,0.25589c2.8884,0.81035 4.921,2.53767 5.7127,5.48052c0.7702,2.87886 -0.4493,5.88566 -2.9954,7.63436c-1.5833,1.0875 -3.3378,1.5354 -5.242,1.4501c-0.0642,0 -0.107,-0.0214 -0.1926,-0.0214c0,-1.1728 0,-2.3457 0,-3.5186c0.107,-0.064 0.2354,-0.0213 0.3637,-0.0213c1.1554,0.0426 2.2038,-0.2559 3.1238,-0.9596c1.9899,-1.55675 1.9471,-4.30767 -0.0641,-5.80041c-0.9415,-0.70373 -2.0327,-0.98095 -3.2094,-0.91698c-0.0642,0 -0.1284,0 -0.1712,0c0,0 -0.0214,0 -0.0428,-0.02132c0,-1.15155 0,-2.32442 0,-3.49729c0.107,-0.02133 0.214,-0.04265 0.3423,-0.0853c0.2354,0.02132 0.4708,0.02133 0.7061,0.02133z"/>
  <path id="svg_3" fill="#C31D28" d="m34.0191,3.79584c1.0698,0 2.0754,0 3.1024,0c0,4.90474 0,9.78816 0,14.69286c-0.92,0 -1.84,0 -2.7814,0c-2.3322,-3.0921 -4.6643,-6.2269 -6.9965,-9.3403c-0.0214,0 -0.0428,0 -0.0642,0.02133c0,3.09207 0,6.20557 0,9.31897c-1.0484,0 -2.0326,0 -3.0382,0c0,-4.9047 0,-9.78812 0,-14.69286c0.9628,0 1.9256,0 2.9312,0c2.2466,3.00681 4.5146,6.03496 6.7826,9.06306c0.0213,0 0.0641,-0.0213 0.0855,-0.0213c-0.0214,-3.0068 -0.0214,-6.03495 -0.0214,-9.04176z"/>
  <path id="svg_4" fill="#303030" d="m90.6758,3.77448c0.107,0 0.1925,0 0.2781,0c2.2894,0 4.5787,0 6.8467,0c1.0056,0 1.9684,0.19192 2.8454,0.72505c1.305,0.83167 1.969,2.06851 2.183,3.56126c0.363,2.51631 -1.092,4.32901 -2.825,5.13931c-0.0424,0.0213 -0.1066,0.0427 -0.1494,0.1066c0.5774,0.853 1.1344,1.706 1.7114,2.559c0.557,0.853 1.134,1.6847 1.733,2.5803c-1.283,0 -2.503,0 -3.7653,0c-1.0484,-1.5567 -2.0968,-3.1347 -3.1666,-4.7128c-0.7917,0 -1.5833,0 -2.3964,0c0,1.5781 0,3.1561 0,4.7555c-1.1125,0 -2.1823,0 -3.2949,0c0,-4.8834 0,-9.76684 0,-14.71422zm3.2735,7.20782c0.9843,0 1.9471,0 2.9099,0c0.1925,0 0.3851,0 0.5563,-0.0213c1.9042,-0.1919 2.2893,-1.53541 2.054,-2.77226c-0.1498,-0.853 -0.8131,-1.23685 -1.5833,-1.38612c-1.3052,-0.2559 -2.6103,-0.12795 -3.9155,-0.12795c0,0 -0.0213,0 -0.0427,0.02133c0.0214,1.40744 0.0213,2.83621 0.0213,4.2863z"/>
  <path id="svg_5" fill="#303030" d="m109.761,13.9892c0,1.3861 0,2.9215 0,4.4569c-1.049,0 -2.076,0 -3.124,0c0,-4.9048 0,-9.80949 0,-14.71423c1.048,0 2.054,0 3.102,0c0,2.11117 0,4.20102 0,6.31223c0.022,0 0.043,0.0213 0.064,0.0213c1.905,-2.11119 3.809,-4.24368 5.713,-6.33353c1.348,0 2.675,0 4.065,0c-2.011,2.1325 -3.979,4.22234 -5.948,6.31223c2.097,2.7935 4.194,5.5871 6.291,8.402c-1.37,0 -2.696,0 -4.044,0c-1.477,-2.0472 -2.974,-4.0944 -4.472,-6.1629c-0.535,0.5544 -1.048,1.0876 -1.647,1.706z"/>
  <path id="svg_6" fill="#303030" d="m63.0109,14.0958c0,1.4927 0,2.9428 0,4.4142c-1.1126,0 -2.1824,0 -3.2736,0c0,-4.9047 0,-9.78812 0,-14.67153c0.0856,-0.0853 0.1926,-0.04265 0.2781,-0.04265c2.0541,0 4.1295,0 6.1835,0c2.8242,0 4.7927,1.8766 5.0708,4.64884c0.3209,2.98554 -2.1396,5.60844 -5.1778,5.65114c-0.92,0.0213 -1.8401,0 -2.7815,0c-0.0856,0 -0.1711,0 -0.2995,0zm0.0214,-2.9429c0.0428,0.0213 0.0642,0.0213 0.0856,0.0213c0.92,0 1.84,0.0214 2.76,-0.0213c1.2838,-0.064 1.9043,-0.6824 2.054,-1.94055c0.1498,-1.21552 -0.3851,-2.00454 -1.5191,-2.26044c-0.1497,-0.04265 -0.3209,-0.06398 -0.4707,-0.0853c-0.8558,-0.0853 -1.7331,-0.02132 -2.5889,-0.04265c-0.107,0 -0.2139,-0.02133 -0.3423,0.04265c0.0214,1.42877 0.0214,2.85754 0.0214,4.28629z"/>
  <path id="svg_7" fill="#303030" d="m87.3809,18.5101c-1.134,0 -2.2466,0 -3.3592,0c-0.4279,-1.0876 -0.8558,-2.1539 -1.2837,-3.2414c-2.054,0 -4.108,0 -6.2048,0c-0.4065,1.0662 -0.8131,2.1538 -1.241,3.2414c-1.0698,0 -2.1396,0 -3.2522,0c2.0326,-4.9261 4.0653,-9.83085 6.0979,-14.71426c1.027,0 2.0326,0 3.1024,0c2.054,4.88341 4.0866,9.78816 6.1406,14.71426zm-5.8411,-6.1416c-0.6205,-1.5781 -1.2196,-3.09215 -1.84,-4.67019c-0.6419,1.57804 -1.2838,3.11339 -1.9043,4.67019c1.2624,0 2.482,0 3.7443,0z"/>
  <path id="svg_8" fill="#303030" d="m48.2257,18.8726c0,1.1729 0,2.3458 0,3.5186c-0.0214,0.0427 -0.0855,0.064 -0.1283,0.064c-3.6159,0.2346 -6.9537,-1.8339 -8.1091,-5.054c-1.1126,-3.0708 0.0428,-6.4401 2.8457,-8.35939c1.5405,-1.04493 3.2522,-1.49275 5.0922,-1.42878c0.0642,0 0.1284,0 0.214,0.02133c0.0428,0 0.0641,0.02133 0.1069,0.02133c0,1.17287 0,2.34571 0,3.53991c-0.6204,-0.0639 -1.2409,-0.0426 -1.84,0.128c-1.0484,0.2772 -1.9042,0.8316 -2.5033,1.7486c-1.0912,1.6207 -0.6847,3.6892 0.9414,4.8834c0.7702,0.5758 1.6689,0.8744 2.6317,0.8957c0.2139,0.0213 0.4707,0.0213 0.7488,0.0213z"/>
  <path id="svg_9" fill="#C31D28" d="m16.3672,18.4887c0,-4.9047 0,-9.78812 0,-14.69286c1.0698,0 2.1182,0 3.188,0c0,4.88341 0,9.78816 0,14.69286c-1.0484,0 -2.1182,0 -3.188,0z"/>
 </g>
</svg>