<svg width="120" height="23" viewBox="0 0 120 23" fill="none" xmlns="http://www.w3.org/2000/svg">
<g clip-path="url(#clip0)">
<path d="M120 0.239203C119.64 0.260734 119.355 0.405295 119.123 0.676989C118.108 1.86732 117.078 3.04739 116.06 4.23669C114.627 5.91242 113.197 7.59077 111.771 9.27174C111.715 9.3377 111.663 9.40639 111.604 9.4809C111.631 9.52684 111.66 9.57145 111.692 9.61452C112.979 11.1823 114.267 12.7494 115.556 14.316C115.852 14.6755 116.178 15.0016 116.7 15.0518V15.2524H112.102L112.088 15.0727C112.179 15.0385 112.258 15.0101 112.332 14.9756C112.579 14.8601 112.673 14.6465 112.533 14.424C112.357 14.1535 112.164 13.8927 111.957 13.6428C111.38 12.9275 110.799 12.2173 110.219 11.5054C110.172 11.4477 110.121 11.393 110.056 11.3188C109.993 11.3821 109.937 11.4303 109.891 11.4849C109.305 12.1707 108.72 12.8571 108.136 13.544C105.921 16.1356 103.706 18.7276 101.491 21.3199C101.371 21.4615 101.265 21.614 101.176 21.7751C101.018 22.0612 101.14 22.3192 101.464 22.4204C101.531 22.4412 101.599 22.4593 101.668 22.4791V22.6657H97.2125L97.1963 22.5154C97.2179 22.4925 97.2248 22.4781 97.2323 22.4768C97.7898 22.3865 98.0842 21.9764 98.4039 21.6025C100.96 18.6131 103.514 15.6223 106.067 12.6302C106.891 11.6653 107.71 10.6977 108.526 9.7273C108.562 9.68356 108.596 9.63708 108.641 9.57898C108.481 9.37974 108.326 9.18528 108.169 8.99287C107.059 7.63383 105.948 6.27468 104.838 4.91541C104.569 4.5846 104.267 4.31222 103.777 4.32076L103.767 4.09862H108.441L108.456 4.29547C108.362 4.34229 108.276 4.3792 108.193 4.42671C107.962 4.56341 107.881 4.7876 108.003 5.01589C108.098 5.19311 108.211 5.36162 108.339 5.51929C108.908 6.22433 109.485 6.9239 110.06 7.62483C110.093 7.66448 110.132 7.70036 110.183 7.75538C110.228 7.70891 110.269 7.672 110.305 7.63064C111.852 5.81502 113.398 3.99883 114.944 2.18207C115.252 1.81879 115.548 1.44593 115.845 1.07445C115.894 1.00973 115.933 0.938747 115.962 0.863586C116.043 0.661952 115.975 0.472621 115.775 0.366677C115.667 0.309263 115.545 0.274404 115.415 0.224166V0.0303918C115.491 0.0256073 115.566 0.0163799 115.641 0.0163799C117.016 0.0163799 118.391 0.0163799 119.766 0.0163799C119.843 0.0163799 119.921 0.00646907 119.998 0.00134277L120 0.239203Z" fill="#DEB246"/>
<path d="M20.0801 4.33517V4.07373H24.0927V4.31535C24.0891 4.31911 24.083 4.33141 24.0736 4.33449C23.6365 4.46777 23.6494 4.82183 23.9406 5.11027C24.4555 5.62062 24.9714 6.12983 25.4884 6.63791C27.1033 8.2307 28.718 9.82362 30.3327 11.4166C30.3734 11.457 30.4076 11.5028 30.4451 11.5462L30.4985 11.5281V11.3356C30.4985 9.26838 30.4927 7.20043 30.5035 5.13385C30.5057 4.73331 30.4408 4.41138 29.9514 4.3444V4.07646H33.4206V4.31569C33.4111 4.32567 33.3999 4.3341 33.3875 4.34064C32.9273 4.5245 32.8739 4.59969 32.8739 5.06721C32.8739 8.1202 32.8724 11.1732 32.8693 14.2262C32.8693 14.625 32.9349 14.947 33.4217 15.028V15.2973H29.71V15.0423C29.7525 15.0252 29.8026 15.0081 29.8505 14.9849C30.053 14.8895 30.1172 14.7115 29.9965 14.5314C29.9121 14.4062 29.8147 14.2894 29.7057 14.1828C27.5147 12.0332 25.3221 9.88479 23.128 7.73767C23.0967 7.70691 23.0603 7.6806 22.9983 7.62831C22.9983 7.72058 22.9983 7.78073 22.9983 7.84054C22.9983 9.96488 23.0037 12.0892 22.9936 14.2132C22.9918 14.6178 23.0556 14.947 23.5511 15.028V15.2911H20.0848V15.0382C20.1186 15.0252 20.1568 15.0098 20.1958 14.9955C20.5233 14.8752 20.6203 14.7501 20.6206 14.4196C20.6206 11.2589 20.6219 8.0981 20.6246 4.93734C20.6249 4.57679 20.4098 4.41993 20.0801 4.33517Z" fill="#303030"/>
<path d="M42.0129 15.5156C40.8958 15.5013 39.8032 15.3704 38.7812 14.9281C36.6771 14.0174 35.4937 12.4484 35.2447 10.2769C35.0454 8.53804 35.5812 6.99912 36.8356 5.7073C37.7171 4.7996 38.8389 4.29381 40.0994 4.05663C41.7117 3.75315 43.3229 3.75384 44.8735 4.30782C47.2007 5.1393 48.5589 6.74178 48.7935 9.10808C49.0194 11.3866 48.111 13.2047 46.1189 14.5047C45.2252 15.0877 44.1956 15.3413 43.1279 15.4469C42.7567 15.4814 42.3841 15.492 42.0129 15.5156ZM42.0612 13.5888C42.1823 13.583 42.3448 13.5806 42.5059 13.5666C43.7474 13.4576 44.756 12.9514 45.467 11.9672C46.1041 11.0865 46.294 10.1029 46.1427 9.05306C46.0389 8.33196 45.7629 7.68297 45.2616 7.12352C43.982 5.69499 41.7578 5.48311 40.2432 6.10681C37.5102 7.23288 37.4165 10.2027 38.4086 11.744C39.2292 13.016 40.4742 13.5745 42.0612 13.5871V13.5888Z" fill="#303030"/>
<path d="M80.0136 5.92022V8.58008H80.2162C81.6753 8.58008 83.1351 8.57154 84.5935 8.58555C85.0122 8.58965 85.3387 8.52062 85.4223 8.06848H85.7077V10.8958H85.4245C85.3409 10.4044 84.9686 10.3675 84.5351 10.3712C83.112 10.3835 81.6882 10.376 80.2659 10.376H80.0187V13.4446H80.2648C82.6367 13.4446 85.0086 13.4398 87.3805 13.449C87.8039 13.449 88.1603 13.4053 88.2338 12.9265H88.5175V15.8194H88.2594C88.2513 15.8127 88.2443 15.8047 88.2389 15.7959C88.0421 15.3458 87.9809 15.3072 87.4598 15.3072H76.8749V15.0279C77.3639 14.9497 77.4154 14.6178 77.4154 14.2146C77.4056 11.1793 77.4056 8.14412 77.4154 5.1089C77.4154 4.7152 77.3376 4.41445 76.8691 4.34679V4.06689H77.0951C80.4517 4.06689 83.8084 4.06837 87.165 4.07133C87.5888 4.07133 87.9441 4.02622 88.0252 3.54913H88.3077V6.44071H88.0555C88.0515 6.43729 88.0378 6.43114 88.0353 6.42191C87.9203 6.01181 87.6223 5.91338 87.2036 5.91578C84.8857 5.92842 82.5679 5.92193 80.2486 5.92193L80.0136 5.92022Z" fill="#303030"/>
<path d="M7.8609 4.32048V4.07646H12.6822V4.3403C12.3074 4.37447 12.0494 4.6137 11.7751 4.82251C10.1624 6.05556 8.55051 7.28974 6.93946 8.52507C6.90342 8.55309 6.86919 8.58453 6.8227 8.62452C7.1182 8.96183 7.40829 9.29333 7.6991 9.62483L11.591 14.0645C11.6411 14.1216 11.6926 14.177 11.7445 14.2323C12.089 14.6011 12.4267 14.9791 12.996 15.0273V15.2959H8.37694V15.0474C8.46631 15.0133 8.5636 14.9859 8.65297 14.9429C8.8364 14.8543 8.87243 14.7474 8.76324 14.5837C8.66074 14.4294 8.54871 14.2811 8.42775 14.1394C7.29141 12.8136 6.15351 11.4892 5.01405 10.1662C4.98811 10.1361 4.95856 10.1084 4.92036 10.0691L3.14234 11.4296C3.14234 11.6487 3.14234 11.8698 3.14234 12.0913C3.14234 12.8089 3.14234 13.5266 3.14234 14.2443C3.14234 14.7747 3.17838 14.8294 3.69189 15.0481V15.2976H0.0144144V15.0461C0.0204817 15.0393 0.0278101 15.0336 0.036036 15.0293C0.500901 14.8489 0.54955 14.7805 0.54955 14.3058C0.54955 11.23 0.54955 8.15427 0.54955 5.07849C0.54955 4.58055 0.507027 4.52109 0.00900901 4.32663C0.00612613 4.28698 0.000720721 4.2429 0 4.19847C0 4.15985 0.00396396 4.12123 0.00684685 4.07373H3.69297V4.31296C3.68432 4.3215 3.67748 4.33278 3.66775 4.33654C3.20324 4.51015 3.1427 4.59422 3.1427 5.07165C3.1427 6.2564 3.1427 7.44114 3.1427 8.62589C3.1427 8.68672 3.1427 8.74755 3.1427 8.84666C3.22703 8.78377 3.2818 8.74413 3.33514 8.70244C4.88348 7.50311 6.43207 6.30322 7.9809 5.10275C8.089 5.02179 8.18769 4.93014 8.27532 4.82935C8.40901 4.66906 8.37441 4.53305 8.1827 4.43872C8.07787 4.3936 7.97043 4.35412 7.8609 4.32048Z" fill="#303030"/>
<path d="M50.7052 15.2945C50.6977 15.2649 50.6922 15.2349 50.6886 15.2046C50.6861 15.154 50.6886 15.1021 50.6886 15.0679C50.711 15.045 50.7178 15.0337 50.7275 15.0296C51.1319 14.9271 51.2508 14.6698 51.2493 14.2873C51.239 11.2239 51.239 8.16038 51.2493 5.0969C51.2493 4.70662 51.1528 4.42091 50.7002 4.34265V4.07369C50.7603 4.07062 50.8133 4.06549 50.8663 4.06549C53.3821 4.06549 55.8979 4.0664 58.4137 4.06822C59.0688 4.06822 59.7228 4.1106 60.3571 4.28285C61.8749 4.69534 62.7715 5.86995 62.751 7.43313C62.7365 8.59065 62.2778 9.53662 61.2237 10.1733C60.7225 10.4761 60.1535 10.6067 59.5704 10.6589C59.0335 10.7068 58.4926 10.7328 57.9535 10.7372C56.6627 10.7481 55.3715 10.7406 54.0807 10.7406H53.8382V10.9505C53.8382 12.0441 53.8486 13.1377 53.8328 14.2313C53.827 14.6329 53.8969 14.9517 54.3802 15.0289V15.2952L50.7052 15.2945ZM53.8447 8.87841C53.8976 8.88148 53.9326 8.88558 53.9679 8.88558C55.3373 8.88558 56.7066 8.89276 58.076 8.87772C58.427 8.87396 58.7798 8.81347 59.1265 8.75264C59.5142 8.68429 59.7729 8.44711 59.9423 8.11561C60.0741 7.8519 60.1308 7.56003 60.1066 7.26909C60.063 6.59515 59.649 6.12729 58.9535 6.01759C58.5687 5.95795 58.1797 5.92664 57.7899 5.92395C56.5409 5.91267 55.2919 5.91985 54.0421 5.91985H53.8436L53.8447 8.87841Z" fill="#303030"/>
<path d="M102.365 4.10104L102.354 4.31873C101.924 4.32147 101.669 4.573 101.429 4.85255C100.441 6.00586 99.4514 7.15825 98.4609 8.30973C98.1766 8.641 97.8936 8.97307 97.6118 9.30594C97.5636 9.36267 97.5196 9.42282 97.4641 9.49425C97.694 9.77414 97.9156 10.0475 98.1398 10.3209C99.2209 11.6374 100.302 12.9534 101.383 14.2689C101.693 14.6448 102.02 15.0047 102.569 15.0515V15.2542H97.9736L97.9549 15.0778C98.0338 15.0453 98.1048 15.018 98.1744 14.9876C98.449 14.8676 98.543 14.6493 98.3935 14.4029C98.2543 14.1837 98.1002 13.9734 97.9322 13.7733C97.3076 13.0003 96.6804 12.2294 96.0508 11.4607C96.0147 11.417 95.9729 11.3777 95.9185 11.3202C95.8601 11.379 95.8104 11.4228 95.7654 11.475C95.0672 12.2953 94.3705 13.1155 93.6753 13.9357C93.5778 14.0513 93.4894 14.1735 93.4108 14.3014C93.1996 14.6431 93.3254 14.9312 93.7254 15.0354C93.7711 15.0474 93.818 15.0563 93.8789 15.0696V15.2559H89.4032L89.3877 15.0604C89.9935 15.019 90.2774 14.5819 90.5989 14.206C91.8808 12.7068 93.1569 11.2031 94.4273 9.69486C94.4533 9.6641 94.4742 9.62992 94.5095 9.58037C94.4291 9.47784 94.3491 9.37532 94.2659 9.27279C93.124 7.87183 91.9819 6.47064 90.8396 5.06922C90.7675 4.97934 90.685 4.89493 90.6122 4.80437C90.3747 4.50841 90.0691 4.32864 89.6562 4.31532V4.09625H94.3189L94.3304 4.29584C94.2518 4.3324 94.1762 4.36419 94.1044 4.40212C93.8385 4.54361 93.7495 4.77805 93.8814 5.03915C93.9556 5.1821 94.0451 5.31746 94.1484 5.4431C94.7447 6.17901 95.3441 6.91253 95.9466 7.64365C95.9751 7.67783 96.01 7.70859 96.058 7.75677C96.1124 7.69868 96.1607 7.65151 96.2043 7.60025C96.7992 6.89966 97.3953 6.19906 97.9863 5.49573C98.1066 5.35362 98.2142 5.20228 98.3081 5.04325C98.4904 4.73055 98.3913 4.49645 98.0381 4.36795C97.9715 4.34402 97.903 4.32523 97.8259 4.2996V4.10104H102.365Z" fill="#DEB246"/>
<path d="M64.293 15.3071V15.043C64.3351 15.0269 64.3733 15.0115 64.4123 14.9972C64.7384 14.8772 64.8353 14.7504 64.8353 14.4203C64.8353 11.2657 64.8368 8.11118 64.8396 4.9568C64.8396 4.5901 64.6371 4.4199 64.2959 4.33617V4.07507H67.9798V4.3143C67.9683 4.32387 67.9607 4.33446 67.9506 4.33822C67.4966 4.50261 67.4313 4.59249 67.4313 5.0583C67.4313 7.76954 67.4313 10.4799 67.4313 13.1893V13.4285C67.5229 13.434 67.6032 13.4429 67.6836 13.4429C69.9539 13.4429 72.2241 13.4388 74.4923 13.4477C74.9114 13.4477 75.2569 13.395 75.329 12.9261H75.6123V15.8174H75.36C75.3535 15.8122 75.3398 15.8071 75.3359 15.7979C75.1355 15.3447 75.0775 15.3071 74.5589 15.3071H64.293Z" fill="#303030"/>
<path d="M17.9435 15.031V15.2952H14.253L14.2422 15.0645C14.2571 15.0502 14.2736 15.0376 14.2916 15.0269C14.7553 14.8396 14.8054 14.7675 14.8054 14.2829C14.8054 11.23 14.8015 8.17715 14.8101 5.12393C14.8101 4.72647 14.7294 4.41855 14.2537 4.34165V4.07953H17.942V4.32662C17.9168 4.33619 17.8908 4.34746 17.8638 4.35669C17.4844 4.48758 17.3993 4.60104 17.3993 4.98996C17.3993 7.04048 17.3993 9.091 17.3993 11.1415C17.3993 12.1668 17.4105 13.192 17.3939 14.2173C17.3867 14.6226 17.4483 14.9517 17.9435 15.031Z" fill="#303030"/>
</g>
<defs>
<clipPath id="clip0">
<rect width="120" height="23" fill="white"/>
</clipPath>
</defs>
</svg>
