<svg width="125" height="24" viewBox="0 0 125 24" fill="none" xmlns="http://www.w3.org/2000/svg">
<g clip-path="url(#clip0)">
<path d="M125 0.249636C124.625 0.272103 124.328 0.42295 124.087 0.706456C123.029 1.94854 121.956 3.17992 120.896 4.42093C119.403 6.16952 117.914 7.92084 116.429 9.67489C116.37 9.74372 116.316 9.8154 116.254 9.89314C116.282 9.94109 116.313 9.98763 116.346 10.0326C117.686 11.6685 119.028 13.3038 120.371 14.9385C120.679 15.3136 121.018 15.6539 121.563 15.7063V15.9156H116.773L116.759 15.728C116.853 15.6924 116.935 15.6628 117.012 15.6268C117.269 15.5062 117.368 15.2833 117.222 15.0512C117.038 14.7689 116.838 14.4967 116.622 14.236C116.021 13.4896 115.416 12.7485 114.812 12.0057C114.763 11.9454 114.71 11.8884 114.642 11.811C114.576 11.877 114.518 11.9273 114.47 11.9843C113.859 12.6999 113.25 13.4161 112.641 14.1329C110.334 16.8372 108.027 19.5419 105.72 22.2469C105.595 22.3946 105.485 22.5537 105.392 22.7219C105.227 23.0204 105.354 23.2896 105.692 23.3952C105.762 23.4169 105.833 23.4358 105.905 23.4565V23.6512H101.263L101.246 23.4943C101.269 23.4704 101.276 23.4555 101.284 23.454C101.864 23.3599 102.171 22.932 102.504 22.5418C105.167 19.4224 107.828 16.3016 110.487 13.1793C111.344 12.1725 112.198 11.1628 113.048 10.1503C113.086 10.1046 113.121 10.0561 113.168 9.99549C113.001 9.78758 112.84 9.58467 112.676 9.3839C111.519 7.96577 110.363 6.54753 109.206 5.12916C108.926 4.78396 108.612 4.49974 108.101 4.50866L108.09 4.27686H112.959L112.975 4.48227C112.877 4.53112 112.787 4.56964 112.702 4.6192C112.461 4.76185 112.376 4.99579 112.503 5.234C112.602 5.41893 112.719 5.59477 112.853 5.75929C113.446 6.49498 114.047 7.22497 114.646 7.95638C114.68 7.99775 114.721 8.03519 114.774 8.09261C114.821 8.04411 114.864 8.00559 114.901 7.96244C116.512 6.06788 118.123 4.17273 119.733 2.27698C120.054 1.8979 120.363 1.50883 120.671 1.1212C120.723 1.05367 120.764 0.979595 120.793 0.901167C120.878 0.690766 120.807 0.493202 120.599 0.382653C120.487 0.322742 120.36 0.286367 120.224 0.233945V0.0317464C120.303 0.0267538 120.381 0.0171253 120.459 0.0171253C121.891 0.0171253 123.324 0.0171253 124.756 0.0171253C124.837 0.0171253 124.917 0.00678351 124.998 0.00143433L125 0.249636Z" fill="#DEB246"/>
<path d="M20.9169 4.52363V4.25082H25.0967V4.50295C25.093 4.50687 25.0866 4.51971 25.0768 4.52292C24.6215 4.662 24.635 5.03145 24.9383 5.33243C25.4746 5.86497 26.012 6.39632 26.5506 6.92648C28.2327 8.58853 29.9148 10.2507 31.5967 11.913C31.6391 11.9551 31.6748 12.0029 31.7138 12.0481L31.7694 12.0292V11.8285C31.7694 9.67133 31.7634 7.51347 31.7747 5.35703C31.7769 4.93909 31.7093 4.60316 31.1996 4.53326V4.25368H34.8133V4.50331C34.8034 4.51372 34.7917 4.52251 34.7788 4.52934C34.2994 4.7212 34.2439 4.79965 34.2439 5.2875C34.2439 8.47323 34.2423 11.659 34.239 14.8447C34.239 15.2609 34.3073 15.5968 34.8144 15.6813V15.9623H30.9481V15.6963C30.9924 15.6785 31.0446 15.6606 31.0945 15.6364C31.3054 15.5369 31.3723 15.3511 31.2465 15.1632C31.1586 15.0325 31.0572 14.9107 30.9436 14.7994C28.6613 12.5563 26.3774 10.3145 24.0919 8.07406C24.0592 8.04197 24.0213 8.01451 23.9567 7.95995C23.9567 8.05623 23.9567 8.119 23.9567 8.1814C23.9567 10.3981 23.9624 12.6148 23.9518 14.8311C23.95 15.2534 24.0164 15.5968 24.5325 15.6813V15.9559H20.9218V15.692C20.9571 15.6785 20.9969 15.6624 21.0374 15.6474C21.3786 15.5219 21.4796 15.3914 21.48 15.0465C21.48 11.7484 21.4814 8.45017 21.4841 5.15198C21.4845 4.77576 21.2604 4.61207 20.9169 4.52363Z" fill="white"/>
<path d="M43.7631 16.1902C42.5995 16.1752 41.4613 16.0386 40.3968 15.5772C38.205 14.6268 36.9722 12.9896 36.7128 10.7237C36.5053 8.90925 37.0634 7.30343 38.3701 5.95543C39.2883 5.00827 40.4568 4.48048 41.7699 4.233C43.4493 3.91632 45.1276 3.91704 46.7429 4.49511C49.167 5.36274 50.5818 7.0349 50.8262 9.50408C51.0616 11.8816 50.1152 13.7788 48.0402 15.1353C47.1092 15.7437 46.0368 16.0083 44.9246 16.1185C44.5379 16.1545 44.1498 16.1656 43.7631 16.1902ZM43.8134 14.1796C43.9396 14.1736 44.1089 14.1711 44.2767 14.1564C45.5698 14.0427 46.6205 13.5145 47.3611 12.4875C48.0248 11.5685 48.2226 10.5422 48.0649 9.44667C47.9568 8.69421 47.6693 8.01701 47.1472 7.43323C45.8142 5.94259 43.4974 5.7215 41.9197 6.37231C39.0728 7.54735 38.9752 10.6463 40.0086 12.2546C40.8634 13.5819 42.1603 14.1646 43.8134 14.1778V14.1796Z" fill="white"/>
<path d="M83.3477 6.17761V8.95312H83.5586C85.0785 8.95312 86.5992 8.9442 88.1183 8.95882C88.5545 8.9631 88.8946 8.89107 88.9817 8.41927H89.279V11.3695H88.9839C88.8969 10.8567 88.5091 10.8182 88.0575 10.8221C86.5752 10.835 85.092 10.8271 83.6104 10.8271H83.3529V14.0291H83.6093C86.08 14.0291 88.5508 14.0241 91.0215 14.0338C91.4626 14.0338 91.8338 13.9881 91.9104 13.4885H92.2058V16.5072H91.937C91.9285 16.5002 91.9213 16.4919 91.9156 16.4826C91.7107 16.013 91.6469 15.9727 91.1041 15.9727H80.0781V15.6813C80.5875 15.5997 80.6412 15.2534 80.6412 14.8326C80.631 11.6654 80.631 8.4982 80.6412 5.33101C80.6412 4.92019 80.5601 4.60637 80.0721 4.53576V4.2437H80.3075C83.804 4.2437 87.3005 4.24524 90.797 4.24833C91.2385 4.24833 91.6086 4.20126 91.693 3.70343H91.9873V6.72073H91.7246C91.7204 6.71716 91.7062 6.71074 91.7035 6.70111C91.5838 6.27318 91.2734 6.17047 90.8372 6.17297C88.4228 6.18616 86.0083 6.17939 83.5924 6.17939L83.3477 6.17761Z" fill="white"/>
<path d="M8.18844 4.5083V4.25368H13.2106V4.52898C12.8202 4.56464 12.5514 4.81427 12.2658 5.03216C10.5858 6.31882 8.90678 7.60666 7.2286 8.8957C7.19107 8.92494 7.15541 8.95775 7.10698 8.99947C7.41479 9.35145 7.71697 9.69736 8.01989 10.0433L12.0739 14.676C12.1261 14.7356 12.1798 14.7934 12.2339 14.8511C12.5927 15.2359 12.9444 15.6303 13.5375 15.6806V15.9609H8.72598V15.7016C8.81907 15.666 8.92042 15.6375 9.01351 15.5925C9.20458 15.5002 9.24212 15.3885 9.12838 15.2177C9.0216 15.0568 8.90491 14.902 8.7789 14.7541C7.59522 13.3707 6.40991 11.9887 5.22297 10.6082C5.19595 10.5768 5.16516 10.5479 5.12538 10.5069L3.27327 11.9265C3.27327 12.1551 3.27327 12.3859 3.27327 12.6169C3.27327 13.3658 3.27327 14.1147 3.27327 14.8636C3.27327 15.4171 3.31081 15.4741 3.84572 15.7024V15.9627H0.015015V15.7002C0.0213351 15.6931 0.0289689 15.6872 0.0375375 15.6827C0.521772 15.4945 0.572447 15.4231 0.572447 14.9278C0.572447 11.7183 0.572447 8.50877 0.572447 5.29926C0.572447 4.77968 0.528153 4.71763 0.00938438 4.51472C0.00638138 4.47335 0.000750751 4.42735 0 4.38099C0 4.34069 0.00412913 4.30039 0.00713213 4.25082H3.84685V4.50045C3.83784 4.50937 3.83071 4.52114 3.82057 4.52506C3.33671 4.70622 3.27365 4.79394 3.27365 5.29213C3.27365 6.52839 3.27365 7.76464 3.27365 9.0009C3.27365 9.06438 3.27365 9.12785 3.27365 9.23127C3.36149 9.16565 3.41854 9.12429 3.4741 9.08078C5.08696 7.82931 6.70008 6.57724 8.31344 5.32458C8.42604 5.2401 8.52885 5.14447 8.62012 5.03929C8.75938 4.87204 8.72335 4.73011 8.52365 4.63169C8.41444 4.5846 8.30253 4.5434 8.18844 4.5083Z" fill="white"/>
<path d="M52.8175 15.9595C52.8097 15.9286 52.804 15.8972 52.8002 15.8657C52.7976 15.8129 52.8002 15.7587 52.8002 15.723C52.8235 15.6991 52.8306 15.6874 52.8408 15.6831C53.262 15.5761 53.3858 15.3076 53.3843 14.9085C53.3736 11.7119 53.3736 8.51518 53.3843 5.3185C53.3843 4.91125 53.2837 4.61313 52.8123 4.53146V4.25081C52.8749 4.2476 52.9301 4.24225 52.9853 4.24225C55.6059 4.24225 58.2265 4.2432 60.8472 4.2451C61.5296 4.2451 62.2109 4.28932 62.8716 4.46905C64.4526 4.89949 65.3866 6.12516 65.3652 7.75631C65.3502 8.96415 64.8723 9.95126 63.7743 10.6156C63.2522 10.9316 62.6595 11.0678 62.0521 11.1224C61.4928 11.1723 60.9294 11.1994 60.3678 11.204C59.0232 11.2154 57.6782 11.2076 56.3336 11.2076H56.081V11.4266C56.081 12.5677 56.0919 13.7089 56.0754 14.85C56.0694 15.2691 56.1422 15.6018 56.6456 15.6824V15.9602L52.8175 15.9595ZM56.0878 9.26442C56.143 9.26763 56.1794 9.27191 56.2162 9.27191C57.6426 9.27191 59.069 9.2794 60.4954 9.26371C60.861 9.25978 61.2285 9.19666 61.5897 9.13319C61.9936 9.06186 62.2631 8.81438 62.4395 8.46846C62.5768 8.19329 62.6358 7.88873 62.6107 7.58513C62.5653 6.88189 62.1339 6.39369 61.4095 6.27922C61.0087 6.21698 60.6035 6.18432 60.1974 6.18151C58.8963 6.16974 57.5953 6.17723 56.2935 6.17723H56.0867L56.0878 9.26442Z" fill="white"/>
<path d="M106.63 4.27935L106.619 4.50651C106.171 4.50936 105.905 4.77183 105.655 5.06354C104.625 6.26698 103.595 7.46948 102.563 8.67102C102.267 9.0167 101.972 9.36321 101.679 9.71055C101.628 9.76975 101.582 9.83251 101.525 9.90704C101.764 10.1991 101.995 10.4844 102.229 10.7697C103.355 12.1434 104.481 13.5166 105.607 14.8893C105.93 15.2815 106.271 15.6571 106.843 15.7059V15.9174H102.055L102.036 15.7334C102.118 15.6995 102.192 15.671 102.265 15.6392C102.551 15.5141 102.649 15.2862 102.493 15.0291C102.348 14.8004 102.187 14.581 102.012 14.3722C101.362 13.5655 100.708 12.7611 100.052 11.959C100.015 11.9133 99.9714 11.8723 99.9147 11.8124C99.8539 11.8738 99.8021 11.9194 99.7551 11.974C99.0279 12.8298 98.3022 13.6857 97.578 14.5416C97.4764 14.6622 97.3843 14.7897 97.3024 14.9231C97.0825 15.2798 97.2135 15.5804 97.6302 15.6892C97.6778 15.7016 97.7266 15.7109 97.7901 15.7248V15.9192H93.1279L93.1118 15.7152C93.7428 15.672 94.0386 15.2159 94.3734 14.8237C95.7087 13.2593 97.0381 11.6902 98.3614 10.1164C98.3884 10.0843 98.4102 10.0486 98.447 9.99691C98.3633 9.88992 98.2799 9.78294 98.1932 9.67596C97.0038 8.21408 95.8141 6.75198 94.6241 5.28963C94.5491 5.19584 94.4631 5.10776 94.3873 5.01325C94.1399 4.70443 93.8216 4.51685 93.3914 4.50294V4.27435H98.2484L98.2604 4.48261C98.1786 4.52077 98.0997 4.55394 98.025 4.59352C97.748 4.74116 97.6553 4.98579 97.7927 5.25825C97.87 5.40741 97.9632 5.54866 98.0708 5.67976C98.692 6.44767 99.3163 7.21308 99.944 7.97599C99.9736 8.01165 100.01 8.04374 100.06 8.09403C100.117 8.0334 100.167 7.98419 100.212 7.9307C100.832 7.19964 101.453 6.46859 102.069 5.73468C102.194 5.58639 102.306 5.42846 102.404 5.26253C102.594 4.93623 102.491 4.69195 102.123 4.55786C102.053 4.5329 101.982 4.51328 101.902 4.48654V4.27935H106.63Z" fill="#DEB246"/>
<path d="M66.9716 15.9727V15.697C67.0155 15.6803 67.0553 15.6642 67.0958 15.6492C67.4356 15.5241 67.5365 15.3918 67.5365 15.0473C67.5365 11.7555 67.538 8.46385 67.541 5.17232C67.541 4.78967 67.3301 4.61208 66.9746 4.52471V4.25226H70.8121V4.50189C70.8 4.51187 70.7922 4.52293 70.7816 4.52685C70.3087 4.69838 70.2407 4.79217 70.2407 5.27823C70.2407 8.10735 70.2407 10.9355 70.2407 13.7627V14.0124C70.3361 14.0181 70.4198 14.0274 70.5035 14.0274C72.8684 14.0274 75.2332 14.0231 77.5958 14.0323C78.0324 14.0323 78.3924 13.9774 78.4675 13.4882H78.7625V16.5051H78.4997C78.493 16.4997 78.4787 16.4944 78.4746 16.4848C78.2659 16.0119 78.2054 15.9727 77.6653 15.9727H66.9716Z" fill="white"/>
<path d="M18.6911 15.6845V15.9602H14.8469L14.8356 15.7195C14.8511 15.7045 14.8684 15.6914 14.8871 15.6802C15.3702 15.4848 15.4223 15.4096 15.4223 14.9039C15.4223 11.7183 15.4182 8.53265 15.4272 5.34667C15.4272 4.93193 15.3431 4.61063 14.8476 4.53039V4.25687H18.6896V4.5147C18.6633 4.52468 18.6363 4.53645 18.6082 4.54608C18.2129 4.68266 18.1243 4.80106 18.1243 5.20688C18.1243 7.34655 18.1243 9.48623 18.1243 11.6259C18.1243 12.6957 18.1359 13.7656 18.1187 14.8354C18.1112 15.2584 18.1753 15.6018 18.6911 15.6845Z" fill="white"/>
</g>
<defs>
<clipPath id="clip0">
<rect width="125" height="24" fill="white"/>
</clipPath>
</defs>
</svg>
