<svg width="126" height="24" viewBox="0 0 126 24" fill="none" xmlns="http://www.w3.org/2000/svg">
<path d="M0.0223275 3.87186C1.09398 3.87186 2.18796 3.87186 3.30427 3.87186C3.30427 5.00671 3.30427 6.09707 3.30427 7.18742C3.30427 8.27777 3.30427 9.36813 3.30427 10.4585C3.3266 10.4585 3.34892 10.4807 3.37125 10.4807C5.35828 8.27778 7.32298 6.07482 9.31001 3.87186C10.6942 3.87186 12.0784 3.87186 13.5296 3.87186C11.4533 6.07482 9.39931 8.25552 7.32298 10.4362C9.51094 13.3513 11.6989 16.2663 13.9092 19.2036C12.4803 19.2036 11.0961 19.2036 9.68955 19.2036C8.14905 17.0674 6.58621 14.9089 5.02338 12.7504C4.46523 13.329 3.90708 13.9076 3.28195 14.5529C3.28195 15.9993 3.28195 17.5792 3.28195 19.2258C2.18797 19.2258 1.09398 19.2258 0 19.2258C0.0223261 14.1301 0.0223275 9.0121 0.0223275 3.87186Z" fill="#E2010F"/>
<path d="M51.3501 0.0222535C51.9306 0.111262 52.511 0.13351 53.0915 0.289275C56.1056 1.13486 58.2265 2.93728 59.0526 6.00807C59.8563 9.01211 58.5838 12.1497 55.9269 13.9743C54.2748 15.1092 52.4441 15.5765 50.457 15.4875C50.3901 15.4875 50.3454 15.4652 50.2561 15.4652C50.2561 14.2414 50.2561 13.0175 50.2561 11.7936C50.3677 11.7269 50.5017 11.7714 50.6357 11.7714C51.8413 11.8159 52.9352 11.5043 53.8953 10.77C55.9716 9.14562 55.9269 6.27509 53.8283 4.71745C52.8459 3.98313 51.7073 3.69385 50.4794 3.76061C50.4124 3.76061 50.3454 3.76061 50.3008 3.76061C50.3008 3.76061 50.2784 3.76061 50.2561 3.73835C50.2561 2.53674 50.2561 1.31287 50.2561 0.0890071C50.3677 0.066755 50.4794 0.0445042 50.6133 0C50.8589 0.0222521 51.1045 0.0222535 51.3501 0.0222535Z" fill="#E2010F"/>
<path d="M35.4985 3.96088C36.6148 3.96088 37.6642 3.96088 38.7358 3.96088C38.7358 9.07886 38.7358 14.1746 38.7358 19.2926C37.7758 19.2926 36.8158 19.2926 35.8334 19.2926C33.3999 16.066 30.9663 12.795 28.5328 9.54616C28.5104 9.54616 28.4881 9.54616 28.4658 9.56841C28.4658 12.795 28.4658 16.0438 28.4658 19.2926C27.3718 19.2926 26.3448 19.2926 25.2955 19.2926C25.2955 14.1746 25.2955 9.07886 25.2955 3.96088C26.3001 3.96088 27.3048 3.96088 28.3542 3.96088C30.6984 7.09843 33.065 10.2582 35.4315 13.418C35.4539 13.418 35.4985 13.3958 35.5209 13.3958C35.4985 10.2582 35.4985 7.09843 35.4985 3.96088Z" fill="#E2010F"/>
<path d="M94.6182 3.9386C94.7298 3.9386 94.8191 3.9386 94.9084 3.9386C97.2973 3.9386 99.6862 3.9386 102.053 3.9386C103.102 3.9386 104.107 4.13887 105.022 4.69518C106.384 5.56301 107.076 6.85363 107.299 8.41128C107.679 11.037 106.161 12.9285 104.352 13.774C104.308 13.7963 104.241 13.8185 104.196 13.8853C104.799 14.7754 105.379 15.6655 105.982 16.5556C106.563 17.4456 107.165 18.3135 107.791 19.2481C106.451 19.2481 105.178 19.2481 103.861 19.2481C102.767 17.6237 101.673 15.977 100.557 14.3303C99.7309 14.3303 98.9048 14.3303 98.0564 14.3303C98.0564 15.977 98.0564 17.6237 98.0564 19.2926C96.8955 19.2926 95.7792 19.2926 94.6182 19.2926C94.6182 14.1968 94.6182 9.10109 94.6182 3.9386ZM98.0341 11.4598C99.0611 11.4598 100.066 11.4598 101.07 11.4598C101.271 11.4598 101.472 11.4598 101.651 11.4376C103.638 11.2373 104.04 9.83541 103.794 8.54479C103.638 7.65471 102.946 7.25417 102.142 7.0984C100.78 6.83138 99.4183 6.96489 98.0564 6.96489C98.0564 6.96489 98.0341 6.96489 98.0118 6.98714C98.0341 8.45578 98.0341 9.94668 98.0341 11.4598Z" fill="white"/>
<path d="M114.533 14.5974C114.533 16.0438 114.533 17.6459 114.533 19.2481C113.439 19.2481 112.367 19.2481 111.273 19.2481C111.273 14.1301 111.273 9.01212 111.273 3.89413C112.367 3.89413 113.417 3.89413 114.511 3.89413C114.511 6.09709 114.511 8.2778 114.511 10.4808C114.533 10.4808 114.555 10.503 114.578 10.503C116.565 8.30005 118.552 6.07484 120.539 3.89413C121.945 3.89413 123.329 3.89413 124.781 3.89413C122.682 6.11935 120.628 8.30006 118.574 10.4808C120.762 13.3958 122.95 16.3108 125.138 19.2481C123.709 19.2481 122.325 19.2481 120.918 19.2481C119.378 17.1119 117.815 14.9757 116.252 12.8172C115.694 13.3958 115.158 13.9521 114.533 14.5974Z" fill="white"/>
<path d="M65.7505 14.7086C65.7505 16.2663 65.7505 17.7794 65.7505 19.3148C64.5895 19.3148 63.4732 19.3148 62.3346 19.3148C62.3346 14.1968 62.3346 9.1011 62.3346 4.00537C62.4239 3.91636 62.5355 3.96086 62.6248 3.96086C64.7681 3.96086 66.9338 3.96086 69.0771 3.96086C72.0241 3.96086 74.0782 5.91905 74.3684 8.81183C74.7033 11.9271 72.1358 14.6641 68.9655 14.7086C68.0054 14.7309 67.0454 14.7086 66.0631 14.7086C65.9738 14.7086 65.8845 14.7086 65.7505 14.7086ZM65.7728 11.6378C65.8175 11.6601 65.8398 11.6601 65.8621 11.6601C66.8222 11.6601 67.7822 11.6823 68.7422 11.6378C70.0818 11.5711 70.7292 10.9258 70.8855 9.6129C71.0418 8.34453 70.4836 7.5212 69.3004 7.25418C69.1441 7.20967 68.9655 7.18742 68.8092 7.16516C67.9161 7.07616 67.0008 7.14292 66.1077 7.12066C65.9961 7.12066 65.8845 7.09841 65.7505 7.16516C65.7728 8.65606 65.7728 10.1469 65.7728 11.6378Z" fill="white"/>
<path d="M91.1797 19.3148C89.9965 19.3148 88.8355 19.3148 87.6745 19.3148C87.228 18.18 86.7815 17.0674 86.335 15.9325C84.1917 15.9325 82.0484 15.9325 79.8604 15.9325C79.4362 17.0451 79.012 18.18 78.5655 19.3148C77.4492 19.3148 76.3329 19.3148 75.1719 19.3148C77.2929 14.1746 79.4139 9.05661 81.5349 3.96088C82.6065 3.96088 83.6558 3.96088 84.7721 3.96088C86.9154 9.05661 89.0364 14.1746 91.1797 19.3148ZM85.0847 12.9062C84.4373 11.2596 83.8121 9.67968 83.1647 8.03302C82.4949 9.67968 81.8251 11.2818 81.1776 12.9062C82.4949 12.9062 83.7675 12.9062 85.0847 12.9062Z" fill="white"/>
<path d="M50.3229 19.6931C50.3229 20.917 50.3229 22.1409 50.3229 23.3647C50.3006 23.4092 50.2336 23.4315 50.189 23.4315C46.4159 23.6763 42.933 21.5178 41.7274 18.1577C40.5664 14.9534 41.772 11.4376 44.6968 9.43491C46.3042 8.34455 48.0903 7.87726 50.0104 7.94401C50.0773 7.94401 50.1443 7.94401 50.2336 7.96626C50.2783 7.96626 50.3006 7.98852 50.3453 7.98852C50.3453 9.21239 50.3453 10.4363 50.3453 11.6824C49.6978 11.6156 49.0503 11.6379 48.4252 11.8159C47.3312 12.1052 46.4382 12.6837 45.8131 13.6406C44.6744 15.3317 45.0986 17.4902 46.7954 18.7363C47.5991 19.3371 48.5368 19.6486 49.5415 19.6709C49.7648 19.6931 50.0327 19.6931 50.3229 19.6931Z" fill="white"/>
<path d="M17.0793 19.2926C17.0793 14.1746 17.0793 9.07886 17.0793 3.96088C18.1956 3.96088 19.2896 3.96088 20.4059 3.96088C20.4059 9.05661 20.4059 14.1746 20.4059 19.2926C19.3119 19.2926 18.1956 19.2926 17.0793 19.2926Z" fill="#E2010F"/>
</svg>
