<svg width="170" height="40" viewBox="0 0 170 40" fill="none" xmlns="http://www.w3.org/2000/svg">
<g clip-path="url(#clip0)">
<path d="M11.1817 0C11.4964 1.13621 11.8107 2.27206 12.1246 3.40755C13.0657 6.78368 14.0083 10.1595 14.9523 13.5349C15.6716 16.0951 16.4113 18.65 17.1327 21.2092C18.0585 24.4975 18.9734 27.7902 19.897 31.0797C20.6138 33.6237 21.3305 36.1663 22.0473 38.7074C22.1613 39.1105 22.2817 39.5113 22.4096 39.9502C22.1946 39.9632 22.0538 39.9783 21.9129 39.9783C19.2788 39.9783 16.6446 39.9783 14.0115 39.9783C13.6761 39.9783 13.5191 39.9372 13.4051 39.5211C12.3794 35.7853 11.2957 32.0646 10.2431 28.3363C9.67432 26.3189 9.15179 24.2884 8.56583 22.2764C8.43681 21.8343 8.20888 21.3544 7.87988 21.0521C7.13909 20.3706 6.10585 20.7151 5.81018 21.7141C5.18336 23.8474 4.5845 25.983 3.97811 28.1153C3.43192 30.0471 2.90294 31.9844 2.35353 33.9162C1.82778 35.7831 1.27622 37.6391 0.762291 39.507C0.631121 39.9859 0.411788 40.0856 0 39.8721V39.0054C0.355879 37.8135 0.723585 36.6325 1.06549 35.4407C1.71704 33.1574 2.36357 30.8709 3.00508 28.5812C3.83224 25.6327 4.65653 22.6834 5.47796 19.7335C6.12306 17.4451 6.76816 15.1612 7.41325 12.8729C8.35295 9.51767 9.2887 6.16104 10.2205 2.80297C10.4785 1.87117 10.7183 0.935045 10.9667 0H11.1817Z" fill="white"/>
<path d="M103.001 0L114.26 39.9805H113.578C111.052 39.9805 108.524 39.9556 106 40C105.432 40.0098 105.276 39.7627 105.154 39.312C104.479 36.8489 103.798 34.3879 103.111 31.9291C102.218 28.7408 101.321 25.5554 100.421 22.3728C100.252 21.7737 100.055 21.1918 99.4531 20.8646C98.8349 20.5266 98.1156 20.7238 97.8253 21.4313C97.4993 22.2663 97.2193 23.1189 96.9867 23.985C96.4287 25.9353 95.8997 27.8856 95.3535 29.8359C94.5027 32.8862 93.6451 35.9366 92.7807 38.9869C92.722 39.245 92.6343 39.4954 92.5194 39.7335C92.4769 39.7993 92.4194 39.8541 92.3517 39.8931C92.284 39.9321 92.2081 39.9542 92.1302 39.9577C92.0141 39.9415 91.8227 39.7313 91.8367 39.6327C91.9125 39.0733 92.0245 38.5196 92.1721 37.975C93.3613 33.7494 94.574 29.5411 95.7599 25.3199C97.0749 20.6403 98.3651 15.9543 99.6757 11.2736C100.706 7.59485 101.743 3.91823 102.786 0.243784C102.817 0.160567 102.853 0.0794875 102.894 0.00108348L103.001 0Z" fill="white"/>
<path d="M169.23 36.0799C169.158 36.3064 169.129 36.561 169.002 36.7495C168.875 36.9381 168.662 37.0247 168.486 37.1569C168.411 36.9727 168.251 36.7755 168.271 36.6054C168.378 35.808 168.465 35.03 168.163 34.2434C167.817 33.3301 167.142 32.8122 166.243 32.6312C165.572 32.4969 164.872 32.5131 164.064 32.4524C165.184 33.2986 165.784 34.303 165.892 35.5848C165.999 36.8958 165.583 37.9966 164.582 38.8667C163.039 40.208 160.2 40.1387 158.806 38.4008C157.319 36.5448 157.796 33.9986 159.833 32.5034C159.362 32.5034 159.026 32.5164 158.691 32.5034C158.5 32.5057 158.31 32.4619 158.139 32.3755C158.08 32.3273 158.033 32.2655 158.004 32.1953C157.974 32.1251 157.961 32.0486 157.967 31.9725C157.985 31.8782 158.195 31.7558 158.32 31.7558C160.793 31.7438 163.266 31.6842 165.739 31.7688C167.402 31.8251 168.848 32.8392 169.152 34.614C169.152 34.6378 169.204 34.653 169.232 34.6725L169.23 36.0799ZM162.05 32.6128C160.256 32.4449 158.661 34.3897 158.677 35.9207C158.698 37.8179 160.157 38.9252 161.903 38.9924C163.731 39.0617 165.368 37.5351 165.236 35.8947C165.089 34.0972 163.817 32.6659 162.05 32.6128Z" fill="white"/>
<path d="M75.0268 23.7564C75.3719 22.5646 75.6945 21.4714 76.0052 20.3738C76.5478 18.4589 77.0854 16.543 77.618 14.6259C78.4491 11.6398 79.2683 8.64943 80.1037 5.66444C80.5542 4.0533 81.0305 2.44866 81.4896 0.839692C81.5563 0.603492 81.6133 0.425801 81.9283 0.426885C84.67 0.44097 87.4116 0.43772 90.1522 0.442054C90.2071 0.454209 90.2604 0.472375 90.3114 0.496228V1.05205C90.3114 13.7996 90.3114 26.5486 90.3114 39.299C90.3114 39.4258 90.3554 39.5807 90.2985 39.6717C90.2178 39.7995 90.063 39.9588 89.9383 39.9588C89.8136 39.9588 89.6458 39.8071 89.5738 39.6782C89.5125 39.5699 89.5587 39.3965 89.5587 39.2524C89.5587 31.0548 89.5587 22.8564 89.5587 14.6573C89.5587 13.8924 89.3598 13.2087 88.6986 12.7071C87.9621 12.1556 87.0536 12.6887 86.7837 13.5522C86.3537 14.9293 85.9784 16.3248 85.5903 17.716C85.0076 19.8028 84.4377 21.8928 83.855 23.9796C82.9999 27.0343 82.1423 30.0869 81.2821 33.1372C80.6725 35.3042 80.0693 37.4798 79.4393 39.6446C79.399 39.7298 79.3388 39.8038 79.2639 39.8604C79.189 39.917 79.1016 39.9545 79.0092 39.9697C76.3396 39.9892 73.67 39.9783 71.0003 39.9913C70.6961 39.9913 70.61 39.8516 70.5402 39.6024C69.7402 36.7355 68.9274 33.8707 68.1307 31.0038C67.2448 27.8314 66.3707 24.6557 65.4826 21.4844C64.8375 19.1776 64.1924 16.8709 63.5193 14.5717C63.373 14.0491 63.1703 13.544 62.9151 13.0657C62.4506 12.2195 61.4486 12.3853 60.9637 13.0224C60.5669 13.5435 60.4368 14.1351 60.4368 14.7657C60.4368 22.9814 60.4368 31.1971 60.4368 39.4127C60.4368 39.7075 60.411 40.0097 60.0595 39.9545C59.9089 39.9296 59.7842 39.6197 59.6885 39.4203C59.6391 39.3174 59.6799 39.1722 59.6799 39.0454V0.433386H60.6293C63.0301 0.433386 65.431 0.439887 67.8329 0.426885C68.2307 0.426885 68.4285 0.474558 68.5608 0.952374C69.6187 4.78898 70.7369 8.60934 71.8196 12.4373C72.8496 16.081 73.8624 19.7313 74.8774 23.3805C74.8913 23.4661 74.9387 23.543 75.0268 23.7564Z" fill="white"/>
<path d="M33.4375 39.9544H24.0029V0.433308H24.6158C28.7906 0.433308 32.9655 0.492899 37.1393 0.409471C39.4606 0.362881 41.2722 1.31635 42.9377 2.79313C44.6773 4.33276 45.6944 6.31012 46.2889 8.50417C46.7298 10.137 46.6212 11.8175 46.3793 13.499C46.1642 15.0083 45.5632 16.3367 44.817 17.6217C43.9247 19.1591 42.5226 20.157 41.0959 21.1148C40.4712 21.5341 39.7949 21.8733 39.1359 22.2546L41.2217 27.0729C42.218 29.3706 43.2147 31.6683 44.2117 33.966C44.9031 35.5511 45.6094 37.1287 46.3029 38.7127C46.4018 38.937 46.5266 39.1732 46.5352 39.4073C46.5328 39.5077 46.5088 39.6065 46.4648 39.6967C46.4208 39.7869 46.3579 39.8663 46.2803 39.9295C46.1847 39.9934 45.9395 39.8656 45.7804 39.7854C45.6939 39.7236 45.6289 39.6361 45.5944 39.5351C44.4425 36.9384 43.2932 34.3409 42.1463 31.7427C40.7207 28.5161 39.3047 25.2841 37.8597 22.0661C37.6704 21.6446 37.7994 21.4984 38.1521 21.3434C39.4746 20.7627 40.7561 20.1094 41.8883 19.1895C43.4781 17.925 44.6199 16.1769 45.1439 14.2055C45.3516 13.4021 45.4954 12.5832 45.574 11.7568C45.7342 10.254 45.374 8.81405 44.8095 7.44561C43.8118 5.02836 42.1528 3.1756 39.8283 1.98485C39.3047 1.73903 38.7379 1.6002 38.1607 1.57638C37.0748 1.50704 35.9749 1.45612 34.8965 1.55796C34.0364 1.63922 33.4375 2.57535 33.4364 3.51907C33.4364 9.7657 33.4364 16.0138 33.4364 22.2633V39.9544H33.4375Z" fill="white"/>
<path d="M115.586 39.9523C116.2 37.7387 116.803 35.5501 117.414 33.3647C118.341 30.0579 119.272 26.7522 120.209 23.4476C120.859 21.1419 121.508 18.8363 122.158 16.5306C122.981 13.5973 123.801 10.6632 124.619 7.72841C124.942 6.59184 125.277 5.46068 125.587 4.32086C125.772 3.63826 125.802 2.95567 125.443 2.30125C125.163 1.78443 124.752 1.51681 124.163 1.51681C121.546 1.51681 118.93 1.51681 116.314 1.51681C115.806 1.51681 115.584 1.28061 115.707 0.828794C115.749 0.676023 115.938 0.552507 116.081 0.444158C116.139 0.400819 116.255 0.434407 116.344 0.434407H135.211C135.318 0.434407 135.426 0.444158 135.569 0.451743C135.197 1.78984 134.836 3.10736 134.464 4.42162C133.485 7.87901 132.496 11.3321 131.521 14.7906C130.302 19.1129 129.089 23.4371 127.88 27.7631C127.098 30.5617 126.302 33.3571 125.558 36.1655C125.295 37.1612 125.441 38.158 126.296 38.6792C126.52 38.8121 126.774 38.8845 127.034 38.8894C129.632 38.9045 132.23 38.9045 134.828 38.8894C135.229 38.8894 135.486 38.9858 135.473 39.4539C135.465 39.8948 135.214 39.9804 134.841 39.9804C128.552 39.9761 122.263 39.9761 115.974 39.9804C115.853 39.9794 115.732 39.9631 115.586 39.9523Z" fill="white"/>
<path d="M146.329 20.8028V21.3305C146.329 26.4034 146.319 31.4762 146.34 36.548C146.34 37.3595 146.458 38.196 147.257 38.677C147.482 38.8093 147.736 38.8816 147.996 38.8872C150.128 38.9031 152.259 38.9031 154.391 38.8872C154.763 38.8872 154.945 38.962 154.945 39.3921C154.945 39.8039 154.81 39.9794 154.407 39.9794C149.031 39.9722 143.658 39.9671 138.286 39.9642C138.257 39.9566 138.228 39.9457 138.201 39.9317V0.463702C138.351 0.453951 138.504 0.434448 138.659 0.434448C143.82 0.434448 148.981 0.437338 154.142 0.443116C154.337 0.443116 154.615 0.533045 154.706 0.676065C154.753 0.773235 154.778 0.879958 154.778 0.988108C154.778 1.09626 154.753 1.20298 154.706 1.30015C154.631 1.43125 154.36 1.5071 154.176 1.50818C152.133 1.52226 150.09 1.54393 148.048 1.50818C147.116 1.49084 146.65 2.20378 146.47 2.87987C146.349 3.33601 146.349 3.83442 146.349 4.3144C146.341 9.20668 146.341 14.0986 146.349 18.9902V19.7226H146.931C149.314 19.7226 151.697 19.7226 154.079 19.7226C154.45 19.7226 154.874 19.6338 154.84 20.2329C154.81 20.7747 154.435 20.8115 154.013 20.8104C151.63 20.8039 149.247 20.8104 146.865 20.8104L146.329 20.8028Z" fill="white"/>
<path d="M48.7441 0.457275H56.8477V39.9545H48.7441V0.457275Z" fill="white"/>
<path d="M164.158 7.69391C165.501 7.69391 166.739 7.68307 167.97 7.71016C168.105 7.71016 168.235 7.93986 168.369 8.06229C168.243 8.19231 168.118 8.43393 167.991 8.43501C164.658 8.4556 161.332 8.45126 158.006 8.45126C157.928 7.81093 158.048 7.75242 159.619 7.67116C158.637 6.87913 158.048 5.90941 157.941 4.68941C157.833 3.46941 158.156 2.34584 159.069 1.54731C160.99 -0.150505 163.52 0.173457 164.924 1.7185C166.6 3.55501 166.034 6.1857 164.158 7.69391ZM158.693 4.33295C158.612 6.12503 160.25 7.67332 161.912 7.68199C163.633 7.69174 165.096 6.00259 165.171 4.4543C165.256 2.72072 163.666 1.30028 161.983 1.27428C160.192 1.24502 158.527 2.72939 158.693 4.33295Z" fill="white"/>
<path d="M165.898 22.2005C165.964 24.3263 164.204 26.2268 161.93 26.2257C161.398 26.2243 160.871 26.1163 160.381 25.9079C159.89 25.6994 159.446 25.3948 159.073 25.0116C158.701 24.6285 158.408 24.1745 158.211 23.676C158.014 23.1776 157.918 22.6448 157.927 22.1084C157.968 20.0704 159.716 18.0996 162.071 18.1862C164.101 18.261 165.95 20.0054 165.898 22.2005ZM158.694 22.1355C158.606 24.0165 160.098 25.3979 161.9 25.4185C163.585 25.438 165.076 24.1941 165.153 22.3371C165.236 20.2784 163.612 19.0097 161.943 18.9934C160.322 18.9793 158.722 20.1419 158.694 22.1355Z" fill="white"/>
<path d="M164.1 10.4003C165.26 11.4286 165.921 12.5814 165.903 14.0842C165.885 15.6996 164.758 17.2057 163.143 17.5264C162.283 17.6976 161.374 17.6347 160.487 17.6575C159.824 17.6748 159.161 17.6651 158.499 17.6575C158.264 17.6575 157.943 17.7453 157.95 17.3433C157.958 16.9641 158.223 16.8969 158.545 16.8991C159.584 16.9066 160.623 16.8915 161.663 16.9056C162.523 16.9175 163.321 16.7842 164.051 16.2403C165.049 15.497 165.336 14.4742 165.116 13.3647C164.853 12.0245 164.041 11.0125 162.696 10.604C162.118 10.4285 161.477 10.4328 160.863 10.4079C160.094 10.3765 159.322 10.4079 158.552 10.396C158.313 10.396 157.949 10.5249 157.954 10.0829C157.954 9.66356 158.276 9.63756 158.599 9.63973C159.763 9.64623 160.927 9.63973 162.092 9.63973C163.184 9.63973 164.278 9.62672 165.37 9.65273C165.547 9.65273 165.721 9.83367 165.897 9.9301C165.718 10.0861 165.558 10.3386 165.359 10.3765C164.978 10.4545 164.577 10.4003 164.1 10.4003Z" fill="white"/>
<path d="M159.447 29.7405C158.33 28.6841 157.667 27.4782 158.069 25.8996C158.111 25.7349 158.391 25.632 158.56 25.5009C158.656 25.7089 158.883 25.9646 158.827 26.1184C158.289 27.6548 159.643 29.3006 161.037 29.6798C161.362 29.7574 161.696 29.7938 162.03 29.7882C163.138 29.8012 164.248 29.7969 165.357 29.7882C165.67 29.7882 165.887 29.8965 165.895 30.2357C165.902 30.5954 165.625 30.5477 165.396 30.5477H157.896C158.135 29.6181 158.963 29.9691 159.447 29.7405Z" fill="white"/>
</g>
<defs>
<clipPath id="clip0">
<rect width="169.231" height="40" fill="white"/>
</clipPath>
</defs>
</svg>
