<svg width="156" height="40" viewBox="0 0 156 40" fill="none" xmlns="http://www.w3.org/2000/svg">
<g clip-path="url(#clip0)">
<path d="M0.134766 0V39.9489H56.5653V0H0.134766ZM94.1166 0C91.2627 0 89.1909 0.406274 87.6008 1.45873C85.9381 2.54456 85.1716 4.3814 85.1716 7.23992V13.4378C85.1716 16.3162 85.9848 18.2536 87.6008 19.2185C88.906 20.1437 91.014 20.5734 94.1166 20.5734C97.1828 20.5734 99.3841 20.1604 100.638 19.2706C102.254 18.249 103.067 16.2186 103.067 13.4378V7.23992C103.067 4.51647 102.264 2.57898 100.638 1.45873C99.3012 0.515274 97.043 0 94.1166 0ZM64.9457 0.365073V20.1035H75.3461C80.4583 20.1035 82.3798 17.9689 82.3798 12.2399V7.91687C82.3798 2.4825 80.22 0.365073 74.6676 0.365073H64.9457ZM106.273 0.365073V20.1035H118.745V16.8236H110.67V0.365073H106.273ZM121.174 0.365073V20.1035H130.326C133.149 20.1035 134.33 19.5486 134.879 19.1669C135.817 18.5306 137.003 17.0953 137.003 14.8439C136.998 12.1898 136.096 9.53727 131.777 9.63584C135.211 9.31718 135.967 7.61907 135.967 5.15692C135.967 2.9743 135.086 1.87335 134.107 1.25064C133.273 0.722323 132.284 0.365073 130.223 0.365073H121.174ZM137.412 0.365073C138.225 1.87387 143.985 12.8646 143.985 12.8652V20.1035H148.688C148.688 19.1236 148.688 12.8652 148.688 12.8652C148.688 12.8646 154.618 1.88586 155.468 0.365073H151.329L146.46 9.27129L141.809 0.365073H137.412ZM92.9305 3.12555C93.2827 3.09843 93.697 3.12555 94.1166 3.12555C97.4936 3.12555 98.6693 3.8244 98.6693 7.23992V13.1776C98.6693 16.6786 97.4936 17.5006 94.1166 17.5006C90.7499 17.5006 89.569 16.6786 89.569 13.1776V7.23992C89.569 4.25101 90.4443 3.3133 92.9305 3.12555ZM125.52 3.17718H129.814C131.274 3.17718 132.186 4.37775 132.186 5.9898C132.186 8.46604 131.051 8.52237 127.685 8.64597V10.9381C130.684 10.9261 133.071 10.6935 133.071 13.8545C133.071 15.4431 132.093 17.2403 129.503 17.2403H125.52V17.1871V3.17718ZM69.3431 3.22933H74.6676C76.1852 3.22933 78.0342 4.12793 78.0342 7.34422V12.7087C78.0342 16.168 76.1852 17.0322 74.6676 17.0322H69.3431V3.22933ZM6.80698 5.20855H13.2202C19.8976 5.20855 25.479 11.9207 25.479 19.897C25.4806 28.1018 19.8976 34.7403 13.2202 34.7403H6.80698V5.20855ZM43.4809 5.20855H49.9459V34.7403H43.4809C36.8004 34.7403 31.2205 28.1018 31.2205 19.897C31.2205 11.9207 36.8004 5.20855 43.4809 5.20855ZM153.655 16.3547C152.645 16.3547 151.795 17.1537 151.795 18.2302C151.795 19.315 152.645 20.1035 153.655 20.1035C154.654 20.1056 155.519 19.3139 155.519 18.2302C155.519 17.1537 154.654 16.3547 153.655 16.3547ZM153.655 16.6671C154.499 16.6671 155.152 17.3352 155.152 18.2302C155.152 19.1434 154.499 19.7922 153.655 19.7922C152.8 19.7922 152.158 19.1434 152.158 18.2302C152.158 17.3352 152.8 16.6671 153.655 16.6671ZM152.935 17.1355V19.3238H153.292V18.3851H153.655L154.225 19.3238H154.535L153.966 18.3851C154.281 18.3454 154.478 18.1405 154.478 17.7603C154.478 17.3321 154.271 17.1355 153.758 17.1355H152.935ZM153.292 17.4489H153.701C154.085 17.4489 154.168 17.5569 154.168 17.7603C154.178 18.0017 154.059 18.1254 153.655 18.1254H153.292V17.4489ZM114.291 24.5319C112.385 24.5319 111.007 24.8338 109.945 25.6255C108.837 26.4422 108.293 27.8003 108.293 29.9485V34.6355C108.293 36.7988 108.868 38.2341 109.945 38.9585C110.82 39.6537 112.224 40 114.291 40C116.337 40 117.802 39.6787 118.636 39.0107C119.719 38.2419 120.288 36.7253 120.288 34.6355V29.9485C120.288 27.902 119.724 26.4673 118.636 25.6255C117.74 24.9167 116.243 24.5319 114.291 24.5319ZM134.724 24.8437V25.5734H135.656V28.1769H136.376V25.5734H137.308V24.8437H134.724ZM137.676 24.8437V28.1769H138.344V25.9901L139.121 27.6569H139.432L140.261 25.782L140.307 28.1769H140.929V24.8437H140.105L139.271 26.5632L138.5 24.8437H137.676ZM91.1176 24.8969V39.8967H94.1684V30.1571L97.535 37.4487H99.0319L102.808 29.1667L102.911 39.8967H105.812V24.8969H102.031L98.255 32.7606L94.7899 24.8969H91.1176ZM77.7753 24.9486V28.2306H81.9655V39.9489H85.2752V28.2306H89.4136V24.9486H77.7753ZM69.5502 25.0002L64.2206 39.8967H67.2713L68.5144 36.5636H74.103L75.3461 39.8967H78.345L73.1189 25.0002H69.5502ZM126.245 25.0518C123.593 25.0518 122.573 26.2435 122.573 28.2822V30.4685C122.573 32.4868 123.407 33.1585 125.618 33.4902L128.773 33.9591C129.544 34.0822 129.757 34.3289 129.757 35.0001V36.4072C129.757 36.9855 129.508 37.2922 128.928 37.2922H122.619V38.8537C123.173 39.5035 124.37 39.6902 125.256 39.6871H129.14C131.632 39.6871 132.497 38.6336 132.497 36.5104V34.2704C132.497 32.1541 131.859 31.5157 129.912 31.2502L126.245 30.7303C125.634 30.6489 125.256 30.4314 125.256 29.7399V28.4371C125.256 27.7189 125.416 27.5004 126.033 27.5004H131.984V25.8852C131.502 25.2703 130.228 25.0518 129.347 25.0518H126.245ZM113.514 26.8751C113.752 26.8553 114.011 26.8751 114.291 26.8751C116.544 26.8751 117.347 27.4352 117.347 30.0007V34.4269C117.347 37.057 116.544 37.6568 114.291 37.6568C112.043 37.6568 111.24 37.057 111.24 34.4269V30.0007C111.24 27.7555 111.856 27.017 113.514 26.8751ZM71.3061 29.1156L72.8599 33.2816L69.6538 33.3338L71.3061 29.1156Z" fill="white"/>
</g>
<defs>
<clipPath id="clip0">
<rect width="155.385" height="40" fill="white" transform="translate(0.134766)"/>
</clipPath>
</defs>
</svg>
