<svg width="217" height="40" viewBox="0 0 217 40" fill="none" xmlns="http://www.w3.org/2000/svg">
<g clip-path="url(#clip0)">
<path d="M33.4975 39.8672L33.5131 11.1903H35.6202L49.7612 39.8363H58.9076L73.0485 11.2057L75.2805 11.1593L75.2024 39.8672L86.5183 39.8672L86.4871 0.662476L66.7272 0.724327L54.3344 23.7896L42.597 0.693412L22.2129 0.755243L22.1816 39.8672H33.4975Z" fill="white"/>
<path d="M13.727 0H0.3125V39.8793H13.727V0Z" fill="white"/>
<path d="M109.266 0.53772L89.0469 39.8688L101.783 39.9999L105.778 32.9383L130.876 32.8071L134.363 39.7376L147.607 39.8688L127.388 0.53772H109.266ZM118.272 8.95487L126.748 24.3025L110.392 24.4118L118.272 8.95487Z" fill="white"/>
<path d="M166.965 0.660083L152.043 0.747534L167.406 18.675L148.776 39.8381L164.757 39.9255L177.825 25.4961L190.274 39.9255L206.785 39.8381L188.155 18.7624L203.43 0.834985L188.067 0.572632L177.825 13.253L166.965 0.660083Z" fill="white"/>
<path d="M209.113 5.68469H210.585C211.111 5.68469 211.486 5.59957 211.708 5.42934C211.93 5.25913 212.041 4.9795 212.041 4.59047C212.041 4.41362 212.006 4.2543 211.935 4.11248C211.865 3.97067 211.767 3.85842 211.64 3.7757C211.539 3.70714 211.417 3.65784 211.274 3.62791C211.131 3.59797 210.89 3.58301 210.553 3.58301H210.325H209.113V5.68469ZM208.395 8.93174V2.94299H210.445C210.902 2.943 211.237 2.96244 211.451 3.00141C211.665 3.04031 211.852 3.10385 212.01 3.19194C212.259 3.33047 212.449 3.52007 212.581 3.76073C212.714 4.0014 212.78 4.27269 212.78 4.57463C212.78 4.9482 212.694 5.2648 212.522 5.52446C212.35 5.78412 212.119 5.94463 211.829 6.006C212.05 6.04244 212.217 6.14907 212.329 6.32576C212.441 6.50245 212.519 6.845 212.563 7.35339L212.639 8.22844C212.649 8.35823 212.668 8.46343 212.697 8.54404C212.726 8.62465 212.769 8.68935 212.827 8.73811V8.93178H212.082C212.03 8.8341 211.993 8.73448 211.971 8.63294C211.949 8.53139 211.932 8.4075 211.921 8.26123L211.853 7.48856C211.815 6.97445 211.728 6.65195 211.592 6.52107C211.456 6.3902 211.173 6.32476 210.741 6.32476H209.113V8.93178L208.395 8.93174Z" fill="white"/>
<path d="M215.782 6.02523C215.782 8.92511 213.409 11.2759 210.481 11.2759C207.553 11.2759 205.18 8.92511 205.18 6.02523C205.18 3.12535 207.553 0.774536 210.481 0.774536C213.409 0.774536 215.782 3.12535 215.782 6.02523Z" stroke="white" stroke-width="1.09443"/>
</g>
<defs>
<clipPath id="clip0">
<rect width="215.823" height="40" fill="white" transform="translate(0.3125)"/>
</clipPath>
</defs>
</svg>
