<svg width="173" height="354" viewBox="0 0 173 354" fill="none" xmlns="http://www.w3.org/2000/svg">
<path fill-rule="evenodd" clip-rule="evenodd" d="M0.0380859 162.727L12.733 122.513L45.6915 68.2028L32.3304 20.0136L45.2104 9.47796L69.8784 9.27393L88.9207 20.57L99.8021 14.5788L197.086 16.0256L204.118 20.7555L222.976 9.27393H247.292L261.079 20.3845L247.514 68.2028L275.865 110.549L291.502 161.428L283.489 220.561L247.514 248.495L146.325 244.841L49.1521 254.82L10.0681 221.488L0.0380859 162.727Z" fill="white"/>
<path fill-rule="evenodd" clip-rule="evenodd" d="M146.49 0C156.168 2.81939 168.937 2.04034 178.042 4.82263C187.147 7.60492 200.452 18.7712 200.6 18.7155C198.49 19.5502 193.975 18.4744 191.162 18.901C190.848 18.901 182.28 18.901 178.412 18.7155C178.227 18.7155 175.081 18.7155 173.785 18.53C169.159 14.8389 159.147 11.1292 153.078 15.9332C150.542 14.5235 148.821 12.2235 146.508 10.6098C144.028 12.0751 142.548 14.3195 140.124 15.9332C133.961 11.2961 123.987 14.8389 119.249 18.5486C119.027 18.5486 106.48 18.5486 102.983 18.9196C102.668 18.9196 94.8958 19.643 92.4346 18.9196C92.4346 18.9196 105.5 7.67912 114.641 4.84118C124.283 1.85486 136.663 3.00487 146.49 0Z" fill="#5D5E5E"/>
<path fill-rule="evenodd" clip-rule="evenodd" d="M70.0601 9.27393C76.3335 12.9836 82.755 16.6934 88.9174 20.5886C88.4177 21.7571 83.3657 32.2928 82.9956 33.925C78.0624 26.0198 73.6785 17.7832 69.875 9.27393H70.0601Z" fill="#5D5E5E"/>
<path fill-rule="evenodd" clip-rule="evenodd" d="M173.786 18.5484C155.281 18.4371 137.7 18.4371 119.231 18.5484C123.95 14.8387 134.036 11.2959 140.124 15.9516C142.53 14.4121 144.029 12.1121 146.509 10.6282C148.822 12.2605 150.543 14.5234 153.078 15.9516C159.148 11.129 169.16 14.8387 173.786 18.5484Z" fill="#212221"/>
<path fill-rule="evenodd" clip-rule="evenodd" d="M32.3311 20.0141C32.3311 19.8657 32.3311 19.8472 32.5161 19.8286C38.8636 22.1472 45.4701 24.1133 51.8175 26.3206C51.8175 32.9425 51.8175 40.2877 51.8175 46.3346C44.9519 37.8949 39.0856 28.5094 32.3311 20.0141Z" fill="#212221"/>
<path fill-rule="evenodd" clip-rule="evenodd" d="M31.959 20.4033C36.1697 30.491 39.7543 40.8299 42.6923 51.3609C39.5278 51.0642 36.0302 50.1367 33.2544 50.0625C33.0323 50.0625 32.3846 22.0727 31.959 20.9598V20.4033Z" fill="#5D5E5E"/>
<path fill-rule="evenodd" clip-rule="evenodd" d="M146.456 22.9633C146.456 22.9633 156.43 22.5182 161.778 21.6835C164.375 21.498 166.984 21.6226 169.551 22.0544H169.736C173.821 23.1041 177.838 24.4049 181.764 25.9496C181.764 25.9496 184.929 27.2851 186.576 27.8045C186.576 27.8045 190.888 29.4739 193.238 30.0303C193.238 30.0303 194.718 30.457 195.459 30.5868C192.387 30.6981 188.741 29.7707 185.281 29.6594C185.151 29.6594 178.841 28.8247 175.658 28.5465C175.658 28.5465 170.106 27.786 167.33 27.619H167.145C160.538 26.84 160.538 26.84 157.152 26.5061C153.266 30.2158 150.12 34.8159 146.456 38.7296C142.532 35.0199 139.849 30.1787 135.889 26.5061C133.113 26.8029 130.134 26.9142 127.561 27.4335L117.383 28.5465C114.2 28.8247 98.5815 30.7723 98.526 30.7723C96.4534 30.7723 99.7659 30.0303 99.8214 30.0303C103.676 29.024 107.43 27.6642 111.036 25.9682C111.036 25.9682 120.677 21.7577 123.231 21.6093C125.74 21.3926 128.267 21.5112 130.744 21.9617C135.957 22.606 141.203 22.9405 146.456 22.9633Z" fill="#212221"/>
<path fill-rule="evenodd" clip-rule="evenodd" d="M121.468 32.2558H121.653C124.096 32.1631 132.59 34.8155 135.884 34.6671C122.93 42.3091 108.884 48.7455 95.9487 56.3504C109.162 55.0706 122.319 53.7536 135.699 52.6407C130.98 56.0722 125.687 58.9287 120.894 62.286C119.562 61.8964 116.527 61.3585 116.453 61.3585C110.901 59.9488 105.072 58.669 99.2612 57.4633C99.2612 57.4633 96.5779 56.8883 95.375 56.5359C93.7445 59.3331 92.3219 62.247 91.1187 65.2537C91.1187 65.2537 90.6005 66.4594 90.0083 67.6651C90.0083 67.6651 87.8617 72.3578 86.8624 74.7135C86.8624 74.7135 85.0118 78.7386 84.2716 80.6491C84.2716 80.6491 83.1983 82.912 82.6061 83.9878C80.7555 83.5612 79.09 82.6338 77.2395 82.1329C77.2395 82.1329 75.3889 81.3725 74.5191 81.02L71.9283 79.9071C71.9283 79.9071 68.5048 78.516 67.0058 77.6813C63.6847 76.312 60.4684 74.7001 57.3829 72.8587C57.2348 73.0256 56.8832 72.9699 56.8277 73.2296C42.0232 82.0217 27.6073 92.1863 12.8213 101.053C12.8213 100.941 14.4868 99.3831 14.4868 99.3831C21.704 91.2403 41.9307 69.0933 41.4865 68.2401C44.4474 65.5691 47.0382 62.5827 49.8141 59.7077C47.7355 56.933 45.5118 54.2706 43.152 51.7318C40.7093 53.7907 38.8587 56.7214 36.5825 58.9287C35.4537 55.9794 34.2508 53.123 33.2515 50.0253C36.0274 50.0253 39.5249 51.027 42.6894 51.3237C45.7049 50.1533 48.6147 48.726 51.3871 47.0576C56.1615 49.3761 61.2876 51.3423 65.988 53.7351C61.3246 56.3504 55.7359 58.0383 50.6468 60.2271C52.664 64.1965 54.7921 68.0546 56.7537 72.0982C63.1196 67.1086 69.2635 61.915 75.4259 56.7214L97.6327 43.5704C93.9405 43.2525 90.2343 43.1286 86.5293 43.1995C88.163 41.1393 90.0256 39.2724 92.081 37.6349C94.0796 39.5825 95.9487 41.6599 98.0028 43.5704C97.6512 44.7575 95.6526 54.6996 95.412 55.4415C99.6801 52.1568 103.701 48.561 107.441 44.6834C109.402 42.8285 111.512 40.9736 113.548 39.1188C115.99 36.7631 118.433 33.6655 121.468 32.2558ZM75.2038 57.2778C72.7796 63.9182 70.2073 70.4288 67.8016 77.1063C76.8817 70.4412 85.7397 63.5844 94.3757 56.5359L75.2038 57.2778Z" fill="#212221"/>
<path fill-rule="evenodd" clip-rule="evenodd" d="M80.4085 36.6893C81.1482 35.6533 82.0191 34.718 82.9992 33.907C80.7601 40.6216 78.4283 47.2434 76.3372 54.1064C76.3372 54.1064 75.819 55.4419 75.597 56.1468C75.4975 56.3174 75.4345 56.5069 75.4119 56.7032C69.2495 61.8968 63.1056 67.109 56.7397 72.08C54.7781 68.055 52.6499 64.1968 50.6328 60.2089C55.7219 58.0202 61.3106 56.3322 65.974 53.7169C66.4737 53.7169 67.0659 53.8096 67.0844 53.3459C70.952 48.8386 79.5757 37.524 80.4085 36.6893Z" fill="#5D5E5E"/>
<path fill-rule="evenodd" clip-rule="evenodd" d="M156.04 52.6409C152.709 54.0506 149.878 55.9797 146.602 57.4636C143.142 56.1095 140.422 54.0135 136.979 52.6409C139.755 48.3748 143.512 45.0917 146.417 40.9739C149.6 44.8876 153.172 48.4119 156.04 52.6409Z" fill="#212221"/>
<path fill-rule="evenodd" clip-rule="evenodd" d="M41.3935 68.2031C39.5429 65.2909 38.155 62.0449 36.582 58.9288C38.8582 56.7215 40.7088 53.7908 43.059 51.7134C45.4187 54.2522 47.6425 56.9145 49.7211 59.6893C46.9637 62.5457 44.4099 65.5321 41.3935 68.2031Z" fill="#5D5E5E"/>
<path fill-rule="evenodd" clip-rule="evenodd" d="M94.3789 56.5364C85.7429 63.6096 76.8972 70.4663 67.8418 77.1067C70.2475 70.4292 72.8198 63.9187 75.2441 57.2783L94.3789 56.5364Z" fill="#5D5E5E"/>
<path fill-rule="evenodd" clip-rule="evenodd" d="M107.334 76.3646C110.72 75.0105 114.181 73.7121 117.327 72.0984C115.278 74.7812 112.917 77.2097 110.295 79.3323C107.722 81.7066 105.076 84.1364 102.707 86.5663C102.707 88.3099 103.818 96.397 103.818 98.0664C103.67 98.0664 101.042 93.2994 101.042 93.2438C98.8535 89.3979 96.8766 85.435 95.1201 81.3727C95.749 81.1567 96.3667 80.9091 96.9707 80.6307C98.8212 79.9259 107.334 76.3646 107.334 76.3646Z" fill="#212221"/>
<path fill-rule="evenodd" clip-rule="evenodd" d="M114.993 80.6306C114.66 84.9339 112.588 94.4678 112.588 94.5235C111.774 97.4727 110.571 104.929 110.552 105.467C108.406 103.353 105.574 96.6195 105.186 96.5638C105.667 95.6921 114.901 80.779 114.993 80.6306Z" fill="#212221"/>
<path fill-rule="evenodd" clip-rule="evenodd" d="M86.1455 92.7428C87.1078 90.6654 88.6808 89.2371 89.6616 87.1782C93.7217 91.5439 97.5514 96.1193 101.135 100.886C96.2126 98.6969 91.8823 95.8961 87.2744 93.4662C87.2003 93.4105 86.2936 93.0767 86.1455 92.7428Z" fill="#212221"/>
<path fill-rule="evenodd" clip-rule="evenodd" d="M78.1874 90.072C78.5046 91.222 78.6909 92.4043 78.7426 93.5962C78.8536 95.7108 79.4828 99.6431 79.4828 99.7173C80.112 105.95 80.7967 112.126 81.7035 118.062V119.36C77.4657 114.76 73.1169 110.309 69.3232 105.282C72.1731 100.162 75.3191 95.3584 78.0024 90.072H78.1874Z" fill="#212221"/>
<path fill-rule="evenodd" clip-rule="evenodd" d="M146.436 91.3704C149.193 95.2099 151.358 99.4947 154.041 103.408C151.432 109.678 149.045 116.188 146.454 122.495C143.512 116.541 141.513 109.659 138.682 103.594C141.124 99.439 143.993 95.5438 146.436 91.3704Z" fill="#5D5E5E"/>
<path fill-rule="evenodd" clip-rule="evenodd" d="M55.5175 128.263C53.5559 124.405 51.3167 120.844 49.2256 117.134C51.1872 108.361 53.852 100.274 56.0727 91.7412C57.0463 94.2183 57.8501 96.7592 58.4784 99.3461C59.2001 101.72 60.8656 104.466 60.8841 106.951C60.6177 108.72 60.1839 110.459 59.5887 112.145C58.3489 117.357 56.7574 123.534 55.7026 128.263H55.5175Z" fill="#212221"/>
<path fill-rule="evenodd" clip-rule="evenodd" d="M134.22 137.705C134.051 137.855 133.924 138.047 133.85 138.261C133.554 138.261 133.535 138.094 133.295 138.076C129.205 128.078 124.042 119.23 120.341 108.787C127.743 113.295 134.664 118.284 141.789 123.051C139.383 127.985 136.644 132.715 134.22 137.705Z" fill="#212221"/>
<path fill-rule="evenodd" clip-rule="evenodd" d="M158.816 137.705C156.373 132.808 153.782 127.985 151.229 123.255C158.131 118.191 165.33 113.406 172.677 108.806C168.975 119.249 163.812 128.096 159.723 138.094C159.564 138.218 159.368 138.284 159.167 138.28C159.019 138.113 159.149 137.76 158.816 137.705Z" fill="#212221"/>
<path fill-rule="evenodd" clip-rule="evenodd" d="M103.151 117.134V118.062C102.504 118.581 102.337 119.36 100.746 119.175C100.262 118.736 99.9368 118.149 99.8203 117.505C100.227 116.188 100.338 114.556 101.671 114.167C102.726 114.612 102.522 116.281 103.151 117.134Z" fill="#212221"/>
<path fill-rule="evenodd" clip-rule="evenodd" d="M28.998 115.28C27.4066 140.969 26.7589 166.696 25.9076 192.905C25.5968 192.531 25.2205 192.217 24.7973 191.978C23.7424 191.18 15.4149 185.004 15.3594 184.373C15.7905 183.728 16.1622 183.045 16.4697 182.333C16.4697 182.092 17.9317 179.606 18.5053 178.438C19.079 177.269 20.6335 173.949 21.0961 173.244C21.2442 172.78 22.5396 170.48 22.9467 169.72C24.057 167.624 25.445 164.841 26.4073 162.597C26.4073 162.597 16.0256 161.28 15.9145 161.02C17.6541 154.807 19.5231 148.686 21.0961 142.305C21.4263 141.74 21.6167 141.104 21.6513 140.45C22.2114 138.88 22.6446 137.267 22.9467 135.627C23.2769 135.062 23.4673 134.426 23.5019 133.772C24.1271 131.955 24.6218 130.096 24.9823 128.208C25.3119 127.643 25.5022 127.007 25.5375 126.353C26.4813 123.293 27.3881 120.102 28.1283 116.893C28.5169 116.522 28.3503 115.484 28.998 115.28Z" fill="#5D5E5E"/>
<path fill-rule="evenodd" clip-rule="evenodd" d="M68.9503 116.207C73.8728 116.782 77.2408 118.896 81.7007 119.917C80.1832 125.629 78.3512 131.046 76.7041 136.61C80.3522 138.956 84.1829 141.003 88.1591 142.731C85.8755 145.843 83.3377 148.759 80.5718 151.449C77.8885 145.885 74.7055 140.524 71.6891 134.755C70.5661 133.006 69.6354 131.141 68.9133 129.191C68.025 125.129 69.1908 120.918 68.9503 116.207Z" fill="#212221"/>
<path fill-rule="evenodd" clip-rule="evenodd" d="M49.1672 117.135C51.2583 120.844 53.4975 124.406 55.4591 128.264C55.8663 128.653 55.3666 128.783 55.4591 129.377C53.7936 134.681 50.9252 138.781 50.2775 145.124C49.6113 136.073 49.0932 126.91 49.1672 117.135Z" fill="#C9C9C9"/>
<path fill-rule="evenodd" clip-rule="evenodd" d="M134.219 137.705C136.458 139.875 140.585 142.88 143.472 145.124C144.175 145.681 146.007 147.703 146.432 147.721C147.564 147.032 148.619 146.224 149.578 145.31C152.909 142.713 155.963 140.153 158.831 137.705C159.09 137.705 159.035 138.113 159.201 138.261C159.402 138.266 159.598 138.2 159.757 138.076C162.532 147.239 166.456 156.439 169.194 166.993C171.045 174.413 172.748 182.555 174.561 190.531C175.19 193.332 176.634 197.32 176.042 199.064C172.34 200.918 169.028 203.033 165.493 204.999C159.942 204.276 154.39 203.627 149.227 202.588C149.154 202.373 149.026 202.181 148.857 202.031C148.485 200.426 147.926 198.869 147.191 197.394L146.469 196.003L145.896 197.394C145.161 198.869 144.602 200.425 144.23 202.031C143.971 202.031 144.027 202.439 143.86 202.588C138.697 203.664 133.09 204.276 127.594 204.999H127.409C126.557 204.329 125.624 203.768 124.633 203.33C122.098 201.92 119.766 200.306 117.045 199.064C116.564 197.561 117.712 193.499 118.341 190.717C120.191 182.611 121.912 174.672 123.708 167.179C126.28 156.495 130.943 146.386 133.33 138.076C133.571 138.076 133.59 138.317 133.886 138.261C133.949 138.051 134.063 137.86 134.219 137.705Z" fill="#5D5E5E"/>
<path fill-rule="evenodd" clip-rule="evenodd" d="M34.1797 139.115C34.4868 141.143 34.4868 143.207 34.1797 145.236V139.115Z" fill="#C9C9C9"/>
<path fill-rule="evenodd" clip-rule="evenodd" d="M33.9941 152.71C34.3035 155.236 34.3035 157.79 33.9941 160.315V152.71Z" fill="#5D5E5E"/>
<path fill-rule="evenodd" clip-rule="evenodd" d="M87.4377 186.265C86.2348 185.727 84.9209 185.338 83.7365 184.781C80.313 186.488 77.8332 189.121 74.6688 191.088C75.0759 192.238 81.4788 222.008 81.7009 223.344C79.3877 220.116 77.4631 217.668 75.2239 214.44C74.6968 213.339 74.0777 212.284 73.3734 211.287C71.5228 209.432 67.9697 208.672 65.601 207.392C63.0659 206.13 60.6502 204.64 58.3838 202.94C61.9739 196.226 65.638 189.585 69.1171 182.741C75.0389 178.178 81.8675 174.505 87.9743 170.146C87.9743 170.146 98.2264 163.617 103.501 160.501C98.8001 168.996 92.3972 177.399 87.4377 186.265Z" fill="#212221"/>
<path fill-rule="evenodd" clip-rule="evenodd" d="M50.4636 161.373V163.97C50.1515 163.132 50.1515 162.21 50.4636 161.373Z" fill="#5D5E5E"/>
<path fill-rule="evenodd" clip-rule="evenodd" d="M50.6494 168.792V173.058C50.3408 171.653 50.3408 170.197 50.6494 168.792Z" fill="#5D5E5E"/>
<path fill-rule="evenodd" clip-rule="evenodd" d="M59.6985 212.771C58.3661 213.031 43.7836 217.983 40.7117 218.911C40.5637 218.911 39.916 219.263 39.8975 219.078C44.9495 208.876 48.5211 197.209 53.018 186.451H53.203C55.1831 191.681 56.2009 197.895 58.3846 202.94C60.651 204.64 63.0667 206.13 65.6018 207.392C67.9705 208.672 71.5421 209.469 73.3742 211.287C74.0786 212.284 74.6976 213.339 75.2248 214.441C77.4639 217.668 79.37 220.116 81.7017 223.344C81.7017 223.455 81.7017 223.566 81.8868 223.529C83.16 226.324 84.5808 229.048 86.1431 231.691C86.5872 232.859 87.531 233.546 87.6235 235.029H86.6983C86.1986 235.029 55.2386 233.36 55.2386 233.36C55.2386 233.36 56.0159 229.817 56.275 228.667" fill="#5D5E5E"/>
<path fill-rule="evenodd" clip-rule="evenodd" d="M56.3125 228.667C57.5524 223.492 58.6072 218.094 59.699 212.771L56.3125 228.667Z" fill="#5D5E5E"/>
<path fill-rule="evenodd" clip-rule="evenodd" d="M91.8788 197.58C91.8788 200.325 91.4346 202.699 91.3236 205.37C90.3428 202.885 88.4552 197.84 91.8788 197.58Z" fill="#212221"/>
<path fill-rule="evenodd" clip-rule="evenodd" d="M120.712 210.619C120.12 208.579 117.011 207.763 116.456 205.611C115.901 203.459 116.955 202.031 116.641 199.49C120.786 206.65 127.059 211.658 133.647 216.351H133.833C135.165 217.927 137.367 218.614 138.459 220.431V220.617C138.811 222.694 138.459 224.512 139.569 225.996C141.467 227.665 143.761 228.815 146.231 229.335C148.526 229.335 152.875 226.664 153.449 225.069V224.883C154.263 223.269 153.782 221.6 154.374 220.246C155.225 218.391 157.705 217.983 158.815 216.351H159C165.44 211.565 171.954 206.854 175.822 199.49C175.822 201.697 176.636 203.608 176.192 205.426C175.655 207.688 172.491 208.634 171.936 210.619V210.805C168.734 214.811 165.699 219.003 160.647 221.192V221.377C159.851 222.806 159.333 224.512 158.427 225.829V226.014C156.206 229.144 153.208 231.638 149.729 233.248H149.544C148.831 233.572 148.087 233.821 147.323 233.99C147.527 235.845 148.008 237.496 148.248 239.37C157.501 240.464 163.257 247.104 172.657 247.902C179.875 248.514 187.166 244.934 195.031 244.749C191.866 249.423 188.054 253.448 184.853 258.085C172.916 253.93 161.776 249.274 150.099 244.86C149.09 245.636 147.854 246.057 146.583 246.057C145.311 246.057 144.075 245.636 143.067 244.86C131.963 249.534 110.682 258.289 107.906 258.104C107.906 258.104 100.707 249.404 97.543 244.73C104.668 244.897 109.59 247.382 116.049 247.883C127.67 248.792 134.221 240.649 144.159 239.351C144.663 237.651 145.034 235.915 145.269 234.157C140.799 232.685 136.911 229.827 134.166 225.996V225.81C133.352 224.365 132.611 222.879 131.945 221.359V221.173C126.893 219.022 123.877 214.811 120.657 210.786L120.712 210.619Z" fill="#212221"/>
<path fill-rule="evenodd" clip-rule="evenodd" d="M93.7305 208.69C101.355 210.545 107.258 215.646 113.328 219.615C104.464 219.059 98.727 213.754 93.7305 208.69Z" fill="#212221"/>
<path fill-rule="evenodd" clip-rule="evenodd" d="M129.039 232.414C121.23 232.284 114.124 232.84 107.961 232.228C98.7084 231.319 91.7503 227.016 87.8086 220.561C93.6009 222.75 99.1896 226.868 105.926 228.537C113.143 230.392 120.73 230.392 128.669 231.876H128.854C128.706 232.284 130.298 231.876 129.594 232.247C129.372 232.247 129.261 232.247 129.224 232.432L129.039 232.414Z" fill="#212221"/>
<path fill-rule="evenodd" clip-rule="evenodd" d="M177.652 229.817C189.403 229.372 196.695 224.438 205.022 220.543C199.23 232.414 182.667 233.527 163.977 232.396H163.792C163.792 232.173 163.458 232.247 163.236 232.21C163.236 231.691 164.236 232.358 164.162 231.839H164.347C166.465 231.692 168.568 231.382 170.639 230.912H170.824C173.066 230.688 175.292 230.317 177.486 229.799L177.652 229.817Z" fill="#212221"/>
<path fill-rule="evenodd" clip-rule="evenodd" d="M128.854 231.857C129.243 231.969 130.076 231.635 130.15 232.043C130.224 232.451 129.576 232.34 129.224 232.414C129.224 232.265 129.373 232.191 129.595 232.228C130.298 231.857 128.725 232.284 128.854 231.857Z" fill="#C9C9C9"/>
<path fill-rule="evenodd" clip-rule="evenodd" d="M164.181 231.858C164.181 232.377 163.182 231.709 163.256 232.229C163.478 232.229 163.774 232.229 163.811 232.414C163.274 232.414 162.793 232.414 162.886 231.858H164.181Z" fill="#C9C9C9"/>
<path fill-rule="evenodd" clip-rule="evenodd" d="M107.221 237.979C107.841 238.009 108.458 238.071 109.072 238.164C118.324 238.405 127.244 238.164 134.406 236.309C133.444 236.94 131.908 237.014 130.89 237.608L129.964 237.793C125.801 238.758 121.193 239.258 116.659 239.833H116.289C107.277 241.354 99.1711 237.756 93.3604 234.269C98.0793 234.677 102.317 237.162 107.221 237.979Z" fill="#212221"/>
<path fill-rule="evenodd" clip-rule="evenodd" d="M185.814 237.979C190.773 237.014 194.678 235.011 199.674 234.083C193.018 238.807 184.837 240.858 176.746 239.834H176.376C171.823 239.259 167.234 238.739 163.07 237.793H162.848C161.464 237.252 160.041 236.818 158.592 236.495C159.721 235.975 160.998 236.921 162.293 236.866H162.478C168.03 238.869 176.542 237.96 183.926 238.164C184.55 238.06 185.181 237.998 185.814 237.979Z" fill="#212221"/>
<path fill-rule="evenodd" clip-rule="evenodd" d="M97.248 244.285C97.248 244.285 107.963 258.03 107.963 258.085C102.281 261.35 96.3412 264.633 90.5859 267.823C89.7717 263.149 89.6236 257.788 88.9204 252.984C88.6798 246.808 88.0136 241.039 87.625 235.011C91.1226 237.812 93.8799 241.354 97.248 244.285Z" fill="#5D5E5E"/>
<path fill-rule="evenodd" clip-rule="evenodd" d="M172.86 260.96C167.161 257.603 160.332 253.541 150.654 254.283C147.944 254.497 145.221 254.497 142.511 254.283C132.592 253.522 125.856 257.399 120.508 261.146C120.249 260.478 121.563 259.625 122.358 258.92C128.678 253.153 136.648 249.525 145.139 248.551C145.94 248.497 146.744 248.497 147.545 248.551C158.148 249.275 166.902 255.266 172.86 260.96Z" fill="#212221"/>
<path fill-rule="evenodd" clip-rule="evenodd" d="M167.884 275.41C165.99 277.302 163.948 279.039 161.777 280.603C158.798 279.583 155.874 278.489 152.709 277.635C150.414 279.994 148.315 282.537 146.436 285.24C144.16 282.885 142.735 279.787 140.31 277.635C137.146 278.47 134.278 279.602 131.243 280.603C129.392 279.082 127.375 277.561 125.506 275.966C125.506 275.595 125.006 275.725 125.136 275.224C132.371 271.514 139.311 267.304 146.399 263.372C153.708 267.081 160.519 271.459 167.847 275.224L167.884 275.41Z" fill="#5D5E5E"/>
<path fill-rule="evenodd" clip-rule="evenodd" d="M74.8738 311.746C76.0952 303.974 76.6134 293.995 77.8347 285.611C79.7963 285.611 81.5359 286.038 83.3864 286.168H83.9416C87.6427 286.854 100.597 288.023 102.984 288.208H103.169C105.541 288.503 107.818 289.327 109.831 290.619C109.831 290.619 112.033 291.695 112.977 292.289C113.805 292.671 114.608 293.105 115.383 293.587C115.734 293.587 120.102 296.091 122.045 297.111C122.872 297.495 123.676 297.929 124.45 298.41C124.45 298.41 136.923 305.199 137.016 305.087C137.108 304.976 130.909 303.492 128.984 302.843C112.699 297.445 95.9703 291.473 80.259 286.539C80.444 287.874 117.77 309.242 134.999 319.166C136.183 314.992 136.109 309.539 137.034 305.087C137.948 305.288 138.876 305.412 139.81 305.458H139.995C146.901 306.869 154.073 306.091 160.518 303.233C160.518 303.233 166.773 300.172 169.586 298.41C169.586 298.41 190.738 289.655 194.365 288.412C196.493 287.633 197.492 287.874 202.507 287.485H202.692C206.727 287.151 210.835 286.873 214.518 286.186H215.073C215.782 288.981 216.216 291.839 216.368 294.719C217.071 301.081 217.608 306.441 218.219 312.136C218.552 315.252 217.275 327.958 217.293 330.851V331.037C215.924 337.51 214.666 344.021 213.407 350.68V350.865C213.041 351.885 212.792 352.943 212.667 354.019C211.797 354.019 201.786 353.314 197.511 353.091C197.511 353.091 189.109 352.108 188.073 351.793C187.666 351.644 184.261 350.494 184.187 350.494C182.69 349.818 181.143 349.26 179.56 348.825C179.56 348.825 171.492 346.043 171.418 346.043C166.995 342.723 158.63 335.118 156.613 333.263H156.428C156.428 333.022 155.633 332.632 155.688 332.335C161.684 334.301 167.92 336.935 174.194 338.642C171.602 335.275 168.756 332.113 165.681 329.182C162.609 326.047 159.667 322.709 156.428 319.908C155.96 324.034 155.713 328.183 155.688 332.335C152.986 332.335 144.011 331.278 142.364 331.593C142.364 331.593 136.387 332.595 134.221 334.747C129.613 338.763 124.801 342.54 119.806 346.061L116.104 347.36L111.848 348.844C109.572 349.586 104.039 351.57 103.521 351.811C108.591 347.323 113.569 342.723 118.862 338.475C105.908 338.289 91.2883 339.439 78.1493 339.773C78.6305 340.886 96.4329 348.528 103.484 351.811C103.484 351.997 95.3596 352.386 92.5652 352.739L86.2733 353.11C84.1266 352.998 82.5722 353.425 80.3515 353.295C80.1109 352.312 77.9458 341.684 77.9458 341.628C77.5386 339.495 76.6504 335.21 76.6504 335.136C76.4703 333.187 76.0984 331.261 75.54 329.386C75.2727 327.451 74.9021 325.531 74.4297 323.636C74.4297 323.636 74.8738 311.802 74.8738 311.746Z" fill="#C9C9C9"/>
<path fill-rule="evenodd" clip-rule="evenodd" d="M184.87 258.066C184.87 258.066 178.782 269.659 175.618 275.057C172.86 275.057 170.584 275.447 167.845 275.428V275.242C160.443 271.533 153.707 267.174 146.397 263.39C139.309 267.341 132.37 271.459 125.134 275.242C125.005 275.743 125.504 275.613 125.504 275.984C123.543 274.927 120.156 275.298 117.362 275.057C114.752 270.271 107.924 258.159 107.924 258.104C119.934 253.949 131.222 249.182 143.085 244.86C144.093 245.636 145.329 246.057 146.601 246.057C147.872 246.057 149.108 245.636 150.117 244.86C161.794 249.256 184.87 257.992 184.87 258.066ZM147.526 248.551C146.725 248.497 145.921 248.497 145.12 248.551C136.64 249.538 128.684 253.171 122.377 258.938C121.581 259.643 120.267 260.496 120.526 261.164C125.782 257.454 132.61 253.541 142.529 254.301C145.239 254.515 147.962 254.515 150.672 254.301C160.332 253.615 167.179 257.621 172.879 260.979C166.901 255.266 158.148 249.274 147.526 248.551Z" fill="#C9C9C9"/>
<path fill-rule="evenodd" clip-rule="evenodd" d="M169.53 22.0543C166.963 21.6225 164.354 21.4979 161.758 21.6834L169.53 22.0543Z" fill="#212221"/>
<path fill-rule="evenodd" clip-rule="evenodd" d="M123.323 22.0542C119.237 23.1036 115.22 24.4044 111.294 25.9494L123.323 22.0542Z" fill="#212221"/>
<path fill-rule="evenodd" clip-rule="evenodd" d="M69.3219 20.4037C68.4521 30.2159 67.0087 43.441 66.7311 52.1032C66.7311 52.5484 66.398 53.6613 67.1012 53.4016C67.1012 53.8839 66.4905 53.7726 65.9909 53.7726C61.2904 51.3798 56.1644 49.4137 51.3899 47.0951C48.6176 48.7635 45.7077 50.1908 42.6923 51.3613C39.7543 40.8303 36.1697 30.4914 31.959 20.4037C31.959 20.0883 32.107 20.0512 32.3291 20.0327C39.0837 28.5094 44.95 37.895 51.8156 46.3717C51.8156 40.3249 51.8156 32.9796 51.8156 26.3578C45.5421 24.0577 38.8616 22.1843 32.5882 19.8657C47.3927 18.9012 58.4961 14.1342 69.7475 9.66401L69.9696 9.51562C69.9696 9.51562 69.9696 9.73821 69.9696 9.51562C70.3212 10.1092 69.581 17.4915 69.3219 20.4037Z" fill="#C9C9C9"/>
<path fill-rule="evenodd" clip-rule="evenodd" d="M41.0312 12.2237C42.4372 10.8511 44.1284 9.80688 45.9839 9.16558C47.8394 8.52428 49.8133 8.30177 51.7645 8.51394L59.907 8.69943L66.1989 8.88491C66.8096 8.88491 69.5854 9.25588 69.9 9.25588H68.0495L62.8679 9.62686C62.1277 9.73815 59.9625 9.81234 59.7219 9.81234C59.0927 9.92363 57.1866 9.99783 56.9461 9.99783C56.3169 10.1091 54.6699 10.1833 54.5403 10.1833C52.0478 10.239 49.5675 10.5497 47.1381 11.1107C43.0298 13.2995 36.5343 17.5471 32.5371 19.8286C32.5371 19.6802 35.313 17.6027 35.313 17.6027L41.0312 12.2237Z" fill="#5D5E5E"/>
<path fill-rule="evenodd" clip-rule="evenodd" d="M135.887 26.6916V26.5061C139.847 30.2158 142.531 35.0014 146.454 38.7296C150.155 34.7973 153.283 30.1973 157.15 26.5061V26.6916C157.15 28.1198 157.15 33.4804 157.15 34.6675C170.104 42.1982 183.928 48.8572 197.085 56.1653C184.354 55.3306 170.844 53.6798 157.705 52.6411C161.555 56.0726 167.587 58.929 172.121 62.2863C172.121 62.6388 170.844 64.9017 170.641 65.6251C170.23 66.4096 169.86 67.2144 169.531 68.0364C167.68 71.7461 163.979 79.5922 163.979 79.351C161.092 70.6889 159.167 61.0621 156.021 52.6596C153.153 48.4305 149.581 44.9063 146.398 40.9926C143.493 45.1289 139.736 48.412 136.961 52.6596C133.815 61.0065 131.983 70.6518 129.003 79.1656C128.874 79.6664 129.003 80.2599 128.633 79.5365C127.097 75.5115 125.265 71.8018 123.451 68.0549C123.248 67.3316 122.36 65.8848 122.341 65.6436C122.138 64.9202 120.935 62.6573 120.861 62.3049C125.654 58.9476 130.946 56.0911 135.665 52.6596C122.286 53.7725 109.128 55.0895 95.915 56.3693C108.869 48.7644 122.952 42.3095 135.85 34.686C136.019 32.0242 136.031 29.3548 135.887 26.6916Z" fill="#5D5E5E"/>
<path fill-rule="evenodd" clip-rule="evenodd" d="M157.15 34.6674C162.98 34.9456 165.719 32.1262 171.381 32.2561H171.566C174.731 33.5916 177.118 36.6335 179.709 39.119C185.483 44.5167 191.515 50.6934 197.641 55.6087C197.049 53.2902 195.402 44.7578 195.05 43.5707C197.086 41.7158 198.936 39.5457 200.972 37.6352C202.822 39.3416 205.413 41.215 206.338 43.1997C202.489 43.0514 199.177 43.4409 195.439 43.3852C202.609 48.208 210.021 52.6593 217.645 56.7217C223.808 61.8967 229.952 67.1274 236.317 72.0985C238.279 68.0734 240.407 64.2153 242.424 60.2274C237.354 58.0201 231.728 56.3692 227.083 53.7353C231.784 51.3426 236.91 49.3764 241.684 47.0578C244.464 48.7121 247.373 50.1387 250.382 51.324C253.546 51.0272 257.044 50.0998 259.82 50.0256C258.82 53.1047 257.617 55.9797 256.489 58.929C254.212 56.7031 252.38 54.0321 250.197 51.695C247.458 53.8837 245.663 57.037 243.35 59.6709C246.107 62.5274 248.716 65.5323 251.677 68.2033C251.215 69.0379 279.898 100.719 280.342 101.016C265.778 92.743 251.141 81.855 236.336 73.1928C236.336 72.9888 235.966 73.063 235.966 72.8218C235.651 72.8218 224.307 78.4977 218.589 80.9832C218.589 80.9832 218.589 80.9832 215.813 82.0961C214.06 82.8129 212.268 83.4321 210.447 83.951C209.299 81.651 203.044 67.7024 203.044 67.6468C202.715 66.8247 202.345 66.0199 201.934 65.2355C200.676 62.2306 199.288 59.3556 197.863 56.5176C196.53 56.7959 193.866 57.4451 193.792 57.4451C187.944 58.6322 176.47 61.3403 176.415 61.3403C174.973 61.533 173.55 61.8432 172.158 62.2677C167.625 58.9104 161.592 56.0539 157.743 52.6224C170.9 53.6611 184.391 55.312 197.123 56.1467C183.928 48.8385 170.104 42.1796 157.15 34.6674ZM225.196 77.1066C222.79 70.4291 220.236 63.9185 217.793 57.2781L198.566 56.5362C207.227 63.597 216.103 70.4538 225.196 77.1066Z" fill="#212221"/>
<path fill-rule="evenodd" clip-rule="evenodd" d="M163.074 81.3729C163.074 81.3729 158.04 94.5053 155.301 100.83C154.728 95.2658 154.487 89.5342 154.376 83.5987C157.3 82.2075 161.001 80.6495 163.999 79.3325L163.074 81.3729Z" fill="#212221"/>
<path fill-rule="evenodd" clip-rule="evenodd" d="M128.856 79.8887C132.261 81.2056 135.759 82.1887 138.664 83.5984C138.664 89.5896 138.091 95.0058 137.924 100.83C134.852 94.7646 133.131 87.3452 129.967 81.3726L128.856 79.8887Z" fill="#212221"/>
<path fill-rule="evenodd" clip-rule="evenodd" d="M117.954 127.336C114.253 119.805 109.479 113.239 101.133 110.29L117.954 127.336Z" fill="#C9C9C9"/>
<path fill-rule="evenodd" clip-rule="evenodd" d="M55.2578 233.36C55.2578 233.36 60.9205 242.949 63.7704 247.457C70.525 244.025 87.3096 235.029 87.6242 235.029C87.6242 233.508 84.4782 201.642 83.923 185.171C80.2219 186.395 78.1308 189.381 74.8553 191.106C75.1329 192.293 75.0773 192.256 74.6702 191.106C77.8347 189.14 80.3145 186.506 83.738 184.8C84.9224 185.356 86.2363 185.746 87.4391 186.283C95.045 184.762 102.817 183.408 110.553 182.017C107.999 172.279 102.669 161.614 105.926 150.132C106.505 148.805 107 147.442 107.407 146.052C107.407 144.401 102.281 140.487 101.3 139.189L96.0072 133.958C97.3188 133.623 98.693 133.623 100.004 133.958C105.741 135.349 107.592 140.747 111.663 144.531C112.644 142.49 113.199 141.21 114.642 138.28L115.919 140.264C116.789 136.425 119.62 131.454 117.955 127.484C118.436 127.744 118.473 128.449 118.695 128.968C120.638 128.152 122.748 127.466 124.802 126.742C123.544 122.05 122.655 117.023 121.471 112.664C121.082 111.273 120.102 110.086 120.176 108.583C120.717 106.115 121.46 103.696 122.396 101.349C124.524 94.2268 126.949 87.1969 128.873 79.8516L129.984 81.3355C133.148 87.3082 134.869 94.7276 137.941 100.793C138.108 94.9687 138.681 89.5525 138.681 83.5613C135.776 82.1517 131.982 81.0758 128.873 79.8516C128.873 79.4807 128.873 79.6105 129.058 79.1097C132.038 70.5959 133.87 60.9506 137.016 52.6038C140.458 53.9764 143.178 56.0723 146.639 57.4264C149.896 55.9425 152.727 54.0135 156.077 52.6038C159.223 61.0063 161.129 70.633 164.034 79.2952C164.034 79.2952 157.335 82.1517 154.411 83.5613C154.522 89.4969 154.763 95.3212 155.336 100.793C158.075 94.4494 160.037 87.3453 163.109 81.3355L164.034 79.2952C165.885 86.2694 168.475 94.134 170.696 101.72C171.362 103.965 172.935 106.988 172.917 108.954C172.917 110.29 171.936 111.477 171.621 112.664C170.418 117.079 169.604 121.938 168.29 126.742C170.326 127.484 172.473 128.115 174.397 128.968C174.619 128.449 174.656 127.744 175.137 127.484C173.398 131.528 176.488 136.128 176.988 140.264C177.413 139.594 177.909 138.972 178.468 138.41C179.745 140.264 180.097 142.954 181.799 144.345C185.815 139.912 188.758 133.216 197.178 133.828L185.686 145.829C191.237 157.107 185.852 171.797 182.54 181.795C189.942 183.557 198.103 184.614 205.653 186.246C206.93 185.746 208.189 185.208 209.539 184.762C209.539 184.929 205.228 234.992 205.468 234.992C212.278 239.963 221.457 243.32 229.137 247.42C232.301 243.228 237.798 233.044 237.835 233.323C242.146 229.427 247.717 224.16 252.806 220.172C255.545 225.736 258.043 231.598 260.763 237.218C263.021 223.548 266.204 194.927 267.24 192.924C267.24 192.924 274.883 209.098 279.269 216.462C278.806 210.619 278.862 202.476 278.529 194.964C278.38 191.811 277.733 185.022 277.788 184.391C277.289 183.835 277.122 161.298 277.233 161.039C281.823 161.206 285.746 160.668 290.187 160.668C286.171 153.397 282.1 146.07 277.992 138.799C273.884 131.528 264.631 115.502 264.02 115.298C257.42 105.405 250.826 95.4572 244.238 85.4533C248.494 87.9388 252.75 91.9824 257.191 94.9131C250.585 87.3267 243.46 80.2412 236.299 73.2298C251.103 81.8734 279.713 100.515 280.305 101.053C282.008 111.106 284.228 120.844 286.412 130.73C289.262 143.714 293.814 153.935 292.889 169.831C292.5 176.063 290.909 182.462 290.113 188.917C289.317 195.372 288.263 202.254 287.892 208.56C287.559 213.735 287.781 220.153 285.857 223.195C283.932 226.237 278.88 229.78 275.864 232.469C269.084 238.673 261.714 244.195 253.86 248.959C249.29 251.741 245.033 256.527 238.519 256.564C233.134 256.564 227.545 255.08 221.864 254.524C219.07 254.245 216.127 254.041 213.167 253.782C210.206 253.522 203.433 253.04 203.433 253.04C203.433 253.04 205.006 241.095 205.394 235.066C201.878 237.849 198.584 241.966 195.216 244.897C187.351 245.082 180.06 248.607 172.843 248.05C163.442 247.271 157.465 240.538 148.267 239.462C148.027 237.607 147.546 235.975 147.342 234.083C148.247 234.987 149.283 235.75 150.414 236.346C151.386 236.992 152.473 237.445 153.615 237.682C159.962 239.831 166.147 242.434 172.121 245.472C173.941 243.868 175.502 241.991 176.747 239.907C184.839 240.934 193.02 238.882 199.676 234.157C194.679 235.066 190.775 237.088 185.815 238.053C185.203 238.157 184.585 238.219 183.965 238.238C176.562 238.034 168.087 238.943 162.517 236.94C164.127 237.051 166.458 237.867 168.994 238.053C172.126 238.461 175.299 238.461 178.431 238.053C180.412 237.478 180.948 234.936 180.837 232.859C176.044 232.655 169.29 232.859 164.016 232.488C182.706 233.545 199.176 232.488 205.061 220.635C196.734 224.512 189.461 229.465 177.691 229.91C178.265 229.502 179.394 229.631 180.097 229.353C176.562 219.689 183.113 212.177 186.019 205.444C184.557 204.086 182.942 202.903 181.207 201.92C179.708 200.937 177.506 199.082 176.026 199.138C176.618 197.413 175.174 193.406 174.545 190.605C172.695 182.629 171.085 174.412 169.179 167.067C166.458 156.513 162.517 147.313 159.759 138.15C163.83 128.152 169.012 119.304 172.713 108.862C165.311 113.48 158.168 118.266 151.265 123.311C153.819 128.115 156.41 132.863 158.852 137.76C155.984 140.19 152.931 142.768 149.6 145.365C148.64 146.28 147.585 147.088 146.454 147.777C146.047 147.777 144.196 145.736 143.493 145.18C140.606 142.935 136.498 139.931 134.24 137.76C136.664 132.771 139.403 128.097 141.827 123.125C134.666 118.303 127.689 113.332 120.287 108.806C123.988 119.249 129.151 128.097 133.241 138.094C130.872 146.404 126.171 156.643 123.618 167.197C121.767 174.616 116.678 197.561 116.956 199.082C115.216 199.193 113.458 200.77 111.774 201.864C110.09 202.959 108.443 204.053 106.963 205.203C109.72 212.14 116.456 219.522 112.884 229.316C117.955 230.355 123.47 230.948 128.596 231.913C120.657 230.429 113.069 230.355 105.852 228.574C99.1162 226.923 93.509 222.806 87.7352 220.598C91.6769 227.053 98.635 231.375 107.888 232.284C114.05 232.896 121.156 232.284 128.966 232.469C123.747 232.803 117.048 232.636 112.311 232.84C112.068 233.811 112.134 234.833 112.499 235.764C112.864 236.695 113.51 237.488 114.346 238.034C122.396 238.683 129.151 237.014 135.054 236.179C133.741 236.937 132.297 237.441 130.798 237.663C131.816 237.069 133.352 236.995 134.314 236.365C127.152 238.219 118.288 238.461 108.98 238.219L55.2578 233.36ZM107.129 238.034C102.225 237.218 97.8763 234.732 93.2684 234.324C99.0792 237.811 107.185 241.41 116.197 239.889C117.469 241.901 118.959 243.767 120.638 245.453C126.949 242.986 133.241 240.019 139.403 237.422C141.374 236.872 143.213 235.926 144.807 234.64C145.325 234.213 145.306 234.139 145.306 234.139C145.129 235.934 144.82 237.713 144.381 239.462C134.462 240.761 127.911 248.885 116.271 247.995C109.831 247.494 104.723 244.934 97.6172 244.767C94.2677 241.836 91.1217 237.811 87.6242 235.011C88.0128 241.039 88.7345 247.178 88.9936 253.355C88.9936 253.355 82.8312 253.466 79.8518 253.745L71.3392 254.487C64.3256 255.136 58.3852 256.972 51.7417 256.341L50.8164 256.156C46.5601 255.043 42.5814 251.037 38.7878 248.737C30.8653 243.933 23.4929 238.273 16.803 231.857C13.6386 228.964 8.56802 226.126 6.80998 222.583C5.05194 219.04 5.42206 213.309 5.14447 208.876C4.73735 202.235 3.71954 195.65 2.92379 189.047C1.85046 179.643 -0.6478 171.259 0.147944 160.148C0.869664 150.244 4.47827 140.468 6.62492 130.675C8.8456 120.566 11.1033 110.828 12.7318 101.034C13.324 100.515 41.8967 82.0218 56.7382 73.2112C49.336 80.3154 42.3038 87.7904 35.2902 95.2655C39.9721 92.2977 44.3395 88.0316 48.7808 85.4348C42.2298 95.4324 35.5863 105.319 28.9983 115.279C28.3321 115.483 28.4986 116.522 28.073 116.949C19.1533 130.934 11.4179 146.033 2.92379 160.501C7.22784 160.931 11.5527 161.117 15.8778 161.057C15.8778 161.057 15.8778 183.854 15.3226 184.41C15.3226 185.041 14.7859 193.684 14.5824 198.303C14.3233 204.238 14.3048 210.693 13.6571 216.462C18.3205 209.339 21.8181 201.03 25.8523 193.295V192.905C26.8701 194.909 27.5733 195.317 26.5555 194.241C28.147 207.837 30.2566 223.232 32.1072 237.199C35.1236 231.82 37.3998 225.699 40.2497 220.153C43.2106 222.138 47.652 226.59 51.3531 229.798C52.0193 230.392 55.0542 232.729 55.2393 233.323L107.129 238.034ZM264.02 115.298C266.703 114.408 268.665 110.828 270.867 108.806C267.166 104.41 262.984 100.385 259.042 96.2115C260.245 102.889 262.651 108.658 264.02 115.298ZM201.101 197.598C201.158 200.21 201.405 202.813 201.841 205.388C202.322 203.33 202.914 201.382 203.322 199.267C202.803 198.6 201.878 197.468 201.156 197.58L201.101 197.598ZM179.653 219.856C183.529 219.481 187.276 218.258 190.63 216.274C193.984 214.29 196.863 211.594 199.065 208.375C192.074 211.197 185.548 215.062 179.708 219.838L179.653 219.856ZM187.98 224.865C191.108 224.234 193.532 223.01 196.678 222.268C197.881 219.207 200.065 216.147 201.119 213.55C197.381 217.909 193.625 222.286 188.017 224.827L187.98 224.865ZM22.2067 108.991C24.5569 110.846 26.3149 114.129 29.0538 114.927C30.0901 108.231 33.1435 102.592 33.8652 96.2115C30.1271 100.682 25.6487 104.336 22.2067 108.991ZM91.3623 205.444C91.4734 202.773 91.8805 200.399 91.9175 197.654C88.4569 197.858 90.3445 202.903 91.3253 205.37L91.3623 205.444ZM113.366 219.708C107.296 215.72 101.392 210.582 93.7681 208.783C98.7276 213.772 104.464 219.077 113.329 219.652L113.366 219.708ZM96.2293 222.249C99.2828 222.768 102.077 224.531 104.927 224.66C99.0052 222.62 95.5261 217.241 91.6214 213.717C93.3762 216.437 94.9168 219.289 96.2293 222.249ZM138.792 103.538C141.624 109.604 143.456 116.522 146.398 122.439C148.97 116.133 151.358 109.622 153.985 103.353C151.302 99.4204 149.692 96.601 146.38 91.3147C143.974 95.5623 141.272 99.4575 138.792 103.612V103.538Z" fill="#C9C9C9"/>
<path fill-rule="evenodd" clip-rule="evenodd" d="M34.1809 139.114C34.0788 136.084 34.1406 133.05 34.3659 130.026C34.81 126.594 36.9197 122.384 38.067 118.896C40.6208 111.143 42.9895 104.429 45.4693 96.6381C46.8436 92.9498 47.9567 89.1688 48.8003 85.3235C44.359 87.9203 39.9731 92.1679 35.3097 95.1543C42.3419 87.7348 49.3555 80.1855 56.7578 73.1C56.7578 72.8403 57.1649 72.8959 57.3129 72.729C60.3985 74.5705 63.6148 76.1824 66.9359 77.5516C66.9359 77.7928 66.6953 77.8113 66.7508 78.1081C65.0298 87.0671 63.1977 95.9333 61.7543 105.171V105.69C64.1785 103.371 64.1785 103.371 65.4554 101.98C65.9736 101.498 66.3067 100.849 66.9359 100.496L72.6726 94.7462C74.3412 93.3326 75.8887 91.7815 77.299 90.109C77.7432 90.109 77.6507 89.4598 78.2243 89.5526V89.9236H78.0393C75.3189 95.3583 72.173 100.162 69.3231 105.263C73.1168 110.29 77.4841 114.76 81.7034 119.342C81.7959 119.62 81.981 119.805 82.0735 120.084C88.5505 126.427 94.6574 132.585 101.301 139.17C102.467 140.32 107.815 144.252 107.408 146.033C107.204 146.942 106.242 148.964 105.927 150.114C102.67 161.67 107.981 172.242 110.554 181.999C102.8 183.371 95.046 184.744 87.4402 186.265C92.3997 177.399 98.8211 168.996 103.522 160.501C98.2475 163.617 89.3462 169.33 89.3462 169.33C80.3525 164.693 69.8968 161.132 60.8105 156.606C58.9599 147.498 57.535 138.057 55.4439 129.358C55.3513 128.783 55.851 128.634 55.4439 128.245H55.6289C56.6652 123.497 58.2752 117.338 59.5151 112.126C60.1103 110.44 60.544 108.701 60.8105 106.933C60.8105 104.447 59.1265 101.702 58.4048 99.3277C57.7765 96.7408 56.9727 94.1999 55.999 91.7228C53.7969 100.255 51.1135 108.417 49.1519 117.116C49.1519 126.891 49.6146 136.054 50.2623 145.106C49.9292 150.559 50.2623 155.808 50.4473 161.41C50.1352 162.247 50.1352 163.169 50.4473 164.007C50.356 165.616 50.418 167.231 50.6324 168.829C50.3238 170.235 50.3238 171.69 50.6324 173.095C50.6324 173.67 50.5028 174.45 50.8174 174.765C51.095 178.679 52.5015 181.479 52.8531 185.338C48.2637 180.255 42.786 175.396 38.0485 169.59C35.9759 167.049 33.6442 164.674 33.9773 160.315C34.2867 157.79 34.2867 155.236 33.9773 152.711C33.9773 150.132 34.3104 147.981 34.1623 145.291L34.1809 139.114ZM68.9345 129.172C69.6566 131.122 70.5873 132.988 71.7103 134.737C74.7268 140.506 77.9097 145.866 80.5931 151.431C83.3589 148.741 85.8968 145.825 88.1804 142.713C84.2042 140.984 80.3734 138.937 76.7254 136.592C78.3539 131.027 80.2044 125.63 81.7219 119.898C77.2435 118.878 73.8755 116.763 68.9715 116.188C69.1936 120.918 68.0277 125.129 68.953 129.191L68.9345 129.172Z" fill="#5D5E5E"/>
<path fill-rule="evenodd" clip-rule="evenodd" d="M91.6934 119.917H93.5439C94.9874 118.062 95.9126 115.743 98.1703 114.723C98.1703 115.613 97.208 116.578 97.6151 117.32C96.8379 119.36 98.3369 122.087 98.5404 124.368C96.2827 123.589 95.6165 121.252 93.914 119.917C93.5624 120.25 92.6927 120.046 92.0635 120.102C92.3411 121.178 92.2485 121.456 91.6934 119.917Z" fill="#C9C9C9"/>
<path fill-rule="evenodd" clip-rule="evenodd" d="M107.963 124.739C108.129 124.406 108.407 124.201 108.518 123.812C108.629 123.422 108.888 123.07 109.073 122.699C107.759 120.195 106.279 117.839 103.151 117.134C102.522 116.281 102.707 114.612 101.671 114.167C100.338 114.556 100.227 116.188 99.8202 117.505C99.3946 117.505 99.7092 116.689 99.8202 116.578C99.5241 116.578 99.117 116.578 99.08 116.763C98.3583 116.763 98.1177 117.153 97.5995 117.32C97.1924 116.597 98.1177 115.613 98.1547 114.723C95.897 115.725 94.9717 118.08 93.5283 119.917H91.6777C91.8443 114.983 94.0835 110.846 97.9697 110.457C103.281 109.938 105.501 116.281 109.628 117.32C109.184 119.954 109.924 123.664 107.963 124.739Z" fill="#5D5E5E"/>
<path fill-rule="evenodd" clip-rule="evenodd" d="M69.2122 182.036V182.741C65.7516 189.585 62.0875 196.226 58.4789 202.94C56.3138 197.895 55.2774 191.681 53.2973 186.45C53.2973 185.913 52.8717 185.875 52.9272 185.338C52.5756 181.498 51.1692 178.697 50.8916 174.765C57.0355 177.009 63.1238 179.309 69.0086 181.813L69.2122 182.036Z" fill="#C9C9C9"/>
<path fill-rule="evenodd" clip-rule="evenodd" d="M148.823 202.013C148.992 202.163 149.12 202.354 149.193 202.569C154.393 203.608 159.963 204.257 165.459 204.98C159.445 207.651 155.429 212.66 147.527 213.142C138.719 213.68 133.926 207.837 127.56 204.98C133.111 204.257 138.663 203.645 143.826 202.569C143.993 202.421 143.937 202.068 144.196 202.013C143.604 203.626 145.751 203.868 146.417 204.795C147.324 204.034 148.749 203.793 149.008 202.384C148.841 202.384 148.878 202.18 148.823 202.013Z" fill="#C9C9C9"/>
<path fill-rule="evenodd" clip-rule="evenodd" d="M124.598 203.311C125.589 203.749 126.522 204.31 127.374 204.98L124.598 203.311Z" fill="#C9C9C9"/>
<path fill-rule="evenodd" clip-rule="evenodd" d="M170.826 230.93C173.014 230.384 175.242 230.012 177.488 229.817C175.294 230.335 173.069 230.707 170.826 230.93Z" fill="#C9C9C9"/>
<path fill-rule="evenodd" clip-rule="evenodd" d="M164.365 231.857C166.437 231.392 168.54 231.082 170.657 230.93C168.587 231.401 166.483 231.711 164.365 231.857Z" fill="#C9C9C9"/>
<path fill-rule="evenodd" clip-rule="evenodd" d="M162.85 237.793C161.098 237.54 159.406 236.975 157.854 236.124C159.37 236.051 160.884 236.304 162.295 236.866C160.999 236.866 159.723 235.994 158.594 236.495C160.043 236.818 161.466 237.252 162.85 237.793Z" fill="#C9C9C9"/>
<path fill-rule="evenodd" clip-rule="evenodd" d="M163.073 237.793C167.237 238.739 171.845 239.259 176.379 239.834C171.879 239.674 167.414 238.99 163.073 237.793Z" fill="#C9C9C9"/>
<path fill-rule="evenodd" clip-rule="evenodd" d="M132.185 221.489C132.98 222.917 133.498 224.623 134.405 225.94C133.348 224.638 132.59 223.118 132.185 221.489Z" fill="#212221"/>
<path fill-rule="evenodd" clip-rule="evenodd" d="M116.586 239.834C121.12 239.259 125.746 238.758 129.892 237.793C125.551 238.99 121.085 239.674 116.586 239.834Z" fill="#C9C9C9"/>
<path fill-rule="evenodd" clip-rule="evenodd" d="M91.6934 213.698C95.6165 217.13 99.0956 222.602 104.999 224.642C102.168 224.531 99.4472 222.787 96.3012 222.231C94.9894 219.271 93.4487 216.418 91.6934 213.698Z" fill="#212221"/>
<path fill-rule="evenodd" clip-rule="evenodd" d="M98.7278 129.376C92.1213 127.911 87.9575 123.979 88.7348 115.112C87.4209 112.293 84.2379 111.403 81.8877 109.548C81.7853 107.799 81.5377 106.062 81.1475 104.354C83.2941 105.152 83.7938 109.028 85.9589 109.548C86.896 109.541 87.8286 109.416 88.7348 109.177C92.8393 108.884 96.964 109.26 100.949 110.29H101.134C109.48 113.239 114.199 119.805 117.955 127.336V127.521C119.602 131.509 116.789 136.48 115.92 140.301C114.299 137.877 112.816 135.363 111.478 132.771C111.478 132.771 110.553 131.287 110.553 131.231C110.016 130.471 109.72 129.376 108.887 129.005C105.589 129.591 102.227 129.716 98.8944 129.376H98.7278ZM103.262 126.297L103.632 126.13C105.179 126.178 106.689 125.65 107.87 124.646C109.831 123.571 109.128 119.861 109.535 117.227C105.427 116.188 103.206 109.808 97.8766 110.364C94.0089 110.754 91.7512 114.89 91.5847 119.824C92.8657 121.761 94.5946 123.36 96.6245 124.484C98.6543 125.608 100.925 126.223 103.243 126.279L103.262 126.297Z" fill="#212221"/>
<path fill-rule="evenodd" clip-rule="evenodd" d="M48.7986 85.4348C47.955 89.2801 46.8419 93.0611 45.4676 96.7495C42.9879 104.521 40.6376 111.236 38.0654 119.008C36.918 122.495 34.8084 126.687 34.3642 130.137C34.1389 133.161 34.0771 136.195 34.1792 139.226V145.347C34.3272 148.018 33.9386 150.169 33.9941 152.766V160.371C33.661 164.73 35.9927 167.086 38.0654 169.645C42.7843 175.47 48.2805 180.311 52.8699 185.393C52.8699 185.931 53.2955 185.968 53.24 186.506H53.0549C48.5581 197.246 44.9865 208.931 39.9344 219.133C39.9344 219.133 39.0091 217.705 39.0091 217.649C37.8988 215.312 36.6034 213.142 35.4931 210.786C35.0674 209.896 30.9037 201.976 29.0161 199.101C29.0161 199.101 26.8879 194.983 25.8701 192.98C26.7584 166.752 27.4061 141.044 29.0161 115.317C35.6041 105.337 42.2476 95.4325 48.7986 85.4348Z" fill="#212221"/>
<path fill-rule="evenodd" clip-rule="evenodd" d="M50.4645 161.373C50.261 155.808 49.9464 150.522 50.2795 145.069C50.9087 138.725 53.7771 134.626 55.4611 129.321C57.5522 138.113 59.0512 147.462 60.8277 156.569C69.9325 161.095 80.3697 164.656 89.3634 169.293C88.4567 169.293 86.5321 168.997 86.5321 168.997C82.5904 168.997 66.4349 168.143 63.4185 168.069C65.084 172.15 67.6748 178.011 67.6748 178.085C69.3588 182.296 69.3588 182.296 68.9702 181.795C63.0854 179.31 56.997 176.991 50.8532 174.747C50.5386 174.431 50.7051 173.652 50.6681 173.077V168.792C50.4537 167.194 50.3917 165.58 50.483 163.97L50.4645 161.373Z" fill="#212221"/>
</svg>
