<svg width="596" height="344" viewBox="0 0 596 344" fill="none" xmlns="http://www.w3.org/2000/svg">
<path fill-rule="evenodd" clip-rule="evenodd" d="M0.0761719 330.969L25.8992 249.179L92.9412 138.718L65.763 40.7056L91.9625 19.2773L142.14 18.8623L180.875 41.8374L203.009 29.6519L400.898 32.5946L415.202 42.2147L453.56 18.8623H503.023L531.067 41.4602L503.475 138.718L561.144 224.846L592.952 328.328L576.652 448.599L503.475 505.414L297.643 497.982L99.9804 518.279L20.4786 450.485L0.0761719 330.969Z" fill="white"/>
<path fill-rule="evenodd" clip-rule="evenodd" d="M297.978 0C317.666 5.73434 343.639 4.14985 362.16 9.80875C380.68 15.4676 407.745 38.1787 408.046 38.0655C403.755 39.7631 394.57 37.575 388.848 38.4427C388.208 38.4427 370.78 38.4427 362.912 38.0655C362.536 38.0655 356.137 38.0655 353.502 37.6882C344.091 30.1808 323.726 22.6356 311.379 32.4066C306.222 29.5394 302.721 24.8614 298.016 21.5792C292.972 24.5596 289.96 29.1244 285.029 32.4066C272.494 22.9751 252.205 30.1808 242.568 37.7259C242.116 37.7259 216.594 37.7259 209.48 38.4805C208.84 38.4805 193.03 39.9518 188.023 38.4805C188.023 38.4805 214.599 15.6185 233.195 9.84647C252.807 3.77259 277.99 6.1116 297.978 0Z" fill="#5D5E5E"/>
<path fill-rule="evenodd" clip-rule="evenodd" d="M490.824 17.3532C494.788 16.9194 498.798 17.3711 502.566 18.6757C506.335 19.9803 509.768 22.1055 512.62 24.8984C515.219 27.8214 517.984 30.5925 520.901 33.1981C523.904 35.6429 527.046 37.9103 530.312 39.9888C526.547 39.5738 511.264 28.9351 509.608 27.9165C503.74 24.9527 497.551 22.6742 491.163 21.1258C490.9 21.1258 486.797 21.1258 485.14 20.7486C484.877 20.7486 481.376 20.7486 480.247 20.3713L467.825 19.6168L453.521 18.8623C456.043 18.8623 460.786 18.1077 463.308 18.1077C466.695 17.8437 477.913 18.1077 479.494 17.7305" fill="#5D5E5E"/>
<path fill-rule="evenodd" clip-rule="evenodd" d="M142.51 18.8623C155.271 26.4075 168.333 33.9527 180.868 41.8752C179.852 44.2519 169.576 65.6803 168.823 69.0002C158.788 52.9216 149.871 36.1693 142.134 18.8623H142.51Z" fill="#5D5E5E"/>
<path fill-rule="evenodd" clip-rule="evenodd" d="M415.203 42.2153C427.287 33.6892 440.876 26.7476 453.561 18.8252L452.432 21.466C443.548 36.5564 437.375 55.4194 427.211 69.3402C425.916 65.6096 424.408 61.9567 422.694 58.3997C422.28 56.9284 420.21 53.4576 420.059 52.7408C418.703 49.1166 417.08 45.5984 415.203 42.2153Z" fill="#5D5E5E"/>
<path fill-rule="evenodd" clip-rule="evenodd" d="M353.503 37.7262C315.86 37.4998 280.099 37.4998 242.531 37.7262C252.13 30.181 272.646 22.9753 285.03 32.4445C289.924 29.3133 292.973 24.6353 298.017 21.6172C302.722 24.9371 306.223 29.5396 311.38 32.4445C323.727 22.6358 344.092 30.181 353.503 37.7262Z" fill="#212221"/>
<path fill-rule="evenodd" clip-rule="evenodd" d="M529.938 39.9512H530.315C517.215 58.1351 504.416 76.6963 490.827 94.3143C490.827 82.0156 490.827 67.0761 490.827 53.608C503.475 48.6281 517.742 45.2705 529.938 39.9512Z" fill="#212221"/>
<path fill-rule="evenodd" clip-rule="evenodd" d="M65.7646 40.7064C65.7646 40.4046 65.7646 40.3668 66.1411 40.3291C79.0526 45.0448 92.4911 49.0438 105.403 53.5332C105.403 67.0014 105.403 81.9408 105.403 94.2395C91.4371 77.0742 79.5043 57.9849 65.7646 40.7064Z" fill="#212221"/>
<path fill-rule="evenodd" clip-rule="evenodd" d="M65.0068 41.498C73.5719 62.0154 80.8634 83.0437 86.8397 104.463C80.4028 103.859 73.2883 101.973 67.6418 101.822C67.1901 101.822 65.8726 44.8934 65.0068 42.6298V41.498Z" fill="#5D5E5E"/>
<path fill-rule="evenodd" clip-rule="evenodd" d="M531.064 41.498C531.064 41.8753 531.064 48.7792 530.688 51.6841C530.688 52.8158 528.994 101.746 528.429 101.822C522.783 101.822 515.668 103.859 509.231 104.463C515.204 83.0426 522.496 62.0141 531.064 41.498Z" fill="#5D5E5E"/>
<path fill-rule="evenodd" clip-rule="evenodd" d="M297.91 46.7051C297.91 46.7051 318.2 45.7997 329.079 44.102C334.36 43.7249 339.667 43.9781 344.889 44.8565H345.265C353.576 46.9914 361.747 49.6372 369.733 52.779C369.733 52.779 376.17 55.4953 379.52 56.5516C379.52 56.5516 388.291 59.9469 393.071 61.0787C393.071 61.0787 396.083 61.9464 397.589 62.2105C391.34 62.4368 383.924 60.5505 376.885 60.3242C376.622 60.3242 363.785 58.6265 357.311 58.0606C357.311 58.0606 346.018 56.5139 340.371 56.1743H339.995C326.556 54.5898 326.556 54.5898 319.668 53.9108C311.763 61.456 305.363 70.812 297.91 78.7722C289.93 71.227 284.472 61.3805 276.416 53.9108C270.77 54.5144 264.709 54.7407 259.477 55.7971L238.773 58.0606C232.299 58.6265 200.528 62.5877 200.415 62.5877C196.199 62.5877 202.937 61.0787 203.05 61.0787C210.891 59.0319 218.527 56.2663 225.862 52.8167C225.862 52.8167 245.474 44.2529 250.668 43.9511C255.772 43.5105 260.911 43.7516 265.951 44.6679C276.555 45.9784 287.226 46.6586 297.91 46.7051Z" fill="#212221"/>
<path fill-rule="evenodd" clip-rule="evenodd" d="M247.082 65.6054H247.458C252.427 65.4168 269.705 70.8116 276.405 70.5098C250.055 86.0529 221.484 99.1438 195.172 114.611C222.049 112.008 248.813 109.33 276.029 107.066C266.43 114.046 255.664 119.855 245.915 126.684C243.204 125.891 237.031 124.797 236.88 124.797C225.587 121.93 213.73 119.327 201.91 116.875C201.91 116.875 196.452 115.705 194.005 114.989C190.689 120.678 187.795 126.604 185.347 132.72C185.347 132.72 184.293 135.172 183.089 137.624C183.089 137.624 178.722 147.169 176.689 151.96C176.689 151.96 172.925 160.147 171.419 164.032C171.419 164.032 169.236 168.635 168.031 170.823C164.267 169.955 160.879 168.069 157.115 167.05C157.115 167.05 153.351 165.504 151.581 164.787L146.311 162.523C146.311 162.523 139.348 159.694 136.298 157.996C129.543 155.211 123.001 151.933 116.724 148.188C116.423 148.527 115.708 148.414 115.595 148.942C85.4806 166.824 56.1568 187.498 26.0801 205.531C26.0801 205.305 29.4679 202.136 29.4679 202.136C44.1487 185.574 85.2924 140.529 84.3889 138.794C90.4118 133.361 95.6818 127.287 101.328 121.44C97.1002 115.796 92.5767 110.381 87.7768 105.218C82.8079 109.405 79.0436 115.366 74.4136 119.855C72.1173 113.857 69.6705 108.047 67.6378 101.747C73.2843 101.747 80.3988 103.784 86.8357 104.388C92.9696 102.007 98.8886 99.1042 104.528 95.7107C114.24 100.426 124.667 104.425 134.228 109.292C124.742 114.611 113.374 118.044 103.022 122.496C107.125 130.57 111.454 138.416 115.444 146.641C128.393 136.492 140.891 125.929 153.426 115.366L198.597 88.6182C191.087 87.9715 183.548 87.7197 176.012 87.8637C179.335 83.6736 183.124 79.8765 187.305 76.5459C191.37 80.5072 195.172 84.7325 199.35 88.6182C198.635 91.0327 194.57 111.254 194.08 112.763C202.762 106.082 210.94 98.7686 218.548 90.8818C222.538 87.1092 226.83 83.3366 230.97 79.564C235.939 74.7728 240.908 68.4726 247.082 65.6054ZM152.974 116.498C148.043 130.004 142.811 143.245 137.917 156.827C156.387 143.271 174.406 129.325 191.972 114.989L152.974 116.498Z" fill="#212221"/>
<path fill-rule="evenodd" clip-rule="evenodd" d="M163.562 74.6218C165.066 72.5147 166.838 70.6125 168.832 68.9629C164.277 82.6197 159.534 96.0879 155.28 110.046C155.28 110.046 154.226 112.763 153.774 114.196C153.572 114.543 153.444 114.929 153.398 115.328C140.863 125.891 128.365 136.492 115.416 146.603C111.426 138.416 107.097 130.569 102.994 122.458C113.346 118.007 124.714 114.574 134.2 109.254C135.217 109.254 136.421 109.443 136.459 108.5C144.326 99.3323 161.868 76.3195 163.562 74.6218Z" fill="#5D5E5E"/>
<path fill-rule="evenodd" clip-rule="evenodd" d="M427.242 69.3408C429.162 69.3408 460.857 109.293 461.836 109.293C471.322 114.612 482.728 118.007 493.042 122.497C488.939 130.57 484.61 138.455 480.62 146.641C467.671 136.493 455.173 125.892 442.638 115.366C442.638 114.914 442.262 114.348 442.262 114.235C441.81 112.801 431.985 82.6958 427.242 69.3408Z" fill="#5D5E5E"/>
<path fill-rule="evenodd" clip-rule="evenodd" d="M317.404 107.067C310.628 109.934 304.869 113.857 298.206 116.875C291.167 114.121 285.633 109.858 278.632 107.067C284.278 98.3895 291.92 91.7121 297.83 83.3369C304.304 91.2971 311.569 98.465 317.404 107.067Z" fill="#212221"/>
<path fill-rule="evenodd" clip-rule="evenodd" d="M84.1973 138.718C80.433 132.795 77.6098 126.193 74.4102 119.855C79.0402 115.366 82.8045 109.405 87.5852 105.18C92.3851 110.343 96.9086 115.758 101.137 121.402C95.5278 127.212 90.3331 133.286 84.1973 138.718Z" fill="#5D5E5E"/>
<path fill-rule="evenodd" clip-rule="evenodd" d="M521.655 119.856C518.455 126.194 515.444 132.758 511.868 138.719C505.883 133.286 500.575 127.175 494.929 121.365C499.634 116.045 503.248 109.594 508.856 105.143C513.261 109.934 517.025 115.329 521.655 119.856Z" fill="#5D5E5E"/>
<path fill-rule="evenodd" clip-rule="evenodd" d="M191.98 114.989C174.413 129.375 156.42 143.321 138 156.827C142.894 143.246 148.126 130.004 153.057 116.498L191.98 114.989Z" fill="#5D5E5E"/>
<path fill-rule="evenodd" clip-rule="evenodd" d="M403.905 114.989L443.016 116.498C447.985 130.004 453.18 143.284 458.073 156.827C439.628 143.271 421.572 129.325 403.905 114.989Z" fill="#5D5E5E"/>
<path fill-rule="evenodd" clip-rule="evenodd" d="M218.33 155.318C225.218 152.564 232.257 149.923 238.657 146.641C234.489 152.097 229.687 157.036 224.352 161.354C219.12 166.183 213.737 171.125 208.919 176.067C208.919 179.613 211.177 196.062 211.177 199.457C210.876 199.457 205.531 189.761 205.531 189.648C201.08 181.826 197.058 173.766 193.485 165.504C194.765 165.064 196.021 164.561 197.25 163.995C201.014 162.561 218.33 155.318 218.33 155.318Z" fill="#212221"/>
<path fill-rule="evenodd" clip-rule="evenodd" d="M387.009 176.406C387.009 176.406 362.616 153.997 356.895 146.641C360.057 148.112 363.256 149.583 366.682 150.79C366.682 150.79 373.984 153.922 377.598 155.318C378.827 155.884 380.083 156.388 381.362 156.827C381.362 156.827 385.691 158.637 387.762 159.467C387.762 159.467 390.811 160.826 392.279 161.354C392.279 161.354 399.055 164.259 402.442 165.504C399.965 171.606 397.073 177.53 393.785 183.235C393.596 183.537 391.488 187.951 390.397 189.648C389.62 191.336 388.74 192.974 387.762 194.553C386.896 195.911 385.051 199.759 385.051 199.759C385.014 196.401 387.009 176.406 387.009 176.406Z" fill="#212221"/>
<path fill-rule="evenodd" clip-rule="evenodd" d="M479.908 148.15C494.514 162.41 509.721 177.614 523.16 193.006C514.163 187.083 505.468 178.821 496.81 173.766C503.849 200.551 513.749 226.582 522.369 252.99C523.917 256.659 525.175 260.443 526.134 264.308C526.924 269.929 525.72 277.21 526.51 283.171C525.88 287.17 525.88 291.244 526.51 295.243C526.209 300.827 526.962 305.354 526.887 310.711C526.26 315.721 526.26 320.791 526.887 325.801C527.903 334.969 522.784 339.458 518.605 344.664C508.969 356.661 498.052 366.772 488.491 377.071C489.168 369.186 492.255 363.603 492.631 355.567C493.271 354.926 494.476 306.108 493.761 295.206C495.078 276.795 496.17 258.159 496.019 238.277C492.029 220.395 480.962 188.894 480.962 188.894C480.699 177.802 479.795 147.735 479.908 148.15Z" fill="#5D5E5E"/>
<path fill-rule="evenodd" clip-rule="evenodd" d="M233.913 163.995C233.235 172.748 229.019 192.139 229.019 192.252C227.363 198.25 224.916 213.416 224.878 214.51C220.512 210.209 214.752 196.515 213.962 196.402C214.941 194.629 233.724 164.297 233.913 163.995Z" fill="#212221"/>
<path fill-rule="evenodd" clip-rule="evenodd" d="M361.79 163.995C362.317 163.995 374.212 183.084 374.212 183.235C376.621 187.008 378.692 191.045 381.364 194.553V194.93C379.344 202.095 375.885 208.77 371.201 214.548C371.163 213.416 363.446 173.54 361.79 163.995Z" fill="#212221"/>
<path fill-rule="evenodd" clip-rule="evenodd" d="M175.23 188.629C177.188 184.404 180.388 181.499 182.383 177.312C190.641 186.191 198.432 195.497 205.721 205.191C195.708 200.739 186.9 195.043 177.527 190.101C177.376 189.987 175.532 189.308 175.23 188.629Z" fill="#212221"/>
<path fill-rule="evenodd" clip-rule="evenodd" d="M412.939 177.312C416.155 180.782 418.821 184.726 420.844 189.007C410.229 194.062 401.157 200.664 390.015 205.229C397.807 195.91 405.26 186.441 412.939 177.312Z" fill="#212221"/>
<path fill-rule="evenodd" clip-rule="evenodd" d="M159.044 183.197C159.689 185.536 160.068 187.941 160.173 190.365C160.399 194.666 161.679 202.664 161.679 202.815C162.958 215.491 164.351 228.053 166.196 240.126V242.767C157.576 233.411 148.729 224.356 141.013 214.133C146.81 203.72 153.209 193.949 158.667 183.197H159.044Z" fill="#212221"/>
<path fill-rule="evenodd" clip-rule="evenodd" d="M436.996 183.197C443.056 193.459 448.891 203.947 455.064 214.095C447.31 224.281 438.464 233.373 429.844 242.729V240.088C432.178 223.828 434.06 207.116 435.867 190.327C435.939 187.912 436.318 185.516 436.996 183.197Z" fill="#212221"/>
<path fill-rule="evenodd" clip-rule="evenodd" d="M297.869 185.838C303.478 193.647 307.882 202.362 313.34 210.322C308.033 223.073 303.177 236.315 297.907 249.142C291.921 237.032 287.856 223.036 282.097 210.699C287.066 202.249 292.9 194.326 297.869 185.838Z" fill="#5D5E5E"/>
<path fill-rule="evenodd" clip-rule="evenodd" d="M112.927 260.875C108.937 253.028 104.383 245.785 100.129 238.24C104.119 220.395 109.54 203.947 114.057 186.593C116.037 191.631 117.672 196.799 118.95 202.06C120.418 206.889 123.806 212.473 123.844 217.528C123.302 221.125 122.42 224.662 121.209 228.091C118.687 238.692 115.45 251.255 113.304 260.875H112.927Z" fill="#212221"/>
<path fill-rule="evenodd" clip-rule="evenodd" d="M496.052 238.24C491.799 245.785 487.244 253.029 483.254 260.876C479.49 246.163 475.198 232.015 472.714 216.02C473.053 215.114 478.511 197.157 480.995 189.272V188.895C480.995 188.895 492.062 220.358 496.052 238.24Z" fill="#212221"/>
<path fill-rule="evenodd" clip-rule="evenodd" d="M273.021 280.077C272.677 280.383 272.418 280.773 272.268 281.209C271.666 281.209 271.628 280.87 271.139 280.832C262.82 260.498 252.318 242.502 244.789 221.263C259.846 230.43 273.925 240.578 288.417 250.274C283.524 260.309 277.953 269.929 273.021 280.077Z" fill="#212221"/>
<path fill-rule="evenodd" clip-rule="evenodd" d="M323.052 280.078C318.083 270.118 312.813 260.309 307.618 250.689C321.659 240.39 336.302 230.657 351.246 221.301C343.718 242.541 333.215 260.536 324.896 280.87C324.575 281.123 324.176 281.256 323.767 281.247C323.466 280.908 323.729 280.191 323.052 280.078Z" fill="#212221"/>
<path fill-rule="evenodd" clip-rule="evenodd" d="M209.824 238.239V240.126C208.506 241.182 208.167 242.766 204.93 242.389C203.946 241.496 203.285 240.302 203.048 238.994C203.876 236.315 204.102 232.995 206.812 232.203C208.958 233.109 208.544 236.504 209.824 238.239Z" fill="#212221"/>
<path fill-rule="evenodd" clip-rule="evenodd" d="M393.031 238.994C393.031 240.541 391.788 241.521 390.772 242.389C387.986 242.766 387.497 241.144 386.255 240.126V238.239C387.535 236.504 387.158 233.109 389.266 232.203C391.977 232.995 392.165 236.315 393.031 238.994Z" fill="#212221"/>
<path fill-rule="evenodd" clip-rule="evenodd" d="M58.985 234.467C55.7477 286.717 54.4302 339.043 52.6986 392.35C52.0664 391.589 51.301 390.95 50.4401 390.464C48.2944 388.841 31.3551 376.279 31.2422 374.996C32.1192 373.684 32.8752 372.295 33.5008 370.846C33.5008 370.356 36.4746 365.3 37.6415 362.924C38.8084 360.547 41.9704 353.794 42.9115 352.36C43.2126 351.417 45.8476 346.739 46.6758 345.192C48.9344 340.929 51.7576 335.271 53.715 330.706C53.715 330.706 32.5973 328.027 32.3715 327.499C35.9099 314.861 39.7118 302.411 42.9115 289.434C43.5832 288.284 43.9704 286.991 44.0408 285.661C45.1802 282.467 46.0614 279.187 46.6758 275.852C47.3474 274.703 47.7347 273.409 47.8051 272.08C49.0769 268.384 50.0832 264.602 50.8165 260.762C51.4868 259.612 51.874 258.319 51.9458 256.989C53.8656 250.764 55.7101 244.276 57.2158 237.749C58.0063 236.994 57.6675 234.882 58.985 234.467Z" fill="#5D5E5E"/>
<path fill-rule="evenodd" clip-rule="evenodd" d="M537.092 234.467C538.447 234.882 559.678 312.673 563.781 327.575C563.555 328.103 545.336 330.215 542.588 330.97L543.115 332.102C545.072 336.666 563.931 373.94 564.91 375.072C564.91 376.354 545.11 391.067 543.454 392.425C541.647 339.043 540.329 286.717 537.092 234.467Z" fill="#5D5E5E"/>
<path fill-rule="evenodd" clip-rule="evenodd" d="M140.253 236.353C150.266 237.522 157.117 241.823 166.189 243.898C163.102 255.517 159.376 266.533 156.026 277.851C163.446 282.622 171.238 286.785 179.327 290.301C174.681 296.63 169.519 302.561 163.893 308.032C158.435 296.714 151.96 285.811 145.824 274.079C143.54 270.521 141.647 266.727 140.178 262.761C138.371 254.499 140.743 245.935 140.253 236.353Z" fill="#212221"/>
<path fill-rule="evenodd" clip-rule="evenodd" d="M455.061 236.353C456.629 244.928 456.882 253.693 455.814 262.346C454.39 266.45 452.495 270.375 450.167 274.041C444.37 285.132 437.444 296.903 432.099 307.994C426.484 302.512 421.322 296.582 416.665 290.263C424.834 286.49 432.475 282.454 440.004 278.191C436.842 266.533 432.889 255.555 429.84 243.898C438.761 241.861 445.575 237.673 455.061 236.353Z" fill="#212221"/>
<path fill-rule="evenodd" clip-rule="evenodd" d="M100.012 238.239C104.266 245.784 108.821 253.028 112.811 260.875C113.639 261.667 112.623 261.931 112.811 263.138C109.423 273.928 103.588 282.265 102.271 295.168C100.916 276.757 99.8618 258.121 100.012 238.239Z" fill="#C9C9C9"/>
<path fill-rule="evenodd" clip-rule="evenodd" d="M496.059 238.239C496.059 258.121 495.118 276.757 493.801 295.168C492.521 282.228 486.648 273.928 483.26 263.138C483.449 261.969 482.432 261.667 483.26 260.875C487.251 253.028 491.805 245.784 496.059 238.239Z" fill="#C9C9C9"/>
<path fill-rule="evenodd" clip-rule="evenodd" d="M273.018 280.077C277.573 284.491 285.967 290.603 291.839 295.168C293.27 296.299 296.996 300.411 297.862 300.449C300.164 299.049 302.309 297.404 304.261 295.545C311.037 290.263 317.248 285.057 323.083 280.077C323.61 280.077 323.497 280.907 323.836 281.209C324.244 281.218 324.643 281.084 324.965 280.832C330.611 299.468 338.592 318.18 344.163 339.646C347.927 354.737 351.39 371.299 355.079 387.521C356.359 393.217 359.295 401.328 358.091 404.875C350.562 408.647 343.824 412.948 336.634 416.947C325.341 415.476 314.049 414.155 303.546 412.043C303.398 411.606 303.139 411.216 302.793 410.911C302.037 407.645 300.9 404.479 299.405 401.479L297.937 398.65L296.77 401.479C295.275 404.479 294.138 407.644 293.383 410.911C292.856 410.911 292.969 411.741 292.63 412.043C282.127 414.231 270.722 415.476 259.542 416.947H259.165C257.432 415.583 255.535 414.442 253.519 413.552C248.362 410.684 243.619 407.402 238.085 404.875C237.106 401.819 239.44 393.557 240.72 387.898C244.484 371.412 247.985 355.265 251.637 340.024C256.869 318.294 266.355 297.733 271.211 280.832C271.7 280.832 271.738 281.322 272.34 281.209C272.468 280.781 272.701 280.392 273.018 280.077Z" fill="#5D5E5E"/>
<path fill-rule="evenodd" clip-rule="evenodd" d="M69.5264 282.944C70.151 287.071 70.151 291.268 69.5264 295.394V282.944Z" fill="#C9C9C9"/>
<path fill-rule="evenodd" clip-rule="evenodd" d="M526.545 282.944V295.017C525.915 291.017 525.915 286.944 526.545 282.944Z" fill="#5D5E5E"/>
<path fill-rule="evenodd" clip-rule="evenodd" d="M69.1465 310.598C69.7758 315.734 69.7758 320.929 69.1465 326.065V310.598Z" fill="#5D5E5E"/>
<path fill-rule="evenodd" clip-rule="evenodd" d="M527.007 310.598V325.688C526.381 320.678 526.381 315.608 527.007 310.598Z" fill="#5D5E5E"/>
<path fill-rule="evenodd" clip-rule="evenodd" d="M177.86 378.844C175.413 377.75 172.741 376.957 170.331 375.826C163.368 379.296 158.323 384.654 151.886 388.652C152.715 390.992 165.739 451.542 166.191 454.258C161.485 447.694 157.571 442.714 153.016 436.149C151.944 433.909 150.684 431.764 149.251 429.736C145.487 425.963 138.26 424.417 133.441 421.814C128.285 419.247 123.371 416.216 118.761 412.759C126.063 399.103 133.517 385.597 140.594 371.676C152.639 362.395 166.53 354.926 178.952 346.06C178.952 346.06 199.806 332.78 210.534 326.442C200.973 343.721 187.948 360.811 177.86 378.844Z" fill="#212221"/>
<path fill-rule="evenodd" clip-rule="evenodd" d="M414.826 344.551C417.057 346.399 419.451 348.041 421.978 349.456C421.978 349.456 452.469 367.753 455.856 372.091C457.859 375.353 459.621 378.757 461.126 382.277C466.547 392.576 471.968 403.215 477.313 412.797C467.928 419.103 457.987 424.533 447.613 429.02C441.816 437.508 436.32 446.185 429.92 454.296C430.335 451.58 444.225 389.068 444.225 389.068C442.794 387.596 430.711 378.731 426.156 375.864C423.408 376.769 420.849 377.825 418.251 378.882C407.862 360.773 395.929 344.212 385.163 326.48C395.59 331.988 404.512 338.93 414.826 344.551Z" fill="#212221"/>
<path fill-rule="evenodd" clip-rule="evenodd" d="M102.649 328.216V333.497C102.014 331.794 102.014 329.919 102.649 328.216Z" fill="#5D5E5E"/>
<path fill-rule="evenodd" clip-rule="evenodd" d="M103.026 343.307V351.984C102.399 349.126 102.399 346.165 103.026 343.307Z" fill="#5D5E5E"/>
<path fill-rule="evenodd" clip-rule="evenodd" d="M344.846 44.8565C339.625 43.9781 334.317 43.7248 329.036 44.102L344.846 44.8565Z" fill="#212221"/>
<path fill-rule="evenodd" clip-rule="evenodd" d="M250.853 44.8564C242.542 46.9907 234.37 49.6366 226.385 52.7789L250.853 44.8564Z" fill="#212221"/>
<path fill-rule="evenodd" clip-rule="evenodd" d="M141.008 41.4987C139.239 61.4557 136.302 88.3543 135.738 105.972C135.738 106.878 135.06 109.141 136.491 108.613C136.491 109.594 135.248 109.368 134.232 109.368C124.671 104.501 114.244 100.502 104.532 95.7863C98.8926 99.1798 92.9736 102.083 86.8397 104.463C80.8634 83.0443 73.5719 62.016 65.0068 41.4987C65.0068 40.8573 65.308 40.7819 65.7597 40.7441C79.4993 57.9849 91.4321 77.0742 105.398 94.315C105.398 82.0163 105.398 67.0769 105.398 53.6087C92.6367 48.9307 79.0476 45.1204 66.2867 40.4046C96.401 38.4429 118.987 28.7473 141.874 19.6553L142.325 19.3535C142.325 19.3535 142.325 19.8062 142.325 19.3535C143.041 20.5607 141.535 35.5757 141.008 41.4987Z" fill="#C9C9C9"/>
<path fill-rule="evenodd" clip-rule="evenodd" d="M83.4617 24.8618C86.3217 22.0702 89.7619 19.9464 93.5361 18.642C97.3104 17.3377 101.326 16.8851 105.295 17.3167L121.857 17.6939L134.656 18.0712C135.898 18.0712 141.545 18.8257 142.185 18.8257H138.42L127.88 19.5802C126.375 19.8066 121.97 19.9575 121.481 19.9575C120.201 20.1838 116.324 20.3347 115.835 20.3347C114.555 20.5611 111.204 20.712 110.941 20.712C105.871 20.8252 100.826 21.4573 95.8838 22.5983C87.5271 27.0499 74.3145 35.6892 66.1836 40.3295C66.1836 40.0277 71.83 35.8024 71.83 35.8024L83.4617 24.8618Z" fill="#5D5E5E"/>
<path fill-rule="evenodd" clip-rule="evenodd" d="M459.576 98.0872C457.505 73.5276 456.489 49.4961 453.553 25.6911C453.553 24.3707 453.553 18.9004 453.553 18.9004C475.687 29.0109 499.214 38.4424 529.892 40.0269C517.734 45.4217 503.542 48.7039 490.782 53.6083C490.782 67.0764 490.782 82.0159 490.782 94.3146C504.484 76.772 517.131 58.2108 530.269 40.0269C530.57 40.0269 530.645 40.4042 531.022 40.4042V41.4982C522.453 62.0142 515.162 83.0428 509.189 104.463C503.068 102.052 497.152 99.1504 491.497 95.7859C481.747 100.502 471.358 104.501 461.797 109.367C460.855 109.405 459.877 101.633 459.576 98.0872Z" fill="#C9C9C9"/>
<path fill-rule="evenodd" clip-rule="evenodd" d="M276.411 54.2884V53.9111C284.467 61.4563 289.925 71.1896 297.905 78.7725C305.434 70.7746 311.796 61.4186 319.663 53.9111V54.2884C319.663 57.1933 319.663 68.0961 319.663 70.5106C346.013 85.8273 374.132 99.3709 400.896 114.235C374.998 112.537 347.519 109.18 320.792 107.067C328.622 114.046 340.893 119.856 350.116 126.685C350.116 127.401 347.519 132.004 347.105 133.475C346.27 135.071 345.516 136.708 344.846 138.38C341.082 145.925 333.553 161.883 333.553 161.392C327.681 143.774 323.766 124.195 317.367 107.105C311.532 98.5032 304.267 91.3353 297.792 83.3751C291.882 91.788 284.241 98.4655 278.594 107.105C272.195 124.081 268.469 143.699 262.408 161.015C262.145 162.034 262.408 163.241 261.655 161.77C258.531 153.583 254.804 146.038 251.115 138.417C250.701 136.946 248.894 134.003 248.857 133.513C248.443 132.042 245.996 127.439 245.845 126.722C255.595 119.894 266.361 114.084 275.959 107.105C248.744 109.368 221.98 112.047 195.103 114.65C221.453 99.1823 250.099 86.0536 276.336 70.5483C276.678 65.1345 276.704 59.7052 276.411 54.2884Z" fill="#5D5E5E"/>
<path fill-rule="evenodd" clip-rule="evenodd" d="M319.664 70.5099C331.522 71.0758 337.093 65.3415 348.611 65.6055H348.988C355.425 68.3218 360.281 74.5089 365.551 79.5641C377.295 90.5424 389.567 103.105 402.027 113.103C400.822 108.387 397.472 91.0328 396.757 88.6184C400.897 84.8458 404.662 80.4318 408.802 76.5461C412.567 80.0169 417.837 83.8272 419.719 87.8639C411.889 87.5621 405.151 88.3543 397.547 88.2411C412.132 98.0502 427.209 107.104 442.719 115.366C455.254 125.892 467.751 136.53 480.7 146.641C484.69 138.454 489.019 130.607 493.122 122.496C482.808 118.007 471.365 114.649 461.917 109.292C471.478 104.426 481.905 100.427 491.617 95.7109C497.272 99.0753 503.188 101.977 509.309 104.388C515.746 103.784 522.86 101.898 528.507 101.747C526.474 108.01 524.027 113.857 521.731 119.855C517.101 115.328 513.374 109.896 508.932 105.142C503.361 109.594 499.71 116.007 495.005 121.365C500.613 127.174 505.921 133.286 511.944 138.718C511.003 140.416 569.349 204.852 570.253 205.456C540.628 188.63 510.852 166.485 480.738 148.867C480.738 148.452 479.985 148.603 479.985 148.112C479.345 148.112 456.27 159.656 444.638 164.712C444.638 164.712 444.638 164.712 438.992 166.975C435.425 168.433 431.781 169.692 428.076 170.748C425.742 166.07 413.018 137.7 413.018 137.587C412.349 135.915 411.595 134.278 410.76 132.682C408.2 126.571 405.377 120.723 402.478 114.951C399.768 115.517 394.348 116.837 394.197 116.837C382.302 119.252 358.963 124.76 358.85 124.76C355.918 125.152 353.022 125.783 350.192 126.646C340.97 119.818 328.698 114.008 320.869 107.029C347.633 109.141 375.074 112.499 400.973 114.197C374.133 99.3326 346.014 85.7889 319.664 70.5099ZM458.077 156.827C453.183 143.246 447.989 130.004 443.02 116.498L403.909 114.989C421.526 129.35 439.582 143.296 458.077 156.827Z" fill="#212221"/>
<path fill-rule="evenodd" clip-rule="evenodd" d="M331.713 165.504C331.713 165.504 321.474 192.214 315.903 205.079C314.736 193.761 314.246 182.104 314.021 170.031C319.968 167.202 327.497 164.033 333.595 161.354L331.713 165.504Z" fill="#212221"/>
<path fill-rule="evenodd" clip-rule="evenodd" d="M262.108 162.485C269.035 165.164 276.149 167.163 282.059 170.031C282.059 182.216 280.892 193.232 280.553 205.078C274.305 192.742 270.804 177.651 264.367 165.503L262.108 162.485Z" fill="#212221"/>
<path fill-rule="evenodd" clip-rule="evenodd" d="M239.934 258.989C232.406 243.672 222.694 230.317 205.717 224.318L239.934 258.989Z" fill="#C9C9C9"/>
<path fill-rule="evenodd" clip-rule="evenodd" d="M112.401 474.63C112.401 474.63 123.919 494.134 129.716 503.301C143.456 496.322 177.598 478.025 178.238 478.025C178.238 474.931 171.839 410.118 170.71 376.618C163.181 379.107 158.927 385.181 152.265 388.69C152.829 391.104 152.716 391.029 151.888 388.69C158.325 384.691 163.369 379.334 170.333 375.863C172.742 376.995 175.415 377.787 177.862 378.881C193.333 375.788 209.143 373.034 224.878 370.204C219.683 350.398 208.842 328.706 215.467 305.353C216.645 302.653 217.651 299.881 218.478 297.054C218.478 293.696 208.051 285.736 206.056 283.095L195.29 272.456C197.958 271.776 200.753 271.776 203.421 272.456C215.091 275.286 218.855 286.264 227.136 293.96C229.131 289.81 230.261 287.207 233.197 281.246L235.794 285.283C237.563 277.474 243.323 267.363 239.935 259.29C240.914 259.818 240.989 261.252 241.441 262.308C245.393 260.648 249.684 259.252 253.863 257.781C251.303 248.236 249.496 238.012 247.087 229.147C246.297 226.317 244.301 223.903 244.452 220.847C245.554 215.827 247.065 210.906 248.969 206.134C253.298 191.647 258.229 177.349 262.144 162.41L264.403 165.428C270.84 177.575 274.341 192.666 280.589 205.002C280.928 193.156 282.095 182.14 282.095 169.955C276.185 167.088 268.468 164.9 262.144 162.41C262.144 161.655 262.144 161.919 262.521 160.901C268.581 143.584 272.308 123.967 278.707 106.99C285.709 109.782 291.242 114.045 298.281 116.799C304.907 113.781 310.666 109.857 317.479 106.99C323.879 124.08 327.756 143.66 333.666 161.278C333.666 161.278 320.039 167.088 314.091 169.955C314.317 182.027 314.807 193.873 315.974 205.002C321.545 192.1 325.535 177.651 331.784 165.428L333.666 161.278C337.43 175.463 342.7 191.459 347.217 206.889C348.572 211.453 351.772 217.603 351.734 221.602C351.734 224.318 349.739 226.732 349.099 229.147C346.652 238.126 344.996 248.01 342.324 257.781C346.464 259.29 350.831 260.573 354.746 262.308C355.197 261.252 355.273 259.818 356.251 259.29C352.713 267.514 358.999 276.87 360.016 285.283C360.88 283.92 361.89 282.655 363.027 281.51C365.625 285.283 366.34 290.753 369.803 293.583C377.971 284.566 383.957 270.947 401.084 272.192L377.708 296.601C389.001 319.538 378.047 349.417 371.309 369.751C386.366 373.335 402.966 375.486 418.325 378.806C420.922 377.787 423.482 376.693 426.23 375.788C426.23 376.127 417.459 477.949 417.948 477.949C431.801 488.06 450.472 494.888 466.093 503.226C472.53 494.7 483.71 473.988 483.786 474.554C492.556 466.632 503.887 455.917 514.239 447.806C519.81 459.124 524.892 471.046 530.425 482.477C535.018 454.673 541.492 396.461 543.6 392.387C543.6 392.387 559.147 425.284 568.068 440.261C567.127 428.378 567.24 411.816 566.562 396.537C566.261 390.123 564.944 376.316 565.057 375.033C564.04 373.901 563.701 328.064 563.927 327.536C573.263 327.876 581.243 326.782 590.277 326.782C582.109 311.993 573.827 297.091 565.471 282.303C557.114 267.514 538.293 234.919 537.05 234.504C523.624 214.383 510.211 194.15 496.81 173.803C505.468 178.858 514.126 187.082 523.16 193.043C509.722 177.613 495.229 163.202 480.661 148.941C510.776 166.522 568.971 204.436 570.176 205.53C573.639 225.978 578.156 245.784 582.598 265.892C588.395 292.3 597.655 313.087 595.773 345.418C594.983 358.094 591.745 371.11 590.127 384.238C588.508 397.367 586.363 411.363 585.61 424.19C584.932 434.716 585.384 447.769 581.469 453.956C577.554 460.143 567.278 467.348 561.142 472.819C547.351 485.435 532.36 496.668 516.384 506.357C507.087 512.016 498.429 521.749 485.178 521.825C474.224 521.825 462.856 518.807 451.3 517.675C445.616 517.109 439.63 516.694 433.608 516.166C427.585 515.638 413.807 514.657 413.807 514.657C413.807 514.657 417.007 490.361 417.798 478.1C410.645 483.759 403.945 492.134 397.094 498.095C381.096 498.472 366.264 505.64 351.584 504.508C332.461 502.924 320.302 489.229 301.594 487.041C301.105 483.269 300.126 479.949 299.712 476.101C301.553 477.94 303.659 479.492 305.961 480.703C307.938 482.017 310.149 482.939 312.473 483.42C325.383 487.791 337.963 493.086 350.116 499.265C353.818 496.002 356.992 492.184 359.526 487.947C375.985 490.035 392.627 485.862 406.166 476.252C396.002 478.1 388.06 482.212 377.971 484.174C376.727 484.387 375.469 484.513 374.207 484.551C359.15 484.136 341.91 485.985 330.579 481.911C333.854 482.137 338.597 483.797 343.754 484.174C350.126 485.005 356.579 485.005 362.952 484.174C366.98 483.005 368.071 477.836 367.845 473.611C358.096 473.196 344.356 473.611 333.628 472.856C371.647 475.007 405.15 472.856 417.12 448.75C400.181 456.634 385.387 466.707 361.446 467.612C362.613 466.783 364.909 467.047 366.34 466.481C359.15 446.826 372.476 431.547 378.385 417.852C375.412 415.09 372.127 412.684 368.598 410.684C365.549 408.685 361.07 404.912 358.058 405.025C359.263 401.517 356.327 393.368 355.047 387.671C351.283 371.449 348.008 354.736 344.13 339.797C338.597 318.331 330.579 299.619 324.97 280.982C333.252 260.648 343.792 242.653 351.32 221.413C336.263 230.807 321.733 240.54 307.692 250.802C312.887 260.573 318.157 270.23 323.126 280.19C317.291 285.132 311.08 290.376 304.304 295.658C302.352 297.517 300.207 299.161 297.905 300.562C297.077 300.562 293.313 296.412 291.882 295.28C286.01 290.716 277.653 284.604 273.061 280.19C277.992 270.042 283.563 260.535 288.494 250.424C273.926 240.616 259.735 230.505 244.678 221.3C252.206 242.54 262.709 260.535 271.028 280.869C266.21 297.77 256.648 318.595 251.454 340.061C247.689 355.151 237.338 401.818 237.902 404.912C234.364 405.138 230.788 408.345 227.362 410.571C223.937 412.797 220.586 415.023 217.575 417.362C223.184 431.471 236.886 446.486 229.621 466.405C239.935 468.518 251.152 469.725 261.58 471.687C245.431 468.669 229.997 468.518 215.316 464.896C201.614 461.539 190.209 453.163 178.464 448.674C186.482 461.803 200.636 470.593 219.457 472.441C231.992 473.686 246.447 472.441 262.332 472.819C251.717 473.498 238.09 473.158 228.454 473.573C227.961 475.547 228.095 477.625 228.837 479.519C229.579 481.413 230.893 483.027 232.595 484.136C248.969 485.457 262.709 482.062 274.717 480.364C272.046 481.906 269.109 482.93 266.059 483.382C268.129 482.175 271.254 482.024 273.211 480.741C258.643 484.514 240.612 485.004 221.678 484.514L112.401 474.63ZM217.914 484.136C207.938 482.477 199.092 477.421 189.719 476.591C201.539 483.684 218.027 491.003 236.359 487.909C238.947 492.002 241.977 495.798 245.393 499.227C258.229 494.209 271.028 488.173 283.563 482.892C287.573 481.774 291.313 479.848 294.555 477.233C295.609 476.365 295.571 476.214 295.571 476.214C295.211 479.865 294.582 483.484 293.689 487.041C273.512 489.682 260.187 506.206 236.509 504.395C223.41 503.377 213.02 498.171 198.565 497.831C191.752 491.87 185.353 483.684 178.238 477.987C179.029 490.248 180.497 502.735 181.024 515.298C181.024 515.298 168.489 515.524 162.428 516.09L145.112 517.599C130.846 518.92 118.762 522.655 105.249 521.372L103.366 520.995C94.7086 518.731 86.6153 510.582 78.8985 505.904C62.7833 496.135 47.7869 484.623 34.1788 471.574C27.7418 465.688 17.4277 459.916 13.8516 452.711C10.2755 445.505 11.0284 433.848 10.4637 424.831C9.6356 411.325 7.56524 397.933 5.9466 384.502C3.76331 365.375 -1.31849 348.323 0.30016 325.725C1.76823 305.58 9.1086 285.698 13.4752 265.779C17.9923 245.218 22.5848 225.412 25.8973 205.493C27.1019 204.436 85.2225 166.824 115.412 148.904C100.355 163.353 86.0507 178.556 71.784 193.76C81.3077 187.724 90.1914 179.047 99.2257 173.765C85.9001 194.099 72.3863 214.207 58.9854 234.466C57.6303 234.881 57.9691 236.994 57.1033 237.862C38.9594 266.307 23.2247 297.016 5.9466 326.442C14.7016 327.317 23.499 327.695 32.2966 327.574C32.2966 327.574 32.2966 373.939 31.1673 375.071C31.1673 376.353 30.0757 393.934 29.6616 403.328C29.1346 415.4 29.097 428.528 27.7795 440.261C37.2655 425.774 44.38 408.873 52.5862 393.142V392.349C54.6565 396.424 56.0869 397.254 54.0166 395.066C57.2539 422.719 61.5452 454.031 65.3095 482.439C71.4452 471.498 76.0753 459.049 81.8723 447.769C87.8952 451.805 96.9295 460.86 104.458 467.386C105.813 468.593 111.987 473.347 112.363 474.554L217.914 484.136ZM537.05 234.504C542.509 232.693 546.499 225.412 550.978 221.3C543.45 212.359 534.942 204.172 526.924 195.684C529.371 209.265 534.265 220.998 537.05 234.504ZM409.064 401.894C409.18 407.205 409.683 412.501 410.57 417.739C411.549 413.551 412.753 409.59 413.582 405.289C412.528 403.931 410.645 401.63 409.177 401.856L409.064 401.894ZM365.436 447.165C373.321 446.401 380.943 443.914 387.765 439.879C394.587 435.844 400.444 430.36 404.924 423.813C390.703 429.554 377.428 437.414 365.549 447.127L365.436 447.165ZM382.376 457.351C388.737 456.068 393.668 453.578 400.068 452.069C402.515 445.845 406.956 439.62 409.102 434.338C401.498 443.204 393.857 452.107 382.451 457.276L382.376 457.351ZM45.1705 221.677C49.9511 225.45 53.5272 232.127 59.0984 233.749C61.2064 220.13 67.4174 208.662 68.8855 195.684C61.2817 204.776 52.1721 212.208 45.1705 221.677ZM185.842 417.852C186.068 412.419 186.896 407.591 186.971 402.007C179.932 402.422 183.772 412.684 185.767 417.701L185.842 417.852ZM230.599 446.863C218.253 438.752 206.244 428.302 190.736 424.643C200.824 434.791 212.493 445.581 230.524 446.75L230.599 446.863ZM195.742 452.032C201.953 453.088 207.637 456.672 213.434 456.936C201.389 452.786 194.312 441.846 186.369 434.678C189.938 440.21 193.072 446.012 195.742 452.032ZM282.321 210.586C288.08 222.922 291.807 236.994 297.792 249.028C303.024 236.202 307.88 222.96 313.226 210.208C307.767 202.211 304.492 196.476 297.754 185.724C292.861 194.364 287.365 202.286 282.321 210.737V210.586Z" fill="#C9C9C9"/>
<path fill-rule="evenodd" clip-rule="evenodd" d="M69.5279 282.945C69.3203 276.781 69.446 270.61 69.9044 264.459C70.8078 257.48 75.0991 248.916 77.433 241.824C82.6277 226.054 87.446 212.398 92.4901 196.553C95.2855 189.051 97.5497 181.361 99.2659 173.54C90.2316 178.821 81.3102 187.461 71.8242 193.535C86.1285 178.444 100.395 163.09 115.452 148.678C115.452 148.15 116.28 148.263 116.582 147.924C122.858 151.669 129.4 154.948 136.156 157.733C136.156 158.223 135.667 158.261 135.779 158.864C132.279 177.086 128.552 195.119 125.616 213.907V214.963C130.547 210.247 130.547 210.247 133.144 207.418C134.198 206.437 134.876 205.116 136.156 204.4L147.825 192.705C151.219 189.829 154.367 186.675 157.236 183.273C158.139 183.273 157.951 181.953 159.118 182.141V182.896H158.742C153.208 193.95 146.809 203.721 141.012 214.095C148.729 224.319 157.612 233.411 166.195 242.729C166.383 243.295 166.76 243.672 166.948 244.238C180.123 257.141 192.545 269.666 206.059 283.058C208.43 285.397 219.309 293.395 218.481 297.017C218.067 298.865 216.109 302.978 215.469 305.317C208.844 328.82 219.648 350.324 224.88 370.168C209.108 372.959 193.335 375.751 177.864 378.844C187.953 360.811 201.015 343.722 210.576 326.443C199.848 332.781 181.741 344.401 181.741 344.401C163.447 334.969 142.179 327.726 123.696 318.521C119.932 299.997 117.033 280.795 112.78 263.101C112.591 261.932 113.608 261.63 112.78 260.838H113.156C115.264 251.18 118.539 238.655 121.061 228.054C122.272 224.624 123.154 221.087 123.696 217.491C123.696 212.435 120.271 206.852 118.803 202.023C117.525 196.761 115.89 191.593 113.909 186.555C109.429 203.909 103.971 220.509 99.9811 238.202C99.9811 258.084 100.922 276.72 102.24 295.131C101.562 306.222 102.24 316.898 102.616 328.292C101.981 329.995 101.981 331.87 102.616 333.573C102.43 336.847 102.556 340.132 102.992 343.382C102.365 346.24 102.365 349.201 102.992 352.059C102.992 353.229 102.729 354.813 103.369 355.454C103.934 363.415 106.794 369.111 107.51 376.958C98.1742 366.621 87.0319 356.737 77.3953 344.929C73.1793 339.76 68.4363 334.931 69.1139 326.066C69.7432 320.929 69.7432 315.735 69.1139 310.598C69.1139 305.354 69.7914 300.978 69.4903 295.508L69.5279 282.945ZM140.221 262.724C141.69 266.69 143.583 270.485 145.868 274.042C152.004 285.775 158.478 296.677 163.936 307.995C169.562 302.524 174.725 296.593 179.37 290.264C171.282 286.748 163.49 282.585 156.069 277.814C159.382 266.497 163.146 255.518 166.233 243.861C157.123 241.786 150.272 237.485 140.297 236.316C140.748 245.936 138.377 254.5 140.259 262.762L140.221 262.724Z" fill="#5D5E5E"/>
<path fill-rule="evenodd" clip-rule="evenodd" d="M390.015 205.078C401.308 200.551 410.229 193.761 420.844 188.856C418.821 184.576 416.155 180.632 412.939 177.161C405.26 186.442 397.807 195.911 390.015 205.078Z" fill="#212221"/>
<path fill-rule="evenodd" clip-rule="evenodd" d="M186.516 243.898H190.28C193.216 240.126 195.098 235.41 199.691 233.335C199.691 235.146 197.733 237.108 198.561 238.617C196.98 242.766 200.029 248.312 200.443 252.953C195.851 251.368 194.496 246.615 191.033 243.898C190.318 244.577 188.548 244.162 187.268 244.276C187.833 246.464 187.645 247.03 186.516 243.898Z" fill="#C9C9C9"/>
<path fill-rule="evenodd" clip-rule="evenodd" d="M219.609 253.707C219.948 253.028 220.513 252.613 220.738 251.821C220.964 251.029 221.491 250.312 221.868 249.557C219.195 244.464 216.184 239.673 209.822 238.239C208.542 236.504 208.919 233.109 206.811 232.203C204.1 232.995 203.874 236.315 203.046 238.994C202.181 238.994 202.82 237.334 203.046 237.108C202.444 237.108 201.616 237.108 201.541 237.485C200.073 237.485 199.583 238.277 198.529 238.617C197.701 237.145 199.583 235.146 199.658 233.335C195.066 235.372 193.184 240.163 190.248 243.898H186.483C186.822 233.863 191.377 225.45 199.282 224.658C210.086 223.602 214.603 236.504 222.997 238.617C222.094 243.974 223.599 251.519 219.609 253.707Z" fill="#5D5E5E"/>
<path fill-rule="evenodd" clip-rule="evenodd" d="M409.551 243.899H405.41C403.39 239.532 400.278 235.764 396.376 232.958C396.376 235.071 398.371 236.957 397.505 238.617C396.451 238.277 395.962 237.41 394.493 237.485C392.687 236.052 393.665 238.24 392.988 238.994C392.16 236.316 391.934 232.996 389.223 232.204C387.115 233.109 387.492 236.504 386.212 238.24C379.888 239.56 377.14 244.465 374.166 249.18C374.166 250.35 374.995 250.878 375.296 251.821C375.728 252.414 376.106 253.046 376.425 253.707C372.661 251.519 373.79 244.012 373.037 238.617C381.394 236.542 385.572 223.904 396.376 224.658C404.431 225.224 409.249 233.637 409.551 243.899Z" fill="#5D5E5E"/>
<path fill-rule="evenodd" clip-rule="evenodd" d="M377.967 230.694C387.716 223.149 404.994 220.169 421.595 222.772C425.359 220.093 427.43 214.057 431.006 212.586C430.115 216.04 429.61 219.583 429.5 223.149C424.23 226.167 418.207 228.582 415.572 234.09C415.949 242.163 416.212 247.973 412.9 252.311C412.9 252.311 411.808 253.594 411.808 253.707C407.507 258.634 401.67 261.958 395.245 263.139H394.869C387.964 263.806 381.002 263.552 374.165 262.384C368.669 269.326 365.432 278.531 359.861 285.359C358.844 276.946 352.558 267.553 356.096 259.366V258.989C361.084 248.101 368.41 238.452 377.553 230.732L377.967 230.694ZM401.268 252.575C402.621 251.83 403.884 250.932 405.032 249.897C407.039 248.305 408.629 246.246 409.662 243.898C409.361 233.637 404.505 225.224 396.487 224.658C385.684 223.904 381.43 236.542 373.149 238.617C373.901 244.012 372.584 251.481 376.536 253.707C380.575 256.231 385.4 257.171 390.088 256.348H390.464C394.339 256.088 398.071 254.785 401.268 252.575Z" fill="#212221"/>
<path fill-rule="evenodd" clip-rule="evenodd" d="M409.178 244.276C400.671 243.182 401.65 251.557 395.627 252.953C396.041 248.313 399.09 242.767 397.509 238.617C398.375 236.957 396.267 235.071 396.38 232.958C400.282 235.763 403.394 239.532 405.414 243.899H409.555C408.124 247.105 407.372 246.841 409.178 244.276Z" fill="#C9C9C9"/>
<path fill-rule="evenodd" clip-rule="evenodd" d="M200.824 263.138C187.386 260.158 178.916 252.16 180.497 234.127C177.824 228.393 171.35 226.582 166.569 222.809C166.361 219.252 165.857 215.719 165.063 212.246C169.43 213.868 170.446 221.753 174.851 222.809C176.757 222.795 178.654 222.541 180.497 222.055C188.846 221.459 197.236 222.224 205.341 224.318H205.718C222.695 230.317 232.294 243.672 239.935 258.989V259.366C243.285 267.477 237.564 277.587 235.795 285.359C232.498 280.428 229.482 275.314 226.76 270.042C226.76 270.042 224.878 267.024 224.878 266.911C223.786 265.364 223.184 263.138 221.49 262.384C214.782 263.575 207.941 263.829 201.163 263.138H200.824ZM210.047 256.876L210.8 256.536C213.947 256.634 217.018 255.559 219.42 253.518C223.41 251.33 221.98 243.785 222.808 238.428C214.451 236.315 209.934 223.338 199.093 224.469C191.225 225.262 186.633 233.674 186.294 243.71C188.9 247.65 192.417 250.902 196.546 253.187C200.675 255.473 205.293 256.726 210.009 256.838L210.047 256.876Z" fill="#212221"/>
<path fill-rule="evenodd" clip-rule="evenodd" d="M99.2617 173.766C97.5455 181.587 95.2813 189.277 92.4859 196.778C87.4418 212.586 82.6611 226.242 77.4288 242.05C75.0949 249.142 70.8036 257.668 69.9002 264.685C69.4418 270.836 69.3161 277.007 69.5237 283.171V295.621C69.8249 301.053 69.0344 305.429 69.1473 310.711V326.179C68.4697 335.044 73.2128 339.835 77.4288 345.042C87.0277 356.887 98.2077 366.734 107.543 377.071C107.543 378.165 108.409 378.24 108.296 379.334H107.92C98.7723 401.178 91.5072 424.945 81.2307 445.694C81.2307 445.694 79.3486 442.79 79.3486 442.676C77.09 437.923 74.455 433.509 72.1964 428.718C71.3306 426.907 62.8609 410.798 59.0214 404.95C59.0214 404.95 54.6924 396.575 52.6221 392.501C54.4289 339.156 55.7464 286.868 59.0214 234.542C72.4223 214.246 85.9361 194.1 99.2617 173.766Z" fill="#212221"/>
<path fill-rule="evenodd" clip-rule="evenodd" d="M526.547 282.945C525.757 277.022 526.961 269.741 526.171 264.082C525.212 260.217 523.953 256.433 522.406 252.765C513.786 226.356 503.886 200.401 496.847 173.54C510.223 193.811 523.636 214.045 537.087 234.241C540.362 286.454 541.68 338.817 543.486 392.2C541.416 396.274 539.12 400.122 537.087 404.272C537.087 404.272 515.179 445.242 514.915 445.356C504.413 424.682 488.565 377.864 488.565 376.732C498.127 366.433 509.043 356.322 518.68 344.325C522.858 339.119 527.978 334.668 526.961 325.462V310.372C526.961 305.015 526.284 300.488 526.585 294.904L526.547 282.945Z" fill="#212221"/>
<path fill-rule="evenodd" clip-rule="evenodd" d="M493.797 295.168C494.513 305.996 493.308 354.851 492.668 355.53C480.058 359.717 467.222 365.716 455.439 369.488C456.117 366.772 460.145 359.152 460.709 357.416C460.709 357.416 462.817 352.889 463.721 350.625C463.721 350.625 466.092 344.816 467.109 341.948C460.898 341.948 443.921 343.08 443.431 343.08C433.494 343.08 424.346 344.212 414.86 344.589C433.155 335.158 453.896 327.801 472.416 318.596C476.181 300.073 479.079 278.757 483.333 260.913C486.683 271.627 492.555 282.228 493.797 295.168Z" fill="#212221"/>
<path fill-rule="evenodd" clip-rule="evenodd" d="M102.65 328.216C102.236 316.898 101.596 306.146 102.274 295.055C103.554 282.152 109.388 273.815 112.814 263.025C117.068 280.908 120.117 299.921 123.73 318.445C142.251 327.65 163.481 334.893 181.776 344.325C179.931 344.325 176.016 343.721 176.016 343.721C167.998 343.721 135.136 341.986 129 341.835C132.388 350.135 137.658 362.056 137.658 362.207C141.084 370.771 141.084 370.771 140.293 369.752C128.323 364.697 115.938 359.981 103.441 355.416C102.801 354.775 103.14 353.19 103.064 352.021V343.306C102.628 340.056 102.502 336.772 102.688 333.498L102.65 328.216Z" fill="#212221"/>
<path fill-rule="evenodd" clip-rule="evenodd" d="M436.994 183.197C436.994 183.197 445.238 190.29 448.287 193.006C452.026 197.055 455.916 200.954 459.956 204.701C464.398 208.474 466.958 213.755 472.755 216.019C475.239 232.015 479.531 246.2 483.295 260.875C483.295 260.875 475.992 300.035 472.378 318.558C453.18 328.103 433.117 335.12 414.822 344.551C404.508 338.93 395.587 331.913 385.122 326.443C395.926 344.174 407.708 360.736 418.21 378.844C402.777 375.524 386.327 373.487 371.194 369.714C377.97 349.342 388.886 319.501 377.594 296.601C393.855 277.739 412.564 261.554 429.503 243.446C429.503 243.068 429.804 242.993 429.88 242.691C438.462 233.335 447.346 224.243 455.1 214.057C448.927 203.947 443.092 193.459 436.994 183.197ZM429.842 243.898C432.891 255.669 436.843 266.534 440.006 278.191C432.477 282.454 424.948 286.642 416.667 290.264C421.324 296.583 426.486 302.513 432.101 307.995C437.408 296.903 444.334 285.359 450.169 274.041C452.497 270.375 454.392 266.451 455.815 262.346C456.884 253.694 456.631 244.929 455.063 236.353C445.577 237.674 438.763 241.861 429.88 243.898H429.842Z" fill="#5D5E5E"/>
</svg>
